solid OpenSCAD_Model
  facet normal -1 0 0
    outer loop
      vertex -15 -10 0
      vertex -15 10 7
      vertex -15 10 0
    endloop
  endfacet
  facet normal -1 -0 0
    outer loop
      vertex -15 10 7
      vertex -15 -10 0
      vertex -15 -10 7
    endloop
  endfacet
  facet normal -0.99803 -0.0627451 0
    outer loop
      vertex -14.9606 -10.6267 0
      vertex -15 -10 7
      vertex -15 -10 0
    endloop
  endfacet
  facet normal -0.99803 -0.0627451 0
    outer loop
      vertex -15 -10 7
      vertex -14.9606 -10.6267 0
      vertex -14.9606 -10.6267 7
    endloop
  endfacet
  facet normal -0 0 1
    outer loop
      vertex 13.6429 10.0434 7
      vertex 15 10 7
      vertex 14.9606 10.6267 7
    endloop
  endfacet
  facet normal 0 0 1
    outer loop
      vertex 15 10 7
      vertex 13.8 8.8 7
      vertex 15 -10 7
    endloop
  endfacet
  facet normal -0 0 1
    outer loop
      vertex 13.4489 10.6406 7
      vertex 14.9606 10.6267 7
      vertex 14.8429 11.2434 7
    endloop
  endfacet
  facet normal -0 0 1
    outer loop
      vertex 13.8 -8.8 7
      vertex 15 -10 7
      vertex 13.8 8.8 7
    endloop
  endfacet
  facet normal 0 0 1
    outer loop
      vertex 13.1815 11.2088 7
      vertex 14.8429 11.2434 7
      vertex 14.6489 11.8406 7
    endloop
  endfacet
  facet normal -0 0 1
    outer loop
      vertex 13.7606 -9.42667 7
      vertex 15 -10 7
      vertex 13.8 -8.8 7
    endloop
  endfacet
  facet normal 0 0 1
    outer loop
      vertex 13.1815 11.2088 7
      vertex 14.6489 11.8406 7
      vertex 14.3815 12.4088 7
    endloop
  endfacet
  facet normal 0 0 1
    outer loop
      vertex 13.6429 -10.0434 7
      vertex 15 -10 7
      vertex 13.7606 -9.42667 7
    endloop
  endfacet
  facet normal 0 0 1
    outer loop
      vertex 12.8451 11.7389 7
      vertex 14.3815 12.4088 7
      vertex 14.0451 12.9389 7
    endloop
  endfacet
  facet normal 0 0 1
    outer loop
      vertex 15 -10 7
      vertex 13.6429 -10.0434 7
      vertex 14.9606 -10.6267 7
    endloop
  endfacet
  facet normal 0 0 1
    outer loop
      vertex 13.4489 -10.6406 7
      vertex 14.9606 -10.6267 7
      vertex 13.6429 -10.0434 7
    endloop
  endfacet
  facet normal 0 0 1
    outer loop
      vertex 15 10 7
      vertex 13.7606 9.42667 7
      vertex 13.8 8.8 7
    endloop
  endfacet
  facet normal 0 0 1
    outer loop
      vertex 12.4448 12.2227 7
      vertex 14.0451 12.9389 7
      vertex 13.6448 13.4227 7
    endloop
  endfacet
  facet normal 0 0 1
    outer loop
      vertex 15 10 7
      vertex 13.6429 10.0434 7
      vertex 13.7606 9.42667 7
    endloop
  endfacet
  facet normal 0 0 1
    outer loop
      vertex 14.9606 10.6267 7
      vertex 13.4489 10.6406 7
      vertex 13.6429 10.0434 7
    endloop
  endfacet
  facet normal 0 0 1
    outer loop
      vertex 12.4448 12.2227 7
      vertex 13.6448 13.4227 7
      vertex 13.1871 13.8526 7
    endloop
  endfacet
  facet normal 0 0 1
    outer loop
      vertex 14.8429 11.2434 7
      vertex 13.1815 11.2088 7
      vertex 13.4489 10.6406 7
    endloop
  endfacet
  facet normal 0 0 1
    outer loop
      vertex 14.3815 12.4088 7
      vertex 12.8451 11.7389 7
      vertex 13.1815 11.2088 7
    endloop
  endfacet
  facet normal 0 0 1
    outer loop
      vertex 11.9871 12.6526 7
      vertex 13.1871 13.8526 7
      vertex 12.6791 14.2216 7
    endloop
  endfacet
  facet normal 0 0 1
    outer loop
      vertex 14.0451 12.9389 7
      vertex 12.4448 12.2227 7
      vertex 12.8451 11.7389 7
    endloop
  endfacet
  facet normal 0 0 1
    outer loop
      vertex 11.4791 13.0216 7
      vertex 12.6791 14.2216 7
      vertex 12.1289 14.5241 7
    endloop
  endfacet
  facet normal 0 0 1
    outer loop
      vertex 13.1871 13.8526 7
      vertex 11.9871 12.6526 7
      vertex 12.4448 12.2227 7
    endloop
  endfacet
  facet normal 0 0 1
    outer loop
      vertex 10.9289 13.3241 7
      vertex 12.1289 14.5241 7
      vertex 11.5451 14.7553 7
    endloop
  endfacet
  facet normal 0 0 1
    outer loop
      vertex 12.6791 14.2216 7
      vertex 11.4791 13.0216 7
      vertex 11.9871 12.6526 7
    endloop
  endfacet
  facet normal 0 0 1
    outer loop
      vertex 10.9289 13.3241 7
      vertex 11.5451 14.7553 7
      vertex 10.9369 14.9114 7
    endloop
  endfacet
  facet normal 0 0 1
    outer loop
      vertex 12.1289 14.5241 7
      vertex 10.9289 13.3241 7
      vertex 11.4791 13.0216 7
    endloop
  endfacet
  facet normal 0 0 1
    outer loop
      vertex 10.9369 14.9114 7
      vertex 10.3451 13.5553 7
      vertex 10.9289 13.3241 7
    endloop
  endfacet
  facet normal 0 0 1
    outer loop
      vertex 10.314 14.9901 7
      vertex 10.3451 13.5553 7
      vertex 10.9369 14.9114 7
    endloop
  endfacet
  facet normal 0 0 1
    outer loop
      vertex 10.314 14.9901 7
      vertex 9.73691 13.7114 7
      vertex 10.3451 13.5553 7
    endloop
  endfacet
  facet normal 0 0 1
    outer loop
      vertex 10.314 14.9901 7
      vertex 9.11395 13.7901 7
      vertex 9.73691 13.7114 7
    endloop
  endfacet
  facet normal 0 0 1
    outer loop
      vertex 10.314 14.9901 7
      vertex -9.11395 13.7901 7
      vertex 9.11395 13.7901 7
    endloop
  endfacet
  facet normal -0 0 1
    outer loop
      vertex -10.314 14.9901 7
      vertex -9.11395 13.7901 7
      vertex 10.314 14.9901 7
    endloop
  endfacet
  facet normal 0 0 1
    outer loop
      vertex -10.314 14.9901 7
      vertex -9.73691 13.7114 7
      vertex -9.11395 13.7901 7
    endloop
  endfacet
  facet normal 0 0 1
    outer loop
      vertex -10.314 14.9901 7
      vertex -10.3451 13.5553 7
      vertex -9.73691 13.7114 7
    endloop
  endfacet
  facet normal -0 0 1
    outer loop
      vertex -10.9369 14.9114 7
      vertex -10.3451 13.5553 7
      vertex -10.314 14.9901 7
    endloop
  endfacet
  facet normal 0 0 1
    outer loop
      vertex -10.3451 13.5553 7
      vertex -10.9369 14.9114 7
      vertex -10.9289 13.3241 7
    endloop
  endfacet
  facet normal -0 0 1
    outer loop
      vertex -11.5451 14.7553 7
      vertex -10.9289 13.3241 7
      vertex -10.9369 14.9114 7
    endloop
  endfacet
  facet normal -0 0 1
    outer loop
      vertex -12.1289 14.5241 7
      vertex -10.9289 13.3241 7
      vertex -11.5451 14.7553 7
    endloop
  endfacet
  facet normal 0 0 1
    outer loop
      vertex -10.9289 13.3241 7
      vertex -12.1289 14.5241 7
      vertex -11.4791 13.0216 7
    endloop
  endfacet
  facet normal -0 0 1
    outer loop
      vertex -12.6791 14.2216 7
      vertex -11.4791 13.0216 7
      vertex -12.1289 14.5241 7
    endloop
  endfacet
  facet normal 0 0 1
    outer loop
      vertex -11.4791 13.0216 7
      vertex -12.6791 14.2216 7
      vertex -11.9871 12.6526 7
    endloop
  endfacet
  facet normal -0 0 1
    outer loop
      vertex -13.1871 13.8526 7
      vertex -11.9871 12.6526 7
      vertex -12.6791 14.2216 7
    endloop
  endfacet
  facet normal 0 0 1
    outer loop
      vertex -11.9871 12.6526 7
      vertex -13.1871 13.8526 7
      vertex -12.4448 12.2227 7
    endloop
  endfacet
  facet normal -0 0 1
    outer loop
      vertex -13.6448 13.4227 7
      vertex -12.4448 12.2227 7
      vertex -13.1871 13.8526 7
    endloop
  endfacet
  facet normal -0 0 1
    outer loop
      vertex -14.0451 12.9389 7
      vertex -12.4448 12.2227 7
      vertex -13.6448 13.4227 7
    endloop
  endfacet
  facet normal 0 0 1
    outer loop
      vertex -12.4448 12.2227 7
      vertex -14.0451 12.9389 7
      vertex -12.8451 11.7389 7
    endloop
  endfacet
  facet normal -0 0 1
    outer loop
      vertex -14.3815 12.4088 7
      vertex -12.8451 11.7389 7
      vertex -14.0451 12.9389 7
    endloop
  endfacet
  facet normal 0 0 1
    outer loop
      vertex -12.8451 11.7389 7
      vertex -14.3815 12.4088 7
      vertex -13.1815 11.2088 7
    endloop
  endfacet
  facet normal -0 0 1
    outer loop
      vertex -14.6489 11.8406 7
      vertex -13.1815 11.2088 7
      vertex -14.3815 12.4088 7
    endloop
  endfacet
  facet normal -0 0 1
    outer loop
      vertex -14.8429 11.2434 7
      vertex -13.1815 11.2088 7
      vertex -14.6489 11.8406 7
    endloop
  endfacet
  facet normal 0 0 1
    outer loop
      vertex -14.9606 10.6267 7
      vertex -13.4489 10.6406 7
      vertex -14.8429 11.2434 7
    endloop
  endfacet
  facet normal 0 0 1
    outer loop
      vertex -13.1815 11.2088 7
      vertex -14.8429 11.2434 7
      vertex -13.4489 10.6406 7
    endloop
  endfacet
  facet normal 0 0 1
    outer loop
      vertex 14.9606 -10.6267 7
      vertex 13.4489 -10.6406 7
      vertex 14.8429 -11.2434 7
    endloop
  endfacet
  facet normal -0 0 1
    outer loop
      vertex 13.1815 -11.2088 7
      vertex 14.8429 -11.2434 7
      vertex 13.4489 -10.6406 7
    endloop
  endfacet
  facet normal 0 0 1
    outer loop
      vertex 14.8429 -11.2434 7
      vertex 13.1815 -11.2088 7
      vertex 14.6489 -11.8406 7
    endloop
  endfacet
  facet normal 0 0 1
    outer loop
      vertex 14.6489 -11.8406 7
      vertex 13.1815 -11.2088 7
      vertex 14.3815 -12.4088 7
    endloop
  endfacet
  facet normal -0 0 1
    outer loop
      vertex 12.8451 -11.7389 7
      vertex 14.3815 -12.4088 7
      vertex 13.1815 -11.2088 7
    endloop
  endfacet
  facet normal 0 0 1
    outer loop
      vertex 14.3815 -12.4088 7
      vertex 12.8451 -11.7389 7
      vertex 14.0451 -12.9389 7
    endloop
  endfacet
  facet normal -0 0 1
    outer loop
      vertex 12.4448 -12.2227 7
      vertex 14.0451 -12.9389 7
      vertex 12.8451 -11.7389 7
    endloop
  endfacet
  facet normal 0 0 1
    outer loop
      vertex 14.0451 -12.9389 7
      vertex 12.4448 -12.2227 7
      vertex 13.6448 -13.4227 7
    endloop
  endfacet
  facet normal 0 0 1
    outer loop
      vertex 13.6448 -13.4227 7
      vertex 12.4448 -12.2227 7
      vertex 13.1871 -13.8526 7
    endloop
  endfacet
  facet normal -0 0 1
    outer loop
      vertex 11.9871 -12.6526 7
      vertex 13.1871 -13.8526 7
      vertex 12.4448 -12.2227 7
    endloop
  endfacet
  facet normal 0 0 1
    outer loop
      vertex 13.1871 -13.8526 7
      vertex 11.9871 -12.6526 7
      vertex 12.6791 -14.2216 7
    endloop
  endfacet
  facet normal -0 0 1
    outer loop
      vertex 11.4791 -13.0216 7
      vertex 12.6791 -14.2216 7
      vertex 11.9871 -12.6526 7
    endloop
  endfacet
  facet normal 0 0 1
    outer loop
      vertex 12.6791 -14.2216 7
      vertex 11.4791 -13.0216 7
      vertex 12.1289 -14.5241 7
    endloop
  endfacet
  facet normal -0 0 1
    outer loop
      vertex 10.9289 -13.3241 7
      vertex 12.1289 -14.5241 7
      vertex 11.4791 -13.0216 7
    endloop
  endfacet
  facet normal 0 0 1
    outer loop
      vertex 12.1289 -14.5241 7
      vertex 10.9289 -13.3241 7
      vertex 11.5451 -14.7553 7
    endloop
  endfacet
  facet normal 0 0 1
    outer loop
      vertex 11.5451 -14.7553 7
      vertex 10.9289 -13.3241 7
      vertex 10.9369 -14.9114 7
    endloop
  endfacet
  facet normal -0 0 1
    outer loop
      vertex 10.3451 -13.5553 7
      vertex 10.9369 -14.9114 7
      vertex 10.9289 -13.3241 7
    endloop
  endfacet
  facet normal 0 0 1
    outer loop
      vertex 10.3451 -13.5553 7
      vertex 10.314 -14.9901 7
      vertex 10.9369 -14.9114 7
    endloop
  endfacet
  facet normal -0 0 1
    outer loop
      vertex 9.73691 -13.7114 7
      vertex 10.314 -14.9901 7
      vertex 10.3451 -13.5553 7
    endloop
  endfacet
  facet normal -0 0 1
    outer loop
      vertex 9.11395 -13.7901 7
      vertex 10.314 -14.9901 7
      vertex 9.73691 -13.7114 7
    endloop
  endfacet
  facet normal -0 0 1
    outer loop
      vertex -9.11395 -13.7901 7
      vertex 10.314 -14.9901 7
      vertex 9.11395 -13.7901 7
    endloop
  endfacet
  facet normal 0 0 1
    outer loop
      vertex -9.11395 -13.7901 7
      vertex -10.314 -14.9901 7
      vertex 10.314 -14.9901 7
    endloop
  endfacet
  facet normal 0 0 1
    outer loop
      vertex -9.73691 -13.7114 7
      vertex -10.314 -14.9901 7
      vertex -9.11395 -13.7901 7
    endloop
  endfacet
  facet normal 0 0 1
    outer loop
      vertex -10.3451 -13.5553 7
      vertex -10.314 -14.9901 7
      vertex -9.73691 -13.7114 7
    endloop
  endfacet
  facet normal 0 0 1
    outer loop
      vertex -10.9369 -14.9114 7
      vertex -10.3451 -13.5553 7
      vertex -10.9289 -13.3241 7
    endloop
  endfacet
  facet normal 0 0 1
    outer loop
      vertex -10.3451 -13.5553 7
      vertex -10.9369 -14.9114 7
      vertex -10.314 -14.9901 7
    endloop
  endfacet
  facet normal 0 0 1
    outer loop
      vertex -12.1289 -14.5241 7
      vertex -10.9289 -13.3241 7
      vertex -11.4791 -13.0216 7
    endloop
  endfacet
  facet normal 0 0 1
    outer loop
      vertex -10.9289 -13.3241 7
      vertex -11.5451 -14.7553 7
      vertex -10.9369 -14.9114 7
    endloop
  endfacet
  facet normal 0 0 1
    outer loop
      vertex -12.6791 -14.2216 7
      vertex -11.4791 -13.0216 7
      vertex -11.9871 -12.6526 7
    endloop
  endfacet
  facet normal 0 0 1
    outer loop
      vertex -10.9289 -13.3241 7
      vertex -12.1289 -14.5241 7
      vertex -11.5451 -14.7553 7
    endloop
  endfacet
  facet normal 0 0 1
    outer loop
      vertex -13.1871 -13.8526 7
      vertex -11.9871 -12.6526 7
      vertex -12.4448 -12.2227 7
    endloop
  endfacet
  facet normal 0 0 1
    outer loop
      vertex -11.4791 -13.0216 7
      vertex -12.6791 -14.2216 7
      vertex -12.1289 -14.5241 7
    endloop
  endfacet
  facet normal 0 0 1
    outer loop
      vertex -14.0451 -12.9389 7
      vertex -12.4448 -12.2227 7
      vertex -12.8451 -11.7389 7
    endloop
  endfacet
  facet normal 0 0 1
    outer loop
      vertex -14.3815 -12.4088 7
      vertex -12.8451 -11.7389 7
      vertex -13.1815 -11.2088 7
    endloop
  endfacet
  facet normal 0 0 1
    outer loop
      vertex -11.9871 -12.6526 7
      vertex -13.1871 -13.8526 7
      vertex -12.6791 -14.2216 7
    endloop
  endfacet
  facet normal 0 0 1
    outer loop
      vertex -14.8429 -11.2434 7
      vertex -13.1815 -11.2088 7
      vertex -13.4489 -10.6406 7
    endloop
  endfacet
  facet normal -0 0 1
    outer loop
      vertex -14.9606 -10.6267 7
      vertex -13.4489 -10.6406 7
      vertex -13.6429 -10.0434 7
    endloop
  endfacet
  facet normal 0 0 1
    outer loop
      vertex -12.4448 -12.2227 7
      vertex -13.6448 -13.4227 7
      vertex -13.1871 -13.8526 7
    endloop
  endfacet
  facet normal -0 0 1
    outer loop
      vertex -15 -10 7
      vertex -13.6429 -10.0434 7
      vertex -13.7606 -9.42667 7
    endloop
  endfacet
  facet normal 0 0 1
    outer loop
      vertex -15 -10 7
      vertex -13.7606 -9.42667 7
      vertex -13.8 -8.8 7
    endloop
  endfacet
  facet normal 0 0 1
    outer loop
      vertex -12.4448 -12.2227 7
      vertex -14.0451 -12.9389 7
      vertex -13.6448 -13.4227 7
    endloop
  endfacet
  facet normal 0 0 1
    outer loop
      vertex -13.8 8.8 7
      vertex -15 10 7
      vertex -13.8 -8.8 7
    endloop
  endfacet
  facet normal 0 0 1
    outer loop
      vertex -13.4489 10.6406 7
      vertex -14.9606 10.6267 7
      vertex -13.6429 10.0434 7
    endloop
  endfacet
  facet normal 0 0 1
    outer loop
      vertex -15 -10 7
      vertex -13.8 -8.8 7
      vertex -15 10 7
    endloop
  endfacet
  facet normal 0 0 1
    outer loop
      vertex -15 10 7
      vertex -13.6429 10.0434 7
      vertex -14.9606 10.6267 7
    endloop
  endfacet
  facet normal 0 0 1
    outer loop
      vertex -13.6429 -10.0434 7
      vertex -15 -10 7
      vertex -14.9606 -10.6267 7
    endloop
  endfacet
  facet normal 0 0 1
    outer loop
      vertex -13.6429 10.0434 7
      vertex -15 10 7
      vertex -13.7606 9.42667 7
    endloop
  endfacet
  facet normal 0 0 1
    outer loop
      vertex -12.8451 -11.7389 7
      vertex -14.3815 -12.4088 7
      vertex -14.0451 -12.9389 7
    endloop
  endfacet
  facet normal 0 0 1
    outer loop
      vertex -13.7606 9.42667 7
      vertex -15 10 7
      vertex -13.8 8.8 7
    endloop
  endfacet
  facet normal 0 0 1
    outer loop
      vertex -13.1815 -11.2088 7
      vertex -14.6489 -11.8406 7
      vertex -14.3815 -12.4088 7
    endloop
  endfacet
  facet normal 0 0 1
    outer loop
      vertex -13.1815 -11.2088 7
      vertex -14.8429 -11.2434 7
      vertex -14.6489 -11.8406 7
    endloop
  endfacet
  facet normal 0 0 1
    outer loop
      vertex -13.4489 -10.6406 7
      vertex -14.9606 -10.6267 7
      vertex -14.8429 -11.2434 7
    endloop
  endfacet
  facet normal 0.770462 0.637486 0
    outer loop
      vertex 14.0451 12.9389 7
      vertex 13.6448 13.4227 0
      vertex 13.6448 13.4227 7
    endloop
  endfacet
  facet normal 0.770462 0.637486 0
    outer loop
      vertex 13.6448 13.4227 0
      vertex 14.0451 12.9389 7
      vertex 14.0451 12.9389 0
    endloop
  endfacet
  facet normal -0.770462 0.637486 0
    outer loop
      vertex -14.0451 12.9389 0
      vertex -13.6448 13.4227 7
      vertex -13.6448 13.4227 0
    endloop
  endfacet
  facet normal -0.770462 0.637486 0
    outer loop
      vertex -13.6448 13.4227 7
      vertex -14.0451 12.9389 0
      vertex -14.0451 12.9389 7
    endloop
  endfacet
  facet normal -0.125348 -0.992113 0
    outer loop
      vertex -10.9369 -14.9114 0
      vertex -10.314 -14.9901 7
      vertex -10.9369 -14.9114 7
    endloop
  endfacet
  facet normal -0.125348 -0.992113 -0
    outer loop
      vertex -10.314 -14.9901 7
      vertex -10.9369 -14.9114 0
      vertex -10.314 -14.9901 0
    endloop
  endfacet
  facet normal 0.99803 -0.0627451 0
    outer loop
      vertex 14.9606 -10.6267 7
      vertex 15 -10 0
      vertex 15 -10 7
    endloop
  endfacet
  facet normal 0.99803 -0.0627451 0
    outer loop
      vertex 15 -10 0
      vertex 14.9606 -10.6267 7
      vertex 14.9606 -10.6267 0
    endloop
  endfacet
  facet normal 1 -0 0
    outer loop
      vertex 15 -10 7
      vertex 15 10 0
      vertex 15 10 7
    endloop
  endfacet
  facet normal 1 0 0
    outer loop
      vertex 15 10 0
      vertex 15 -10 7
      vertex 15 -10 0
    endloop
  endfacet
  facet normal -0.368203 0.929745 0
    outer loop
      vertex -11.5451 14.7553 0
      vertex -12.1289 14.5241 7
      vertex -11.5451 14.7553 7
    endloop
  endfacet
  facet normal -0.368203 0.929745 0
    outer loop
      vertex -12.1289 14.5241 7
      vertex -11.5451 14.7553 0
      vertex -12.1289 14.5241 0
    endloop
  endfacet
  facet normal 0 1 -0
    outer loop
      vertex 10.314 14.9901 0
      vertex -10.314 14.9901 7
      vertex 10.314 14.9901 7
    endloop
  endfacet
  facet normal 0 1 0
    outer loop
      vertex -10.314 14.9901 7
      vertex 10.314 14.9901 0
      vertex -10.314 14.9901 0
    endloop
  endfacet
  facet normal -0.99803 0.0627451 0
    outer loop
      vertex -15 10 0
      vertex -14.9606 10.6267 7
      vertex -14.9606 10.6267 0
    endloop
  endfacet
  facet normal -0.99803 0.0627451 0
    outer loop
      vertex -14.9606 10.6267 7
      vertex -15 10 0
      vertex -15 10 7
    endloop
  endfacet
  facet normal -0.248601 -0.968606 0
    outer loop
      vertex -11.5451 -14.7553 0
      vertex -10.9369 -14.9114 7
      vertex -11.5451 -14.7553 7
    endloop
  endfacet
  facet normal -0.248601 -0.968606 -0
    outer loop
      vertex -10.9369 -14.9114 7
      vertex -11.5451 -14.7553 0
      vertex -10.9369 -14.9114 0
    endloop
  endfacet
  facet normal 0 -1 0
    outer loop
      vertex -10.314 -14.9901 0
      vertex 10.314 -14.9901 7
      vertex -10.314 -14.9901 7
    endloop
  endfacet
  facet normal 0 -1 -0
    outer loop
      vertex 10.314 -14.9901 7
      vertex -10.314 -14.9901 0
      vertex 10.314 -14.9901 0
    endloop
  endfacet
  facet normal 0.951076 0.308956 0
    outer loop
      vertex 14.8429 11.2434 7
      vertex 14.6489 11.8406 0
      vertex 14.6489 11.8406 7
    endloop
  endfacet
  facet normal 0.951076 0.308956 0
    outer loop
      vertex 14.6489 11.8406 0
      vertex 14.8429 11.2434 7
      vertex 14.8429 11.2434 0
    endloop
  endfacet
  facet normal 0.125348 0.992113 -0
    outer loop
      vertex 10.9369 14.9114 0
      vertex 10.314 14.9901 7
      vertex 10.9369 14.9114 7
    endloop
  endfacet
  facet normal 0.125348 0.992113 0
    outer loop
      vertex 10.314 14.9901 7
      vertex 10.9369 14.9114 0
      vertex 10.314 14.9901 0
    endloop
  endfacet
  facet normal -0.684624 0.728896 0
    outer loop
      vertex -13.1871 13.8526 0
      vertex -13.6448 13.4227 7
      vertex -13.1871 13.8526 7
    endloop
  endfacet
  facet normal -0.684624 0.728896 0
    outer loop
      vertex -13.6448 13.4227 7
      vertex -13.1871 13.8526 0
      vertex -13.6448 13.4227 0
    endloop
  endfacet
  facet normal -0.951076 0.308956 0
    outer loop
      vertex -14.8429 11.2434 0
      vertex -14.6489 11.8406 7
      vertex -14.6489 11.8406 0
    endloop
  endfacet
  facet normal -0.951076 0.308956 0
    outer loop
      vertex -14.6489 11.8406 7
      vertex -14.8429 11.2434 0
      vertex -14.8429 11.2434 7
    endloop
  endfacet
  facet normal 0 0 -1
    outer loop
      vertex 10.314 -14.9901 0
      vertex 15 -10 0
      vertex 14.9606 -10.6267 0
    endloop
  endfacet
  facet normal 0 0 -1
    outer loop
      vertex -15 -10 0
      vertex 15 -10 0
      vertex 10.314 -14.9901 0
    endloop
  endfacet
  facet normal 0 0 -1
    outer loop
      vertex 10.314 -14.9901 0
      vertex 14.9606 -10.6267 0
      vertex 14.8429 -11.2434 0
    endloop
  endfacet
  facet normal 0 0 -1
    outer loop
      vertex 15 -10 0
      vertex -15 -10 0
      vertex 15 10 0
    endloop
  endfacet
  facet normal 0 0 -1
    outer loop
      vertex 10.314 -14.9901 0
      vertex 14.8429 -11.2434 0
      vertex 14.6489 -11.8406 0
    endloop
  endfacet
  facet normal 0 0 -1
    outer loop
      vertex 15 10 0
      vertex 10.314 14.9901 0
      vertex 14.9606 10.6267 0
    endloop
  endfacet
  facet normal 0 0 -1
    outer loop
      vertex 10.314 -14.9901 0
      vertex 14.6489 -11.8406 0
      vertex 14.3815 -12.4088 0
    endloop
  endfacet
  facet normal 0 0 -1
    outer loop
      vertex 14.9606 10.6267 0
      vertex 10.314 14.9901 0
      vertex 14.8429 11.2434 0
    endloop
  endfacet
  facet normal 0 0 -1
    outer loop
      vertex 10.314 -14.9901 0
      vertex 14.3815 -12.4088 0
      vertex 14.0451 -12.9389 0
    endloop
  endfacet
  facet normal 0 0 -1
    outer loop
      vertex 14.8429 11.2434 0
      vertex 10.314 14.9901 0
      vertex 14.6489 11.8406 0
    endloop
  endfacet
  facet normal 0 0 -1
    outer loop
      vertex 10.314 -14.9901 0
      vertex 14.0451 -12.9389 0
      vertex 13.6448 -13.4227 0
    endloop
  endfacet
  facet normal 0 0 -1
    outer loop
      vertex 14.6489 11.8406 0
      vertex 10.314 14.9901 0
      vertex 14.3815 12.4088 0
    endloop
  endfacet
  facet normal 0 0 -1
    outer loop
      vertex 10.314 -14.9901 0
      vertex 13.6448 -13.4227 0
      vertex 13.1871 -13.8526 0
    endloop
  endfacet
  facet normal 0 0 -1
    outer loop
      vertex 14.3815 12.4088 0
      vertex 10.314 14.9901 0
      vertex 14.0451 12.9389 0
    endloop
  endfacet
  facet normal 0 0 -1
    outer loop
      vertex 10.314 -14.9901 0
      vertex 13.1871 -13.8526 0
      vertex 12.6791 -14.2216 0
    endloop
  endfacet
  facet normal 0 0 -1
    outer loop
      vertex 14.0451 12.9389 0
      vertex 10.314 14.9901 0
      vertex 13.6448 13.4227 0
    endloop
  endfacet
  facet normal 0 0 -1
    outer loop
      vertex 10.314 -14.9901 0
      vertex 12.6791 -14.2216 0
      vertex 12.1289 -14.5241 0
    endloop
  endfacet
  facet normal 0 0 -1
    outer loop
      vertex 13.6448 13.4227 0
      vertex 10.314 14.9901 0
      vertex 13.1871 13.8526 0
    endloop
  endfacet
  facet normal 0 0 -1
    outer loop
      vertex 10.314 -14.9901 0
      vertex 12.1289 -14.5241 0
      vertex 11.5451 -14.7553 0
    endloop
  endfacet
  facet normal 0 0 -1
    outer loop
      vertex 13.1871 13.8526 0
      vertex 10.314 14.9901 0
      vertex 12.6791 14.2216 0
    endloop
  endfacet
  facet normal 0 0 -1
    outer loop
      vertex 10.314 -14.9901 0
      vertex 11.5451 -14.7553 0
      vertex 10.9369 -14.9114 0
    endloop
  endfacet
  facet normal 0 0 -1
    outer loop
      vertex 12.6791 14.2216 0
      vertex 10.314 14.9901 0
      vertex 12.1289 14.5241 0
    endloop
  endfacet
  facet normal 0 0 -1
    outer loop
      vertex 12.1289 14.5241 0
      vertex 10.314 14.9901 0
      vertex 11.5451 14.7553 0
    endloop
  endfacet
  facet normal 0 0 -1
    outer loop
      vertex 11.5451 14.7553 0
      vertex 10.314 14.9901 0
      vertex 10.9369 14.9114 0
    endloop
  endfacet
  facet normal 0 0 -1
    outer loop
      vertex -15 -10 0
      vertex 10.314 -14.9901 0
      vertex -10.314 -14.9901 0
    endloop
  endfacet
  facet normal 0 0 -1
    outer loop
      vertex -15 10 0
      vertex 15 10 0
      vertex -15 -10 0
    endloop
  endfacet
  facet normal 0 0 -1
    outer loop
      vertex -15 -10 0
      vertex -10.314 -14.9901 0
      vertex -10.9369 -14.9114 0
    endloop
  endfacet
  facet normal 0 0 -1
    outer loop
      vertex 15 10 0
      vertex -15 10 0
      vertex 10.314 14.9901 0
    endloop
  endfacet
  facet normal 0 0 -1
    outer loop
      vertex -15 -10 0
      vertex -10.9369 -14.9114 0
      vertex -11.5451 -14.7553 0
    endloop
  endfacet
  facet normal -0 0 -1
    outer loop
      vertex 10.314 14.9901 0
      vertex -15 10 0
      vertex -10.314 14.9901 0
    endloop
  endfacet
  facet normal 0 0 -1
    outer loop
      vertex -15 -10 0
      vertex -11.5451 -14.7553 0
      vertex -12.1289 -14.5241 0
    endloop
  endfacet
  facet normal 0 0 -1
    outer loop
      vertex -10.314 14.9901 0
      vertex -15 10 0
      vertex -10.9369 14.9114 0
    endloop
  endfacet
  facet normal 0 0 -1
    outer loop
      vertex -15 -10 0
      vertex -12.1289 -14.5241 0
      vertex -12.6791 -14.2216 0
    endloop
  endfacet
  facet normal 0 0 -1
    outer loop
      vertex -10.9369 14.9114 0
      vertex -15 10 0
      vertex -11.5451 14.7553 0
    endloop
  endfacet
  facet normal 0 0 -1
    outer loop
      vertex -15 -10 0
      vertex -12.6791 -14.2216 0
      vertex -13.1871 -13.8526 0
    endloop
  endfacet
  facet normal 0 0 -1
    outer loop
      vertex -11.5451 14.7553 0
      vertex -15 10 0
      vertex -12.1289 14.5241 0
    endloop
  endfacet
  facet normal 0 0 -1
    outer loop
      vertex -15 -10 0
      vertex -13.1871 -13.8526 0
      vertex -13.6448 -13.4227 0
    endloop
  endfacet
  facet normal 0 0 -1
    outer loop
      vertex -12.1289 14.5241 0
      vertex -15 10 0
      vertex -12.6791 14.2216 0
    endloop
  endfacet
  facet normal 0 0 -1
    outer loop
      vertex -15 -10 0
      vertex -13.6448 -13.4227 0
      vertex -14.0451 -12.9389 0
    endloop
  endfacet
  facet normal 0 0 -1
    outer loop
      vertex -12.6791 14.2216 0
      vertex -15 10 0
      vertex -13.1871 13.8526 0
    endloop
  endfacet
  facet normal 0 0 -1
    outer loop
      vertex -15 -10 0
      vertex -14.0451 -12.9389 0
      vertex -14.3815 -12.4088 0
    endloop
  endfacet
  facet normal 0 0 -1
    outer loop
      vertex -13.1871 13.8526 0
      vertex -15 10 0
      vertex -13.6448 13.4227 0
    endloop
  endfacet
  facet normal 0 0 -1
    outer loop
      vertex -15 -10 0
      vertex -14.3815 -12.4088 0
      vertex -14.6489 -11.8406 0
    endloop
  endfacet
  facet normal 0 0 -1
    outer loop
      vertex -13.6448 13.4227 0
      vertex -15 10 0
      vertex -14.0451 12.9389 0
    endloop
  endfacet
  facet normal 0 0 -1
    outer loop
      vertex -15 -10 0
      vertex -14.6489 -11.8406 0
      vertex -14.8429 -11.2434 0
    endloop
  endfacet
  facet normal 0 0 -1
    outer loop
      vertex -14.0451 12.9389 0
      vertex -15 10 0
      vertex -14.3815 12.4088 0
    endloop
  endfacet
  facet normal 0 0 -1
    outer loop
      vertex -15 -10 0
      vertex -14.8429 -11.2434 0
      vertex -14.9606 -10.6267 0
    endloop
  endfacet
  facet normal 0 0 -1
    outer loop
      vertex -14.3815 12.4088 0
      vertex -15 10 0
      vertex -14.6489 11.8406 0
    endloop
  endfacet
  facet normal 0 0 -1
    outer loop
      vertex -14.6489 11.8406 0
      vertex -15 10 0
      vertex -14.8429 11.2434 0
    endloop
  endfacet
  facet normal 0 0 -1
    outer loop
      vertex -14.8429 11.2434 0
      vertex -15 10 0
      vertex -14.9606 10.6267 0
    endloop
  endfacet
  facet normal -0.951076 -0.308956 0
    outer loop
      vertex -14.6489 -11.8406 0
      vertex -14.8429 -11.2434 7
      vertex -14.8429 -11.2434 0
    endloop
  endfacet
  facet normal -0.951076 -0.308956 0
    outer loop
      vertex -14.8429 -11.2434 7
      vertex -14.6489 -11.8406 0
      vertex -14.6489 -11.8406 7
    endloop
  endfacet
  facet normal -0.770462 -0.637486 0
    outer loop
      vertex -13.6448 -13.4227 0
      vertex -14.0451 -12.9389 7
      vertex -14.0451 -12.9389 0
    endloop
  endfacet
  facet normal -0.770462 -0.637486 0
    outer loop
      vertex -14.0451 -12.9389 7
      vertex -13.6448 -13.4227 0
      vertex -13.6448 -13.4227 7
    endloop
  endfacet
  facet normal -0.904811 -0.425812 0
    outer loop
      vertex -14.3815 -12.4088 0
      vertex -14.6489 -11.8406 7
      vertex -14.6489 -11.8406 0
    endloop
  endfacet
  facet normal -0.904811 -0.425812 0
    outer loop
      vertex -14.6489 -11.8406 7
      vertex -14.3815 -12.4088 0
      vertex -14.3815 -12.4088 7
    endloop
  endfacet
  facet normal -0.368203 -0.929745 0
    outer loop
      vertex -12.1289 -14.5241 0
      vertex -11.5451 -14.7553 7
      vertex -12.1289 -14.5241 7
    endloop
  endfacet
  facet normal -0.368203 -0.929745 -0
    outer loop
      vertex -11.5451 -14.7553 7
      vertex -12.1289 -14.5241 0
      vertex -11.5451 -14.7553 0
    endloop
  endfacet
  facet normal -0.684624 -0.728896 0
    outer loop
      vertex -13.6448 -13.4227 0
      vertex -13.1871 -13.8526 7
      vertex -13.6448 -13.4227 7
    endloop
  endfacet
  facet normal -0.684624 -0.728896 -0
    outer loop
      vertex -13.1871 -13.8526 7
      vertex -13.6448 -13.4227 0
      vertex -13.1871 -13.8526 0
    endloop
  endfacet
  facet normal 0.98227 0.187471 0
    outer loop
      vertex 14.9606 10.6267 7
      vertex 14.8429 11.2434 0
      vertex 14.8429 11.2434 7
    endloop
  endfacet
  facet normal 0.98227 0.187471 0
    outer loop
      vertex 14.8429 11.2434 0
      vertex 14.9606 10.6267 7
      vertex 14.9606 10.6267 0
    endloop
  endfacet
  facet normal 0.99803 0.0627451 0
    outer loop
      vertex 15 10 7
      vertex 14.9606 10.6267 0
      vertex 14.9606 10.6267 7
    endloop
  endfacet
  facet normal 0.99803 0.0627451 0
    outer loop
      vertex 14.9606 10.6267 0
      vertex 15 10 7
      vertex 15 10 0
    endloop
  endfacet
  facet normal 0.844336 0.535814 0
    outer loop
      vertex 14.3815 12.4088 7
      vertex 14.0451 12.9389 0
      vertex 14.0451 12.9389 7
    endloop
  endfacet
  facet normal 0.844336 0.535814 0
    outer loop
      vertex 14.0451 12.9389 0
      vertex 14.3815 12.4088 7
      vertex 14.3815 12.4088 0
    endloop
  endfacet
  facet normal 0.904811 0.425812 0
    outer loop
      vertex 14.6489 11.8406 7
      vertex 14.3815 12.4088 0
      vertex 14.3815 12.4088 7
    endloop
  endfacet
  facet normal 0.904811 0.425812 0
    outer loop
      vertex 14.3815 12.4088 0
      vertex 14.6489 11.8406 7
      vertex 14.6489 11.8406 0
    endloop
  endfacet
  facet normal 0.481784 0.87629 -0
    outer loop
      vertex 12.6791 14.2216 0
      vertex 12.1289 14.5241 7
      vertex 12.6791 14.2216 7
    endloop
  endfacet
  facet normal 0.481784 0.87629 0
    outer loop
      vertex 12.1289 14.5241 7
      vertex 12.6791 14.2216 0
      vertex 12.1289 14.5241 0
    endloop
  endfacet
  facet normal 0.684624 0.728896 -0
    outer loop
      vertex 13.6448 13.4227 0
      vertex 13.1871 13.8526 7
      vertex 13.6448 13.4227 7
    endloop
  endfacet
  facet normal 0.684624 0.728896 0
    outer loop
      vertex 13.1871 13.8526 7
      vertex 13.6448 13.4227 0
      vertex 13.1871 13.8526 0
    endloop
  endfacet
  facet normal 0.368203 0.929745 -0
    outer loop
      vertex 12.1289 14.5241 0
      vertex 11.5451 14.7553 7
      vertex 12.1289 14.5241 7
    endloop
  endfacet
  facet normal 0.368203 0.929745 0
    outer loop
      vertex 11.5451 14.7553 7
      vertex 12.1289 14.5241 0
      vertex 11.5451 14.7553 0
    endloop
  endfacet
  facet normal -0.587698 0.80908 0
    outer loop
      vertex -12.6791 14.2216 0
      vertex -13.1871 13.8526 7
      vertex -12.6791 14.2216 7
    endloop
  endfacet
  facet normal -0.587698 0.80908 0
    outer loop
      vertex -13.1871 13.8526 7
      vertex -12.6791 14.2216 0
      vertex -13.1871 13.8526 0
    endloop
  endfacet
  facet normal -0.481784 0.87629 0
    outer loop
      vertex -12.1289 14.5241 0
      vertex -12.6791 14.2216 7
      vertex -12.1289 14.5241 7
    endloop
  endfacet
  facet normal -0.481784 0.87629 0
    outer loop
      vertex -12.6791 14.2216 7
      vertex -12.1289 14.5241 0
      vertex -12.6791 14.2216 0
    endloop
  endfacet
  facet normal -0.98227 0.187471 0
    outer loop
      vertex -14.9606 10.6267 0
      vertex -14.8429 11.2434 7
      vertex -14.8429 11.2434 0
    endloop
  endfacet
  facet normal -0.98227 0.187471 0
    outer loop
      vertex -14.8429 11.2434 7
      vertex -14.9606 10.6267 0
      vertex -14.9606 10.6267 7
    endloop
  endfacet
  facet normal -0.98227 -0.187471 0
    outer loop
      vertex -14.8429 -11.2434 0
      vertex -14.9606 -10.6267 7
      vertex -14.9606 -10.6267 0
    endloop
  endfacet
  facet normal -0.98227 -0.187471 0
    outer loop
      vertex -14.9606 -10.6267 7
      vertex -14.8429 -11.2434 0
      vertex -14.8429 -11.2434 7
    endloop
  endfacet
  facet normal -0.844336 -0.535814 0
    outer loop
      vertex -14.0451 -12.9389 0
      vertex -14.3815 -12.4088 7
      vertex -14.3815 -12.4088 0
    endloop
  endfacet
  facet normal -0.844336 -0.535814 0
    outer loop
      vertex -14.3815 -12.4088 7
      vertex -14.0451 -12.9389 0
      vertex -14.0451 -12.9389 7
    endloop
  endfacet
  facet normal -0.481784 -0.87629 0
    outer loop
      vertex -12.6791 -14.2216 0
      vertex -12.1289 -14.5241 7
      vertex -12.6791 -14.2216 7
    endloop
  endfacet
  facet normal -0.481784 -0.87629 -0
    outer loop
      vertex -12.1289 -14.5241 7
      vertex -12.6791 -14.2216 0
      vertex -12.1289 -14.5241 0
    endloop
  endfacet
  facet normal -0.587698 -0.80908 0
    outer loop
      vertex -13.1871 -13.8526 0
      vertex -12.6791 -14.2216 7
      vertex -13.1871 -13.8526 7
    endloop
  endfacet
  facet normal -0.587698 -0.80908 -0
    outer loop
      vertex -12.6791 -14.2216 7
      vertex -13.1871 -13.8526 0
      vertex -12.6791 -14.2216 0
    endloop
  endfacet
  facet normal 0.770462 -0.637486 0
    outer loop
      vertex 13.6448 -13.4227 7
      vertex 14.0451 -12.9389 0
      vertex 14.0451 -12.9389 7
    endloop
  endfacet
  facet normal 0.770462 -0.637486 0
    outer loop
      vertex 14.0451 -12.9389 0
      vertex 13.6448 -13.4227 7
      vertex 13.6448 -13.4227 0
    endloop
  endfacet
  facet normal 0.368203 -0.929745 0
    outer loop
      vertex 11.5451 -14.7553 0
      vertex 12.1289 -14.5241 7
      vertex 11.5451 -14.7553 7
    endloop
  endfacet
  facet normal 0.368203 -0.929745 0
    outer loop
      vertex 12.1289 -14.5241 7
      vertex 11.5451 -14.7553 0
      vertex 12.1289 -14.5241 0
    endloop
  endfacet
  facet normal 0.587698 0.80908 -0
    outer loop
      vertex 13.1871 13.8526 0
      vertex 12.6791 14.2216 7
      vertex 13.1871 13.8526 7
    endloop
  endfacet
  facet normal 0.587698 0.80908 0
    outer loop
      vertex 12.6791 14.2216 7
      vertex 13.1871 13.8526 0
      vertex 12.6791 14.2216 0
    endloop
  endfacet
  facet normal 0.248601 0.968606 -0
    outer loop
      vertex 11.5451 14.7553 0
      vertex 10.9369 14.9114 7
      vertex 11.5451 14.7553 7
    endloop
  endfacet
  facet normal 0.248601 0.968606 0
    outer loop
      vertex 10.9369 14.9114 7
      vertex 11.5451 14.7553 0
      vertex 10.9369 14.9114 0
    endloop
  endfacet
  facet normal -0.248601 0.968606 0
    outer loop
      vertex -10.9369 14.9114 0
      vertex -11.5451 14.7553 7
      vertex -10.9369 14.9114 7
    endloop
  endfacet
  facet normal -0.248601 0.968606 0
    outer loop
      vertex -11.5451 14.7553 7
      vertex -10.9369 14.9114 0
      vertex -11.5451 14.7553 0
    endloop
  endfacet
  facet normal -0.125348 0.992113 0
    outer loop
      vertex -10.314 14.9901 0
      vertex -10.9369 14.9114 7
      vertex -10.314 14.9901 7
    endloop
  endfacet
  facet normal -0.125348 0.992113 0
    outer loop
      vertex -10.9369 14.9114 7
      vertex -10.314 14.9901 0
      vertex -10.9369 14.9114 0
    endloop
  endfacet
  facet normal -0.904811 0.425812 0
    outer loop
      vertex -14.6489 11.8406 0
      vertex -14.3815 12.4088 7
      vertex -14.3815 12.4088 0
    endloop
  endfacet
  facet normal -0.904811 0.425812 0
    outer loop
      vertex -14.3815 12.4088 7
      vertex -14.6489 11.8406 0
      vertex -14.6489 11.8406 7
    endloop
  endfacet
  facet normal -0.844336 0.535814 0
    outer loop
      vertex -14.3815 12.4088 0
      vertex -14.0451 12.9389 7
      vertex -14.0451 12.9389 0
    endloop
  endfacet
  facet normal -0.844336 0.535814 0
    outer loop
      vertex -14.0451 12.9389 7
      vertex -14.3815 12.4088 0
      vertex -14.3815 12.4088 7
    endloop
  endfacet
  facet normal 0.587698 -0.80908 0
    outer loop
      vertex 12.6791 -14.2216 0
      vertex 13.1871 -13.8526 7
      vertex 12.6791 -14.2216 7
    endloop
  endfacet
  facet normal 0.587698 -0.80908 0
    outer loop
      vertex 13.1871 -13.8526 7
      vertex 12.6791 -14.2216 0
      vertex 13.1871 -13.8526 0
    endloop
  endfacet
  facet normal 0.904811 -0.425812 0
    outer loop
      vertex 14.3815 -12.4088 7
      vertex 14.6489 -11.8406 0
      vertex 14.6489 -11.8406 7
    endloop
  endfacet
  facet normal 0.904811 -0.425812 0
    outer loop
      vertex 14.6489 -11.8406 0
      vertex 14.3815 -12.4088 7
      vertex 14.3815 -12.4088 0
    endloop
  endfacet
  facet normal 0.844336 -0.535814 0
    outer loop
      vertex 14.0451 -12.9389 7
      vertex 14.3815 -12.4088 0
      vertex 14.3815 -12.4088 7
    endloop
  endfacet
  facet normal 0.844336 -0.535814 0
    outer loop
      vertex 14.3815 -12.4088 0
      vertex 14.0451 -12.9389 7
      vertex 14.0451 -12.9389 0
    endloop
  endfacet
  facet normal 0.951076 -0.308956 0
    outer loop
      vertex 14.6489 -11.8406 7
      vertex 14.8429 -11.2434 0
      vertex 14.8429 -11.2434 7
    endloop
  endfacet
  facet normal 0.951076 -0.308956 0
    outer loop
      vertex 14.8429 -11.2434 0
      vertex 14.6489 -11.8406 7
      vertex 14.6489 -11.8406 0
    endloop
  endfacet
  facet normal 0.248601 -0.968606 0
    outer loop
      vertex 10.9369 -14.9114 0
      vertex 11.5451 -14.7553 7
      vertex 10.9369 -14.9114 7
    endloop
  endfacet
  facet normal 0.248601 -0.968606 0
    outer loop
      vertex 11.5451 -14.7553 7
      vertex 10.9369 -14.9114 0
      vertex 11.5451 -14.7553 0
    endloop
  endfacet
  facet normal 0.125348 -0.992113 0
    outer loop
      vertex 10.314 -14.9901 0
      vertex 10.9369 -14.9114 7
      vertex 10.314 -14.9901 7
    endloop
  endfacet
  facet normal 0.125348 -0.992113 0
    outer loop
      vertex 10.9369 -14.9114 7
      vertex 10.314 -14.9901 0
      vertex 10.9369 -14.9114 0
    endloop
  endfacet
  facet normal 0.481784 -0.87629 0
    outer loop
      vertex 12.1289 -14.5241 0
      vertex 12.6791 -14.2216 7
      vertex 12.1289 -14.5241 7
    endloop
  endfacet
  facet normal 0.481784 -0.87629 0
    outer loop
      vertex 12.6791 -14.2216 7
      vertex 12.1289 -14.5241 0
      vertex 12.6791 -14.2216 0
    endloop
  endfacet
  facet normal 0.684624 -0.728896 0
    outer loop
      vertex 13.1871 -13.8526 0
      vertex 13.6448 -13.4227 7
      vertex 13.1871 -13.8526 7
    endloop
  endfacet
  facet normal 0.684624 -0.728896 0
    outer loop
      vertex 13.6448 -13.4227 7
      vertex 13.1871 -13.8526 0
      vertex 13.6448 -13.4227 0
    endloop
  endfacet
  facet normal 0.98227 -0.187471 0
    outer loop
      vertex 14.8429 -11.2434 7
      vertex 14.9606 -10.6267 0
      vertex 14.9606 -10.6267 7
    endloop
  endfacet
  facet normal 0.98227 -0.187471 0
    outer loop
      vertex 14.9606 -10.6267 0
      vertex 14.8429 -11.2434 7
      vertex 14.8429 -11.2434 0
    endloop
  endfacet
  facet normal 1 -0 0
    outer loop
      vertex -13.8 -8.8 7
      vertex -13.8 8.8 3
      vertex -13.8 8.8 7
    endloop
  endfacet
  facet normal 1 0 0
    outer loop
      vertex -13.8 8.8 3
      vertex -13.8 -8.8 7
      vertex -13.8 -8.8 3
    endloop
  endfacet
  facet normal 0.998029 0.0627481 0
    outer loop
      vertex -13.7606 -9.42667 7
      vertex -13.8 -8.8 3
      vertex -13.8 -8.8 7
    endloop
  endfacet
  facet normal 0.998029 0.0627481 0
    outer loop
      vertex -13.8 -8.8 3
      vertex -13.7606 -9.42667 7
      vertex -13.7606 -9.42667 3
    endloop
  endfacet
  facet normal 0.998029 -0.0627481 0
    outer loop
      vertex -13.8 8.8 7
      vertex -13.7606 9.42667 3
      vertex -13.7606 9.42667 7
    endloop
  endfacet
  facet normal 0.998029 -0.0627481 0
    outer loop
      vertex -13.7606 9.42667 3
      vertex -13.8 8.8 7
      vertex -13.8 8.8 3
    endloop
  endfacet
  facet normal 0.684624 -0.728896 0
    outer loop
      vertex -12.4448 12.2227 3
      vertex -11.9871 12.6526 7
      vertex -12.4448 12.2227 7
    endloop
  endfacet
  facet normal 0.684624 -0.728896 0
    outer loop
      vertex -11.9871 12.6526 7
      vertex -12.4448 12.2227 3
      vertex -11.9871 12.6526 3
    endloop
  endfacet
  facet normal 0.125336 0.992114 -0
    outer loop
      vertex -9.11395 -13.7901 3
      vertex -9.73691 -13.7114 7
      vertex -9.11395 -13.7901 7
    endloop
  endfacet
  facet normal 0.125336 0.992114 0
    outer loop
      vertex -9.73691 -13.7114 7
      vertex -9.11395 -13.7901 3
      vertex -9.73691 -13.7114 3
    endloop
  endfacet
  facet normal -0.998029 0.0627481 0
    outer loop
      vertex 13.7606 -9.42667 3
      vertex 13.8 -8.8 7
      vertex 13.8 -8.8 3
    endloop
  endfacet
  facet normal -0.998029 0.0627481 0
    outer loop
      vertex 13.8 -8.8 7
      vertex 13.7606 -9.42667 3
      vertex 13.7606 -9.42667 7
    endloop
  endfacet
  facet normal -0.125336 -0.992114 0
    outer loop
      vertex 9.11395 13.7901 3
      vertex 9.73691 13.7114 7
      vertex 9.11395 13.7901 7
    endloop
  endfacet
  facet normal -0.125336 -0.992114 -0
    outer loop
      vertex 9.73691 13.7114 7
      vertex 9.11395 13.7901 3
      vertex 9.73691 13.7114 3
    endloop
  endfacet
  facet normal 0.125336 -0.992114 0
    outer loop
      vertex -9.73691 13.7114 3
      vertex -9.11395 13.7901 7
      vertex -9.73691 13.7114 7
    endloop
  endfacet
  facet normal 0.125336 -0.992114 0
    outer loop
      vertex -9.11395 13.7901 7
      vertex -9.73691 13.7114 3
      vertex -9.11395 13.7901 3
    endloop
  endfacet
  facet normal 0 -1 0
    outer loop
      vertex -9.11395 13.7901 3
      vertex 9.11395 13.7901 7
      vertex -9.11395 13.7901 7
    endloop
  endfacet
  facet normal 0 -1 -0
    outer loop
      vertex 9.11395 13.7901 7
      vertex -9.11395 13.7901 3
      vertex 9.11395 13.7901 3
    endloop
  endfacet
  facet normal 0.770462 0.637486 0
    outer loop
      vertex -12.4448 -12.2227 7
      vertex -12.8451 -11.7389 3
      vertex -12.8451 -11.7389 7
    endloop
  endfacet
  facet normal 0.770462 0.637486 0
    outer loop
      vertex -12.8451 -11.7389 3
      vertex -12.4448 -12.2227 7
      vertex -12.4448 -12.2227 3
    endloop
  endfacet
  facet normal 0.904811 0.425812 0
    outer loop
      vertex -13.1815 -11.2088 7
      vertex -13.4489 -10.6406 3
      vertex -13.4489 -10.6406 7
    endloop
  endfacet
  facet normal 0.904811 0.425812 0
    outer loop
      vertex -13.4489 -10.6406 3
      vertex -13.1815 -11.2088 7
      vertex -13.1815 -11.2088 3
    endloop
  endfacet
  facet normal 0.481784 0.87629 -0
    outer loop
      vertex -10.9289 -13.3241 3
      vertex -11.4791 -13.0216 7
      vertex -10.9289 -13.3241 7
    endloop
  endfacet
  facet normal 0.481784 0.87629 0
    outer loop
      vertex -11.4791 -13.0216 7
      vertex -10.9289 -13.3241 3
      vertex -11.4791 -13.0216 3
    endloop
  endfacet
  facet normal 0 1 -0
    outer loop
      vertex 9.11395 -13.7901 3
      vertex -9.11395 -13.7901 7
      vertex 9.11395 -13.7901 7
    endloop
  endfacet
  facet normal 0 1 0
    outer loop
      vertex -9.11395 -13.7901 7
      vertex 9.11395 -13.7901 3
      vertex -9.11395 -13.7901 3
    endloop
  endfacet
  facet normal -0.951076 -0.308956 0
    outer loop
      vertex 13.6429 10.0434 3
      vertex 13.4489 10.6406 7
      vertex 13.4489 10.6406 3
    endloop
  endfacet
  facet normal -0.951076 -0.308956 0
    outer loop
      vertex 13.4489 10.6406 7
      vertex 13.6429 10.0434 3
      vertex 13.6429 10.0434 7
    endloop
  endfacet
  facet normal -0.481784 -0.87629 0
    outer loop
      vertex 10.9289 13.3241 3
      vertex 11.4791 13.0216 7
      vertex 10.9289 13.3241 7
    endloop
  endfacet
  facet normal -0.481784 -0.87629 -0
    outer loop
      vertex 11.4791 13.0216 7
      vertex 10.9289 13.3241 3
      vertex 11.4791 13.0216 3
    endloop
  endfacet
  facet normal -0.684624 -0.728896 0
    outer loop
      vertex 11.9871 12.6526 3
      vertex 12.4448 12.2227 7
      vertex 11.9871 12.6526 7
    endloop
  endfacet
  facet normal -0.684624 -0.728896 -0
    outer loop
      vertex 12.4448 12.2227 7
      vertex 11.9871 12.6526 3
      vertex 12.4448 12.2227 3
    endloop
  endfacet
  facet normal -1 0 0
    outer loop
      vertex 13.8 -8.8 3
      vertex 13.8 8.8 7
      vertex 13.8 8.8 3
    endloop
  endfacet
  facet normal -1 -0 0
    outer loop
      vertex 13.8 8.8 7
      vertex 13.8 -8.8 3
      vertex 13.8 -8.8 7
    endloop
  endfacet
  facet normal 0.982272 -0.187462 0
    outer loop
      vertex -13.7606 9.42667 7
      vertex -13.6429 10.0434 3
      vertex -13.6429 10.0434 7
    endloop
  endfacet
  facet normal 0.982272 -0.187462 0
    outer loop
      vertex -13.6429 10.0434 3
      vertex -13.7606 9.42667 7
      vertex -13.7606 9.42667 3
    endloop
  endfacet
  facet normal 0 0 1
    outer loop
      vertex 9.11395 13.7901 3
      vertex 13.8 8.8 3
      vertex 13.7606 9.42667 3
    endloop
  endfacet
  facet normal 0 0 1
    outer loop
      vertex -13.8 8.8 3
      vertex 13.8 8.8 3
      vertex 9.11395 13.7901 3
    endloop
  endfacet
  facet normal 0 0 1
    outer loop
      vertex 9.11395 13.7901 3
      vertex 13.7606 9.42667 3
      vertex 13.6429 10.0434 3
    endloop
  endfacet
  facet normal 0 0 1
    outer loop
      vertex 13.8 8.8 3
      vertex -13.8 8.8 3
      vertex 13.8 -8.8 3
    endloop
  endfacet
  facet normal 0 0 1
    outer loop
      vertex 9.11395 13.7901 3
      vertex 13.6429 10.0434 3
      vertex 13.4489 10.6406 3
    endloop
  endfacet
  facet normal 0 0 1
    outer loop
      vertex 13.8 -8.8 3
      vertex 9.11395 -13.7901 3
      vertex 13.7606 -9.42667 3
    endloop
  endfacet
  facet normal 0 0 1
    outer loop
      vertex 9.11395 13.7901 3
      vertex 13.4489 10.6406 3
      vertex 13.1815 11.2088 3
    endloop
  endfacet
  facet normal 0 0 1
    outer loop
      vertex 13.7606 -9.42667 3
      vertex 9.11395 -13.7901 3
      vertex 13.6429 -10.0434 3
    endloop
  endfacet
  facet normal 0 0 1
    outer loop
      vertex 9.11395 13.7901 3
      vertex 13.1815 11.2088 3
      vertex 12.8451 11.7389 3
    endloop
  endfacet
  facet normal 0 0 1
    outer loop
      vertex 13.6429 -10.0434 3
      vertex 9.11395 -13.7901 3
      vertex 13.4489 -10.6406 3
    endloop
  endfacet
  facet normal 0 0 1
    outer loop
      vertex 9.11395 13.7901 3
      vertex 12.8451 11.7389 3
      vertex 12.4448 12.2227 3
    endloop
  endfacet
  facet normal 0 0 1
    outer loop
      vertex 13.4489 -10.6406 3
      vertex 9.11395 -13.7901 3
      vertex 13.1815 -11.2088 3
    endloop
  endfacet
  facet normal 0 0 1
    outer loop
      vertex 9.11395 13.7901 3
      vertex 12.4448 12.2227 3
      vertex 11.9871 12.6526 3
    endloop
  endfacet
  facet normal 0 0 1
    outer loop
      vertex 13.1815 -11.2088 3
      vertex 9.11395 -13.7901 3
      vertex 12.8451 -11.7389 3
    endloop
  endfacet
  facet normal 0 0 1
    outer loop
      vertex 9.11395 13.7901 3
      vertex 11.9871 12.6526 3
      vertex 11.4791 13.0216 3
    endloop
  endfacet
  facet normal 0 0 1
    outer loop
      vertex 12.8451 -11.7389 3
      vertex 9.11395 -13.7901 3
      vertex 12.4448 -12.2227 3
    endloop
  endfacet
  facet normal 0 0 1
    outer loop
      vertex 9.11395 13.7901 3
      vertex 11.4791 13.0216 3
      vertex 10.9289 13.3241 3
    endloop
  endfacet
  facet normal 0 0 1
    outer loop
      vertex 12.4448 -12.2227 3
      vertex 9.11395 -13.7901 3
      vertex 11.9871 -12.6526 3
    endloop
  endfacet
  facet normal 0 0 1
    outer loop
      vertex 9.11395 13.7901 3
      vertex 10.9289 13.3241 3
      vertex 10.3451 13.5553 3
    endloop
  endfacet
  facet normal 0 0 1
    outer loop
      vertex 11.9871 -12.6526 3
      vertex 9.11395 -13.7901 3
      vertex 11.4791 -13.0216 3
    endloop
  endfacet
  facet normal 0 0 1
    outer loop
      vertex 9.11395 13.7901 3
      vertex 10.3451 13.5553 3
      vertex 9.73691 13.7114 3
    endloop
  endfacet
  facet normal 0 0 1
    outer loop
      vertex 11.4791 -13.0216 3
      vertex 9.11395 -13.7901 3
      vertex 10.9289 -13.3241 3
    endloop
  endfacet
  facet normal 0 0 1
    outer loop
      vertex 10.9289 -13.3241 3
      vertex 9.11395 -13.7901 3
      vertex 10.3451 -13.5553 3
    endloop
  endfacet
  facet normal 0 0 1
    outer loop
      vertex 10.3451 -13.5553 3
      vertex 9.11395 -13.7901 3
      vertex 9.73691 -13.7114 3
    endloop
  endfacet
  facet normal 0 0 1
    outer loop
      vertex -13.8 8.8 3
      vertex 9.11395 13.7901 3
      vertex -9.11395 13.7901 3
    endloop
  endfacet
  facet normal 0 0 1
    outer loop
      vertex -13.8 -8.8 3
      vertex 13.8 -8.8 3
      vertex -13.8 8.8 3
    endloop
  endfacet
  facet normal 0 0 1
    outer loop
      vertex -13.8 8.8 3
      vertex -9.11395 13.7901 3
      vertex -9.73691 13.7114 3
    endloop
  endfacet
  facet normal 0 0 1
    outer loop
      vertex 13.8 -8.8 3
      vertex -13.8 -8.8 3
      vertex 9.11395 -13.7901 3
    endloop
  endfacet
  facet normal 0 0 1
    outer loop
      vertex -13.8 8.8 3
      vertex -9.73691 13.7114 3
      vertex -10.3451 13.5553 3
    endloop
  endfacet
  facet normal 0 0 1
    outer loop
      vertex 9.11395 -13.7901 3
      vertex -13.8 -8.8 3
      vertex -9.11395 -13.7901 3
    endloop
  endfacet
  facet normal 0 0 1
    outer loop
      vertex -13.8 8.8 3
      vertex -10.3451 13.5553 3
      vertex -10.9289 13.3241 3
    endloop
  endfacet
  facet normal 0 0 1
    outer loop
      vertex -9.11395 -13.7901 3
      vertex -13.8 -8.8 3
      vertex -9.73691 -13.7114 3
    endloop
  endfacet
  facet normal 0 0 1
    outer loop
      vertex -13.8 8.8 3
      vertex -10.9289 13.3241 3
      vertex -11.4791 13.0216 3
    endloop
  endfacet
  facet normal 0 0 1
    outer loop
      vertex -9.73691 -13.7114 3
      vertex -13.8 -8.8 3
      vertex -10.3451 -13.5553 3
    endloop
  endfacet
  facet normal 0 0 1
    outer loop
      vertex -13.8 8.8 3
      vertex -11.4791 13.0216 3
      vertex -11.9871 12.6526 3
    endloop
  endfacet
  facet normal 0 0 1
    outer loop
      vertex -10.3451 -13.5553 3
      vertex -13.8 -8.8 3
      vertex -10.9289 -13.3241 3
    endloop
  endfacet
  facet normal 0 0 1
    outer loop
      vertex -13.8 8.8 3
      vertex -11.9871 12.6526 3
      vertex -12.4448 12.2227 3
    endloop
  endfacet
  facet normal 0 0 1
    outer loop
      vertex -10.9289 -13.3241 3
      vertex -13.8 -8.8 3
      vertex -11.4791 -13.0216 3
    endloop
  endfacet
  facet normal 0 0 1
    outer loop
      vertex -13.8 8.8 3
      vertex -12.4448 12.2227 3
      vertex -12.8451 11.7389 3
    endloop
  endfacet
  facet normal 0 0 1
    outer loop
      vertex -11.4791 -13.0216 3
      vertex -13.8 -8.8 3
      vertex -11.9871 -12.6526 3
    endloop
  endfacet
  facet normal 0 0 1
    outer loop
      vertex -13.8 8.8 3
      vertex -12.8451 11.7389 3
      vertex -13.1815 11.2088 3
    endloop
  endfacet
  facet normal 0 0 1
    outer loop
      vertex -11.9871 -12.6526 3
      vertex -13.8 -8.8 3
      vertex -12.4448 -12.2227 3
    endloop
  endfacet
  facet normal 0 0 1
    outer loop
      vertex -13.8 8.8 3
      vertex -13.1815 11.2088 3
      vertex -13.4489 10.6406 3
    endloop
  endfacet
  facet normal 0 0 1
    outer loop
      vertex -12.4448 -12.2227 3
      vertex -13.8 -8.8 3
      vertex -12.8451 -11.7389 3
    endloop
  endfacet
  facet normal 0 0 1
    outer loop
      vertex -13.8 8.8 3
      vertex -13.4489 10.6406 3
      vertex -13.6429 10.0434 3
    endloop
  endfacet
  facet normal 0 0 1
    outer loop
      vertex -12.8451 -11.7389 3
      vertex -13.8 -8.8 3
      vertex -13.1815 -11.2088 3
    endloop
  endfacet
  facet normal 0 0 1
    outer loop
      vertex -13.8 8.8 3
      vertex -13.6429 10.0434 3
      vertex -13.7606 9.42667 3
    endloop
  endfacet
  facet normal 0 0 1
    outer loop
      vertex -13.1815 -11.2088 3
      vertex -13.8 -8.8 3
      vertex -13.4489 -10.6406 3
    endloop
  endfacet
  facet normal 0 0 1
    outer loop
      vertex -13.4489 -10.6406 3
      vertex -13.8 -8.8 3
      vertex -13.6429 -10.0434 3
    endloop
  endfacet
  facet normal 0 0 1
    outer loop
      vertex -13.6429 -10.0434 3
      vertex -13.8 -8.8 3
      vertex -13.7606 -9.42667 3
    endloop
  endfacet
  facet normal 0.951076 0.308956 0
    outer loop
      vertex -13.4489 -10.6406 7
      vertex -13.6429 -10.0434 3
      vertex -13.6429 -10.0434 7
    endloop
  endfacet
  facet normal 0.951076 0.308956 0
    outer loop
      vertex -13.6429 -10.0434 3
      vertex -13.4489 -10.6406 7
      vertex -13.4489 -10.6406 3
    endloop
  endfacet
  facet normal 0.844336 0.535814 0
    outer loop
      vertex -12.8451 -11.7389 7
      vertex -13.1815 -11.2088 3
      vertex -13.1815 -11.2088 7
    endloop
  endfacet
  facet normal 0.844336 0.535814 0
    outer loop
      vertex -13.1815 -11.2088 3
      vertex -12.8451 -11.7389 7
      vertex -12.8451 -11.7389 3
    endloop
  endfacet
  facet normal -0.125336 0.992114 0
    outer loop
      vertex 9.73691 -13.7114 3
      vertex 9.11395 -13.7901 7
      vertex 9.73691 -13.7114 7
    endloop
  endfacet
  facet normal -0.125336 0.992114 0
    outer loop
      vertex 9.11395 -13.7901 7
      vertex 9.73691 -13.7114 3
      vertex 9.11395 -13.7901 3
    endloop
  endfacet
  facet normal -0.248605 0.968605 0
    outer loop
      vertex 10.3451 -13.5553 3
      vertex 9.73691 -13.7114 7
      vertex 10.3451 -13.5553 7
    endloop
  endfacet
  facet normal -0.248605 0.968605 0
    outer loop
      vertex 9.73691 -13.7114 7
      vertex 10.3451 -13.5553 3
      vertex 9.73691 -13.7114 3
    endloop
  endfacet
  facet normal -0.770462 -0.637486 0
    outer loop
      vertex 12.8451 11.7389 3
      vertex 12.4448 12.2227 7
      vertex 12.4448 12.2227 3
    endloop
  endfacet
  facet normal -0.770462 -0.637486 0
    outer loop
      vertex 12.4448 12.2227 7
      vertex 12.8451 11.7389 3
      vertex 12.8451 11.7389 7
    endloop
  endfacet
  facet normal -0.587698 -0.80908 0
    outer loop
      vertex 11.4791 13.0216 3
      vertex 11.9871 12.6526 7
      vertex 11.4791 13.0216 7
    endloop
  endfacet
  facet normal -0.587698 -0.80908 -0
    outer loop
      vertex 11.9871 12.6526 7
      vertex 11.4791 13.0216 3
      vertex 11.9871 12.6526 3
    endloop
  endfacet
  facet normal -0.368203 -0.929745 0
    outer loop
      vertex 10.3451 13.5553 3
      vertex 10.9289 13.3241 7
      vertex 10.3451 13.5553 7
    endloop
  endfacet
  facet normal -0.368203 -0.929745 -0
    outer loop
      vertex 10.9289 13.3241 7
      vertex 10.3451 13.5553 3
      vertex 10.9289 13.3241 3
    endloop
  endfacet
  facet normal -0.982272 -0.187462 0
    outer loop
      vertex 13.7606 9.42667 3
      vertex 13.6429 10.0434 7
      vertex 13.6429 10.0434 3
    endloop
  endfacet
  facet normal -0.982272 -0.187462 0
    outer loop
      vertex 13.6429 10.0434 7
      vertex 13.7606 9.42667 3
      vertex 13.7606 9.42667 7
    endloop
  endfacet
  facet normal -0.998029 -0.0627481 0
    outer loop
      vertex 13.8 8.8 3
      vertex 13.7606 9.42667 7
      vertex 13.7606 9.42667 3
    endloop
  endfacet
  facet normal -0.998029 -0.0627481 0
    outer loop
      vertex 13.7606 9.42667 7
      vertex 13.8 8.8 3
      vertex 13.8 8.8 7
    endloop
  endfacet
  facet normal 0.481784 -0.87629 0
    outer loop
      vertex -11.4791 13.0216 3
      vertex -10.9289 13.3241 7
      vertex -11.4791 13.0216 7
    endloop
  endfacet
  facet normal 0.481784 -0.87629 0
    outer loop
      vertex -10.9289 13.3241 7
      vertex -11.4791 13.0216 3
      vertex -10.9289 13.3241 3
    endloop
  endfacet
  facet normal 0.770462 -0.637486 0
    outer loop
      vertex -12.8451 11.7389 7
      vertex -12.4448 12.2227 3
      vertex -12.4448 12.2227 7
    endloop
  endfacet
  facet normal 0.770462 -0.637486 0
    outer loop
      vertex -12.4448 12.2227 3
      vertex -12.8451 11.7389 7
      vertex -12.8451 11.7389 3
    endloop
  endfacet
  facet normal 0.951076 -0.308956 0
    outer loop
      vertex -13.6429 10.0434 7
      vertex -13.4489 10.6406 3
      vertex -13.4489 10.6406 7
    endloop
  endfacet
  facet normal 0.951076 -0.308956 0
    outer loop
      vertex -13.4489 10.6406 3
      vertex -13.6429 10.0434 7
      vertex -13.6429 10.0434 3
    endloop
  endfacet
  facet normal 0.904811 -0.425812 0
    outer loop
      vertex -13.4489 10.6406 7
      vertex -13.1815 11.2088 3
      vertex -13.1815 11.2088 7
    endloop
  endfacet
  facet normal 0.904811 -0.425812 0
    outer loop
      vertex -13.1815 11.2088 3
      vertex -13.4489 10.6406 7
      vertex -13.4489 10.6406 3
    endloop
  endfacet
  facet normal 0.982272 0.187462 0
    outer loop
      vertex -13.6429 -10.0434 7
      vertex -13.7606 -9.42667 3
      vertex -13.7606 -9.42667 7
    endloop
  endfacet
  facet normal 0.982272 0.187462 0
    outer loop
      vertex -13.7606 -9.42667 3
      vertex -13.6429 -10.0434 7
      vertex -13.6429 -10.0434 3
    endloop
  endfacet
  facet normal 0.368203 0.929745 -0
    outer loop
      vertex -10.3451 -13.5553 3
      vertex -10.9289 -13.3241 7
      vertex -10.3451 -13.5553 7
    endloop
  endfacet
  facet normal 0.368203 0.929745 0
    outer loop
      vertex -10.9289 -13.3241 7
      vertex -10.3451 -13.5553 3
      vertex -10.9289 -13.3241 3
    endloop
  endfacet
  facet normal 0.248605 0.968605 -0
    outer loop
      vertex -9.73691 -13.7114 3
      vertex -10.3451 -13.5553 7
      vertex -9.73691 -13.7114 7
    endloop
  endfacet
  facet normal 0.248605 0.968605 0
    outer loop
      vertex -10.3451 -13.5553 7
      vertex -9.73691 -13.7114 3
      vertex -10.3451 -13.5553 3
    endloop
  endfacet
  facet normal 0.587698 0.80908 -0
    outer loop
      vertex -11.4791 -13.0216 3
      vertex -11.9871 -12.6526 7
      vertex -11.4791 -13.0216 7
    endloop
  endfacet
  facet normal 0.587698 0.80908 0
    outer loop
      vertex -11.9871 -12.6526 7
      vertex -11.4791 -13.0216 3
      vertex -11.9871 -12.6526 3
    endloop
  endfacet
  facet normal 0.684624 0.728896 -0
    outer loop
      vertex -11.9871 -12.6526 3
      vertex -12.4448 -12.2227 7
      vertex -11.9871 -12.6526 7
    endloop
  endfacet
  facet normal 0.684624 0.728896 0
    outer loop
      vertex -12.4448 -12.2227 7
      vertex -11.9871 -12.6526 3
      vertex -12.4448 -12.2227 3
    endloop
  endfacet
  facet normal -0.770462 0.637486 0
    outer loop
      vertex 12.4448 -12.2227 3
      vertex 12.8451 -11.7389 7
      vertex 12.8451 -11.7389 3
    endloop
  endfacet
  facet normal -0.770462 0.637486 0
    outer loop
      vertex 12.8451 -11.7389 7
      vertex 12.4448 -12.2227 3
      vertex 12.4448 -12.2227 7
    endloop
  endfacet
  facet normal -0.368203 0.929745 0
    outer loop
      vertex 10.9289 -13.3241 3
      vertex 10.3451 -13.5553 7
      vertex 10.9289 -13.3241 7
    endloop
  endfacet
  facet normal -0.368203 0.929745 0
    outer loop
      vertex 10.3451 -13.5553 7
      vertex 10.9289 -13.3241 3
      vertex 10.3451 -13.5553 3
    endloop
  endfacet
  facet normal -0.951076 0.308956 0
    outer loop
      vertex 13.4489 -10.6406 3
      vertex 13.6429 -10.0434 7
      vertex 13.6429 -10.0434 3
    endloop
  endfacet
  facet normal -0.951076 0.308956 0
    outer loop
      vertex 13.6429 -10.0434 7
      vertex 13.4489 -10.6406 3
      vertex 13.4489 -10.6406 7
    endloop
  endfacet
  facet normal -0.904811 -0.425812 0
    outer loop
      vertex 13.4489 10.6406 3
      vertex 13.1815 11.2088 7
      vertex 13.1815 11.2088 3
    endloop
  endfacet
  facet normal -0.904811 -0.425812 0
    outer loop
      vertex 13.1815 11.2088 7
      vertex 13.4489 10.6406 3
      vertex 13.4489 10.6406 7
    endloop
  endfacet
  facet normal -0.248605 -0.968605 0
    outer loop
      vertex 9.73691 13.7114 3
      vertex 10.3451 13.5553 7
      vertex 9.73691 13.7114 7
    endloop
  endfacet
  facet normal -0.248605 -0.968605 -0
    outer loop
      vertex 10.3451 13.5553 7
      vertex 9.73691 13.7114 3
      vertex 10.3451 13.5553 3
    endloop
  endfacet
  facet normal 0.368203 -0.929745 0
    outer loop
      vertex -10.9289 13.3241 3
      vertex -10.3451 13.5553 7
      vertex -10.9289 13.3241 7
    endloop
  endfacet
  facet normal 0.368203 -0.929745 0
    outer loop
      vertex -10.3451 13.5553 7
      vertex -10.9289 13.3241 3
      vertex -10.3451 13.5553 3
    endloop
  endfacet
  facet normal 0.248605 -0.968605 0
    outer loop
      vertex -10.3451 13.5553 3
      vertex -9.73691 13.7114 7
      vertex -10.3451 13.5553 7
    endloop
  endfacet
  facet normal 0.248605 -0.968605 0
    outer loop
      vertex -9.73691 13.7114 7
      vertex -10.3451 13.5553 3
      vertex -9.73691 13.7114 3
    endloop
  endfacet
  facet normal 0.844336 -0.535814 0
    outer loop
      vertex -13.1815 11.2088 7
      vertex -12.8451 11.7389 3
      vertex -12.8451 11.7389 7
    endloop
  endfacet
  facet normal 0.844336 -0.535814 0
    outer loop
      vertex -12.8451 11.7389 3
      vertex -13.1815 11.2088 7
      vertex -13.1815 11.2088 3
    endloop
  endfacet
  facet normal -0.904811 0.425812 0
    outer loop
      vertex 13.1815 -11.2088 3
      vertex 13.4489 -10.6406 7
      vertex 13.4489 -10.6406 3
    endloop
  endfacet
  facet normal -0.904811 0.425812 0
    outer loop
      vertex 13.4489 -10.6406 7
      vertex 13.1815 -11.2088 3
      vertex 13.1815 -11.2088 7
    endloop
  endfacet
  facet normal -0.684624 0.728896 0
    outer loop
      vertex 12.4448 -12.2227 3
      vertex 11.9871 -12.6526 7
      vertex 12.4448 -12.2227 7
    endloop
  endfacet
  facet normal -0.684624 0.728896 0
    outer loop
      vertex 11.9871 -12.6526 7
      vertex 12.4448 -12.2227 3
      vertex 11.9871 -12.6526 3
    endloop
  endfacet
  facet normal -0.587698 0.80908 0
    outer loop
      vertex 11.9871 -12.6526 3
      vertex 11.4791 -13.0216 7
      vertex 11.9871 -12.6526 7
    endloop
  endfacet
  facet normal -0.587698 0.80908 0
    outer loop
      vertex 11.4791 -13.0216 7
      vertex 11.9871 -12.6526 3
      vertex 11.4791 -13.0216 3
    endloop
  endfacet
  facet normal -0.481784 0.87629 0
    outer loop
      vertex 11.4791 -13.0216 3
      vertex 10.9289 -13.3241 7
      vertex 11.4791 -13.0216 7
    endloop
  endfacet
  facet normal -0.481784 0.87629 0
    outer loop
      vertex 10.9289 -13.3241 7
      vertex 11.4791 -13.0216 3
      vertex 10.9289 -13.3241 3
    endloop
  endfacet
  facet normal -0.844336 0.535814 0
    outer loop
      vertex 12.8451 -11.7389 3
      vertex 13.1815 -11.2088 7
      vertex 13.1815 -11.2088 3
    endloop
  endfacet
  facet normal -0.844336 0.535814 0
    outer loop
      vertex 13.1815 -11.2088 7
      vertex 12.8451 -11.7389 3
      vertex 12.8451 -11.7389 7
    endloop
  endfacet
  facet normal -0.982272 0.187462 0
    outer loop
      vertex 13.6429 -10.0434 3
      vertex 13.7606 -9.42667 7
      vertex 13.7606 -9.42667 3
    endloop
  endfacet
  facet normal -0.982272 0.187462 0
    outer loop
      vertex 13.7606 -9.42667 7
      vertex 13.6429 -10.0434 3
      vertex 13.6429 -10.0434 7
    endloop
  endfacet
  facet normal -0.844336 -0.535814 0
    outer loop
      vertex 13.1815 11.2088 3
      vertex 12.8451 11.7389 7
      vertex 12.8451 11.7389 3
    endloop
  endfacet
  facet normal -0.844336 -0.535814 0
    outer loop
      vertex 12.8451 11.7389 7
      vertex 13.1815 11.2088 3
      vertex 13.1815 11.2088 7
    endloop
  endfacet
  facet normal 0.587698 -0.80908 0
    outer loop
      vertex -11.9871 12.6526 3
      vertex -11.4791 13.0216 7
      vertex -11.9871 12.6526 7
    endloop
  endfacet
  facet normal 0.587698 -0.80908 0
    outer loop
      vertex -11.4791 13.0216 7
      vertex -11.9871 12.6526 3
      vertex -11.4791 13.0216 3
    endloop
  endfacet
endsolid OpenSCAD_Model
