solid OpenSCAD_Model
  facet normal -1 0 0
    outer loop
      vertex -30 -10 0
      vertex -30 10 12
      vertex -30 10 0
    endloop
  endfacet
  facet normal -1 -0 0
    outer loop
      vertex -30 10 12
      vertex -30 -10 0
      vertex -30 -10 12
    endloop
  endfacet
  facet normal 0.99803 0.0627451 0
    outer loop
      vertex 30 10 12
      vertex 29.9606 10.6267 0
      vertex 29.9606 10.6267 12
    endloop
  endfacet
  facet normal 0.99803 0.0627451 0
    outer loop
      vertex 29.9606 10.6267 0
      vertex 30 10 12
      vertex 30 10 0
    endloop
  endfacet
  facet normal -0 0 1
    outer loop
      vertex 28.6429 10.0434 12
      vertex 30 10 12
      vertex 29.9606 10.6267 12
    endloop
  endfacet
  facet normal 0 0 1
    outer loop
      vertex 30 10 12
      vertex 28.8 8.8 12
      vertex 30 -10 12
    endloop
  endfacet
  facet normal -0 0 1
    outer loop
      vertex 28.4489 10.6406 12
      vertex 29.9606 10.6267 12
      vertex 29.8429 11.2434 12
    endloop
  endfacet
  facet normal -0 0 1
    outer loop
      vertex 28.8 -8.8 12
      vertex 30 -10 12
      vertex 28.8 8.8 12
    endloop
  endfacet
  facet normal 0 0 1
    outer loop
      vertex 28.1815 11.2088 12
      vertex 29.8429 11.2434 12
      vertex 29.6489 11.8406 12
    endloop
  endfacet
  facet normal -0 0 1
    outer loop
      vertex 28.7606 -9.42667 12
      vertex 30 -10 12
      vertex 28.8 -8.8 12
    endloop
  endfacet
  facet normal 0 0 1
    outer loop
      vertex 28.1815 11.2088 12
      vertex 29.6489 11.8406 12
      vertex 29.3815 12.4088 12
    endloop
  endfacet
  facet normal 0 0 1
    outer loop
      vertex 28.6429 -10.0434 12
      vertex 30 -10 12
      vertex 28.7606 -9.42667 12
    endloop
  endfacet
  facet normal 0 0 1
    outer loop
      vertex 27.8451 11.7389 12
      vertex 29.3815 12.4088 12
      vertex 29.0451 12.9389 12
    endloop
  endfacet
  facet normal 0 0 1
    outer loop
      vertex 30 -10 12
      vertex 28.6429 -10.0434 12
      vertex 29.9606 -10.6267 12
    endloop
  endfacet
  facet normal 0 0 1
    outer loop
      vertex 28.4489 -10.6406 12
      vertex 29.9606 -10.6267 12
      vertex 28.6429 -10.0434 12
    endloop
  endfacet
  facet normal 0 0 1
    outer loop
      vertex 30 10 12
      vertex 28.7606 9.42667 12
      vertex 28.8 8.8 12
    endloop
  endfacet
  facet normal 0 0 1
    outer loop
      vertex 27.4448 12.2227 12
      vertex 29.0451 12.9389 12
      vertex 28.6448 13.4227 12
    endloop
  endfacet
  facet normal 0 0 1
    outer loop
      vertex 30 10 12
      vertex 28.6429 10.0434 12
      vertex 28.7606 9.42667 12
    endloop
  endfacet
  facet normal 0 0 1
    outer loop
      vertex 29.9606 10.6267 12
      vertex 28.4489 10.6406 12
      vertex 28.6429 10.0434 12
    endloop
  endfacet
  facet normal 0 0 1
    outer loop
      vertex 27.4448 12.2227 12
      vertex 28.6448 13.4227 12
      vertex 28.1871 13.8526 12
    endloop
  endfacet
  facet normal 0 0 1
    outer loop
      vertex 29.8429 11.2434 12
      vertex 28.1815 11.2088 12
      vertex 28.4489 10.6406 12
    endloop
  endfacet
  facet normal 0 0 1
    outer loop
      vertex 29.3815 12.4088 12
      vertex 27.8451 11.7389 12
      vertex 28.1815 11.2088 12
    endloop
  endfacet
  facet normal 0 0 1
    outer loop
      vertex 26.9871 12.6526 12
      vertex 28.1871 13.8526 12
      vertex 27.6791 14.2216 12
    endloop
  endfacet
  facet normal 0 0 1
    outer loop
      vertex 29.0451 12.9389 12
      vertex 27.4448 12.2227 12
      vertex 27.8451 11.7389 12
    endloop
  endfacet
  facet normal 0 0 1
    outer loop
      vertex 26.4791 13.0216 12
      vertex 27.6791 14.2216 12
      vertex 27.1289 14.5241 12
    endloop
  endfacet
  facet normal 0 0 1
    outer loop
      vertex 28.1871 13.8526 12
      vertex 26.9871 12.6526 12
      vertex 27.4448 12.2227 12
    endloop
  endfacet
  facet normal 0 0 1
    outer loop
      vertex 25.9289 13.3241 12
      vertex 27.1289 14.5241 12
      vertex 26.5451 14.7553 12
    endloop
  endfacet
  facet normal 0 0 1
    outer loop
      vertex 27.6791 14.2216 12
      vertex 26.4791 13.0216 12
      vertex 26.9871 12.6526 12
    endloop
  endfacet
  facet normal 0 0 1
    outer loop
      vertex 25.9289 13.3241 12
      vertex 26.5451 14.7553 12
      vertex 25.9369 14.9114 12
    endloop
  endfacet
  facet normal 0 0 1
    outer loop
      vertex 27.1289 14.5241 12
      vertex 25.9289 13.3241 12
      vertex 26.4791 13.0216 12
    endloop
  endfacet
  facet normal 0 0 1
    outer loop
      vertex 25.9369 14.9114 12
      vertex 25.3451 13.5553 12
      vertex 25.9289 13.3241 12
    endloop
  endfacet
  facet normal 0 0 1
    outer loop
      vertex 25.314 14.9901 12
      vertex 25.3451 13.5553 12
      vertex 25.9369 14.9114 12
    endloop
  endfacet
  facet normal 0 0 1
    outer loop
      vertex 25.314 14.9901 12
      vertex 24.7369 13.7114 12
      vertex 25.3451 13.5553 12
    endloop
  endfacet
  facet normal 0 0 1
    outer loop
      vertex 25.314 14.9901 12
      vertex 24.114 13.7901 12
      vertex 24.7369 13.7114 12
    endloop
  endfacet
  facet normal 0 0 1
    outer loop
      vertex 25.314 14.9901 12
      vertex -24.114 13.7901 12
      vertex 24.114 13.7901 12
    endloop
  endfacet
  facet normal -0 0 1
    outer loop
      vertex -25.314 14.9901 12
      vertex -24.114 13.7901 12
      vertex 25.314 14.9901 12
    endloop
  endfacet
  facet normal 0 0 1
    outer loop
      vertex -25.314 14.9901 12
      vertex -24.7369 13.7114 12
      vertex -24.114 13.7901 12
    endloop
  endfacet
  facet normal 0 0 1
    outer loop
      vertex -25.314 14.9901 12
      vertex -25.3451 13.5553 12
      vertex -24.7369 13.7114 12
    endloop
  endfacet
  facet normal -0 0 1
    outer loop
      vertex -25.9369 14.9114 12
      vertex -25.3451 13.5553 12
      vertex -25.314 14.9901 12
    endloop
  endfacet
  facet normal 0 0 1
    outer loop
      vertex -25.3451 13.5553 12
      vertex -25.9369 14.9114 12
      vertex -25.9289 13.3241 12
    endloop
  endfacet
  facet normal -0 0 1
    outer loop
      vertex -26.5451 14.7553 12
      vertex -25.9289 13.3241 12
      vertex -25.9369 14.9114 12
    endloop
  endfacet
  facet normal -0 0 1
    outer loop
      vertex -27.1289 14.5241 12
      vertex -25.9289 13.3241 12
      vertex -26.5451 14.7553 12
    endloop
  endfacet
  facet normal 0 0 1
    outer loop
      vertex -25.9289 13.3241 12
      vertex -27.1289 14.5241 12
      vertex -26.4791 13.0216 12
    endloop
  endfacet
  facet normal -0 0 1
    outer loop
      vertex -27.6791 14.2216 12
      vertex -26.4791 13.0216 12
      vertex -27.1289 14.5241 12
    endloop
  endfacet
  facet normal 0 0 1
    outer loop
      vertex -26.4791 13.0216 12
      vertex -27.6791 14.2216 12
      vertex -26.9871 12.6526 12
    endloop
  endfacet
  facet normal -0 0 1
    outer loop
      vertex -28.1871 13.8526 12
      vertex -26.9871 12.6526 12
      vertex -27.6791 14.2216 12
    endloop
  endfacet
  facet normal 0 0 1
    outer loop
      vertex -26.9871 12.6526 12
      vertex -28.1871 13.8526 12
      vertex -27.4448 12.2227 12
    endloop
  endfacet
  facet normal -0 0 1
    outer loop
      vertex -28.6448 13.4227 12
      vertex -27.4448 12.2227 12
      vertex -28.1871 13.8526 12
    endloop
  endfacet
  facet normal -0 0 1
    outer loop
      vertex -29.0451 12.9389 12
      vertex -27.4448 12.2227 12
      vertex -28.6448 13.4227 12
    endloop
  endfacet
  facet normal 0 0 1
    outer loop
      vertex -27.4448 12.2227 12
      vertex -29.0451 12.9389 12
      vertex -27.8451 11.7389 12
    endloop
  endfacet
  facet normal -0 0 1
    outer loop
      vertex -29.3815 12.4088 12
      vertex -27.8451 11.7389 12
      vertex -29.0451 12.9389 12
    endloop
  endfacet
  facet normal 0 0 1
    outer loop
      vertex -27.8451 11.7389 12
      vertex -29.3815 12.4088 12
      vertex -28.1815 11.2088 12
    endloop
  endfacet
  facet normal -0 0 1
    outer loop
      vertex -29.6489 11.8406 12
      vertex -28.1815 11.2088 12
      vertex -29.3815 12.4088 12
    endloop
  endfacet
  facet normal -0 0 1
    outer loop
      vertex -29.8429 11.2434 12
      vertex -28.1815 11.2088 12
      vertex -29.6489 11.8406 12
    endloop
  endfacet
  facet normal 0 0 1
    outer loop
      vertex -29.9606 10.6267 12
      vertex -28.4489 10.6406 12
      vertex -29.8429 11.2434 12
    endloop
  endfacet
  facet normal 0 0 1
    outer loop
      vertex -28.1815 11.2088 12
      vertex -29.8429 11.2434 12
      vertex -28.4489 10.6406 12
    endloop
  endfacet
  facet normal 0 0 1
    outer loop
      vertex 29.9606 -10.6267 12
      vertex 28.4489 -10.6406 12
      vertex 29.8429 -11.2434 12
    endloop
  endfacet
  facet normal -0 0 1
    outer loop
      vertex 28.1815 -11.2088 12
      vertex 29.8429 -11.2434 12
      vertex 28.4489 -10.6406 12
    endloop
  endfacet
  facet normal 0 0 1
    outer loop
      vertex 29.8429 -11.2434 12
      vertex 28.1815 -11.2088 12
      vertex 29.6489 -11.8406 12
    endloop
  endfacet
  facet normal 0 0 1
    outer loop
      vertex 29.6489 -11.8406 12
      vertex 28.1815 -11.2088 12
      vertex 29.3815 -12.4088 12
    endloop
  endfacet
  facet normal -0 0 1
    outer loop
      vertex 27.8451 -11.7389 12
      vertex 29.3815 -12.4088 12
      vertex 28.1815 -11.2088 12
    endloop
  endfacet
  facet normal 0 0 1
    outer loop
      vertex 29.3815 -12.4088 12
      vertex 27.8451 -11.7389 12
      vertex 29.0451 -12.9389 12
    endloop
  endfacet
  facet normal -0 0 1
    outer loop
      vertex 27.4448 -12.2227 12
      vertex 29.0451 -12.9389 12
      vertex 27.8451 -11.7389 12
    endloop
  endfacet
  facet normal 0 0 1
    outer loop
      vertex 29.0451 -12.9389 12
      vertex 27.4448 -12.2227 12
      vertex 28.6448 -13.4227 12
    endloop
  endfacet
  facet normal 0 0 1
    outer loop
      vertex 28.6448 -13.4227 12
      vertex 27.4448 -12.2227 12
      vertex 28.1871 -13.8526 12
    endloop
  endfacet
  facet normal -0 0 1
    outer loop
      vertex 26.9871 -12.6526 12
      vertex 28.1871 -13.8526 12
      vertex 27.4448 -12.2227 12
    endloop
  endfacet
  facet normal 0 0 1
    outer loop
      vertex 28.1871 -13.8526 12
      vertex 26.9871 -12.6526 12
      vertex 27.6791 -14.2216 12
    endloop
  endfacet
  facet normal -0 0 1
    outer loop
      vertex 26.4791 -13.0216 12
      vertex 27.6791 -14.2216 12
      vertex 26.9871 -12.6526 12
    endloop
  endfacet
  facet normal 0 0 1
    outer loop
      vertex 27.6791 -14.2216 12
      vertex 26.4791 -13.0216 12
      vertex 27.1289 -14.5241 12
    endloop
  endfacet
  facet normal -0 0 1
    outer loop
      vertex 25.9289 -13.3241 12
      vertex 27.1289 -14.5241 12
      vertex 26.4791 -13.0216 12
    endloop
  endfacet
  facet normal 0 0 1
    outer loop
      vertex 27.1289 -14.5241 12
      vertex 25.9289 -13.3241 12
      vertex 26.5451 -14.7553 12
    endloop
  endfacet
  facet normal 0 0 1
    outer loop
      vertex 26.5451 -14.7553 12
      vertex 25.9289 -13.3241 12
      vertex 25.9369 -14.9114 12
    endloop
  endfacet
  facet normal -0 0 1
    outer loop
      vertex 25.3451 -13.5553 12
      vertex 25.9369 -14.9114 12
      vertex 25.9289 -13.3241 12
    endloop
  endfacet
  facet normal 0 0 1
    outer loop
      vertex 25.3451 -13.5553 12
      vertex 25.314 -14.9901 12
      vertex 25.9369 -14.9114 12
    endloop
  endfacet
  facet normal -0 0 1
    outer loop
      vertex 24.7369 -13.7114 12
      vertex 25.314 -14.9901 12
      vertex 25.3451 -13.5553 12
    endloop
  endfacet
  facet normal -0 0 1
    outer loop
      vertex 24.114 -13.7901 12
      vertex 25.314 -14.9901 12
      vertex 24.7369 -13.7114 12
    endloop
  endfacet
  facet normal -0 0 1
    outer loop
      vertex -24.114 -13.7901 12
      vertex 25.314 -14.9901 12
      vertex 24.114 -13.7901 12
    endloop
  endfacet
  facet normal 0 0 1
    outer loop
      vertex -24.114 -13.7901 12
      vertex -25.314 -14.9901 12
      vertex 25.314 -14.9901 12
    endloop
  endfacet
  facet normal 0 0 1
    outer loop
      vertex -24.7369 -13.7114 12
      vertex -25.314 -14.9901 12
      vertex -24.114 -13.7901 12
    endloop
  endfacet
  facet normal 0 0 1
    outer loop
      vertex -25.3451 -13.5553 12
      vertex -25.314 -14.9901 12
      vertex -24.7369 -13.7114 12
    endloop
  endfacet
  facet normal 0 0 1
    outer loop
      vertex -25.9369 -14.9114 12
      vertex -25.3451 -13.5553 12
      vertex -25.9289 -13.3241 12
    endloop
  endfacet
  facet normal 0 0 1
    outer loop
      vertex -25.3451 -13.5553 12
      vertex -25.9369 -14.9114 12
      vertex -25.314 -14.9901 12
    endloop
  endfacet
  facet normal 0 0 1
    outer loop
      vertex -27.1289 -14.5241 12
      vertex -25.9289 -13.3241 12
      vertex -26.4791 -13.0216 12
    endloop
  endfacet
  facet normal 0 0 1
    outer loop
      vertex -25.9289 -13.3241 12
      vertex -26.5451 -14.7553 12
      vertex -25.9369 -14.9114 12
    endloop
  endfacet
  facet normal 0 0 1
    outer loop
      vertex -27.6791 -14.2216 12
      vertex -26.4791 -13.0216 12
      vertex -26.9871 -12.6526 12
    endloop
  endfacet
  facet normal 0 0 1
    outer loop
      vertex -25.9289 -13.3241 12
      vertex -27.1289 -14.5241 12
      vertex -26.5451 -14.7553 12
    endloop
  endfacet
  facet normal 0 0 1
    outer loop
      vertex -28.1871 -13.8526 12
      vertex -26.9871 -12.6526 12
      vertex -27.4448 -12.2227 12
    endloop
  endfacet
  facet normal 0 0 1
    outer loop
      vertex -26.4791 -13.0216 12
      vertex -27.6791 -14.2216 12
      vertex -27.1289 -14.5241 12
    endloop
  endfacet
  facet normal 0 0 1
    outer loop
      vertex -29.0451 -12.9389 12
      vertex -27.4448 -12.2227 12
      vertex -27.8451 -11.7389 12
    endloop
  endfacet
  facet normal 0 0 1
    outer loop
      vertex -29.3815 -12.4088 12
      vertex -27.8451 -11.7389 12
      vertex -28.1815 -11.2088 12
    endloop
  endfacet
  facet normal 0 0 1
    outer loop
      vertex -26.9871 -12.6526 12
      vertex -28.1871 -13.8526 12
      vertex -27.6791 -14.2216 12
    endloop
  endfacet
  facet normal 0 0 1
    outer loop
      vertex -29.8429 -11.2434 12
      vertex -28.1815 -11.2088 12
      vertex -28.4489 -10.6406 12
    endloop
  endfacet
  facet normal -0 0 1
    outer loop
      vertex -29.9606 -10.6267 12
      vertex -28.4489 -10.6406 12
      vertex -28.6429 -10.0434 12
    endloop
  endfacet
  facet normal 0 0 1
    outer loop
      vertex -27.4448 -12.2227 12
      vertex -28.6448 -13.4227 12
      vertex -28.1871 -13.8526 12
    endloop
  endfacet
  facet normal -0 0 1
    outer loop
      vertex -30 -10 12
      vertex -28.6429 -10.0434 12
      vertex -28.7606 -9.42667 12
    endloop
  endfacet
  facet normal 0 0 1
    outer loop
      vertex -30 -10 12
      vertex -28.7606 -9.42667 12
      vertex -28.8 -8.8 12
    endloop
  endfacet
  facet normal 0 0 1
    outer loop
      vertex -27.4448 -12.2227 12
      vertex -29.0451 -12.9389 12
      vertex -28.6448 -13.4227 12
    endloop
  endfacet
  facet normal 0 0 1
    outer loop
      vertex -28.8 8.8 12
      vertex -30 10 12
      vertex -28.8 -8.8 12
    endloop
  endfacet
  facet normal 0 0 1
    outer loop
      vertex -28.4489 10.6406 12
      vertex -29.9606 10.6267 12
      vertex -28.6429 10.0434 12
    endloop
  endfacet
  facet normal 0 0 1
    outer loop
      vertex -30 -10 12
      vertex -28.8 -8.8 12
      vertex -30 10 12
    endloop
  endfacet
  facet normal 0 0 1
    outer loop
      vertex -30 10 12
      vertex -28.6429 10.0434 12
      vertex -29.9606 10.6267 12
    endloop
  endfacet
  facet normal 0 0 1
    outer loop
      vertex -28.6429 -10.0434 12
      vertex -30 -10 12
      vertex -29.9606 -10.6267 12
    endloop
  endfacet
  facet normal 0 0 1
    outer loop
      vertex -28.6429 10.0434 12
      vertex -30 10 12
      vertex -28.7606 9.42667 12
    endloop
  endfacet
  facet normal 0 0 1
    outer loop
      vertex -27.8451 -11.7389 12
      vertex -29.3815 -12.4088 12
      vertex -29.0451 -12.9389 12
    endloop
  endfacet
  facet normal 0 0 1
    outer loop
      vertex -28.7606 9.42667 12
      vertex -30 10 12
      vertex -28.8 8.8 12
    endloop
  endfacet
  facet normal 0 0 1
    outer loop
      vertex -28.1815 -11.2088 12
      vertex -29.6489 -11.8406 12
      vertex -29.3815 -12.4088 12
    endloop
  endfacet
  facet normal 0 0 1
    outer loop
      vertex -28.1815 -11.2088 12
      vertex -29.8429 -11.2434 12
      vertex -29.6489 -11.8406 12
    endloop
  endfacet
  facet normal 0 0 1
    outer loop
      vertex -28.4489 -10.6406 12
      vertex -29.9606 -10.6267 12
      vertex -29.8429 -11.2434 12
    endloop
  endfacet
  facet normal 0 -1 0
    outer loop
      vertex -25.314 -14.9901 0
      vertex 25.314 -14.9901 12
      vertex -25.314 -14.9901 12
    endloop
  endfacet
  facet normal 0 -1 -0
    outer loop
      vertex 25.314 -14.9901 12
      vertex -25.314 -14.9901 0
      vertex 25.314 -14.9901 0
    endloop
  endfacet
  facet normal -0.684624 -0.728896 0
    outer loop
      vertex -28.6448 -13.4227 0
      vertex -28.1871 -13.8526 12
      vertex -28.6448 -13.4227 12
    endloop
  endfacet
  facet normal -0.684624 -0.728896 -0
    outer loop
      vertex -28.1871 -13.8526 12
      vertex -28.6448 -13.4227 0
      vertex -28.1871 -13.8526 0
    endloop
  endfacet
  facet normal 0.99803 -0.0627451 0
    outer loop
      vertex 29.9606 -10.6267 12
      vertex 30 -10 0
      vertex 30 -10 12
    endloop
  endfacet
  facet normal 0.99803 -0.0627451 0
    outer loop
      vertex 30 -10 0
      vertex 29.9606 -10.6267 12
      vertex 29.9606 -10.6267 0
    endloop
  endfacet
  facet normal 0.248601 0.968606 -0
    outer loop
      vertex 26.5451 14.7553 0
      vertex 25.9369 14.9114 12
      vertex 26.5451 14.7553 12
    endloop
  endfacet
  facet normal 0.248601 0.968606 0
    outer loop
      vertex 25.9369 14.9114 12
      vertex 26.5451 14.7553 0
      vertex 25.9369 14.9114 0
    endloop
  endfacet
  facet normal 1 -0 0
    outer loop
      vertex 30 -10 12
      vertex 30 10 0
      vertex 30 10 12
    endloop
  endfacet
  facet normal 1 0 0
    outer loop
      vertex 30 10 0
      vertex 30 -10 12
      vertex 30 -10 0
    endloop
  endfacet
  facet normal 0 1 -0
    outer loop
      vertex 25.314 14.9901 0
      vertex -25.314 14.9901 12
      vertex 25.314 14.9901 12
    endloop
  endfacet
  facet normal 0 1 0
    outer loop
      vertex -25.314 14.9901 12
      vertex 25.314 14.9901 0
      vertex -25.314 14.9901 0
    endloop
  endfacet
  facet normal -0.951076 -0.308956 0
    outer loop
      vertex -29.6489 -11.8406 0
      vertex -29.8429 -11.2434 12
      vertex -29.8429 -11.2434 0
    endloop
  endfacet
  facet normal -0.951076 -0.308956 0
    outer loop
      vertex -29.8429 -11.2434 12
      vertex -29.6489 -11.8406 0
      vertex -29.6489 -11.8406 12
    endloop
  endfacet
  facet normal -0.368203 -0.929745 0
    outer loop
      vertex -27.1289 -14.5241 0
      vertex -26.5451 -14.7553 12
      vertex -27.1289 -14.5241 12
    endloop
  endfacet
  facet normal -0.368203 -0.929745 -0
    outer loop
      vertex -26.5451 -14.7553 12
      vertex -27.1289 -14.5241 0
      vertex -26.5451 -14.7553 0
    endloop
  endfacet
  facet normal 0.125348 -0.992113 0
    outer loop
      vertex 25.314 -14.9901 0
      vertex 25.9369 -14.9114 12
      vertex 25.314 -14.9901 12
    endloop
  endfacet
  facet normal 0.125348 -0.992113 0
    outer loop
      vertex 25.9369 -14.9114 12
      vertex 25.314 -14.9901 0
      vertex 25.9369 -14.9114 0
    endloop
  endfacet
  facet normal 0.951076 -0.308956 0
    outer loop
      vertex 29.6489 -11.8406 12
      vertex 29.8429 -11.2434 0
      vertex 29.8429 -11.2434 12
    endloop
  endfacet
  facet normal 0.951076 -0.308956 0
    outer loop
      vertex 29.8429 -11.2434 0
      vertex 29.6489 -11.8406 12
      vertex 29.6489 -11.8406 0
    endloop
  endfacet
  facet normal 0.951076 0.308956 0
    outer loop
      vertex 29.8429 11.2434 12
      vertex 29.6489 11.8406 0
      vertex 29.6489 11.8406 12
    endloop
  endfacet
  facet normal 0.951076 0.308956 0
    outer loop
      vertex 29.6489 11.8406 0
      vertex 29.8429 11.2434 12
      vertex 29.8429 11.2434 0
    endloop
  endfacet
  facet normal 0.770462 0.637486 0
    outer loop
      vertex 29.0451 12.9389 12
      vertex 28.6448 13.4227 0
      vertex 28.6448 13.4227 12
    endloop
  endfacet
  facet normal 0.770462 0.637486 0
    outer loop
      vertex 28.6448 13.4227 0
      vertex 29.0451 12.9389 12
      vertex 29.0451 12.9389 0
    endloop
  endfacet
  facet normal 0.125348 0.992113 -0
    outer loop
      vertex 25.9369 14.9114 0
      vertex 25.314 14.9901 12
      vertex 25.9369 14.9114 12
    endloop
  endfacet
  facet normal 0.125348 0.992113 0
    outer loop
      vertex 25.314 14.9901 12
      vertex 25.9369 14.9114 0
      vertex 25.314 14.9901 0
    endloop
  endfacet
  facet normal -0.99803 0.0627451 0
    outer loop
      vertex -30 10 0
      vertex -29.9606 10.6267 12
      vertex -29.9606 10.6267 0
    endloop
  endfacet
  facet normal -0.99803 0.0627451 0
    outer loop
      vertex -29.9606 10.6267 12
      vertex -30 10 0
      vertex -30 10 12
    endloop
  endfacet
  facet normal -0.770462 0.637486 0
    outer loop
      vertex -29.0451 12.9389 0
      vertex -28.6448 13.4227 12
      vertex -28.6448 13.4227 0
    endloop
  endfacet
  facet normal -0.770462 0.637486 0
    outer loop
      vertex -28.6448 13.4227 12
      vertex -29.0451 12.9389 0
      vertex -29.0451 12.9389 12
    endloop
  endfacet
  facet normal -0.248601 0.968606 0
    outer loop
      vertex -25.9369 14.9114 0
      vertex -26.5451 14.7553 12
      vertex -25.9369 14.9114 12
    endloop
  endfacet
  facet normal -0.248601 0.968606 0
    outer loop
      vertex -26.5451 14.7553 12
      vertex -25.9369 14.9114 0
      vertex -26.5451 14.7553 0
    endloop
  endfacet
  facet normal -0.99803 -0.0627451 0
    outer loop
      vertex -29.9606 -10.6267 0
      vertex -30 -10 12
      vertex -30 -10 0
    endloop
  endfacet
  facet normal -0.99803 -0.0627451 0
    outer loop
      vertex -30 -10 12
      vertex -29.9606 -10.6267 0
      vertex -29.9606 -10.6267 12
    endloop
  endfacet
  facet normal 0 0 -1
    outer loop
      vertex 25.314 -14.9901 0
      vertex 30 -10 0
      vertex 29.9606 -10.6267 0
    endloop
  endfacet
  facet normal -0 0 -1
    outer loop
      vertex 30 -10 0
      vertex 25.314 -14.9901 0
      vertex 30 10 0
    endloop
  endfacet
  facet normal 0 0 -1
    outer loop
      vertex 25.314 -14.9901 0
      vertex 29.9606 -10.6267 0
      vertex 29.8429 -11.2434 0
    endloop
  endfacet
  facet normal 0 0 -1
    outer loop
      vertex 25.314 14.9901 0
      vertex 30 10 0
      vertex 25.314 -14.9901 0
    endloop
  endfacet
  facet normal 0 0 -1
    outer loop
      vertex 25.314 -14.9901 0
      vertex 29.8429 -11.2434 0
      vertex 29.6489 -11.8406 0
    endloop
  endfacet
  facet normal 0 0 -1
    outer loop
      vertex 30 10 0
      vertex 25.314 14.9901 0
      vertex 29.9606 10.6267 0
    endloop
  endfacet
  facet normal 0 0 -1
    outer loop
      vertex 25.314 -14.9901 0
      vertex 29.6489 -11.8406 0
      vertex 29.3815 -12.4088 0
    endloop
  endfacet
  facet normal 0 0 -1
    outer loop
      vertex 29.9606 10.6267 0
      vertex 25.314 14.9901 0
      vertex 29.8429 11.2434 0
    endloop
  endfacet
  facet normal 0 0 -1
    outer loop
      vertex 25.314 -14.9901 0
      vertex 29.3815 -12.4088 0
      vertex 29.0451 -12.9389 0
    endloop
  endfacet
  facet normal 0 0 -1
    outer loop
      vertex 29.8429 11.2434 0
      vertex 25.314 14.9901 0
      vertex 29.6489 11.8406 0
    endloop
  endfacet
  facet normal 0 0 -1
    outer loop
      vertex 25.314 -14.9901 0
      vertex 29.0451 -12.9389 0
      vertex 28.6448 -13.4227 0
    endloop
  endfacet
  facet normal 0 0 -1
    outer loop
      vertex 29.6489 11.8406 0
      vertex 25.314 14.9901 0
      vertex 29.3815 12.4088 0
    endloop
  endfacet
  facet normal 0 0 -1
    outer loop
      vertex 25.314 -14.9901 0
      vertex 28.6448 -13.4227 0
      vertex 28.1871 -13.8526 0
    endloop
  endfacet
  facet normal 0 0 -1
    outer loop
      vertex 29.3815 12.4088 0
      vertex 25.314 14.9901 0
      vertex 29.0451 12.9389 0
    endloop
  endfacet
  facet normal 0 0 -1
    outer loop
      vertex 25.314 -14.9901 0
      vertex 28.1871 -13.8526 0
      vertex 27.6791 -14.2216 0
    endloop
  endfacet
  facet normal 0 0 -1
    outer loop
      vertex 29.0451 12.9389 0
      vertex 25.314 14.9901 0
      vertex 28.6448 13.4227 0
    endloop
  endfacet
  facet normal 0 0 -1
    outer loop
      vertex 25.314 -14.9901 0
      vertex 27.6791 -14.2216 0
      vertex 27.1289 -14.5241 0
    endloop
  endfacet
  facet normal 0 0 -1
    outer loop
      vertex 28.6448 13.4227 0
      vertex 25.314 14.9901 0
      vertex 28.1871 13.8526 0
    endloop
  endfacet
  facet normal 0 0 -1
    outer loop
      vertex 25.314 -14.9901 0
      vertex 27.1289 -14.5241 0
      vertex 26.5451 -14.7553 0
    endloop
  endfacet
  facet normal 0 0 -1
    outer loop
      vertex 28.1871 13.8526 0
      vertex 25.314 14.9901 0
      vertex 27.6791 14.2216 0
    endloop
  endfacet
  facet normal 0 0 -1
    outer loop
      vertex 25.314 -14.9901 0
      vertex 26.5451 -14.7553 0
      vertex 25.9369 -14.9114 0
    endloop
  endfacet
  facet normal 0 0 -1
    outer loop
      vertex 27.6791 14.2216 0
      vertex 25.314 14.9901 0
      vertex 27.1289 14.5241 0
    endloop
  endfacet
  facet normal 0 0 -1
    outer loop
      vertex 27.1289 14.5241 0
      vertex 25.314 14.9901 0
      vertex 26.5451 14.7553 0
    endloop
  endfacet
  facet normal 0 0 -1
    outer loop
      vertex 26.5451 14.7553 0
      vertex 25.314 14.9901 0
      vertex 25.9369 14.9114 0
    endloop
  endfacet
  facet normal 0 0 -1
    outer loop
      vertex -25.314 -14.9901 0
      vertex 25.314 14.9901 0
      vertex 25.314 -14.9901 0
    endloop
  endfacet
  facet normal 0 0 -1
    outer loop
      vertex -25.314 -14.9901 0
      vertex -25.314 14.9901 0
      vertex 25.314 14.9901 0
    endloop
  endfacet
  facet normal 0 0 -1
    outer loop
      vertex -30 -10 0
      vertex -25.314 -14.9901 0
      vertex -25.9369 -14.9114 0
    endloop
  endfacet
  facet normal 0 0 -1
    outer loop
      vertex -25.314 -14.9901 0
      vertex -30 -10 0
      vertex -25.314 14.9901 0
    endloop
  endfacet
  facet normal 0 0 -1
    outer loop
      vertex -30 -10 0
      vertex -25.9369 -14.9114 0
      vertex -26.5451 -14.7553 0
    endloop
  endfacet
  facet normal 0 0 -1
    outer loop
      vertex -30 10 0
      vertex -25.314 14.9901 0
      vertex -30 -10 0
    endloop
  endfacet
  facet normal 0 0 -1
    outer loop
      vertex -30 -10 0
      vertex -26.5451 -14.7553 0
      vertex -27.1289 -14.5241 0
    endloop
  endfacet
  facet normal 0 0 -1
    outer loop
      vertex -25.314 14.9901 0
      vertex -30 10 0
      vertex -25.9369 14.9114 0
    endloop
  endfacet
  facet normal 0 0 -1
    outer loop
      vertex -30 -10 0
      vertex -27.1289 -14.5241 0
      vertex -27.6791 -14.2216 0
    endloop
  endfacet
  facet normal 0 0 -1
    outer loop
      vertex -25.9369 14.9114 0
      vertex -30 10 0
      vertex -26.5451 14.7553 0
    endloop
  endfacet
  facet normal 0 0 -1
    outer loop
      vertex -30 -10 0
      vertex -27.6791 -14.2216 0
      vertex -28.1871 -13.8526 0
    endloop
  endfacet
  facet normal 0 0 -1
    outer loop
      vertex -26.5451 14.7553 0
      vertex -30 10 0
      vertex -27.1289 14.5241 0
    endloop
  endfacet
  facet normal 0 0 -1
    outer loop
      vertex -30 -10 0
      vertex -28.1871 -13.8526 0
      vertex -28.6448 -13.4227 0
    endloop
  endfacet
  facet normal 0 0 -1
    outer loop
      vertex -27.1289 14.5241 0
      vertex -30 10 0
      vertex -27.6791 14.2216 0
    endloop
  endfacet
  facet normal 0 0 -1
    outer loop
      vertex -30 -10 0
      vertex -28.6448 -13.4227 0
      vertex -29.0451 -12.9389 0
    endloop
  endfacet
  facet normal 0 0 -1
    outer loop
      vertex -27.6791 14.2216 0
      vertex -30 10 0
      vertex -28.1871 13.8526 0
    endloop
  endfacet
  facet normal 0 0 -1
    outer loop
      vertex -30 -10 0
      vertex -29.0451 -12.9389 0
      vertex -29.3815 -12.4088 0
    endloop
  endfacet
  facet normal 0 0 -1
    outer loop
      vertex -28.1871 13.8526 0
      vertex -30 10 0
      vertex -28.6448 13.4227 0
    endloop
  endfacet
  facet normal 0 0 -1
    outer loop
      vertex -30 -10 0
      vertex -29.3815 -12.4088 0
      vertex -29.6489 -11.8406 0
    endloop
  endfacet
  facet normal 0 0 -1
    outer loop
      vertex -28.6448 13.4227 0
      vertex -30 10 0
      vertex -29.0451 12.9389 0
    endloop
  endfacet
  facet normal 0 0 -1
    outer loop
      vertex -30 -10 0
      vertex -29.6489 -11.8406 0
      vertex -29.8429 -11.2434 0
    endloop
  endfacet
  facet normal 0 0 -1
    outer loop
      vertex -29.0451 12.9389 0
      vertex -30 10 0
      vertex -29.3815 12.4088 0
    endloop
  endfacet
  facet normal 0 0 -1
    outer loop
      vertex -30 -10 0
      vertex -29.8429 -11.2434 0
      vertex -29.9606 -10.6267 0
    endloop
  endfacet
  facet normal 0 0 -1
    outer loop
      vertex -29.3815 12.4088 0
      vertex -30 10 0
      vertex -29.6489 11.8406 0
    endloop
  endfacet
  facet normal 0 0 -1
    outer loop
      vertex -29.6489 11.8406 0
      vertex -30 10 0
      vertex -29.8429 11.2434 0
    endloop
  endfacet
  facet normal 0 0 -1
    outer loop
      vertex -29.8429 11.2434 0
      vertex -30 10 0
      vertex -29.9606 10.6267 0
    endloop
  endfacet
  facet normal -0.770462 -0.637486 0
    outer loop
      vertex -28.6448 -13.4227 0
      vertex -29.0451 -12.9389 12
      vertex -29.0451 -12.9389 0
    endloop
  endfacet
  facet normal -0.770462 -0.637486 0
    outer loop
      vertex -29.0451 -12.9389 12
      vertex -28.6448 -13.4227 0
      vertex -28.6448 -13.4227 12
    endloop
  endfacet
  facet normal -0.904811 -0.425812 0
    outer loop
      vertex -29.3815 -12.4088 0
      vertex -29.6489 -11.8406 12
      vertex -29.6489 -11.8406 0
    endloop
  endfacet
  facet normal -0.904811 -0.425812 0
    outer loop
      vertex -29.6489 -11.8406 12
      vertex -29.3815 -12.4088 0
      vertex -29.3815 -12.4088 12
    endloop
  endfacet
  facet normal -0.587698 -0.80908 0
    outer loop
      vertex -28.1871 -13.8526 0
      vertex -27.6791 -14.2216 12
      vertex -28.1871 -13.8526 12
    endloop
  endfacet
  facet normal -0.587698 -0.80908 -0
    outer loop
      vertex -27.6791 -14.2216 12
      vertex -28.1871 -13.8526 0
      vertex -27.6791 -14.2216 0
    endloop
  endfacet
  facet normal -0.248601 -0.968606 0
    outer loop
      vertex -26.5451 -14.7553 0
      vertex -25.9369 -14.9114 12
      vertex -26.5451 -14.7553 12
    endloop
  endfacet
  facet normal -0.248601 -0.968606 -0
    outer loop
      vertex -25.9369 -14.9114 12
      vertex -26.5451 -14.7553 0
      vertex -25.9369 -14.9114 0
    endloop
  endfacet
  facet normal -0.125348 -0.992113 0
    outer loop
      vertex -25.9369 -14.9114 0
      vertex -25.314 -14.9901 12
      vertex -25.9369 -14.9114 12
    endloop
  endfacet
  facet normal -0.125348 -0.992113 -0
    outer loop
      vertex -25.314 -14.9901 12
      vertex -25.9369 -14.9114 0
      vertex -25.314 -14.9901 0
    endloop
  endfacet
  facet normal 0.770462 -0.637486 0
    outer loop
      vertex 28.6448 -13.4227 12
      vertex 29.0451 -12.9389 0
      vertex 29.0451 -12.9389 12
    endloop
  endfacet
  facet normal 0.770462 -0.637486 0
    outer loop
      vertex 29.0451 -12.9389 0
      vertex 28.6448 -13.4227 12
      vertex 28.6448 -13.4227 0
    endloop
  endfacet
  facet normal 0.98227 0.187471 0
    outer loop
      vertex 29.9606 10.6267 12
      vertex 29.8429 11.2434 0
      vertex 29.8429 11.2434 12
    endloop
  endfacet
  facet normal 0.98227 0.187471 0
    outer loop
      vertex 29.8429 11.2434 0
      vertex 29.9606 10.6267 12
      vertex 29.9606 10.6267 0
    endloop
  endfacet
  facet normal 0.844336 0.535814 0
    outer loop
      vertex 29.3815 12.4088 12
      vertex 29.0451 12.9389 0
      vertex 29.0451 12.9389 12
    endloop
  endfacet
  facet normal 0.844336 0.535814 0
    outer loop
      vertex 29.0451 12.9389 0
      vertex 29.3815 12.4088 12
      vertex 29.3815 12.4088 0
    endloop
  endfacet
  facet normal 0.904811 0.425812 0
    outer loop
      vertex 29.6489 11.8406 12
      vertex 29.3815 12.4088 0
      vertex 29.3815 12.4088 12
    endloop
  endfacet
  facet normal 0.904811 0.425812 0
    outer loop
      vertex 29.3815 12.4088 0
      vertex 29.6489 11.8406 12
      vertex 29.6489 11.8406 0
    endloop
  endfacet
  facet normal 0.684624 0.728896 -0
    outer loop
      vertex 28.6448 13.4227 0
      vertex 28.1871 13.8526 12
      vertex 28.6448 13.4227 12
    endloop
  endfacet
  facet normal 0.684624 0.728896 0
    outer loop
      vertex 28.1871 13.8526 12
      vertex 28.6448 13.4227 0
      vertex 28.1871 13.8526 0
    endloop
  endfacet
  facet normal -0.98227 0.187471 0
    outer loop
      vertex -29.9606 10.6267 0
      vertex -29.8429 11.2434 12
      vertex -29.8429 11.2434 0
    endloop
  endfacet
  facet normal -0.98227 0.187471 0
    outer loop
      vertex -29.8429 11.2434 12
      vertex -29.9606 10.6267 0
      vertex -29.9606 10.6267 12
    endloop
  endfacet
  facet normal -0.904811 0.425812 0
    outer loop
      vertex -29.6489 11.8406 0
      vertex -29.3815 12.4088 12
      vertex -29.3815 12.4088 0
    endloop
  endfacet
  facet normal -0.904811 0.425812 0
    outer loop
      vertex -29.3815 12.4088 12
      vertex -29.6489 11.8406 0
      vertex -29.6489 11.8406 12
    endloop
  endfacet
  facet normal -0.684624 0.728896 0
    outer loop
      vertex -28.1871 13.8526 0
      vertex -28.6448 13.4227 12
      vertex -28.1871 13.8526 12
    endloop
  endfacet
  facet normal -0.684624 0.728896 0
    outer loop
      vertex -28.6448 13.4227 12
      vertex -28.1871 13.8526 0
      vertex -28.6448 13.4227 0
    endloop
  endfacet
  facet normal -0.587698 0.80908 0
    outer loop
      vertex -27.6791 14.2216 0
      vertex -28.1871 13.8526 12
      vertex -27.6791 14.2216 12
    endloop
  endfacet
  facet normal -0.587698 0.80908 0
    outer loop
      vertex -28.1871 13.8526 12
      vertex -27.6791 14.2216 0
      vertex -28.1871 13.8526 0
    endloop
  endfacet
  facet normal -0.368203 0.929745 0
    outer loop
      vertex -26.5451 14.7553 0
      vertex -27.1289 14.5241 12
      vertex -26.5451 14.7553 12
    endloop
  endfacet
  facet normal -0.368203 0.929745 0
    outer loop
      vertex -27.1289 14.5241 12
      vertex -26.5451 14.7553 0
      vertex -27.1289 14.5241 0
    endloop
  endfacet
  facet normal -0.125348 0.992113 0
    outer loop
      vertex -25.314 14.9901 0
      vertex -25.9369 14.9114 12
      vertex -25.314 14.9901 12
    endloop
  endfacet
  facet normal -0.125348 0.992113 0
    outer loop
      vertex -25.9369 14.9114 12
      vertex -25.314 14.9901 0
      vertex -25.9369 14.9114 0
    endloop
  endfacet
  facet normal -0.98227 -0.187471 0
    outer loop
      vertex -29.8429 -11.2434 0
      vertex -29.9606 -10.6267 12
      vertex -29.9606 -10.6267 0
    endloop
  endfacet
  facet normal -0.98227 -0.187471 0
    outer loop
      vertex -29.9606 -10.6267 12
      vertex -29.8429 -11.2434 0
      vertex -29.8429 -11.2434 12
    endloop
  endfacet
  facet normal -0.844336 -0.535814 0
    outer loop
      vertex -29.0451 -12.9389 0
      vertex -29.3815 -12.4088 12
      vertex -29.3815 -12.4088 0
    endloop
  endfacet
  facet normal -0.844336 -0.535814 0
    outer loop
      vertex -29.3815 -12.4088 12
      vertex -29.0451 -12.9389 0
      vertex -29.0451 -12.9389 12
    endloop
  endfacet
  facet normal -0.481784 -0.87629 0
    outer loop
      vertex -27.6791 -14.2216 0
      vertex -27.1289 -14.5241 12
      vertex -27.6791 -14.2216 12
    endloop
  endfacet
  facet normal -0.481784 -0.87629 -0
    outer loop
      vertex -27.1289 -14.5241 12
      vertex -27.6791 -14.2216 0
      vertex -27.1289 -14.5241 0
    endloop
  endfacet
  facet normal 0.98227 -0.187471 0
    outer loop
      vertex 29.8429 -11.2434 12
      vertex 29.9606 -10.6267 0
      vertex 29.9606 -10.6267 12
    endloop
  endfacet
  facet normal 0.98227 -0.187471 0
    outer loop
      vertex 29.9606 -10.6267 0
      vertex 29.8429 -11.2434 12
      vertex 29.8429 -11.2434 0
    endloop
  endfacet
  facet normal 0.844336 -0.535814 0
    outer loop
      vertex 29.0451 -12.9389 12
      vertex 29.3815 -12.4088 0
      vertex 29.3815 -12.4088 12
    endloop
  endfacet
  facet normal 0.844336 -0.535814 0
    outer loop
      vertex 29.3815 -12.4088 0
      vertex 29.0451 -12.9389 12
      vertex 29.0451 -12.9389 0
    endloop
  endfacet
  facet normal 0.368203 0.929745 -0
    outer loop
      vertex 27.1289 14.5241 0
      vertex 26.5451 14.7553 12
      vertex 27.1289 14.5241 12
    endloop
  endfacet
  facet normal 0.368203 0.929745 0
    outer loop
      vertex 26.5451 14.7553 12
      vertex 27.1289 14.5241 0
      vertex 26.5451 14.7553 0
    endloop
  endfacet
  facet normal 0.481784 0.87629 -0
    outer loop
      vertex 27.6791 14.2216 0
      vertex 27.1289 14.5241 12
      vertex 27.6791 14.2216 12
    endloop
  endfacet
  facet normal 0.481784 0.87629 0
    outer loop
      vertex 27.1289 14.5241 12
      vertex 27.6791 14.2216 0
      vertex 27.1289 14.5241 0
    endloop
  endfacet
  facet normal -0.951076 0.308956 0
    outer loop
      vertex -29.8429 11.2434 0
      vertex -29.6489 11.8406 12
      vertex -29.6489 11.8406 0
    endloop
  endfacet
  facet normal -0.951076 0.308956 0
    outer loop
      vertex -29.6489 11.8406 12
      vertex -29.8429 11.2434 0
      vertex -29.8429 11.2434 12
    endloop
  endfacet
  facet normal -0.844336 0.535814 0
    outer loop
      vertex -29.3815 12.4088 0
      vertex -29.0451 12.9389 12
      vertex -29.0451 12.9389 0
    endloop
  endfacet
  facet normal -0.844336 0.535814 0
    outer loop
      vertex -29.0451 12.9389 12
      vertex -29.3815 12.4088 0
      vertex -29.3815 12.4088 12
    endloop
  endfacet
  facet normal 0.248601 -0.968606 0
    outer loop
      vertex 25.9369 -14.9114 0
      vertex 26.5451 -14.7553 12
      vertex 25.9369 -14.9114 12
    endloop
  endfacet
  facet normal 0.248601 -0.968606 0
    outer loop
      vertex 26.5451 -14.7553 12
      vertex 25.9369 -14.9114 0
      vertex 26.5451 -14.7553 0
    endloop
  endfacet
  facet normal 0.684624 -0.728896 0
    outer loop
      vertex 28.1871 -13.8526 0
      vertex 28.6448 -13.4227 12
      vertex 28.1871 -13.8526 12
    endloop
  endfacet
  facet normal 0.684624 -0.728896 0
    outer loop
      vertex 28.6448 -13.4227 12
      vertex 28.1871 -13.8526 0
      vertex 28.6448 -13.4227 0
    endloop
  endfacet
  facet normal 0.481784 -0.87629 0
    outer loop
      vertex 27.1289 -14.5241 0
      vertex 27.6791 -14.2216 12
      vertex 27.1289 -14.5241 12
    endloop
  endfacet
  facet normal 0.481784 -0.87629 0
    outer loop
      vertex 27.6791 -14.2216 12
      vertex 27.1289 -14.5241 0
      vertex 27.6791 -14.2216 0
    endloop
  endfacet
  facet normal 0.368203 -0.929745 0
    outer loop
      vertex 26.5451 -14.7553 0
      vertex 27.1289 -14.5241 12
      vertex 26.5451 -14.7553 12
    endloop
  endfacet
  facet normal 0.368203 -0.929745 0
    outer loop
      vertex 27.1289 -14.5241 12
      vertex 26.5451 -14.7553 0
      vertex 27.1289 -14.5241 0
    endloop
  endfacet
  facet normal 0.904811 -0.425812 0
    outer loop
      vertex 29.3815 -12.4088 12
      vertex 29.6489 -11.8406 0
      vertex 29.6489 -11.8406 12
    endloop
  endfacet
  facet normal 0.904811 -0.425812 0
    outer loop
      vertex 29.6489 -11.8406 0
      vertex 29.3815 -12.4088 12
      vertex 29.3815 -12.4088 0
    endloop
  endfacet
  facet normal 0.587698 0.80908 -0
    outer loop
      vertex 28.1871 13.8526 0
      vertex 27.6791 14.2216 12
      vertex 28.1871 13.8526 12
    endloop
  endfacet
  facet normal 0.587698 0.80908 0
    outer loop
      vertex 27.6791 14.2216 12
      vertex 28.1871 13.8526 0
      vertex 27.6791 14.2216 0
    endloop
  endfacet
  facet normal -0.481784 0.87629 0
    outer loop
      vertex -27.1289 14.5241 0
      vertex -27.6791 14.2216 12
      vertex -27.1289 14.5241 12
    endloop
  endfacet
  facet normal -0.481784 0.87629 0
    outer loop
      vertex -27.6791 14.2216 12
      vertex -27.1289 14.5241 0
      vertex -27.6791 14.2216 0
    endloop
  endfacet
  facet normal 0.587698 -0.80908 0
    outer loop
      vertex 27.6791 -14.2216 0
      vertex 28.1871 -13.8526 12
      vertex 27.6791 -14.2216 12
    endloop
  endfacet
  facet normal 0.587698 -0.80908 0
    outer loop
      vertex 28.1871 -13.8526 12
      vertex 27.6791 -14.2216 0
      vertex 28.1871 -13.8526 0
    endloop
  endfacet
  facet normal 1 -0 0
    outer loop
      vertex -28.8 -8.8 12
      vertex -28.8 8.8 3
      vertex -28.8 8.8 12
    endloop
  endfacet
  facet normal 1 0 0
    outer loop
      vertex -28.8 8.8 3
      vertex -28.8 -8.8 12
      vertex -28.8 -8.8 3
    endloop
  endfacet
  facet normal 0.770462 -0.637486 0
    outer loop
      vertex -27.8451 11.7389 12
      vertex -27.4448 12.2227 3
      vertex -27.4448 12.2227 12
    endloop
  endfacet
  facet normal 0.770462 -0.637486 0
    outer loop
      vertex -27.4448 12.2227 3
      vertex -27.8451 11.7389 12
      vertex -27.8451 11.7389 3
    endloop
  endfacet
  facet normal -0.481784 -0.87629 0
    outer loop
      vertex 25.9289 13.3241 3
      vertex 26.4791 13.0216 12
      vertex 25.9289 13.3241 12
    endloop
  endfacet
  facet normal -0.481784 -0.87629 -0
    outer loop
      vertex 26.4791 13.0216 12
      vertex 25.9289 13.3241 3
      vertex 26.4791 13.0216 3
    endloop
  endfacet
  facet normal 0 1 -0
    outer loop
      vertex 24.114 -13.7901 3
      vertex -24.114 -13.7901 12
      vertex 24.114 -13.7901 12
    endloop
  endfacet
  facet normal 0 1 0
    outer loop
      vertex -24.114 -13.7901 12
      vertex 24.114 -13.7901 3
      vertex -24.114 -13.7901 3
    endloop
  endfacet
  facet normal 0.125348 -0.992113 0
    outer loop
      vertex -24.7369 13.7114 3
      vertex -24.114 13.7901 12
      vertex -24.7369 13.7114 12
    endloop
  endfacet
  facet normal 0.125348 -0.992113 0
    outer loop
      vertex -24.114 13.7901 12
      vertex -24.7369 13.7114 3
      vertex -24.114 13.7901 3
    endloop
  endfacet
  facet normal 0.684624 0.728896 -0
    outer loop
      vertex -26.9871 -12.6526 3
      vertex -27.4448 -12.2227 12
      vertex -26.9871 -12.6526 12
    endloop
  endfacet
  facet normal 0.684624 0.728896 0
    outer loop
      vertex -27.4448 -12.2227 12
      vertex -26.9871 -12.6526 3
      vertex -27.4448 -12.2227 3
    endloop
  endfacet
  facet normal -1 0 0
    outer loop
      vertex 28.8 -8.8 3
      vertex 28.8 8.8 12
      vertex 28.8 8.8 3
    endloop
  endfacet
  facet normal -1 -0 0
    outer loop
      vertex 28.8 8.8 12
      vertex 28.8 -8.8 3
      vertex 28.8 -8.8 12
    endloop
  endfacet
  facet normal -0.998029 0.0627481 0
    outer loop
      vertex 28.7606 -9.42667 3
      vertex 28.8 -8.8 12
      vertex 28.8 -8.8 3
    endloop
  endfacet
  facet normal -0.998029 0.0627481 0
    outer loop
      vertex 28.8 -8.8 12
      vertex 28.7606 -9.42667 3
      vertex 28.7606 -9.42667 12
    endloop
  endfacet
  facet normal -0.248601 0.968606 0
    outer loop
      vertex 25.3451 -13.5553 3
      vertex 24.7369 -13.7114 12
      vertex 25.3451 -13.5553 12
    endloop
  endfacet
  facet normal -0.248601 0.968606 0
    outer loop
      vertex 24.7369 -13.7114 12
      vertex 25.3451 -13.5553 3
      vertex 24.7369 -13.7114 3
    endloop
  endfacet
  facet normal -0.125348 -0.992113 0
    outer loop
      vertex 24.114 13.7901 3
      vertex 24.7369 13.7114 12
      vertex 24.114 13.7901 12
    endloop
  endfacet
  facet normal -0.125348 -0.992113 -0
    outer loop
      vertex 24.7369 13.7114 12
      vertex 24.114 13.7901 3
      vertex 24.7369 13.7114 3
    endloop
  endfacet
  facet normal 0 -1 0
    outer loop
      vertex -24.114 13.7901 3
      vertex 24.114 13.7901 12
      vertex -24.114 13.7901 12
    endloop
  endfacet
  facet normal 0 -1 -0
    outer loop
      vertex 24.114 13.7901 12
      vertex -24.114 13.7901 3
      vertex 24.114 13.7901 3
    endloop
  endfacet
  facet normal 0.951076 0.308956 0
    outer loop
      vertex -28.4489 -10.6406 12
      vertex -28.6429 -10.0434 3
      vertex -28.6429 -10.0434 12
    endloop
  endfacet
  facet normal 0.951076 0.308956 0
    outer loop
      vertex -28.6429 -10.0434 3
      vertex -28.4489 -10.6406 12
      vertex -28.4489 -10.6406 3
    endloop
  endfacet
  facet normal 0.904811 0.425812 0
    outer loop
      vertex -28.1815 -11.2088 12
      vertex -28.4489 -10.6406 3
      vertex -28.4489 -10.6406 12
    endloop
  endfacet
  facet normal 0.904811 0.425812 0
    outer loop
      vertex -28.4489 -10.6406 3
      vertex -28.1815 -11.2088 12
      vertex -28.1815 -11.2088 3
    endloop
  endfacet
  facet normal -0.125348 0.992113 0
    outer loop
      vertex 24.7369 -13.7114 3
      vertex 24.114 -13.7901 12
      vertex 24.7369 -13.7114 12
    endloop
  endfacet
  facet normal -0.125348 0.992113 0
    outer loop
      vertex 24.114 -13.7901 12
      vertex 24.7369 -13.7114 3
      vertex 24.114 -13.7901 3
    endloop
  endfacet
  facet normal -0.951076 0.308956 0
    outer loop
      vertex 28.4489 -10.6406 3
      vertex 28.6429 -10.0434 12
      vertex 28.6429 -10.0434 3
    endloop
  endfacet
  facet normal -0.951076 0.308956 0
    outer loop
      vertex 28.6429 -10.0434 12
      vertex 28.4489 -10.6406 3
      vertex 28.4489 -10.6406 12
    endloop
  endfacet
  facet normal -0.951076 -0.308956 0
    outer loop
      vertex 28.6429 10.0434 3
      vertex 28.4489 10.6406 12
      vertex 28.4489 10.6406 3
    endloop
  endfacet
  facet normal -0.951076 -0.308956 0
    outer loop
      vertex 28.4489 10.6406 12
      vertex 28.6429 10.0434 3
      vertex 28.6429 10.0434 12
    endloop
  endfacet
  facet normal -0.684624 -0.728896 0
    outer loop
      vertex 26.9871 12.6526 3
      vertex 27.4448 12.2227 12
      vertex 26.9871 12.6526 12
    endloop
  endfacet
  facet normal -0.684624 -0.728896 -0
    outer loop
      vertex 27.4448 12.2227 12
      vertex 26.9871 12.6526 3
      vertex 27.4448 12.2227 3
    endloop
  endfacet
  facet normal -0.982272 -0.187462 0
    outer loop
      vertex 28.7606 9.42667 3
      vertex 28.6429 10.0434 12
      vertex 28.6429 10.0434 3
    endloop
  endfacet
  facet normal -0.982272 -0.187462 0
    outer loop
      vertex 28.6429 10.0434 12
      vertex 28.7606 9.42667 3
      vertex 28.7606 9.42667 12
    endloop
  endfacet
  facet normal 0.998029 -0.0627481 0
    outer loop
      vertex -28.8 8.8 12
      vertex -28.7606 9.42667 3
      vertex -28.7606 9.42667 12
    endloop
  endfacet
  facet normal 0.998029 -0.0627481 0
    outer loop
      vertex -28.7606 9.42667 3
      vertex -28.8 8.8 12
      vertex -28.8 8.8 3
    endloop
  endfacet
  facet normal 0.684624 -0.728896 0
    outer loop
      vertex -27.4448 12.2227 3
      vertex -26.9871 12.6526 12
      vertex -27.4448 12.2227 12
    endloop
  endfacet
  facet normal 0.684624 -0.728896 0
    outer loop
      vertex -26.9871 12.6526 12
      vertex -27.4448 12.2227 3
      vertex -26.9871 12.6526 3
    endloop
  endfacet
  facet normal 0.998029 0.0627481 0
    outer loop
      vertex -28.7606 -9.42667 12
      vertex -28.8 -8.8 3
      vertex -28.8 -8.8 12
    endloop
  endfacet
  facet normal 0.998029 0.0627481 0
    outer loop
      vertex -28.8 -8.8 3
      vertex -28.7606 -9.42667 12
      vertex -28.7606 -9.42667 3
    endloop
  endfacet
  facet normal 0 0 1
    outer loop
      vertex 24.114 13.7901 3
      vertex 28.8 8.8 3
      vertex 28.7606 9.42667 3
    endloop
  endfacet
  facet normal 0 0 1
    outer loop
      vertex 28.8 8.8 3
      vertex 24.114 13.7901 3
      vertex 28.8 -8.8 3
    endloop
  endfacet
  facet normal 0 0 1
    outer loop
      vertex 24.114 13.7901 3
      vertex 28.7606 9.42667 3
      vertex 28.6429 10.0434 3
    endloop
  endfacet
  facet normal 0 0 1
    outer loop
      vertex 24.114 -13.7901 3
      vertex 28.8 -8.8 3
      vertex 24.114 13.7901 3
    endloop
  endfacet
  facet normal 0 0 1
    outer loop
      vertex 24.114 13.7901 3
      vertex 28.6429 10.0434 3
      vertex 28.4489 10.6406 3
    endloop
  endfacet
  facet normal 0 0 1
    outer loop
      vertex 28.8 -8.8 3
      vertex 24.114 -13.7901 3
      vertex 28.7606 -9.42667 3
    endloop
  endfacet
  facet normal 0 0 1
    outer loop
      vertex 24.114 13.7901 3
      vertex 28.4489 10.6406 3
      vertex 28.1815 11.2088 3
    endloop
  endfacet
  facet normal 0 0 1
    outer loop
      vertex 28.7606 -9.42667 3
      vertex 24.114 -13.7901 3
      vertex 28.6429 -10.0434 3
    endloop
  endfacet
  facet normal 0 0 1
    outer loop
      vertex 24.114 13.7901 3
      vertex 28.1815 11.2088 3
      vertex 27.8451 11.7389 3
    endloop
  endfacet
  facet normal 0 0 1
    outer loop
      vertex 28.6429 -10.0434 3
      vertex 24.114 -13.7901 3
      vertex 28.4489 -10.6406 3
    endloop
  endfacet
  facet normal 0 0 1
    outer loop
      vertex 24.114 13.7901 3
      vertex 27.8451 11.7389 3
      vertex 27.4448 12.2227 3
    endloop
  endfacet
  facet normal 0 0 1
    outer loop
      vertex 28.4489 -10.6406 3
      vertex 24.114 -13.7901 3
      vertex 28.1815 -11.2088 3
    endloop
  endfacet
  facet normal 0 0 1
    outer loop
      vertex 24.114 13.7901 3
      vertex 27.4448 12.2227 3
      vertex 26.9871 12.6526 3
    endloop
  endfacet
  facet normal 0 0 1
    outer loop
      vertex 28.1815 -11.2088 3
      vertex 24.114 -13.7901 3
      vertex 27.8451 -11.7389 3
    endloop
  endfacet
  facet normal 0 0 1
    outer loop
      vertex 24.114 13.7901 3
      vertex 26.9871 12.6526 3
      vertex 26.4791 13.0216 3
    endloop
  endfacet
  facet normal 0 0 1
    outer loop
      vertex 27.8451 -11.7389 3
      vertex 24.114 -13.7901 3
      vertex 27.4448 -12.2227 3
    endloop
  endfacet
  facet normal 0 0 1
    outer loop
      vertex 24.114 13.7901 3
      vertex 26.4791 13.0216 3
      vertex 25.9289 13.3241 3
    endloop
  endfacet
  facet normal 0 0 1
    outer loop
      vertex 27.4448 -12.2227 3
      vertex 24.114 -13.7901 3
      vertex 26.9871 -12.6526 3
    endloop
  endfacet
  facet normal 0 0 1
    outer loop
      vertex 24.114 13.7901 3
      vertex 25.9289 13.3241 3
      vertex 25.3451 13.5553 3
    endloop
  endfacet
  facet normal 0 0 1
    outer loop
      vertex 26.9871 -12.6526 3
      vertex 24.114 -13.7901 3
      vertex 26.4791 -13.0216 3
    endloop
  endfacet
  facet normal 0 0 1
    outer loop
      vertex 24.114 13.7901 3
      vertex 25.3451 13.5553 3
      vertex 24.7369 13.7114 3
    endloop
  endfacet
  facet normal 0 0 1
    outer loop
      vertex 26.4791 -13.0216 3
      vertex 24.114 -13.7901 3
      vertex 25.9289 -13.3241 3
    endloop
  endfacet
  facet normal 0 0 1
    outer loop
      vertex 25.9289 -13.3241 3
      vertex 24.114 -13.7901 3
      vertex 25.3451 -13.5553 3
    endloop
  endfacet
  facet normal 0 0 1
    outer loop
      vertex 25.3451 -13.5553 3
      vertex 24.114 -13.7901 3
      vertex 24.7369 -13.7114 3
    endloop
  endfacet
  facet normal -0 0 1
    outer loop
      vertex -24.114 13.7901 3
      vertex 24.114 -13.7901 3
      vertex 24.114 13.7901 3
    endloop
  endfacet
  facet normal 0 0 1
    outer loop
      vertex -24.114 13.7901 3
      vertex -24.114 -13.7901 3
      vertex 24.114 -13.7901 3
    endloop
  endfacet
  facet normal 0 0 1
    outer loop
      vertex -28.8 8.8 3
      vertex -24.114 13.7901 3
      vertex -24.7369 13.7114 3
    endloop
  endfacet
  facet normal 0 0 1
    outer loop
      vertex -24.114 13.7901 3
      vertex -28.8 8.8 3
      vertex -24.114 -13.7901 3
    endloop
  endfacet
  facet normal 0 0 1
    outer loop
      vertex -28.8 8.8 3
      vertex -24.7369 13.7114 3
      vertex -25.3451 13.5553 3
    endloop
  endfacet
  facet normal -0 0 1
    outer loop
      vertex -28.8 -8.8 3
      vertex -24.114 -13.7901 3
      vertex -28.8 8.8 3
    endloop
  endfacet
  facet normal 0 0 1
    outer loop
      vertex -28.8 8.8 3
      vertex -25.3451 13.5553 3
      vertex -25.9289 13.3241 3
    endloop
  endfacet
  facet normal 0 0 1
    outer loop
      vertex -24.114 -13.7901 3
      vertex -28.8 -8.8 3
      vertex -24.7369 -13.7114 3
    endloop
  endfacet
  facet normal 0 0 1
    outer loop
      vertex -28.8 8.8 3
      vertex -25.9289 13.3241 3
      vertex -26.4791 13.0216 3
    endloop
  endfacet
  facet normal 0 0 1
    outer loop
      vertex -24.7369 -13.7114 3
      vertex -28.8 -8.8 3
      vertex -25.3451 -13.5553 3
    endloop
  endfacet
  facet normal 0 0 1
    outer loop
      vertex -28.8 8.8 3
      vertex -26.4791 13.0216 3
      vertex -26.9871 12.6526 3
    endloop
  endfacet
  facet normal 0 0 1
    outer loop
      vertex -25.3451 -13.5553 3
      vertex -28.8 -8.8 3
      vertex -25.9289 -13.3241 3
    endloop
  endfacet
  facet normal 0 0 1
    outer loop
      vertex -28.8 8.8 3
      vertex -26.9871 12.6526 3
      vertex -27.4448 12.2227 3
    endloop
  endfacet
  facet normal 0 0 1
    outer loop
      vertex -25.9289 -13.3241 3
      vertex -28.8 -8.8 3
      vertex -26.4791 -13.0216 3
    endloop
  endfacet
  facet normal 0 0 1
    outer loop
      vertex -28.8 8.8 3
      vertex -27.4448 12.2227 3
      vertex -27.8451 11.7389 3
    endloop
  endfacet
  facet normal 0 0 1
    outer loop
      vertex -26.4791 -13.0216 3
      vertex -28.8 -8.8 3
      vertex -26.9871 -12.6526 3
    endloop
  endfacet
  facet normal 0 0 1
    outer loop
      vertex -28.8 8.8 3
      vertex -27.8451 11.7389 3
      vertex -28.1815 11.2088 3
    endloop
  endfacet
  facet normal 0 0 1
    outer loop
      vertex -26.9871 -12.6526 3
      vertex -28.8 -8.8 3
      vertex -27.4448 -12.2227 3
    endloop
  endfacet
  facet normal 0 0 1
    outer loop
      vertex -28.8 8.8 3
      vertex -28.1815 11.2088 3
      vertex -28.4489 10.6406 3
    endloop
  endfacet
  facet normal 0 0 1
    outer loop
      vertex -27.4448 -12.2227 3
      vertex -28.8 -8.8 3
      vertex -27.8451 -11.7389 3
    endloop
  endfacet
  facet normal 0 0 1
    outer loop
      vertex -28.8 8.8 3
      vertex -28.4489 10.6406 3
      vertex -28.6429 10.0434 3
    endloop
  endfacet
  facet normal 0 0 1
    outer loop
      vertex -27.8451 -11.7389 3
      vertex -28.8 -8.8 3
      vertex -28.1815 -11.2088 3
    endloop
  endfacet
  facet normal 0 0 1
    outer loop
      vertex -28.8 8.8 3
      vertex -28.6429 10.0434 3
      vertex -28.7606 9.42667 3
    endloop
  endfacet
  facet normal 0 0 1
    outer loop
      vertex -28.1815 -11.2088 3
      vertex -28.8 -8.8 3
      vertex -28.4489 -10.6406 3
    endloop
  endfacet
  facet normal 0 0 1
    outer loop
      vertex -28.4489 -10.6406 3
      vertex -28.8 -8.8 3
      vertex -28.6429 -10.0434 3
    endloop
  endfacet
  facet normal 0 0 1
    outer loop
      vertex -28.6429 -10.0434 3
      vertex -28.8 -8.8 3
      vertex -28.7606 -9.42667 3
    endloop
  endfacet
  facet normal 0.844336 0.535814 0
    outer loop
      vertex -27.8451 -11.7389 12
      vertex -28.1815 -11.2088 3
      vertex -28.1815 -11.2088 12
    endloop
  endfacet
  facet normal 0.844336 0.535814 0
    outer loop
      vertex -28.1815 -11.2088 3
      vertex -27.8451 -11.7389 12
      vertex -27.8451 -11.7389 3
    endloop
  endfacet
  facet normal 0.587698 0.80908 -0
    outer loop
      vertex -26.4791 -13.0216 3
      vertex -26.9871 -12.6526 12
      vertex -26.4791 -13.0216 12
    endloop
  endfacet
  facet normal 0.587698 0.80908 0
    outer loop
      vertex -26.9871 -12.6526 12
      vertex -26.4791 -13.0216 3
      vertex -26.9871 -12.6526 3
    endloop
  endfacet
  facet normal 0.125348 0.992113 -0
    outer loop
      vertex -24.114 -13.7901 3
      vertex -24.7369 -13.7114 12
      vertex -24.114 -13.7901 12
    endloop
  endfacet
  facet normal 0.125348 0.992113 0
    outer loop
      vertex -24.7369 -13.7114 12
      vertex -24.114 -13.7901 3
      vertex -24.7369 -13.7114 3
    endloop
  endfacet
  facet normal 0.368203 0.929745 -0
    outer loop
      vertex -25.3451 -13.5553 3
      vertex -25.9289 -13.3241 12
      vertex -25.3451 -13.5553 12
    endloop
  endfacet
  facet normal 0.368203 0.929745 0
    outer loop
      vertex -25.9289 -13.3241 12
      vertex -25.3451 -13.5553 3
      vertex -25.9289 -13.3241 3
    endloop
  endfacet
  facet normal -0.684624 0.728896 0
    outer loop
      vertex 27.4448 -12.2227 3
      vertex 26.9871 -12.6526 12
      vertex 27.4448 -12.2227 12
    endloop
  endfacet
  facet normal -0.684624 0.728896 0
    outer loop
      vertex 26.9871 -12.6526 12
      vertex 27.4448 -12.2227 3
      vertex 26.9871 -12.6526 3
    endloop
  endfacet
  facet normal -0.904811 -0.425812 0
    outer loop
      vertex 28.4489 10.6406 3
      vertex 28.1815 11.2088 12
      vertex 28.1815 11.2088 3
    endloop
  endfacet
  facet normal -0.904811 -0.425812 0
    outer loop
      vertex 28.1815 11.2088 12
      vertex 28.4489 10.6406 3
      vertex 28.4489 10.6406 12
    endloop
  endfacet
  facet normal -0.587698 -0.80908 0
    outer loop
      vertex 26.4791 13.0216 3
      vertex 26.9871 12.6526 12
      vertex 26.4791 13.0216 12
    endloop
  endfacet
  facet normal -0.587698 -0.80908 -0
    outer loop
      vertex 26.9871 12.6526 12
      vertex 26.4791 13.0216 3
      vertex 26.9871 12.6526 3
    endloop
  endfacet
  facet normal -0.998029 -0.0627481 0
    outer loop
      vertex 28.8 8.8 3
      vertex 28.7606 9.42667 12
      vertex 28.7606 9.42667 3
    endloop
  endfacet
  facet normal -0.998029 -0.0627481 0
    outer loop
      vertex 28.7606 9.42667 12
      vertex 28.8 8.8 3
      vertex 28.8 8.8 12
    endloop
  endfacet
  facet normal 0.904811 -0.425812 0
    outer loop
      vertex -28.4489 10.6406 12
      vertex -28.1815 11.2088 3
      vertex -28.1815 11.2088 12
    endloop
  endfacet
  facet normal 0.904811 -0.425812 0
    outer loop
      vertex -28.1815 11.2088 3
      vertex -28.4489 10.6406 12
      vertex -28.4489 10.6406 3
    endloop
  endfacet
  facet normal 0.951076 -0.308956 0
    outer loop
      vertex -28.6429 10.0434 12
      vertex -28.4489 10.6406 3
      vertex -28.4489 10.6406 12
    endloop
  endfacet
  facet normal 0.951076 -0.308956 0
    outer loop
      vertex -28.4489 10.6406 3
      vertex -28.6429 10.0434 12
      vertex -28.6429 10.0434 3
    endloop
  endfacet
  facet normal 0.368203 -0.929745 0
    outer loop
      vertex -25.9289 13.3241 3
      vertex -25.3451 13.5553 12
      vertex -25.9289 13.3241 12
    endloop
  endfacet
  facet normal 0.368203 -0.929745 0
    outer loop
      vertex -25.3451 13.5553 12
      vertex -25.9289 13.3241 3
      vertex -25.3451 13.5553 3
    endloop
  endfacet
  facet normal 0.248601 -0.968606 0
    outer loop
      vertex -25.3451 13.5553 3
      vertex -24.7369 13.7114 12
      vertex -25.3451 13.5553 12
    endloop
  endfacet
  facet normal 0.248601 -0.968606 0
    outer loop
      vertex -24.7369 13.7114 12
      vertex -25.3451 13.5553 3
      vertex -24.7369 13.7114 3
    endloop
  endfacet
  facet normal 0.982272 0.187462 0
    outer loop
      vertex -28.6429 -10.0434 12
      vertex -28.7606 -9.42667 3
      vertex -28.7606 -9.42667 12
    endloop
  endfacet
  facet normal 0.982272 0.187462 0
    outer loop
      vertex -28.7606 -9.42667 3
      vertex -28.6429 -10.0434 12
      vertex -28.6429 -10.0434 3
    endloop
  endfacet
  facet normal 0.770462 0.637486 0
    outer loop
      vertex -27.4448 -12.2227 12
      vertex -27.8451 -11.7389 3
      vertex -27.8451 -11.7389 12
    endloop
  endfacet
  facet normal 0.770462 0.637486 0
    outer loop
      vertex -27.8451 -11.7389 3
      vertex -27.4448 -12.2227 12
      vertex -27.4448 -12.2227 3
    endloop
  endfacet
  facet normal 0.481784 0.87629 -0
    outer loop
      vertex -25.9289 -13.3241 3
      vertex -26.4791 -13.0216 12
      vertex -25.9289 -13.3241 12
    endloop
  endfacet
  facet normal 0.481784 0.87629 0
    outer loop
      vertex -26.4791 -13.0216 12
      vertex -25.9289 -13.3241 3
      vertex -26.4791 -13.0216 3
    endloop
  endfacet
  facet normal 0.248601 0.968606 -0
    outer loop
      vertex -24.7369 -13.7114 3
      vertex -25.3451 -13.5553 12
      vertex -24.7369 -13.7114 12
    endloop
  endfacet
  facet normal 0.248601 0.968606 0
    outer loop
      vertex -25.3451 -13.5553 12
      vertex -24.7369 -13.7114 3
      vertex -25.3451 -13.5553 3
    endloop
  endfacet
  facet normal -0.368203 0.929745 0
    outer loop
      vertex 25.9289 -13.3241 3
      vertex 25.3451 -13.5553 12
      vertex 25.9289 -13.3241 12
    endloop
  endfacet
  facet normal -0.368203 0.929745 0
    outer loop
      vertex 25.3451 -13.5553 12
      vertex 25.9289 -13.3241 3
      vertex 25.3451 -13.5553 3
    endloop
  endfacet
  facet normal -0.904811 0.425812 0
    outer loop
      vertex 28.1815 -11.2088 3
      vertex 28.4489 -10.6406 12
      vertex 28.4489 -10.6406 3
    endloop
  endfacet
  facet normal -0.904811 0.425812 0
    outer loop
      vertex 28.4489 -10.6406 12
      vertex 28.1815 -11.2088 3
      vertex 28.1815 -11.2088 12
    endloop
  endfacet
  facet normal -0.770462 -0.637486 0
    outer loop
      vertex 27.8451 11.7389 3
      vertex 27.4448 12.2227 12
      vertex 27.4448 12.2227 3
    endloop
  endfacet
  facet normal -0.770462 -0.637486 0
    outer loop
      vertex 27.4448 12.2227 12
      vertex 27.8451 11.7389 3
      vertex 27.8451 11.7389 12
    endloop
  endfacet
  facet normal -0.368203 -0.929745 0
    outer loop
      vertex 25.3451 13.5553 3
      vertex 25.9289 13.3241 12
      vertex 25.3451 13.5553 12
    endloop
  endfacet
  facet normal -0.368203 -0.929745 -0
    outer loop
      vertex 25.9289 13.3241 12
      vertex 25.3451 13.5553 3
      vertex 25.9289 13.3241 3
    endloop
  endfacet
  facet normal -0.248601 -0.968606 0
    outer loop
      vertex 24.7369 13.7114 3
      vertex 25.3451 13.5553 12
      vertex 24.7369 13.7114 12
    endloop
  endfacet
  facet normal -0.248601 -0.968606 -0
    outer loop
      vertex 25.3451 13.5553 12
      vertex 24.7369 13.7114 3
      vertex 25.3451 13.5553 3
    endloop
  endfacet
  facet normal 0.844336 -0.535814 0
    outer loop
      vertex -28.1815 11.2088 12
      vertex -27.8451 11.7389 3
      vertex -27.8451 11.7389 12
    endloop
  endfacet
  facet normal 0.844336 -0.535814 0
    outer loop
      vertex -27.8451 11.7389 3
      vertex -28.1815 11.2088 12
      vertex -28.1815 11.2088 3
    endloop
  endfacet
  facet normal 0.982272 -0.187462 0
    outer loop
      vertex -28.7606 9.42667 12
      vertex -28.6429 10.0434 3
      vertex -28.6429 10.0434 12
    endloop
  endfacet
  facet normal 0.982272 -0.187462 0
    outer loop
      vertex -28.6429 10.0434 3
      vertex -28.7606 9.42667 12
      vertex -28.7606 9.42667 3
    endloop
  endfacet
  facet normal 0.587698 -0.80908 0
    outer loop
      vertex -26.9871 12.6526 3
      vertex -26.4791 13.0216 12
      vertex -26.9871 12.6526 12
    endloop
  endfacet
  facet normal 0.587698 -0.80908 0
    outer loop
      vertex -26.4791 13.0216 12
      vertex -26.9871 12.6526 3
      vertex -26.4791 13.0216 3
    endloop
  endfacet
  facet normal 0.481784 -0.87629 0
    outer loop
      vertex -26.4791 13.0216 3
      vertex -25.9289 13.3241 12
      vertex -26.4791 13.0216 12
    endloop
  endfacet
  facet normal 0.481784 -0.87629 0
    outer loop
      vertex -25.9289 13.3241 12
      vertex -26.4791 13.0216 3
      vertex -25.9289 13.3241 3
    endloop
  endfacet
  facet normal -0.587698 0.80908 0
    outer loop
      vertex 26.9871 -12.6526 3
      vertex 26.4791 -13.0216 12
      vertex 26.9871 -12.6526 12
    endloop
  endfacet
  facet normal -0.587698 0.80908 0
    outer loop
      vertex 26.4791 -13.0216 12
      vertex 26.9871 -12.6526 3
      vertex 26.4791 -13.0216 3
    endloop
  endfacet
  facet normal -0.481784 0.87629 0
    outer loop
      vertex 26.4791 -13.0216 3
      vertex 25.9289 -13.3241 12
      vertex 26.4791 -13.0216 12
    endloop
  endfacet
  facet normal -0.481784 0.87629 0
    outer loop
      vertex 25.9289 -13.3241 12
      vertex 26.4791 -13.0216 3
      vertex 25.9289 -13.3241 3
    endloop
  endfacet
  facet normal -0.770462 0.637486 0
    outer loop
      vertex 27.4448 -12.2227 3
      vertex 27.8451 -11.7389 12
      vertex 27.8451 -11.7389 3
    endloop
  endfacet
  facet normal -0.770462 0.637486 0
    outer loop
      vertex 27.8451 -11.7389 12
      vertex 27.4448 -12.2227 3
      vertex 27.4448 -12.2227 12
    endloop
  endfacet
  facet normal -0.982272 0.187462 0
    outer loop
      vertex 28.6429 -10.0434 3
      vertex 28.7606 -9.42667 12
      vertex 28.7606 -9.42667 3
    endloop
  endfacet
  facet normal -0.982272 0.187462 0
    outer loop
      vertex 28.7606 -9.42667 12
      vertex 28.6429 -10.0434 3
      vertex 28.6429 -10.0434 12
    endloop
  endfacet
  facet normal -0.844336 -0.535814 0
    outer loop
      vertex 28.1815 11.2088 3
      vertex 27.8451 11.7389 12
      vertex 27.8451 11.7389 3
    endloop
  endfacet
  facet normal -0.844336 -0.535814 0
    outer loop
      vertex 27.8451 11.7389 12
      vertex 28.1815 11.2088 3
      vertex 28.1815 11.2088 12
    endloop
  endfacet
  facet normal -0.844336 0.535814 0
    outer loop
      vertex 27.8451 -11.7389 3
      vertex 28.1815 -11.2088 12
      vertex 28.1815 -11.2088 3
    endloop
  endfacet
  facet normal -0.844336 0.535814 0
    outer loop
      vertex 28.1815 -11.2088 12
      vertex 27.8451 -11.7389 3
      vertex 27.8451 -11.7389 12
    endloop
  endfacet
endsolid OpenSCAD_Model
