solid OpenSCAD_Model
  facet normal -1 0 0
    outer loop
      vertex -30 -13.75 0
      vertex -30 13.75 18
      vertex -30 13.75 0
    endloop
  endfacet
  facet normal -1 -0 0
    outer loop
      vertex -30 13.75 18
      vertex -30 -13.75 0
      vertex -30 -13.75 18
    endloop
  endfacet
  facet normal -0.99803 -0.0627451 0
    outer loop
      vertex -29.9606 -14.3767 0
      vertex -30 -13.75 18
      vertex -30 -13.75 0
    endloop
  endfacet
  facet normal -0.99803 -0.0627451 0
    outer loop
      vertex -30 -13.75 18
      vertex -29.9606 -14.3767 0
      vertex -29.9606 -14.3767 18
    endloop
  endfacet
  facet normal 0.770462 0.637486 0
    outer loop
      vertex 29.0451 16.6889 18
      vertex 28.6448 17.1727 0
      vertex 28.6448 17.1727 18
    endloop
  endfacet
  facet normal 0.770462 0.637486 0
    outer loop
      vertex 28.6448 17.1727 0
      vertex 29.0451 16.6889 18
      vertex 29.0451 16.6889 0
    endloop
  endfacet
  facet normal -0.99803 0.0627451 0
    outer loop
      vertex -30 13.75 0
      vertex -29.9606 14.3767 18
      vertex -29.9606 14.3767 0
    endloop
  endfacet
  facet normal -0.99803 0.0627451 0
    outer loop
      vertex -29.9606 14.3767 18
      vertex -30 13.75 0
      vertex -30 13.75 18
    endloop
  endfacet
  facet normal -0 0 1
    outer loop
      vertex 28.8429 13.9934 18
      vertex 30 13.75 18
      vertex 29.9606 14.3767 18
    endloop
  endfacet
  facet normal 0 0 1
    outer loop
      vertex 30 13.75 18
      vertex 29 12.75 18
      vertex 30 -13.75 18
    endloop
  endfacet
  facet normal -0 0 1
    outer loop
      vertex 28.6489 14.5906 18
      vertex 29.9606 14.3767 18
      vertex 29.8429 14.9934 18
    endloop
  endfacet
  facet normal -0 0 1
    outer loop
      vertex 29 -12.75 18
      vertex 30 -13.75 18
      vertex 29 12.75 18
    endloop
  endfacet
  facet normal 0 0 1
    outer loop
      vertex 28.6489 14.5906 18
      vertex 29.8429 14.9934 18
      vertex 29.6489 15.5906 18
    endloop
  endfacet
  facet normal -0 0 1
    outer loop
      vertex 28.9606 -13.3767 18
      vertex 30 -13.75 18
      vertex 29 -12.75 18
    endloop
  endfacet
  facet normal 0 0 1
    outer loop
      vertex 28.3815 15.1588 18
      vertex 29.6489 15.5906 18
      vertex 29.3815 16.1588 18
    endloop
  endfacet
  facet normal 0 0 1
    outer loop
      vertex 28.8429 -13.9934 18
      vertex 30 -13.75 18
      vertex 28.9606 -13.3767 18
    endloop
  endfacet
  facet normal 0 0 1
    outer loop
      vertex 28.0451 15.6889 18
      vertex 29.3815 16.1588 18
      vertex 29.0451 16.6889 18
    endloop
  endfacet
  facet normal 0 0 1
    outer loop
      vertex 30 -13.75 18
      vertex 28.8429 -13.9934 18
      vertex 29.9606 -14.3767 18
    endloop
  endfacet
  facet normal 0 0 1
    outer loop
      vertex 28.6489 -14.5906 18
      vertex 29.9606 -14.3767 18
      vertex 28.8429 -13.9934 18
    endloop
  endfacet
  facet normal 0 0 1
    outer loop
      vertex 30 13.75 18
      vertex 28.9606 13.3767 18
      vertex 29 12.75 18
    endloop
  endfacet
  facet normal 0 0 1
    outer loop
      vertex 30 13.75 18
      vertex 28.8429 13.9934 18
      vertex 28.9606 13.3767 18
    endloop
  endfacet
  facet normal 0 0 1
    outer loop
      vertex 29.9606 14.3767 18
      vertex 28.6489 14.5906 18
      vertex 28.8429 13.9934 18
    endloop
  endfacet
  facet normal 0 0 1
    outer loop
      vertex 27.6448 16.1727 18
      vertex 29.0451 16.6889 18
      vertex 28.6448 17.1727 18
    endloop
  endfacet
  facet normal 0 0 1
    outer loop
      vertex 29.6489 15.5906 18
      vertex 28.3815 15.1588 18
      vertex 28.6489 14.5906 18
    endloop
  endfacet
  facet normal 0 0 1
    outer loop
      vertex 27.6448 16.1727 18
      vertex 28.6448 17.1727 18
      vertex 28.1871 17.6026 18
    endloop
  endfacet
  facet normal 0 0 1
    outer loop
      vertex 29.3815 16.1588 18
      vertex 28.0451 15.6889 18
      vertex 28.3815 15.1588 18
    endloop
  endfacet
  facet normal 0 0 1
    outer loop
      vertex 27.1871 16.6026 18
      vertex 28.1871 17.6026 18
      vertex 27.6791 17.9716 18
    endloop
  endfacet
  facet normal 0 0 1
    outer loop
      vertex 29.0451 16.6889 18
      vertex 27.6448 16.1727 18
      vertex 28.0451 15.6889 18
    endloop
  endfacet
  facet normal 0 0 1
    outer loop
      vertex 28.1871 17.6026 18
      vertex 27.1871 16.6026 18
      vertex 27.6448 16.1727 18
    endloop
  endfacet
  facet normal 0 0 1
    outer loop
      vertex 26.6791 16.9716 18
      vertex 27.6791 17.9716 18
      vertex 27.1289 18.2741 18
    endloop
  endfacet
  facet normal 0 0 1
    outer loop
      vertex 27.6791 17.9716 18
      vertex 26.6791 16.9716 18
      vertex 27.1871 16.6026 18
    endloop
  endfacet
  facet normal 0 0 1
    outer loop
      vertex 26.1289 17.2741 18
      vertex 27.1289 18.2741 18
      vertex 26.5451 18.5053 18
    endloop
  endfacet
  facet normal 0 0 1
    outer loop
      vertex 27.1289 18.2741 18
      vertex 26.1289 17.2741 18
      vertex 26.6791 16.9716 18
    endloop
  endfacet
  facet normal 0 0 1
    outer loop
      vertex 25.9369 18.6614 18
      vertex 26.1289 17.2741 18
      vertex 26.5451 18.5053 18
    endloop
  endfacet
  facet normal 0 0 1
    outer loop
      vertex 25.9369 18.6614 18
      vertex 25.5451 17.5053 18
      vertex 26.1289 17.2741 18
    endloop
  endfacet
  facet normal 0 0 1
    outer loop
      vertex 25.314 18.7401 18
      vertex 25.5451 17.5053 18
      vertex 25.9369 18.6614 18
    endloop
  endfacet
  facet normal 0 0 1
    outer loop
      vertex 25.314 18.7401 18
      vertex 24.9369 17.6614 18
      vertex 25.5451 17.5053 18
    endloop
  endfacet
  facet normal 0 0 1
    outer loop
      vertex 25.314 18.7401 18
      vertex 24.314 17.7401 18
      vertex 24.9369 17.6614 18
    endloop
  endfacet
  facet normal 0 0 1
    outer loop
      vertex 25.314 18.7401 18
      vertex -24.314 17.7401 18
      vertex 24.314 17.7401 18
    endloop
  endfacet
  facet normal -0 0 1
    outer loop
      vertex -25.314 18.7401 18
      vertex -24.314 17.7401 18
      vertex 25.314 18.7401 18
    endloop
  endfacet
  facet normal 0 0 1
    outer loop
      vertex -25.314 18.7401 18
      vertex -24.9369 17.6614 18
      vertex -24.314 17.7401 18
    endloop
  endfacet
  facet normal 0 0 1
    outer loop
      vertex -25.314 18.7401 18
      vertex -25.5451 17.5053 18
      vertex -24.9369 17.6614 18
    endloop
  endfacet
  facet normal -0 0 1
    outer loop
      vertex -25.9369 18.6614 18
      vertex -25.5451 17.5053 18
      vertex -25.314 18.7401 18
    endloop
  endfacet
  facet normal 0 0 1
    outer loop
      vertex -25.9369 18.6614 18
      vertex -26.1289 17.2741 18
      vertex -25.5451 17.5053 18
    endloop
  endfacet
  facet normal -0 0 1
    outer loop
      vertex -26.5451 18.5053 18
      vertex -26.1289 17.2741 18
      vertex -25.9369 18.6614 18
    endloop
  endfacet
  facet normal -0 0 1
    outer loop
      vertex -27.1289 18.2741 18
      vertex -26.1289 17.2741 18
      vertex -26.5451 18.5053 18
    endloop
  endfacet
  facet normal 0 0 1
    outer loop
      vertex -26.1289 17.2741 18
      vertex -27.1289 18.2741 18
      vertex -26.6791 16.9716 18
    endloop
  endfacet
  facet normal -0 0 1
    outer loop
      vertex -27.6791 17.9716 18
      vertex -26.6791 16.9716 18
      vertex -27.1289 18.2741 18
    endloop
  endfacet
  facet normal 0 0 1
    outer loop
      vertex -26.6791 16.9716 18
      vertex -27.6791 17.9716 18
      vertex -27.1871 16.6026 18
    endloop
  endfacet
  facet normal -0 0 1
    outer loop
      vertex -28.1871 17.6026 18
      vertex -27.1871 16.6026 18
      vertex -27.6791 17.9716 18
    endloop
  endfacet
  facet normal 0 0 1
    outer loop
      vertex -27.1871 16.6026 18
      vertex -28.1871 17.6026 18
      vertex -27.6448 16.1727 18
    endloop
  endfacet
  facet normal -0 0 1
    outer loop
      vertex -28.6448 17.1727 18
      vertex -27.6448 16.1727 18
      vertex -28.1871 17.6026 18
    endloop
  endfacet
  facet normal -0 0 1
    outer loop
      vertex -29.0451 16.6889 18
      vertex -27.6448 16.1727 18
      vertex -28.6448 17.1727 18
    endloop
  endfacet
  facet normal 0 0 1
    outer loop
      vertex -27.6448 16.1727 18
      vertex -29.0451 16.6889 18
      vertex -28.0451 15.6889 18
    endloop
  endfacet
  facet normal -0 0 1
    outer loop
      vertex -29.3815 16.1588 18
      vertex -28.0451 15.6889 18
      vertex -29.0451 16.6889 18
    endloop
  endfacet
  facet normal 0 0 1
    outer loop
      vertex -28.0451 15.6889 18
      vertex -29.3815 16.1588 18
      vertex -28.3815 15.1588 18
    endloop
  endfacet
  facet normal -0 0 1
    outer loop
      vertex -29.6489 15.5906 18
      vertex -28.3815 15.1588 18
      vertex -29.3815 16.1588 18
    endloop
  endfacet
  facet normal 0 0 1
    outer loop
      vertex -29.9606 14.3767 18
      vertex -28.6489 14.5906 18
      vertex -29.8429 14.9934 18
    endloop
  endfacet
  facet normal -0 0 1
    outer loop
      vertex -29.8429 14.9934 18
      vertex -28.6489 14.5906 18
      vertex -29.6489 15.5906 18
    endloop
  endfacet
  facet normal 0 0 1
    outer loop
      vertex -28.3815 15.1588 18
      vertex -29.6489 15.5906 18
      vertex -28.6489 14.5906 18
    endloop
  endfacet
  facet normal 0 0 1
    outer loop
      vertex 29.9606 -14.3767 18
      vertex 28.6489 -14.5906 18
      vertex 29.8429 -14.9934 18
    endloop
  endfacet
  facet normal 0 0 1
    outer loop
      vertex 29.8429 -14.9934 18
      vertex 28.6489 -14.5906 18
      vertex 29.6489 -15.5906 18
    endloop
  endfacet
  facet normal -0 0 1
    outer loop
      vertex 28.3815 -15.1588 18
      vertex 29.6489 -15.5906 18
      vertex 28.6489 -14.5906 18
    endloop
  endfacet
  facet normal 0 0 1
    outer loop
      vertex 29.6489 -15.5906 18
      vertex 28.3815 -15.1588 18
      vertex 29.3815 -16.1588 18
    endloop
  endfacet
  facet normal -0 0 1
    outer loop
      vertex 28.0451 -15.6889 18
      vertex 29.3815 -16.1588 18
      vertex 28.3815 -15.1588 18
    endloop
  endfacet
  facet normal 0 0 1
    outer loop
      vertex 29.3815 -16.1588 18
      vertex 28.0451 -15.6889 18
      vertex 29.0451 -16.6889 18
    endloop
  endfacet
  facet normal -0 0 1
    outer loop
      vertex 27.6448 -16.1727 18
      vertex 29.0451 -16.6889 18
      vertex 28.0451 -15.6889 18
    endloop
  endfacet
  facet normal 0 0 1
    outer loop
      vertex 29.0451 -16.6889 18
      vertex 27.6448 -16.1727 18
      vertex 28.6448 -17.1727 18
    endloop
  endfacet
  facet normal 0 0 1
    outer loop
      vertex 28.6448 -17.1727 18
      vertex 27.6448 -16.1727 18
      vertex 28.1871 -17.6026 18
    endloop
  endfacet
  facet normal -0 0 1
    outer loop
      vertex 27.1871 -16.6026 18
      vertex 28.1871 -17.6026 18
      vertex 27.6448 -16.1727 18
    endloop
  endfacet
  facet normal 0 0 1
    outer loop
      vertex 28.1871 -17.6026 18
      vertex 27.1871 -16.6026 18
      vertex 27.6791 -17.9716 18
    endloop
  endfacet
  facet normal -0 0 1
    outer loop
      vertex 26.6791 -16.9716 18
      vertex 27.6791 -17.9716 18
      vertex 27.1871 -16.6026 18
    endloop
  endfacet
  facet normal 0 0 1
    outer loop
      vertex 27.6791 -17.9716 18
      vertex 26.6791 -16.9716 18
      vertex 27.1289 -18.2741 18
    endloop
  endfacet
  facet normal -0 0 1
    outer loop
      vertex 26.1289 -17.2741 18
      vertex 27.1289 -18.2741 18
      vertex 26.6791 -16.9716 18
    endloop
  endfacet
  facet normal 0 0 1
    outer loop
      vertex 27.1289 -18.2741 18
      vertex 26.1289 -17.2741 18
      vertex 26.5451 -18.5053 18
    endloop
  endfacet
  facet normal 0 0 1
    outer loop
      vertex 26.1289 -17.2741 18
      vertex 25.9369 -18.6614 18
      vertex 26.5451 -18.5053 18
    endloop
  endfacet
  facet normal -0 0 1
    outer loop
      vertex 25.5451 -17.5053 18
      vertex 25.9369 -18.6614 18
      vertex 26.1289 -17.2741 18
    endloop
  endfacet
  facet normal 0 0 1
    outer loop
      vertex 25.5451 -17.5053 18
      vertex 25.314 -18.7401 18
      vertex 25.9369 -18.6614 18
    endloop
  endfacet
  facet normal -0 0 1
    outer loop
      vertex 24.9369 -17.6614 18
      vertex 25.314 -18.7401 18
      vertex 25.5451 -17.5053 18
    endloop
  endfacet
  facet normal -0 0 1
    outer loop
      vertex 24.314 -17.7401 18
      vertex 25.314 -18.7401 18
      vertex 24.9369 -17.6614 18
    endloop
  endfacet
  facet normal -0 0 1
    outer loop
      vertex -24.314 -17.7401 18
      vertex 25.314 -18.7401 18
      vertex 24.314 -17.7401 18
    endloop
  endfacet
  facet normal 0 0 1
    outer loop
      vertex -24.314 -17.7401 18
      vertex -25.314 -18.7401 18
      vertex 25.314 -18.7401 18
    endloop
  endfacet
  facet normal 0 0 1
    outer loop
      vertex -24.9369 -17.6614 18
      vertex -25.314 -18.7401 18
      vertex -24.314 -17.7401 18
    endloop
  endfacet
  facet normal 0 0 1
    outer loop
      vertex -25.5451 -17.5053 18
      vertex -25.314 -18.7401 18
      vertex -24.9369 -17.6614 18
    endloop
  endfacet
  facet normal 0 0 1
    outer loop
      vertex -25.5451 -17.5053 18
      vertex -25.9369 -18.6614 18
      vertex -25.314 -18.7401 18
    endloop
  endfacet
  facet normal 0 0 1
    outer loop
      vertex -26.1289 -17.2741 18
      vertex -25.9369 -18.6614 18
      vertex -25.5451 -17.5053 18
    endloop
  endfacet
  facet normal 0 0 1
    outer loop
      vertex -26.1289 -17.2741 18
      vertex -26.5451 -18.5053 18
      vertex -25.9369 -18.6614 18
    endloop
  endfacet
  facet normal 0 0 1
    outer loop
      vertex -27.1289 -18.2741 18
      vertex -26.1289 -17.2741 18
      vertex -26.6791 -16.9716 18
    endloop
  endfacet
  facet normal 0 0 1
    outer loop
      vertex -26.1289 -17.2741 18
      vertex -27.1289 -18.2741 18
      vertex -26.5451 -18.5053 18
    endloop
  endfacet
  facet normal 0 0 1
    outer loop
      vertex -27.6791 -17.9716 18
      vertex -26.6791 -16.9716 18
      vertex -27.1871 -16.6026 18
    endloop
  endfacet
  facet normal 0 0 1
    outer loop
      vertex -28.1871 -17.6026 18
      vertex -27.1871 -16.6026 18
      vertex -27.6448 -16.1727 18
    endloop
  endfacet
  facet normal 0 0 1
    outer loop
      vertex -26.6791 -16.9716 18
      vertex -27.6791 -17.9716 18
      vertex -27.1289 -18.2741 18
    endloop
  endfacet
  facet normal 0 0 1
    outer loop
      vertex -29.0451 -16.6889 18
      vertex -27.6448 -16.1727 18
      vertex -28.0451 -15.6889 18
    endloop
  endfacet
  facet normal 0 0 1
    outer loop
      vertex -27.1871 -16.6026 18
      vertex -28.1871 -17.6026 18
      vertex -27.6791 -17.9716 18
    endloop
  endfacet
  facet normal 0 0 1
    outer loop
      vertex -29.3815 -16.1588 18
      vertex -28.0451 -15.6889 18
      vertex -28.3815 -15.1588 18
    endloop
  endfacet
  facet normal 0 0 1
    outer loop
      vertex -27.6448 -16.1727 18
      vertex -28.6448 -17.1727 18
      vertex -28.1871 -17.6026 18
    endloop
  endfacet
  facet normal 0 0 1
    outer loop
      vertex -29.6489 -15.5906 18
      vertex -28.3815 -15.1588 18
      vertex -28.6489 -14.5906 18
    endloop
  endfacet
  facet normal -0 0 1
    outer loop
      vertex -29.9606 -14.3767 18
      vertex -28.6489 -14.5906 18
      vertex -28.8429 -13.9934 18
    endloop
  endfacet
  facet normal -0 0 1
    outer loop
      vertex -30 -13.75 18
      vertex -28.8429 -13.9934 18
      vertex -28.9606 -13.3767 18
    endloop
  endfacet
  facet normal 0 0 1
    outer loop
      vertex -27.6448 -16.1727 18
      vertex -29.0451 -16.6889 18
      vertex -28.6448 -17.1727 18
    endloop
  endfacet
  facet normal 0 0 1
    outer loop
      vertex -30 -13.75 18
      vertex -28.9606 -13.3767 18
      vertex -29 -12.75 18
    endloop
  endfacet
  facet normal 0 0 1
    outer loop
      vertex -29 12.75 18
      vertex -30 13.75 18
      vertex -29 -12.75 18
    endloop
  endfacet
  facet normal 0 0 1
    outer loop
      vertex -28.6489 14.5906 18
      vertex -29.9606 14.3767 18
      vertex -28.8429 13.9934 18
    endloop
  endfacet
  facet normal 0 0 1
    outer loop
      vertex -30 -13.75 18
      vertex -29 -12.75 18
      vertex -30 13.75 18
    endloop
  endfacet
  facet normal 0 0 1
    outer loop
      vertex -30 13.75 18
      vertex -28.8429 13.9934 18
      vertex -29.9606 14.3767 18
    endloop
  endfacet
  facet normal 0 0 1
    outer loop
      vertex -28.8429 -13.9934 18
      vertex -30 -13.75 18
      vertex -29.9606 -14.3767 18
    endloop
  endfacet
  facet normal 0 0 1
    outer loop
      vertex -28.8429 13.9934 18
      vertex -30 13.75 18
      vertex -28.9606 13.3767 18
    endloop
  endfacet
  facet normal 0 0 1
    outer loop
      vertex -28.0451 -15.6889 18
      vertex -29.3815 -16.1588 18
      vertex -29.0451 -16.6889 18
    endloop
  endfacet
  facet normal 0 0 1
    outer loop
      vertex -28.9606 13.3767 18
      vertex -30 13.75 18
      vertex -29 12.75 18
    endloop
  endfacet
  facet normal 0 0 1
    outer loop
      vertex -28.3815 -15.1588 18
      vertex -29.6489 -15.5906 18
      vertex -29.3815 -16.1588 18
    endloop
  endfacet
  facet normal 0 0 1
    outer loop
      vertex -28.6489 -14.5906 18
      vertex -29.8429 -14.9934 18
      vertex -29.6489 -15.5906 18
    endloop
  endfacet
  facet normal 0 0 1
    outer loop
      vertex -28.6489 -14.5906 18
      vertex -29.9606 -14.3767 18
      vertex -29.8429 -14.9934 18
    endloop
  endfacet
  facet normal 0 -1 0
    outer loop
      vertex -25.314 -18.7401 0
      vertex 25.314 -18.7401 18
      vertex -25.314 -18.7401 18
    endloop
  endfacet
  facet normal 0 -1 -0
    outer loop
      vertex 25.314 -18.7401 18
      vertex -25.314 -18.7401 0
      vertex 25.314 -18.7401 0
    endloop
  endfacet
  facet normal 0.99803 -0.0627451 0
    outer loop
      vertex 29.9606 -14.3767 18
      vertex 30 -13.75 0
      vertex 30 -13.75 18
    endloop
  endfacet
  facet normal 0.99803 -0.0627451 0
    outer loop
      vertex 30 -13.75 0
      vertex 29.9606 -14.3767 18
      vertex 29.9606 -14.3767 0
    endloop
  endfacet
  facet normal 1 -0 0
    outer loop
      vertex 30 -13.75 18
      vertex 30 13.75 0
      vertex 30 13.75 18
    endloop
  endfacet
  facet normal 1 0 0
    outer loop
      vertex 30 13.75 0
      vertex 30 -13.75 18
      vertex 30 -13.75 0
    endloop
  endfacet
  facet normal -0.248601 0.968606 0
    outer loop
      vertex -25.9369 18.6614 0
      vertex -26.5451 18.5053 18
      vertex -25.9369 18.6614 18
    endloop
  endfacet
  facet normal -0.248601 0.968606 0
    outer loop
      vertex -26.5451 18.5053 18
      vertex -25.9369 18.6614 0
      vertex -26.5451 18.5053 0
    endloop
  endfacet
  facet normal 0 1 -0
    outer loop
      vertex 25.314 18.7401 0
      vertex -25.314 18.7401 18
      vertex 25.314 18.7401 18
    endloop
  endfacet
  facet normal 0 1 0
    outer loop
      vertex -25.314 18.7401 18
      vertex 25.314 18.7401 0
      vertex -25.314 18.7401 0
    endloop
  endfacet
  facet normal -0.770462 0.637486 0
    outer loop
      vertex -29.0451 16.6889 0
      vertex -28.6448 17.1727 18
      vertex -28.6448 17.1727 0
    endloop
  endfacet
  facet normal -0.770462 0.637486 0
    outer loop
      vertex -28.6448 17.1727 18
      vertex -29.0451 16.6889 0
      vertex -29.0451 16.6889 18
    endloop
  endfacet
  facet normal -0.368203 -0.929745 0
    outer loop
      vertex -27.1289 -18.2741 0
      vertex -26.5451 -18.5053 18
      vertex -27.1289 -18.2741 18
    endloop
  endfacet
  facet normal -0.368203 -0.929745 -0
    outer loop
      vertex -26.5451 -18.5053 18
      vertex -27.1289 -18.2741 0
      vertex -26.5451 -18.5053 0
    endloop
  endfacet
  facet normal -0.684624 -0.728896 0
    outer loop
      vertex -28.6448 -17.1727 0
      vertex -28.1871 -17.6026 18
      vertex -28.6448 -17.1727 18
    endloop
  endfacet
  facet normal -0.684624 -0.728896 -0
    outer loop
      vertex -28.1871 -17.6026 18
      vertex -28.6448 -17.1727 0
      vertex -28.1871 -17.6026 0
    endloop
  endfacet
  facet normal 0.951076 0.308956 0
    outer loop
      vertex 29.8429 14.9934 18
      vertex 29.6489 15.5906 0
      vertex 29.6489 15.5906 18
    endloop
  endfacet
  facet normal 0.951076 0.308956 0
    outer loop
      vertex 29.6489 15.5906 0
      vertex 29.8429 14.9934 18
      vertex 29.8429 14.9934 0
    endloop
  endfacet
  facet normal 0.125348 0.992113 -0
    outer loop
      vertex 25.9369 18.6614 0
      vertex 25.314 18.7401 18
      vertex 25.9369 18.6614 18
    endloop
  endfacet
  facet normal 0.125348 0.992113 0
    outer loop
      vertex 25.314 18.7401 18
      vertex 25.9369 18.6614 0
      vertex 25.314 18.7401 0
    endloop
  endfacet
  facet normal -0.951076 0.308956 0
    outer loop
      vertex -29.8429 14.9934 0
      vertex -29.6489 15.5906 18
      vertex -29.6489 15.5906 0
    endloop
  endfacet
  facet normal -0.951076 0.308956 0
    outer loop
      vertex -29.6489 15.5906 18
      vertex -29.8429 14.9934 0
      vertex -29.8429 14.9934 18
    endloop
  endfacet
  facet normal -0.587698 0.80908 0
    outer loop
      vertex -27.6791 17.9716 0
      vertex -28.1871 17.6026 18
      vertex -27.6791 17.9716 18
    endloop
  endfacet
  facet normal -0.587698 0.80908 0
    outer loop
      vertex -28.1871 17.6026 18
      vertex -27.6791 17.9716 0
      vertex -28.1871 17.6026 0
    endloop
  endfacet
  facet normal -0.904811 0.425812 0
    outer loop
      vertex -29.6489 15.5906 0
      vertex -29.3815 16.1588 18
      vertex -29.3815 16.1588 0
    endloop
  endfacet
  facet normal -0.904811 0.425812 0
    outer loop
      vertex -29.3815 16.1588 18
      vertex -29.6489 15.5906 0
      vertex -29.6489 15.5906 18
    endloop
  endfacet
  facet normal 0 0 -1
    outer loop
      vertex 25.314 -18.7401 0
      vertex 30 -13.75 0
      vertex 29.9606 -14.3767 0
    endloop
  endfacet
  facet normal -0 0 -1
    outer loop
      vertex 30 -13.75 0
      vertex 25.314 -18.7401 0
      vertex 30 13.75 0
    endloop
  endfacet
  facet normal 0 0 -1
    outer loop
      vertex 25.314 -18.7401 0
      vertex 29.9606 -14.3767 0
      vertex 29.8429 -14.9934 0
    endloop
  endfacet
  facet normal 0 0 -1
    outer loop
      vertex 25.314 18.7401 0
      vertex 30 13.75 0
      vertex 25.314 -18.7401 0
    endloop
  endfacet
  facet normal 0 0 -1
    outer loop
      vertex 25.314 -18.7401 0
      vertex 29.8429 -14.9934 0
      vertex 29.6489 -15.5906 0
    endloop
  endfacet
  facet normal 0 0 -1
    outer loop
      vertex 30 13.75 0
      vertex 25.314 18.7401 0
      vertex 29.9606 14.3767 0
    endloop
  endfacet
  facet normal 0 0 -1
    outer loop
      vertex 25.314 -18.7401 0
      vertex 29.6489 -15.5906 0
      vertex 29.3815 -16.1588 0
    endloop
  endfacet
  facet normal 0 0 -1
    outer loop
      vertex 29.9606 14.3767 0
      vertex 25.314 18.7401 0
      vertex 29.8429 14.9934 0
    endloop
  endfacet
  facet normal 0 0 -1
    outer loop
      vertex 25.314 -18.7401 0
      vertex 29.3815 -16.1588 0
      vertex 29.0451 -16.6889 0
    endloop
  endfacet
  facet normal 0 0 -1
    outer loop
      vertex 29.8429 14.9934 0
      vertex 25.314 18.7401 0
      vertex 29.6489 15.5906 0
    endloop
  endfacet
  facet normal 0 0 -1
    outer loop
      vertex 25.314 -18.7401 0
      vertex 29.0451 -16.6889 0
      vertex 28.6448 -17.1727 0
    endloop
  endfacet
  facet normal 0 0 -1
    outer loop
      vertex 29.6489 15.5906 0
      vertex 25.314 18.7401 0
      vertex 29.3815 16.1588 0
    endloop
  endfacet
  facet normal 0 0 -1
    outer loop
      vertex 25.314 -18.7401 0
      vertex 28.6448 -17.1727 0
      vertex 28.1871 -17.6026 0
    endloop
  endfacet
  facet normal 0 0 -1
    outer loop
      vertex 29.3815 16.1588 0
      vertex 25.314 18.7401 0
      vertex 29.0451 16.6889 0
    endloop
  endfacet
  facet normal 0 0 -1
    outer loop
      vertex 25.314 -18.7401 0
      vertex 28.1871 -17.6026 0
      vertex 27.6791 -17.9716 0
    endloop
  endfacet
  facet normal 0 0 -1
    outer loop
      vertex 29.0451 16.6889 0
      vertex 25.314 18.7401 0
      vertex 28.6448 17.1727 0
    endloop
  endfacet
  facet normal 0 0 -1
    outer loop
      vertex 25.314 -18.7401 0
      vertex 27.6791 -17.9716 0
      vertex 27.1289 -18.2741 0
    endloop
  endfacet
  facet normal 0 0 -1
    outer loop
      vertex 28.6448 17.1727 0
      vertex 25.314 18.7401 0
      vertex 28.1871 17.6026 0
    endloop
  endfacet
  facet normal 0 0 -1
    outer loop
      vertex 25.314 -18.7401 0
      vertex 27.1289 -18.2741 0
      vertex 26.5451 -18.5053 0
    endloop
  endfacet
  facet normal 0 0 -1
    outer loop
      vertex 28.1871 17.6026 0
      vertex 25.314 18.7401 0
      vertex 27.6791 17.9716 0
    endloop
  endfacet
  facet normal 0 0 -1
    outer loop
      vertex 25.314 -18.7401 0
      vertex 26.5451 -18.5053 0
      vertex 25.9369 -18.6614 0
    endloop
  endfacet
  facet normal 0 0 -1
    outer loop
      vertex 27.6791 17.9716 0
      vertex 25.314 18.7401 0
      vertex 27.1289 18.2741 0
    endloop
  endfacet
  facet normal 0 0 -1
    outer loop
      vertex 27.1289 18.2741 0
      vertex 25.314 18.7401 0
      vertex 26.5451 18.5053 0
    endloop
  endfacet
  facet normal 0 0 -1
    outer loop
      vertex 26.5451 18.5053 0
      vertex 25.314 18.7401 0
      vertex 25.9369 18.6614 0
    endloop
  endfacet
  facet normal 0 0 -1
    outer loop
      vertex -25.314 -18.7401 0
      vertex 25.314 18.7401 0
      vertex 25.314 -18.7401 0
    endloop
  endfacet
  facet normal 0 0 -1
    outer loop
      vertex -25.314 -18.7401 0
      vertex -25.314 18.7401 0
      vertex 25.314 18.7401 0
    endloop
  endfacet
  facet normal 0 0 -1
    outer loop
      vertex -30 -13.75 0
      vertex -25.314 -18.7401 0
      vertex -25.9369 -18.6614 0
    endloop
  endfacet
  facet normal 0 0 -1
    outer loop
      vertex -25.314 -18.7401 0
      vertex -30 -13.75 0
      vertex -25.314 18.7401 0
    endloop
  endfacet
  facet normal 0 0 -1
    outer loop
      vertex -30 -13.75 0
      vertex -25.9369 -18.6614 0
      vertex -26.5451 -18.5053 0
    endloop
  endfacet
  facet normal 0 0 -1
    outer loop
      vertex -30 13.75 0
      vertex -25.314 18.7401 0
      vertex -30 -13.75 0
    endloop
  endfacet
  facet normal 0 0 -1
    outer loop
      vertex -30 -13.75 0
      vertex -26.5451 -18.5053 0
      vertex -27.1289 -18.2741 0
    endloop
  endfacet
  facet normal 0 0 -1
    outer loop
      vertex -25.314 18.7401 0
      vertex -30 13.75 0
      vertex -25.9369 18.6614 0
    endloop
  endfacet
  facet normal 0 0 -1
    outer loop
      vertex -30 -13.75 0
      vertex -27.1289 -18.2741 0
      vertex -27.6791 -17.9716 0
    endloop
  endfacet
  facet normal 0 0 -1
    outer loop
      vertex -25.9369 18.6614 0
      vertex -30 13.75 0
      vertex -26.5451 18.5053 0
    endloop
  endfacet
  facet normal 0 0 -1
    outer loop
      vertex -30 -13.75 0
      vertex -27.6791 -17.9716 0
      vertex -28.1871 -17.6026 0
    endloop
  endfacet
  facet normal 0 0 -1
    outer loop
      vertex -26.5451 18.5053 0
      vertex -30 13.75 0
      vertex -27.1289 18.2741 0
    endloop
  endfacet
  facet normal 0 0 -1
    outer loop
      vertex -30 -13.75 0
      vertex -28.1871 -17.6026 0
      vertex -28.6448 -17.1727 0
    endloop
  endfacet
  facet normal 0 0 -1
    outer loop
      vertex -27.1289 18.2741 0
      vertex -30 13.75 0
      vertex -27.6791 17.9716 0
    endloop
  endfacet
  facet normal 0 0 -1
    outer loop
      vertex -30 -13.75 0
      vertex -28.6448 -17.1727 0
      vertex -29.0451 -16.6889 0
    endloop
  endfacet
  facet normal 0 0 -1
    outer loop
      vertex -27.6791 17.9716 0
      vertex -30 13.75 0
      vertex -28.1871 17.6026 0
    endloop
  endfacet
  facet normal 0 0 -1
    outer loop
      vertex -30 -13.75 0
      vertex -29.0451 -16.6889 0
      vertex -29.3815 -16.1588 0
    endloop
  endfacet
  facet normal 0 0 -1
    outer loop
      vertex -28.1871 17.6026 0
      vertex -30 13.75 0
      vertex -28.6448 17.1727 0
    endloop
  endfacet
  facet normal 0 0 -1
    outer loop
      vertex -30 -13.75 0
      vertex -29.3815 -16.1588 0
      vertex -29.6489 -15.5906 0
    endloop
  endfacet
  facet normal 0 0 -1
    outer loop
      vertex -28.6448 17.1727 0
      vertex -30 13.75 0
      vertex -29.0451 16.6889 0
    endloop
  endfacet
  facet normal 0 0 -1
    outer loop
      vertex -30 -13.75 0
      vertex -29.6489 -15.5906 0
      vertex -29.8429 -14.9934 0
    endloop
  endfacet
  facet normal 0 0 -1
    outer loop
      vertex -29.0451 16.6889 0
      vertex -30 13.75 0
      vertex -29.3815 16.1588 0
    endloop
  endfacet
  facet normal 0 0 -1
    outer loop
      vertex -30 -13.75 0
      vertex -29.8429 -14.9934 0
      vertex -29.9606 -14.3767 0
    endloop
  endfacet
  facet normal 0 0 -1
    outer loop
      vertex -29.3815 16.1588 0
      vertex -30 13.75 0
      vertex -29.6489 15.5906 0
    endloop
  endfacet
  facet normal 0 0 -1
    outer loop
      vertex -29.6489 15.5906 0
      vertex -30 13.75 0
      vertex -29.8429 14.9934 0
    endloop
  endfacet
  facet normal 0 0 -1
    outer loop
      vertex -29.8429 14.9934 0
      vertex -30 13.75 0
      vertex -29.9606 14.3767 0
    endloop
  endfacet
  facet normal -0.951076 -0.308956 0
    outer loop
      vertex -29.6489 -15.5906 0
      vertex -29.8429 -14.9934 18
      vertex -29.8429 -14.9934 0
    endloop
  endfacet
  facet normal -0.951076 -0.308956 0
    outer loop
      vertex -29.8429 -14.9934 18
      vertex -29.6489 -15.5906 0
      vertex -29.6489 -15.5906 18
    endloop
  endfacet
  facet normal -0.770462 -0.637486 0
    outer loop
      vertex -28.6448 -17.1727 0
      vertex -29.0451 -16.6889 18
      vertex -29.0451 -16.6889 0
    endloop
  endfacet
  facet normal -0.770462 -0.637486 0
    outer loop
      vertex -29.0451 -16.6889 18
      vertex -28.6448 -17.1727 0
      vertex -28.6448 -17.1727 18
    endloop
  endfacet
  facet normal -0.904811 -0.425812 0
    outer loop
      vertex -29.3815 -16.1588 0
      vertex -29.6489 -15.5906 18
      vertex -29.6489 -15.5906 0
    endloop
  endfacet
  facet normal -0.904811 -0.425812 0
    outer loop
      vertex -29.6489 -15.5906 18
      vertex -29.3815 -16.1588 0
      vertex -29.3815 -16.1588 18
    endloop
  endfacet
  facet normal -0.248601 -0.968606 0
    outer loop
      vertex -26.5451 -18.5053 0
      vertex -25.9369 -18.6614 18
      vertex -26.5451 -18.5053 18
    endloop
  endfacet
  facet normal -0.248601 -0.968606 -0
    outer loop
      vertex -25.9369 -18.6614 18
      vertex -26.5451 -18.5053 0
      vertex -25.9369 -18.6614 0
    endloop
  endfacet
  facet normal -0.587698 -0.80908 0
    outer loop
      vertex -28.1871 -17.6026 0
      vertex -27.6791 -17.9716 18
      vertex -28.1871 -17.6026 18
    endloop
  endfacet
  facet normal -0.587698 -0.80908 -0
    outer loop
      vertex -27.6791 -17.9716 18
      vertex -28.1871 -17.6026 0
      vertex -27.6791 -17.9716 0
    endloop
  endfacet
  facet normal 0.125348 -0.992113 0
    outer loop
      vertex 25.314 -18.7401 0
      vertex 25.9369 -18.6614 18
      vertex 25.314 -18.7401 18
    endloop
  endfacet
  facet normal 0.125348 -0.992113 0
    outer loop
      vertex 25.9369 -18.6614 18
      vertex 25.314 -18.7401 0
      vertex 25.9369 -18.6614 0
    endloop
  endfacet
  facet normal 0.770462 -0.637486 0
    outer loop
      vertex 28.6448 -17.1727 18
      vertex 29.0451 -16.6889 0
      vertex 29.0451 -16.6889 18
    endloop
  endfacet
  facet normal 0.770462 -0.637486 0
    outer loop
      vertex 29.0451 -16.6889 0
      vertex 28.6448 -17.1727 18
      vertex 28.6448 -17.1727 0
    endloop
  endfacet
  facet normal 0.98227 0.187471 0
    outer loop
      vertex 29.9606 14.3767 18
      vertex 29.8429 14.9934 0
      vertex 29.8429 14.9934 18
    endloop
  endfacet
  facet normal 0.98227 0.187471 0
    outer loop
      vertex 29.8429 14.9934 0
      vertex 29.9606 14.3767 18
      vertex 29.9606 14.3767 0
    endloop
  endfacet
  facet normal 0.99803 0.0627451 0
    outer loop
      vertex 30 13.75 18
      vertex 29.9606 14.3767 0
      vertex 29.9606 14.3767 18
    endloop
  endfacet
  facet normal 0.99803 0.0627451 0
    outer loop
      vertex 29.9606 14.3767 0
      vertex 30 13.75 18
      vertex 30 13.75 0
    endloop
  endfacet
  facet normal 0.844336 0.535814 0
    outer loop
      vertex 29.3815 16.1588 18
      vertex 29.0451 16.6889 0
      vertex 29.0451 16.6889 18
    endloop
  endfacet
  facet normal 0.844336 0.535814 0
    outer loop
      vertex 29.0451 16.6889 0
      vertex 29.3815 16.1588 18
      vertex 29.3815 16.1588 0
    endloop
  endfacet
  facet normal 0.904811 0.425812 0
    outer loop
      vertex 29.6489 15.5906 18
      vertex 29.3815 16.1588 0
      vertex 29.3815 16.1588 18
    endloop
  endfacet
  facet normal 0.904811 0.425812 0
    outer loop
      vertex 29.3815 16.1588 0
      vertex 29.6489 15.5906 18
      vertex 29.6489 15.5906 0
    endloop
  endfacet
  facet normal 0.481784 0.87629 -0
    outer loop
      vertex 27.6791 17.9716 0
      vertex 27.1289 18.2741 18
      vertex 27.6791 17.9716 18
    endloop
  endfacet
  facet normal 0.481784 0.87629 0
    outer loop
      vertex 27.1289 18.2741 18
      vertex 27.6791 17.9716 0
      vertex 27.1289 18.2741 0
    endloop
  endfacet
  facet normal 0.684624 0.728896 -0
    outer loop
      vertex 28.6448 17.1727 0
      vertex 28.1871 17.6026 18
      vertex 28.6448 17.1727 18
    endloop
  endfacet
  facet normal 0.684624 0.728896 0
    outer loop
      vertex 28.1871 17.6026 18
      vertex 28.6448 17.1727 0
      vertex 28.1871 17.6026 0
    endloop
  endfacet
  facet normal 0.368203 0.929745 -0
    outer loop
      vertex 27.1289 18.2741 0
      vertex 26.5451 18.5053 18
      vertex 27.1289 18.2741 18
    endloop
  endfacet
  facet normal 0.368203 0.929745 0
    outer loop
      vertex 26.5451 18.5053 18
      vertex 27.1289 18.2741 0
      vertex 26.5451 18.5053 0
    endloop
  endfacet
  facet normal -0.125348 0.992113 0
    outer loop
      vertex -25.314 18.7401 0
      vertex -25.9369 18.6614 18
      vertex -25.314 18.7401 18
    endloop
  endfacet
  facet normal -0.125348 0.992113 0
    outer loop
      vertex -25.9369 18.6614 18
      vertex -25.314 18.7401 0
      vertex -25.9369 18.6614 0
    endloop
  endfacet
  facet normal -0.98227 0.187471 0
    outer loop
      vertex -29.9606 14.3767 0
      vertex -29.8429 14.9934 18
      vertex -29.8429 14.9934 0
    endloop
  endfacet
  facet normal -0.98227 0.187471 0
    outer loop
      vertex -29.8429 14.9934 18
      vertex -29.9606 14.3767 0
      vertex -29.9606 14.3767 18
    endloop
  endfacet
  facet normal -0.481784 0.87629 0
    outer loop
      vertex -27.1289 18.2741 0
      vertex -27.6791 17.9716 18
      vertex -27.1289 18.2741 18
    endloop
  endfacet
  facet normal -0.481784 0.87629 0
    outer loop
      vertex -27.6791 17.9716 18
      vertex -27.1289 18.2741 0
      vertex -27.6791 17.9716 0
    endloop
  endfacet
  facet normal -0.368203 0.929745 0
    outer loop
      vertex -26.5451 18.5053 0
      vertex -27.1289 18.2741 18
      vertex -26.5451 18.5053 18
    endloop
  endfacet
  facet normal -0.368203 0.929745 0
    outer loop
      vertex -27.1289 18.2741 18
      vertex -26.5451 18.5053 0
      vertex -27.1289 18.2741 0
    endloop
  endfacet
  facet normal -0.684624 0.728896 0
    outer loop
      vertex -28.1871 17.6026 0
      vertex -28.6448 17.1727 18
      vertex -28.1871 17.6026 18
    endloop
  endfacet
  facet normal -0.684624 0.728896 0
    outer loop
      vertex -28.6448 17.1727 18
      vertex -28.1871 17.6026 0
      vertex -28.6448 17.1727 0
    endloop
  endfacet
  facet normal -0.98227 -0.187471 0
    outer loop
      vertex -29.8429 -14.9934 0
      vertex -29.9606 -14.3767 18
      vertex -29.9606 -14.3767 0
    endloop
  endfacet
  facet normal -0.98227 -0.187471 0
    outer loop
      vertex -29.9606 -14.3767 18
      vertex -29.8429 -14.9934 0
      vertex -29.8429 -14.9934 18
    endloop
  endfacet
  facet normal -0.844336 -0.535814 0
    outer loop
      vertex -29.0451 -16.6889 0
      vertex -29.3815 -16.1588 18
      vertex -29.3815 -16.1588 0
    endloop
  endfacet
  facet normal -0.844336 -0.535814 0
    outer loop
      vertex -29.3815 -16.1588 18
      vertex -29.0451 -16.6889 0
      vertex -29.0451 -16.6889 18
    endloop
  endfacet
  facet normal -0.125348 -0.992113 0
    outer loop
      vertex -25.9369 -18.6614 0
      vertex -25.314 -18.7401 18
      vertex -25.9369 -18.6614 18
    endloop
  endfacet
  facet normal -0.125348 -0.992113 -0
    outer loop
      vertex -25.314 -18.7401 18
      vertex -25.9369 -18.6614 0
      vertex -25.314 -18.7401 0
    endloop
  endfacet
  facet normal -0.481784 -0.87629 0
    outer loop
      vertex -27.6791 -17.9716 0
      vertex -27.1289 -18.2741 18
      vertex -27.6791 -17.9716 18
    endloop
  endfacet
  facet normal -0.481784 -0.87629 -0
    outer loop
      vertex -27.1289 -18.2741 18
      vertex -27.6791 -17.9716 0
      vertex -27.1289 -18.2741 0
    endloop
  endfacet
  facet normal 0.684624 -0.728896 0
    outer loop
      vertex 28.1871 -17.6026 0
      vertex 28.6448 -17.1727 18
      vertex 28.1871 -17.6026 18
    endloop
  endfacet
  facet normal 0.684624 -0.728896 0
    outer loop
      vertex 28.6448 -17.1727 18
      vertex 28.1871 -17.6026 0
      vertex 28.6448 -17.1727 0
    endloop
  endfacet
  facet normal 0.904811 -0.425812 0
    outer loop
      vertex 29.3815 -16.1588 18
      vertex 29.6489 -15.5906 0
      vertex 29.6489 -15.5906 18
    endloop
  endfacet
  facet normal 0.904811 -0.425812 0
    outer loop
      vertex 29.6489 -15.5906 0
      vertex 29.3815 -16.1588 18
      vertex 29.3815 -16.1588 0
    endloop
  endfacet
  facet normal 0.844336 -0.535814 0
    outer loop
      vertex 29.0451 -16.6889 18
      vertex 29.3815 -16.1588 0
      vertex 29.3815 -16.1588 18
    endloop
  endfacet
  facet normal 0.844336 -0.535814 0
    outer loop
      vertex 29.3815 -16.1588 0
      vertex 29.0451 -16.6889 18
      vertex 29.0451 -16.6889 0
    endloop
  endfacet
  facet normal 0.951076 -0.308956 0
    outer loop
      vertex 29.6489 -15.5906 18
      vertex 29.8429 -14.9934 0
      vertex 29.8429 -14.9934 18
    endloop
  endfacet
  facet normal 0.951076 -0.308956 0
    outer loop
      vertex 29.8429 -14.9934 0
      vertex 29.6489 -15.5906 18
      vertex 29.6489 -15.5906 0
    endloop
  endfacet
  facet normal 0.368203 -0.929745 0
    outer loop
      vertex 26.5451 -18.5053 0
      vertex 27.1289 -18.2741 18
      vertex 26.5451 -18.5053 18
    endloop
  endfacet
  facet normal 0.368203 -0.929745 0
    outer loop
      vertex 27.1289 -18.2741 18
      vertex 26.5451 -18.5053 0
      vertex 27.1289 -18.2741 0
    endloop
  endfacet
  facet normal 0.587698 0.80908 -0
    outer loop
      vertex 28.1871 17.6026 0
      vertex 27.6791 17.9716 18
      vertex 28.1871 17.6026 18
    endloop
  endfacet
  facet normal 0.587698 0.80908 0
    outer loop
      vertex 27.6791 17.9716 18
      vertex 28.1871 17.6026 0
      vertex 27.6791 17.9716 0
    endloop
  endfacet
  facet normal 0.248601 0.968606 -0
    outer loop
      vertex 26.5451 18.5053 0
      vertex 25.9369 18.6614 18
      vertex 26.5451 18.5053 18
    endloop
  endfacet
  facet normal 0.248601 0.968606 0
    outer loop
      vertex 25.9369 18.6614 18
      vertex 26.5451 18.5053 0
      vertex 25.9369 18.6614 0
    endloop
  endfacet
  facet normal -0.844336 0.535814 0
    outer loop
      vertex -29.3815 16.1588 0
      vertex -29.0451 16.6889 18
      vertex -29.0451 16.6889 0
    endloop
  endfacet
  facet normal -0.844336 0.535814 0
    outer loop
      vertex -29.0451 16.6889 18
      vertex -29.3815 16.1588 0
      vertex -29.3815 16.1588 18
    endloop
  endfacet
  facet normal 0.98227 -0.187471 0
    outer loop
      vertex 29.8429 -14.9934 18
      vertex 29.9606 -14.3767 0
      vertex 29.9606 -14.3767 18
    endloop
  endfacet
  facet normal 0.98227 -0.187471 0
    outer loop
      vertex 29.9606 -14.3767 0
      vertex 29.8429 -14.9934 18
      vertex 29.8429 -14.9934 0
    endloop
  endfacet
  facet normal 0.587698 -0.80908 0
    outer loop
      vertex 27.6791 -17.9716 0
      vertex 28.1871 -17.6026 18
      vertex 27.6791 -17.9716 18
    endloop
  endfacet
  facet normal 0.587698 -0.80908 0
    outer loop
      vertex 28.1871 -17.6026 18
      vertex 27.6791 -17.9716 0
      vertex 28.1871 -17.6026 0
    endloop
  endfacet
  facet normal 0.481784 -0.87629 0
    outer loop
      vertex 27.1289 -18.2741 0
      vertex 27.6791 -17.9716 18
      vertex 27.1289 -18.2741 18
    endloop
  endfacet
  facet normal 0.481784 -0.87629 0
    outer loop
      vertex 27.6791 -17.9716 18
      vertex 27.1289 -18.2741 0
      vertex 27.6791 -17.9716 0
    endloop
  endfacet
  facet normal 0.248601 -0.968606 0
    outer loop
      vertex 25.9369 -18.6614 0
      vertex 26.5451 -18.5053 18
      vertex 25.9369 -18.6614 18
    endloop
  endfacet
  facet normal 0.248601 -0.968606 0
    outer loop
      vertex 26.5451 -18.5053 18
      vertex 25.9369 -18.6614 0
      vertex 26.5451 -18.5053 0
    endloop
  endfacet
  facet normal 1 -0 0
    outer loop
      vertex -29 -12.75 18
      vertex -29 12.75 3
      vertex -29 12.75 18
    endloop
  endfacet
  facet normal 1 0 0
    outer loop
      vertex -29 12.75 3
      vertex -29 -12.75 18
      vertex -29 -12.75 3
    endloop
  endfacet
  facet normal 0.844336 -0.535814 0
    outer loop
      vertex -28.3815 15.1588 18
      vertex -28.0451 15.6889 3
      vertex -28.0451 15.6889 18
    endloop
  endfacet
  facet normal 0.844336 -0.535814 0
    outer loop
      vertex -28.0451 15.6889 3
      vertex -28.3815 15.1588 18
      vertex -28.3815 15.1588 3
    endloop
  endfacet
  facet normal -0.99803 -0.0627451 0
    outer loop
      vertex 29 12.75 3
      vertex 28.9606 13.3767 18
      vertex 28.9606 13.3767 3
    endloop
  endfacet
  facet normal -0.99803 -0.0627451 0
    outer loop
      vertex 28.9606 13.3767 18
      vertex 29 12.75 3
      vertex 29 12.75 18
    endloop
  endfacet
  facet normal -0.368203 -0.929745 0
    outer loop
      vertex 25.5451 17.5053 3
      vertex 26.1289 17.2741 18
      vertex 25.5451 17.5053 18
    endloop
  endfacet
  facet normal -0.368203 -0.929745 -0
    outer loop
      vertex 26.1289 17.2741 18
      vertex 25.5451 17.5053 3
      vertex 26.1289 17.2741 3
    endloop
  endfacet
  facet normal 0 1 -0
    outer loop
      vertex 24.314 -17.7401 3
      vertex -24.314 -17.7401 18
      vertex 24.314 -17.7401 18
    endloop
  endfacet
  facet normal 0 1 0
    outer loop
      vertex -24.314 -17.7401 18
      vertex 24.314 -17.7401 3
      vertex -24.314 -17.7401 3
    endloop
  endfacet
  facet normal 0.684624 0.728896 -0
    outer loop
      vertex -27.1871 -16.6026 3
      vertex -27.6448 -16.1727 18
      vertex -27.1871 -16.6026 18
    endloop
  endfacet
  facet normal 0.684624 0.728896 0
    outer loop
      vertex -27.6448 -16.1727 18
      vertex -27.1871 -16.6026 3
      vertex -27.6448 -16.1727 3
    endloop
  endfacet
  facet normal -0.99803 0.0627451 0
    outer loop
      vertex 28.9606 -13.3767 3
      vertex 29 -12.75 18
      vertex 29 -12.75 3
    endloop
  endfacet
  facet normal -0.99803 0.0627451 0
    outer loop
      vertex 29 -12.75 18
      vertex 28.9606 -13.3767 3
      vertex 28.9606 -13.3767 18
    endloop
  endfacet
  facet normal -0.770462 0.637486 0
    outer loop
      vertex 27.6448 -16.1727 3
      vertex 28.0451 -15.6889 18
      vertex 28.0451 -15.6889 3
    endloop
  endfacet
  facet normal -0.770462 0.637486 0
    outer loop
      vertex 28.0451 -15.6889 18
      vertex 27.6448 -16.1727 3
      vertex 27.6448 -16.1727 18
    endloop
  endfacet
  facet normal -0.248601 -0.968606 0
    outer loop
      vertex 24.9369 17.6614 3
      vertex 25.5451 17.5053 18
      vertex 24.9369 17.6614 18
    endloop
  endfacet
  facet normal -0.248601 -0.968606 -0
    outer loop
      vertex 25.5451 17.5053 18
      vertex 24.9369 17.6614 3
      vertex 25.5451 17.5053 3
    endloop
  endfacet
  facet normal -1 0 0
    outer loop
      vertex 29 -12.75 3
      vertex 29 12.75 18
      vertex 29 12.75 3
    endloop
  endfacet
  facet normal -1 -0 0
    outer loop
      vertex 29 12.75 18
      vertex 29 -12.75 3
      vertex 29 -12.75 18
    endloop
  endfacet
  facet normal 0 -1 0
    outer loop
      vertex -24.314 17.7401 3
      vertex 24.314 17.7401 18
      vertex -24.314 17.7401 18
    endloop
  endfacet
  facet normal 0 -1 -0
    outer loop
      vertex 24.314 17.7401 18
      vertex -24.314 17.7401 3
      vertex 24.314 17.7401 3
    endloop
  endfacet
  facet normal 0.770462 -0.637486 0
    outer loop
      vertex -28.0451 15.6889 18
      vertex -27.6448 16.1727 3
      vertex -27.6448 16.1727 18
    endloop
  endfacet
  facet normal 0.770462 -0.637486 0
    outer loop
      vertex -27.6448 16.1727 3
      vertex -28.0451 15.6889 18
      vertex -28.0451 15.6889 3
    endloop
  endfacet
  facet normal 0.951076 0.308956 0
    outer loop
      vertex -28.6489 -14.5906 18
      vertex -28.8429 -13.9934 3
      vertex -28.8429 -13.9934 18
    endloop
  endfacet
  facet normal 0.951076 0.308956 0
    outer loop
      vertex -28.8429 -13.9934 3
      vertex -28.6489 -14.5906 18
      vertex -28.6489 -14.5906 3
    endloop
  endfacet
  facet normal 0.368203 0.929745 -0
    outer loop
      vertex -25.5451 -17.5053 3
      vertex -26.1289 -17.2741 18
      vertex -25.5451 -17.5053 18
    endloop
  endfacet
  facet normal 0.368203 0.929745 0
    outer loop
      vertex -26.1289 -17.2741 18
      vertex -25.5451 -17.5053 3
      vertex -26.1289 -17.2741 3
    endloop
  endfacet
  facet normal 0.481784 0.87629 -0
    outer loop
      vertex -26.1289 -17.2741 3
      vertex -26.6791 -16.9716 18
      vertex -26.1289 -17.2741 18
    endloop
  endfacet
  facet normal 0.481784 0.87629 0
    outer loop
      vertex -26.6791 -16.9716 18
      vertex -26.1289 -17.2741 3
      vertex -26.6791 -16.9716 3
    endloop
  endfacet
  facet normal -0.125348 0.992113 0
    outer loop
      vertex 24.9369 -17.6614 3
      vertex 24.314 -17.7401 18
      vertex 24.9369 -17.6614 18
    endloop
  endfacet
  facet normal -0.125348 0.992113 0
    outer loop
      vertex 24.314 -17.7401 18
      vertex 24.9369 -17.6614 3
      vertex 24.314 -17.7401 3
    endloop
  endfacet
  facet normal -0.951076 0.308956 0
    outer loop
      vertex 28.6489 -14.5906 3
      vertex 28.8429 -13.9934 18
      vertex 28.8429 -13.9934 3
    endloop
  endfacet
  facet normal -0.951076 0.308956 0
    outer loop
      vertex 28.8429 -13.9934 18
      vertex 28.6489 -14.5906 3
      vertex 28.6489 -14.5906 18
    endloop
  endfacet
  facet normal -0.951076 -0.308956 0
    outer loop
      vertex 28.8429 13.9934 3
      vertex 28.6489 14.5906 18
      vertex 28.6489 14.5906 3
    endloop
  endfacet
  facet normal -0.951076 -0.308956 0
    outer loop
      vertex 28.6489 14.5906 18
      vertex 28.8429 13.9934 3
      vertex 28.8429 13.9934 18
    endloop
  endfacet
  facet normal -0.770462 -0.637486 0
    outer loop
      vertex 28.0451 15.6889 3
      vertex 27.6448 16.1727 18
      vertex 27.6448 16.1727 3
    endloop
  endfacet
  facet normal -0.770462 -0.637486 0
    outer loop
      vertex 27.6448 16.1727 18
      vertex 28.0451 15.6889 3
      vertex 28.0451 15.6889 18
    endloop
  endfacet
  facet normal -0.125348 -0.992113 0
    outer loop
      vertex 24.314 17.7401 3
      vertex 24.9369 17.6614 18
      vertex 24.314 17.7401 18
    endloop
  endfacet
  facet normal -0.125348 -0.992113 -0
    outer loop
      vertex 24.9369 17.6614 18
      vertex 24.314 17.7401 3
      vertex 24.9369 17.6614 3
    endloop
  endfacet
  facet normal 0.248601 -0.968606 0
    outer loop
      vertex -25.5451 17.5053 3
      vertex -24.9369 17.6614 18
      vertex -25.5451 17.5053 18
    endloop
  endfacet
  facet normal 0.248601 -0.968606 0
    outer loop
      vertex -24.9369 17.6614 18
      vertex -25.5451 17.5053 3
      vertex -24.9369 17.6614 3
    endloop
  endfacet
  facet normal 0.99803 0.0627451 0
    outer loop
      vertex -28.9606 -13.3767 18
      vertex -29 -12.75 3
      vertex -29 -12.75 18
    endloop
  endfacet
  facet normal 0.99803 0.0627451 0
    outer loop
      vertex -29 -12.75 3
      vertex -28.9606 -13.3767 18
      vertex -28.9606 -13.3767 3
    endloop
  endfacet
  facet normal 0 0 1
    outer loop
      vertex 24.314 17.7401 3
      vertex 29 12.75 3
      vertex 28.9606 13.3767 3
    endloop
  endfacet
  facet normal 0 0 1
    outer loop
      vertex 29 12.75 3
      vertex 24.314 17.7401 3
      vertex 29 -12.75 3
    endloop
  endfacet
  facet normal 0 0 1
    outer loop
      vertex 24.314 17.7401 3
      vertex 28.9606 13.3767 3
      vertex 28.8429 13.9934 3
    endloop
  endfacet
  facet normal 0 0 1
    outer loop
      vertex 24.314 -17.7401 3
      vertex 29 -12.75 3
      vertex 24.314 17.7401 3
    endloop
  endfacet
  facet normal 0 0 1
    outer loop
      vertex 24.314 17.7401 3
      vertex 28.8429 13.9934 3
      vertex 28.6489 14.5906 3
    endloop
  endfacet
  facet normal 0 0 1
    outer loop
      vertex 29 -12.75 3
      vertex 24.314 -17.7401 3
      vertex 28.9606 -13.3767 3
    endloop
  endfacet
  facet normal 0 0 1
    outer loop
      vertex 24.314 17.7401 3
      vertex 28.6489 14.5906 3
      vertex 28.3815 15.1588 3
    endloop
  endfacet
  facet normal 0 0 1
    outer loop
      vertex 28.9606 -13.3767 3
      vertex 24.314 -17.7401 3
      vertex 28.8429 -13.9934 3
    endloop
  endfacet
  facet normal 0 0 1
    outer loop
      vertex 24.314 17.7401 3
      vertex 28.3815 15.1588 3
      vertex 28.0451 15.6889 3
    endloop
  endfacet
  facet normal 0 0 1
    outer loop
      vertex 28.8429 -13.9934 3
      vertex 24.314 -17.7401 3
      vertex 28.6489 -14.5906 3
    endloop
  endfacet
  facet normal 0 0 1
    outer loop
      vertex 24.314 17.7401 3
      vertex 28.0451 15.6889 3
      vertex 27.6448 16.1727 3
    endloop
  endfacet
  facet normal 0 0 1
    outer loop
      vertex 28.6489 -14.5906 3
      vertex 24.314 -17.7401 3
      vertex 28.3815 -15.1588 3
    endloop
  endfacet
  facet normal 0 0 1
    outer loop
      vertex 24.314 17.7401 3
      vertex 27.6448 16.1727 3
      vertex 27.1871 16.6026 3
    endloop
  endfacet
  facet normal 0 0 1
    outer loop
      vertex 28.3815 -15.1588 3
      vertex 24.314 -17.7401 3
      vertex 28.0451 -15.6889 3
    endloop
  endfacet
  facet normal 0 0 1
    outer loop
      vertex 24.314 17.7401 3
      vertex 27.1871 16.6026 3
      vertex 26.6791 16.9716 3
    endloop
  endfacet
  facet normal 0 0 1
    outer loop
      vertex 28.0451 -15.6889 3
      vertex 24.314 -17.7401 3
      vertex 27.6448 -16.1727 3
    endloop
  endfacet
  facet normal 0 0 1
    outer loop
      vertex 24.314 17.7401 3
      vertex 26.6791 16.9716 3
      vertex 26.1289 17.2741 3
    endloop
  endfacet
  facet normal 0 0 1
    outer loop
      vertex 27.6448 -16.1727 3
      vertex 24.314 -17.7401 3
      vertex 27.1871 -16.6026 3
    endloop
  endfacet
  facet normal 0 0 1
    outer loop
      vertex 24.314 17.7401 3
      vertex 26.1289 17.2741 3
      vertex 25.5451 17.5053 3
    endloop
  endfacet
  facet normal 0 0 1
    outer loop
      vertex 27.1871 -16.6026 3
      vertex 24.314 -17.7401 3
      vertex 26.6791 -16.9716 3
    endloop
  endfacet
  facet normal 0 0 1
    outer loop
      vertex 24.314 17.7401 3
      vertex 25.5451 17.5053 3
      vertex 24.9369 17.6614 3
    endloop
  endfacet
  facet normal 0 0 1
    outer loop
      vertex 26.6791 -16.9716 3
      vertex 24.314 -17.7401 3
      vertex 26.1289 -17.2741 3
    endloop
  endfacet
  facet normal 0 0 1
    outer loop
      vertex 26.1289 -17.2741 3
      vertex 24.314 -17.7401 3
      vertex 25.5451 -17.5053 3
    endloop
  endfacet
  facet normal 0 0 1
    outer loop
      vertex 25.5451 -17.5053 3
      vertex 24.314 -17.7401 3
      vertex 24.9369 -17.6614 3
    endloop
  endfacet
  facet normal -0 0 1
    outer loop
      vertex -24.314 17.7401 3
      vertex 24.314 -17.7401 3
      vertex 24.314 17.7401 3
    endloop
  endfacet
  facet normal 0 0 1
    outer loop
      vertex -24.314 17.7401 3
      vertex -24.314 -17.7401 3
      vertex 24.314 -17.7401 3
    endloop
  endfacet
  facet normal 0 0 1
    outer loop
      vertex -29 12.75 3
      vertex -24.314 17.7401 3
      vertex -24.9369 17.6614 3
    endloop
  endfacet
  facet normal 0 0 1
    outer loop
      vertex -24.314 17.7401 3
      vertex -29 12.75 3
      vertex -24.314 -17.7401 3
    endloop
  endfacet
  facet normal 0 0 1
    outer loop
      vertex -29 12.75 3
      vertex -24.9369 17.6614 3
      vertex -25.5451 17.5053 3
    endloop
  endfacet
  facet normal -0 0 1
    outer loop
      vertex -29 -12.75 3
      vertex -24.314 -17.7401 3
      vertex -29 12.75 3
    endloop
  endfacet
  facet normal 0 0 1
    outer loop
      vertex -29 12.75 3
      vertex -25.5451 17.5053 3
      vertex -26.1289 17.2741 3
    endloop
  endfacet
  facet normal 0 0 1
    outer loop
      vertex -24.314 -17.7401 3
      vertex -29 -12.75 3
      vertex -24.9369 -17.6614 3
    endloop
  endfacet
  facet normal 0 0 1
    outer loop
      vertex -29 12.75 3
      vertex -26.1289 17.2741 3
      vertex -26.6791 16.9716 3
    endloop
  endfacet
  facet normal 0 0 1
    outer loop
      vertex -24.9369 -17.6614 3
      vertex -29 -12.75 3
      vertex -25.5451 -17.5053 3
    endloop
  endfacet
  facet normal 0 0 1
    outer loop
      vertex -29 12.75 3
      vertex -26.6791 16.9716 3
      vertex -27.1871 16.6026 3
    endloop
  endfacet
  facet normal 0 0 1
    outer loop
      vertex -25.5451 -17.5053 3
      vertex -29 -12.75 3
      vertex -26.1289 -17.2741 3
    endloop
  endfacet
  facet normal 0 0 1
    outer loop
      vertex -29 12.75 3
      vertex -27.1871 16.6026 3
      vertex -27.6448 16.1727 3
    endloop
  endfacet
  facet normal 0 0 1
    outer loop
      vertex -26.1289 -17.2741 3
      vertex -29 -12.75 3
      vertex -26.6791 -16.9716 3
    endloop
  endfacet
  facet normal 0 0 1
    outer loop
      vertex -29 12.75 3
      vertex -27.6448 16.1727 3
      vertex -28.0451 15.6889 3
    endloop
  endfacet
  facet normal 0 0 1
    outer loop
      vertex -26.6791 -16.9716 3
      vertex -29 -12.75 3
      vertex -27.1871 -16.6026 3
    endloop
  endfacet
  facet normal 0 0 1
    outer loop
      vertex -29 12.75 3
      vertex -28.0451 15.6889 3
      vertex -28.3815 15.1588 3
    endloop
  endfacet
  facet normal 0 0 1
    outer loop
      vertex -27.1871 -16.6026 3
      vertex -29 -12.75 3
      vertex -27.6448 -16.1727 3
    endloop
  endfacet
  facet normal 0 0 1
    outer loop
      vertex -29 12.75 3
      vertex -28.3815 15.1588 3
      vertex -28.6489 14.5906 3
    endloop
  endfacet
  facet normal 0 0 1
    outer loop
      vertex -27.6448 -16.1727 3
      vertex -29 -12.75 3
      vertex -28.0451 -15.6889 3
    endloop
  endfacet
  facet normal 0 0 1
    outer loop
      vertex -29 12.75 3
      vertex -28.6489 14.5906 3
      vertex -28.8429 13.9934 3
    endloop
  endfacet
  facet normal 0 0 1
    outer loop
      vertex -28.0451 -15.6889 3
      vertex -29 -12.75 3
      vertex -28.3815 -15.1588 3
    endloop
  endfacet
  facet normal 0 0 1
    outer loop
      vertex -29 12.75 3
      vertex -28.8429 13.9934 3
      vertex -28.9606 13.3767 3
    endloop
  endfacet
  facet normal 0 0 1
    outer loop
      vertex -28.3815 -15.1588 3
      vertex -29 -12.75 3
      vertex -28.6489 -14.5906 3
    endloop
  endfacet
  facet normal 0 0 1
    outer loop
      vertex -28.6489 -14.5906 3
      vertex -29 -12.75 3
      vertex -28.8429 -13.9934 3
    endloop
  endfacet
  facet normal 0 0 1
    outer loop
      vertex -28.8429 -13.9934 3
      vertex -29 -12.75 3
      vertex -28.9606 -13.3767 3
    endloop
  endfacet
  facet normal 0.98227 0.187471 0
    outer loop
      vertex -28.8429 -13.9934 18
      vertex -28.9606 -13.3767 3
      vertex -28.9606 -13.3767 18
    endloop
  endfacet
  facet normal 0.98227 0.187471 0
    outer loop
      vertex -28.9606 -13.3767 3
      vertex -28.8429 -13.9934 18
      vertex -28.8429 -13.9934 3
    endloop
  endfacet
  facet normal 0.770462 0.637486 0
    outer loop
      vertex -27.6448 -16.1727 18
      vertex -28.0451 -15.6889 3
      vertex -28.0451 -15.6889 18
    endloop
  endfacet
  facet normal 0.770462 0.637486 0
    outer loop
      vertex -28.0451 -15.6889 3
      vertex -27.6448 -16.1727 18
      vertex -27.6448 -16.1727 3
    endloop
  endfacet
  facet normal 0.904811 0.425812 0
    outer loop
      vertex -28.3815 -15.1588 18
      vertex -28.6489 -14.5906 3
      vertex -28.6489 -14.5906 18
    endloop
  endfacet
  facet normal 0.904811 0.425812 0
    outer loop
      vertex -28.6489 -14.5906 3
      vertex -28.3815 -15.1588 18
      vertex -28.3815 -15.1588 3
    endloop
  endfacet
  facet normal 0.587698 0.80908 -0
    outer loop
      vertex -26.6791 -16.9716 3
      vertex -27.1871 -16.6026 18
      vertex -26.6791 -16.9716 18
    endloop
  endfacet
  facet normal 0.587698 0.80908 0
    outer loop
      vertex -27.1871 -16.6026 18
      vertex -26.6791 -16.9716 3
      vertex -27.1871 -16.6026 3
    endloop
  endfacet
  facet normal 0.248601 0.968606 -0
    outer loop
      vertex -24.9369 -17.6614 3
      vertex -25.5451 -17.5053 18
      vertex -24.9369 -17.6614 18
    endloop
  endfacet
  facet normal 0.248601 0.968606 0
    outer loop
      vertex -25.5451 -17.5053 18
      vertex -24.9369 -17.6614 3
      vertex -25.5451 -17.5053 3
    endloop
  endfacet
  facet normal -0.98227 0.187471 0
    outer loop
      vertex 28.8429 -13.9934 3
      vertex 28.9606 -13.3767 18
      vertex 28.9606 -13.3767 3
    endloop
  endfacet
  facet normal -0.98227 0.187471 0
    outer loop
      vertex 28.9606 -13.3767 18
      vertex 28.8429 -13.9934 3
      vertex 28.8429 -13.9934 18
    endloop
  endfacet
  facet normal -0.481784 0.87629 0
    outer loop
      vertex 26.6791 -16.9716 3
      vertex 26.1289 -17.2741 18
      vertex 26.6791 -16.9716 18
    endloop
  endfacet
  facet normal -0.481784 0.87629 0
    outer loop
      vertex 26.1289 -17.2741 18
      vertex 26.6791 -16.9716 3
      vertex 26.1289 -17.2741 3
    endloop
  endfacet
  facet normal -0.844336 0.535814 0
    outer loop
      vertex 28.0451 -15.6889 3
      vertex 28.3815 -15.1588 18
      vertex 28.3815 -15.1588 3
    endloop
  endfacet
  facet normal -0.844336 0.535814 0
    outer loop
      vertex 28.3815 -15.1588 18
      vertex 28.0451 -15.6889 3
      vertex 28.0451 -15.6889 18
    endloop
  endfacet
  facet normal -0.98227 -0.187471 0
    outer loop
      vertex 28.9606 13.3767 3
      vertex 28.8429 13.9934 18
      vertex 28.8429 13.9934 3
    endloop
  endfacet
  facet normal -0.98227 -0.187471 0
    outer loop
      vertex 28.8429 13.9934 18
      vertex 28.9606 13.3767 3
      vertex 28.9606 13.3767 18
    endloop
  endfacet
  facet normal -0.844336 -0.535814 0
    outer loop
      vertex 28.3815 15.1588 3
      vertex 28.0451 15.6889 18
      vertex 28.0451 15.6889 3
    endloop
  endfacet
  facet normal -0.844336 -0.535814 0
    outer loop
      vertex 28.0451 15.6889 18
      vertex 28.3815 15.1588 3
      vertex 28.3815 15.1588 18
    endloop
  endfacet
  facet normal -0.904811 -0.425812 0
    outer loop
      vertex 28.6489 14.5906 3
      vertex 28.3815 15.1588 18
      vertex 28.3815 15.1588 3
    endloop
  endfacet
  facet normal -0.904811 -0.425812 0
    outer loop
      vertex 28.3815 15.1588 18
      vertex 28.6489 14.5906 3
      vertex 28.6489 14.5906 18
    endloop
  endfacet
  facet normal -0.684624 -0.728896 0
    outer loop
      vertex 27.1871 16.6026 3
      vertex 27.6448 16.1727 18
      vertex 27.1871 16.6026 18
    endloop
  endfacet
  facet normal -0.684624 -0.728896 -0
    outer loop
      vertex 27.6448 16.1727 18
      vertex 27.1871 16.6026 3
      vertex 27.6448 16.1727 3
    endloop
  endfacet
  facet normal 0.125348 -0.992113 0
    outer loop
      vertex -24.9369 17.6614 3
      vertex -24.314 17.7401 18
      vertex -24.9369 17.6614 18
    endloop
  endfacet
  facet normal 0.125348 -0.992113 0
    outer loop
      vertex -24.314 17.7401 18
      vertex -24.9369 17.6614 3
      vertex -24.314 17.7401 3
    endloop
  endfacet
  facet normal 0.904811 -0.425812 0
    outer loop
      vertex -28.6489 14.5906 18
      vertex -28.3815 15.1588 3
      vertex -28.3815 15.1588 18
    endloop
  endfacet
  facet normal 0.904811 -0.425812 0
    outer loop
      vertex -28.3815 15.1588 3
      vertex -28.6489 14.5906 18
      vertex -28.6489 14.5906 3
    endloop
  endfacet
  facet normal 0.99803 -0.0627451 0
    outer loop
      vertex -29 12.75 18
      vertex -28.9606 13.3767 3
      vertex -28.9606 13.3767 18
    endloop
  endfacet
  facet normal 0.99803 -0.0627451 0
    outer loop
      vertex -28.9606 13.3767 3
      vertex -29 12.75 18
      vertex -29 12.75 3
    endloop
  endfacet
  facet normal 0.98227 -0.187471 0
    outer loop
      vertex -28.9606 13.3767 18
      vertex -28.8429 13.9934 3
      vertex -28.8429 13.9934 18
    endloop
  endfacet
  facet normal 0.98227 -0.187471 0
    outer loop
      vertex -28.8429 13.9934 3
      vertex -28.9606 13.3767 18
      vertex -28.9606 13.3767 3
    endloop
  endfacet
  facet normal 0.844336 0.535814 0
    outer loop
      vertex -28.0451 -15.6889 18
      vertex -28.3815 -15.1588 3
      vertex -28.3815 -15.1588 18
    endloop
  endfacet
  facet normal 0.844336 0.535814 0
    outer loop
      vertex -28.3815 -15.1588 3
      vertex -28.0451 -15.6889 18
      vertex -28.0451 -15.6889 3
    endloop
  endfacet
  facet normal 0.125348 0.992113 -0
    outer loop
      vertex -24.314 -17.7401 3
      vertex -24.9369 -17.6614 18
      vertex -24.314 -17.7401 18
    endloop
  endfacet
  facet normal 0.125348 0.992113 0
    outer loop
      vertex -24.9369 -17.6614 18
      vertex -24.314 -17.7401 3
      vertex -24.9369 -17.6614 3
    endloop
  endfacet
  facet normal -0.368203 0.929745 0
    outer loop
      vertex 26.1289 -17.2741 3
      vertex 25.5451 -17.5053 18
      vertex 26.1289 -17.2741 18
    endloop
  endfacet
  facet normal -0.368203 0.929745 0
    outer loop
      vertex 25.5451 -17.5053 18
      vertex 26.1289 -17.2741 3
      vertex 25.5451 -17.5053 3
    endloop
  endfacet
  facet normal -0.684624 0.728896 0
    outer loop
      vertex 27.6448 -16.1727 3
      vertex 27.1871 -16.6026 18
      vertex 27.6448 -16.1727 18
    endloop
  endfacet
  facet normal -0.684624 0.728896 0
    outer loop
      vertex 27.1871 -16.6026 18
      vertex 27.6448 -16.1727 3
      vertex 27.1871 -16.6026 3
    endloop
  endfacet
  facet normal -0.904811 0.425812 0
    outer loop
      vertex 28.3815 -15.1588 3
      vertex 28.6489 -14.5906 18
      vertex 28.6489 -14.5906 3
    endloop
  endfacet
  facet normal -0.904811 0.425812 0
    outer loop
      vertex 28.6489 -14.5906 18
      vertex 28.3815 -15.1588 3
      vertex 28.3815 -15.1588 18
    endloop
  endfacet
  facet normal -0.481784 -0.87629 0
    outer loop
      vertex 26.1289 17.2741 3
      vertex 26.6791 16.9716 18
      vertex 26.1289 17.2741 18
    endloop
  endfacet
  facet normal -0.481784 -0.87629 -0
    outer loop
      vertex 26.6791 16.9716 18
      vertex 26.1289 17.2741 3
      vertex 26.6791 16.9716 3
    endloop
  endfacet
  facet normal 0.684624 -0.728896 0
    outer loop
      vertex -27.6448 16.1727 3
      vertex -27.1871 16.6026 18
      vertex -27.6448 16.1727 18
    endloop
  endfacet
  facet normal 0.684624 -0.728896 0
    outer loop
      vertex -27.1871 16.6026 18
      vertex -27.6448 16.1727 3
      vertex -27.1871 16.6026 3
    endloop
  endfacet
  facet normal 0.481784 -0.87629 0
    outer loop
      vertex -26.6791 16.9716 3
      vertex -26.1289 17.2741 18
      vertex -26.6791 16.9716 18
    endloop
  endfacet
  facet normal 0.481784 -0.87629 0
    outer loop
      vertex -26.1289 17.2741 18
      vertex -26.6791 16.9716 3
      vertex -26.1289 17.2741 3
    endloop
  endfacet
  facet normal 0.368203 -0.929745 0
    outer loop
      vertex -26.1289 17.2741 3
      vertex -25.5451 17.5053 18
      vertex -26.1289 17.2741 18
    endloop
  endfacet
  facet normal 0.368203 -0.929745 0
    outer loop
      vertex -25.5451 17.5053 18
      vertex -26.1289 17.2741 3
      vertex -25.5451 17.5053 3
    endloop
  endfacet
  facet normal -0.248601 0.968606 0
    outer loop
      vertex 25.5451 -17.5053 3
      vertex 24.9369 -17.6614 18
      vertex 25.5451 -17.5053 18
    endloop
  endfacet
  facet normal -0.248601 0.968606 0
    outer loop
      vertex 24.9369 -17.6614 18
      vertex 25.5451 -17.5053 3
      vertex 24.9369 -17.6614 3
    endloop
  endfacet
  facet normal -0.587698 0.80908 0
    outer loop
      vertex 27.1871 -16.6026 3
      vertex 26.6791 -16.9716 18
      vertex 27.1871 -16.6026 18
    endloop
  endfacet
  facet normal -0.587698 0.80908 0
    outer loop
      vertex 26.6791 -16.9716 18
      vertex 27.1871 -16.6026 3
      vertex 26.6791 -16.9716 3
    endloop
  endfacet
  facet normal -0.587698 -0.80908 0
    outer loop
      vertex 26.6791 16.9716 3
      vertex 27.1871 16.6026 18
      vertex 26.6791 16.9716 18
    endloop
  endfacet
  facet normal -0.587698 -0.80908 -0
    outer loop
      vertex 27.1871 16.6026 18
      vertex 26.6791 16.9716 3
      vertex 27.1871 16.6026 3
    endloop
  endfacet
  facet normal 0.951076 -0.308956 0
    outer loop
      vertex -28.8429 13.9934 18
      vertex -28.6489 14.5906 3
      vertex -28.6489 14.5906 18
    endloop
  endfacet
  facet normal 0.951076 -0.308956 0
    outer loop
      vertex -28.6489 14.5906 3
      vertex -28.8429 13.9934 18
      vertex -28.8429 13.9934 3
    endloop
  endfacet
  facet normal 0.587698 -0.80908 0
    outer loop
      vertex -27.1871 16.6026 3
      vertex -26.6791 16.9716 18
      vertex -27.1871 16.6026 18
    endloop
  endfacet
  facet normal 0.587698 -0.80908 0
    outer loop
      vertex -26.6791 16.9716 18
      vertex -27.1871 16.6026 3
      vertex -26.6791 16.9716 3
    endloop
  endfacet
endsolid OpenSCAD_Model
