solid OpenSCAD_Model
  facet normal -1 0 0
    outer loop
      vertex -7.5 -2.5 0
      vertex -7.5 2.5 7
      vertex -7.5 2.5 0
    endloop
  endfacet
  facet normal -1 -0 0
    outer loop
      vertex -7.5 2.5 7
      vertex -7.5 -2.5 0
      vertex -7.5 -2.5 7
    endloop
  endfacet
  facet normal -0.998026 -0.0627957 0
    outer loop
      vertex -7.46057 -3.12667 0
      vertex -7.5 -2.5 7
      vertex -7.5 -2.5 0
    endloop
  endfacet
  facet normal -0.998026 -0.0627957 0
    outer loop
      vertex -7.5 -2.5 7
      vertex -7.46057 -3.12667 0
      vertex -7.46057 -3.12667 7
    endloop
  endfacet
  facet normal -0.982289 -0.18737 0
    outer loop
      vertex -7.34292 -3.74345 0
      vertex -7.46057 -3.12667 7
      vertex -7.46057 -3.12667 0
    endloop
  endfacet
  facet normal -0.982289 -0.18737 0
    outer loop
      vertex -7.46057 -3.12667 7
      vertex -7.34292 -3.74345 0
      vertex -7.34292 -3.74345 7
    endloop
  endfacet
  facet normal -0 0 1
    outer loop
      vertex 6.14292 2.54345 7
      vertex 7.5 2.5 7
      vertex 7.46057 3.12667 7
    endloop
  endfacet
  facet normal 0 0 1
    outer loop
      vertex 7.5 2.5 7
      vertex 6.3 1.3 7
      vertex 7.5 -2.5 7
    endloop
  endfacet
  facet normal -0 0 1
    outer loop
      vertex 5.94888 3.14062 7
      vertex 7.46057 3.12667 7
      vertex 7.34292 3.74345 7
    endloop
  endfacet
  facet normal -0 0 1
    outer loop
      vertex 6.3 -1.3 7
      vertex 7.5 -2.5 7
      vertex 6.3 1.3 7
    endloop
  endfacet
  facet normal 0 0 1
    outer loop
      vertex 5.68153 3.70877 7
      vertex 7.34292 3.74345 7
      vertex 7.14888 4.34062 7
    endloop
  endfacet
  facet normal -0 0 1
    outer loop
      vertex 6.26057 -1.92667 7
      vertex 7.5 -2.5 7
      vertex 6.3 -1.3 7
    endloop
  endfacet
  facet normal 0 0 1
    outer loop
      vertex 5.68153 3.70877 7
      vertex 7.14888 4.34062 7
      vertex 6.88153 4.90877 7
    endloop
  endfacet
  facet normal 0 0 1
    outer loop
      vertex 6.14292 -2.54345 7
      vertex 7.5 -2.5 7
      vertex 6.26057 -1.92667 7
    endloop
  endfacet
  facet normal 0 0 1
    outer loop
      vertex 5.34508 4.23893 7
      vertex 6.88153 4.90877 7
      vertex 6.54508 5.43893 7
    endloop
  endfacet
  facet normal 0 0 1
    outer loop
      vertex 7.5 -2.5 7
      vertex 6.14292 -2.54345 7
      vertex 7.46057 -3.12667 7
    endloop
  endfacet
  facet normal 0 0 1
    outer loop
      vertex 5.94888 -3.14062 7
      vertex 7.46057 -3.12667 7
      vertex 6.14292 -2.54345 7
    endloop
  endfacet
  facet normal 0 0 1
    outer loop
      vertex 7.5 2.5 7
      vertex 6.26057 1.92667 7
      vertex 6.3 1.3 7
    endloop
  endfacet
  facet normal 0 0 1
    outer loop
      vertex 4.94484 4.72274 7
      vertex 6.54508 5.43893 7
      vertex 6.14484 5.92274 7
    endloop
  endfacet
  facet normal 0 0 1
    outer loop
      vertex 7.5 2.5 7
      vertex 6.14292 2.54345 7
      vertex 6.26057 1.92667 7
    endloop
  endfacet
  facet normal 0 0 1
    outer loop
      vertex 7.46057 3.12667 7
      vertex 5.94888 3.14062 7
      vertex 6.14292 2.54345 7
    endloop
  endfacet
  facet normal 0 0 1
    outer loop
      vertex 4.94484 4.72274 7
      vertex 6.14484 5.92274 7
      vertex 5.68712 6.35257 7
    endloop
  endfacet
  facet normal 0 0 1
    outer loop
      vertex 7.34292 3.74345 7
      vertex 5.68153 3.70877 7
      vertex 5.94888 3.14062 7
    endloop
  endfacet
  facet normal 0 0 1
    outer loop
      vertex 6.88153 4.90877 7
      vertex 5.34508 4.23893 7
      vertex 5.68153 3.70877 7
    endloop
  endfacet
  facet normal 0 0 1
    outer loop
      vertex 4.48712 5.15257 7
      vertex 5.68712 6.35257 7
      vertex 5.17913 6.72164 7
    endloop
  endfacet
  facet normal 0 0 1
    outer loop
      vertex 6.54508 5.43893 7
      vertex 4.94484 4.72274 7
      vertex 5.34508 4.23893 7
    endloop
  endfacet
  facet normal 0 0 1
    outer loop
      vertex 3.97913 5.52164 7
      vertex 5.17913 6.72164 7
      vertex 4.6289 7.02413 7
    endloop
  endfacet
  facet normal 0 0 1
    outer loop
      vertex 5.68712 6.35257 7
      vertex 4.48712 5.15257 7
      vertex 4.94484 4.72274 7
    endloop
  endfacet
  facet normal 0 0 1
    outer loop
      vertex 3.4289 5.82413 7
      vertex 4.6289 7.02413 7
      vertex 4.04508 7.25528 7
    endloop
  endfacet
  facet normal 0 0 1
    outer loop
      vertex 5.17913 6.72164 7
      vertex 3.97913 5.52164 7
      vertex 4.48712 5.15257 7
    endloop
  endfacet
  facet normal 0 0 1
    outer loop
      vertex 3.4289 5.82413 7
      vertex 4.04508 7.25528 7
      vertex 3.43691 7.41144 7
    endloop
  endfacet
  facet normal 0 0 1
    outer loop
      vertex 4.6289 7.02413 7
      vertex 3.4289 5.82413 7
      vertex 3.97913 5.52164 7
    endloop
  endfacet
  facet normal 0 0 1
    outer loop
      vertex 3.43691 7.41144 7
      vertex 2.84508 6.05528 7
      vertex 3.4289 5.82413 7
    endloop
  endfacet
  facet normal 0 0 1
    outer loop
      vertex 2.81395 7.49013 7
      vertex 2.84508 6.05528 7
      vertex 3.43691 7.41144 7
    endloop
  endfacet
  facet normal 0 0 1
    outer loop
      vertex 2.81395 7.49013 7
      vertex 2.23691 6.21144 7
      vertex 2.84508 6.05528 7
    endloop
  endfacet
  facet normal 0 0 1
    outer loop
      vertex 2.81395 7.49013 7
      vertex 1.61395 6.29013 7
      vertex 2.23691 6.21144 7
    endloop
  endfacet
  facet normal 0 0 1
    outer loop
      vertex 2.81395 7.49013 7
      vertex -1.61395 6.29013 7
      vertex 1.61395 6.29013 7
    endloop
  endfacet
  facet normal -0 0 1
    outer loop
      vertex -2.81395 7.49013 7
      vertex -1.61395 6.29013 7
      vertex 2.81395 7.49013 7
    endloop
  endfacet
  facet normal 0 0 1
    outer loop
      vertex -1.61395 6.29013 7
      vertex -2.81395 7.49013 7
      vertex -2.23691 6.21144 7
    endloop
  endfacet
  facet normal 0 0 1
    outer loop
      vertex -2.81395 7.49013 7
      vertex -2.84508 6.05528 7
      vertex -2.23691 6.21144 7
    endloop
  endfacet
  facet normal -0 0 1
    outer loop
      vertex -3.43691 7.41144 7
      vertex -2.84508 6.05528 7
      vertex -2.81395 7.49013 7
    endloop
  endfacet
  facet normal 0 0 1
    outer loop
      vertex -2.84508 6.05528 7
      vertex -3.43691 7.41144 7
      vertex -3.4289 5.82413 7
    endloop
  endfacet
  facet normal -0 0 1
    outer loop
      vertex -4.04508 7.25528 7
      vertex -3.4289 5.82413 7
      vertex -3.43691 7.41144 7
    endloop
  endfacet
  facet normal -0 0 1
    outer loop
      vertex -4.6289 7.02413 7
      vertex -3.4289 5.82413 7
      vertex -4.04508 7.25528 7
    endloop
  endfacet
  facet normal 0 0 1
    outer loop
      vertex -3.4289 5.82413 7
      vertex -4.6289 7.02413 7
      vertex -3.97913 5.52164 7
    endloop
  endfacet
  facet normal -0 0 1
    outer loop
      vertex -5.17913 6.72164 7
      vertex -3.97913 5.52164 7
      vertex -4.6289 7.02413 7
    endloop
  endfacet
  facet normal 0 0 1
    outer loop
      vertex -3.97913 5.52164 7
      vertex -5.17913 6.72164 7
      vertex -4.48712 5.15257 7
    endloop
  endfacet
  facet normal -0 0 1
    outer loop
      vertex -5.68712 6.35257 7
      vertex -4.48712 5.15257 7
      vertex -5.17913 6.72164 7
    endloop
  endfacet
  facet normal 0 0 1
    outer loop
      vertex -4.48712 5.15257 7
      vertex -5.68712 6.35257 7
      vertex -4.94484 4.72274 7
    endloop
  endfacet
  facet normal -0 0 1
    outer loop
      vertex -6.14484 5.92274 7
      vertex -4.94484 4.72274 7
      vertex -5.68712 6.35257 7
    endloop
  endfacet
  facet normal -0 0 1
    outer loop
      vertex -6.54508 5.43893 7
      vertex -4.94484 4.72274 7
      vertex -6.14484 5.92274 7
    endloop
  endfacet
  facet normal 0 0 1
    outer loop
      vertex -4.94484 4.72274 7
      vertex -6.54508 5.43893 7
      vertex -5.34508 4.23893 7
    endloop
  endfacet
  facet normal -0 0 1
    outer loop
      vertex -6.88153 4.90877 7
      vertex -5.34508 4.23893 7
      vertex -6.54508 5.43893 7
    endloop
  endfacet
  facet normal 0 0 1
    outer loop
      vertex -5.34508 4.23893 7
      vertex -6.88153 4.90877 7
      vertex -5.68153 3.70877 7
    endloop
  endfacet
  facet normal -0 0 1
    outer loop
      vertex -7.14888 4.34062 7
      vertex -5.68153 3.70877 7
      vertex -6.88153 4.90877 7
    endloop
  endfacet
  facet normal -0 0 1
    outer loop
      vertex -7.34292 3.74345 7
      vertex -5.68153 3.70877 7
      vertex -7.14888 4.34062 7
    endloop
  endfacet
  facet normal 0 0 1
    outer loop
      vertex -7.46057 3.12667 7
      vertex -5.94888 3.14062 7
      vertex -7.34292 3.74345 7
    endloop
  endfacet
  facet normal 0 0 1
    outer loop
      vertex -5.68153 3.70877 7
      vertex -7.34292 3.74345 7
      vertex -5.94888 3.14062 7
    endloop
  endfacet
  facet normal 0 0 1
    outer loop
      vertex 7.46057 -3.12667 7
      vertex 5.94888 -3.14062 7
      vertex 7.34292 -3.74345 7
    endloop
  endfacet
  facet normal -0 0 1
    outer loop
      vertex 5.68153 -3.70877 7
      vertex 7.34292 -3.74345 7
      vertex 5.94888 -3.14062 7
    endloop
  endfacet
  facet normal 0 0 1
    outer loop
      vertex 7.34292 -3.74345 7
      vertex 5.68153 -3.70877 7
      vertex 7.14888 -4.34062 7
    endloop
  endfacet
  facet normal 0 0 1
    outer loop
      vertex 7.14888 -4.34062 7
      vertex 5.68153 -3.70877 7
      vertex 6.88153 -4.90877 7
    endloop
  endfacet
  facet normal -0 0 1
    outer loop
      vertex 5.34508 -4.23893 7
      vertex 6.88153 -4.90877 7
      vertex 5.68153 -3.70877 7
    endloop
  endfacet
  facet normal 0 0 1
    outer loop
      vertex 6.88153 -4.90877 7
      vertex 5.34508 -4.23893 7
      vertex 6.54508 -5.43893 7
    endloop
  endfacet
  facet normal -0 0 1
    outer loop
      vertex 4.94484 -4.72274 7
      vertex 6.54508 -5.43893 7
      vertex 5.34508 -4.23893 7
    endloop
  endfacet
  facet normal 0 0 1
    outer loop
      vertex 6.54508 -5.43893 7
      vertex 4.94484 -4.72274 7
      vertex 6.14484 -5.92274 7
    endloop
  endfacet
  facet normal 0 0 1
    outer loop
      vertex 6.14484 -5.92274 7
      vertex 4.94484 -4.72274 7
      vertex 5.68712 -6.35257 7
    endloop
  endfacet
  facet normal -0 0 1
    outer loop
      vertex 4.48712 -5.15257 7
      vertex 5.68712 -6.35257 7
      vertex 4.94484 -4.72274 7
    endloop
  endfacet
  facet normal 0 0 1
    outer loop
      vertex 5.68712 -6.35257 7
      vertex 4.48712 -5.15257 7
      vertex 5.17913 -6.72164 7
    endloop
  endfacet
  facet normal -0 0 1
    outer loop
      vertex 3.97913 -5.52164 7
      vertex 5.17913 -6.72164 7
      vertex 4.48712 -5.15257 7
    endloop
  endfacet
  facet normal 0 0 1
    outer loop
      vertex 5.17913 -6.72164 7
      vertex 3.97913 -5.52164 7
      vertex 4.6289 -7.02413 7
    endloop
  endfacet
  facet normal -0 0 1
    outer loop
      vertex 3.4289 -5.82413 7
      vertex 4.6289 -7.02413 7
      vertex 3.97913 -5.52164 7
    endloop
  endfacet
  facet normal 0 0 1
    outer loop
      vertex 4.6289 -7.02413 7
      vertex 3.4289 -5.82413 7
      vertex 4.04508 -7.25528 7
    endloop
  endfacet
  facet normal 0 0 1
    outer loop
      vertex 4.04508 -7.25528 7
      vertex 3.4289 -5.82413 7
      vertex 3.43691 -7.41144 7
    endloop
  endfacet
  facet normal -0 0 1
    outer loop
      vertex 2.84508 -6.05528 7
      vertex 3.43691 -7.41144 7
      vertex 3.4289 -5.82413 7
    endloop
  endfacet
  facet normal 0 0 1
    outer loop
      vertex 2.84508 -6.05528 7
      vertex 2.81395 -7.49013 7
      vertex 3.43691 -7.41144 7
    endloop
  endfacet
  facet normal -0 0 1
    outer loop
      vertex 2.23691 -6.21144 7
      vertex 2.81395 -7.49013 7
      vertex 2.84508 -6.05528 7
    endloop
  endfacet
  facet normal -0 0 1
    outer loop
      vertex 1.61395 -6.29013 7
      vertex 2.81395 -7.49013 7
      vertex 2.23691 -6.21144 7
    endloop
  endfacet
  facet normal -0 0 1
    outer loop
      vertex -1.61395 -6.29013 7
      vertex 2.81395 -7.49013 7
      vertex 1.61395 -6.29013 7
    endloop
  endfacet
  facet normal 0 0 1
    outer loop
      vertex -2.81395 -7.49013 7
      vertex -1.61395 -6.29013 7
      vertex -2.23691 -6.21144 7
    endloop
  endfacet
  facet normal 0 0 1
    outer loop
      vertex -1.61395 -6.29013 7
      vertex -2.81395 -7.49013 7
      vertex 2.81395 -7.49013 7
    endloop
  endfacet
  facet normal 0 0 1
    outer loop
      vertex -2.84508 -6.05528 7
      vertex -2.81395 -7.49013 7
      vertex -2.23691 -6.21144 7
    endloop
  endfacet
  facet normal 0 0 1
    outer loop
      vertex -3.43691 -7.41144 7
      vertex -2.84508 -6.05528 7
      vertex -3.4289 -5.82413 7
    endloop
  endfacet
  facet normal 0 0 1
    outer loop
      vertex -2.84508 -6.05528 7
      vertex -3.43691 -7.41144 7
      vertex -2.81395 -7.49013 7
    endloop
  endfacet
  facet normal 0 0 1
    outer loop
      vertex -4.6289 -7.02413 7
      vertex -3.4289 -5.82413 7
      vertex -3.97913 -5.52164 7
    endloop
  endfacet
  facet normal 0 0 1
    outer loop
      vertex -3.4289 -5.82413 7
      vertex -4.04508 -7.25528 7
      vertex -3.43691 -7.41144 7
    endloop
  endfacet
  facet normal 0 0 1
    outer loop
      vertex -5.17913 -6.72164 7
      vertex -3.97913 -5.52164 7
      vertex -4.48712 -5.15257 7
    endloop
  endfacet
  facet normal 0 0 1
    outer loop
      vertex -3.4289 -5.82413 7
      vertex -4.6289 -7.02413 7
      vertex -4.04508 -7.25528 7
    endloop
  endfacet
  facet normal 0 0 1
    outer loop
      vertex -5.68712 -6.35257 7
      vertex -4.48712 -5.15257 7
      vertex -4.94484 -4.72274 7
    endloop
  endfacet
  facet normal 0 0 1
    outer loop
      vertex -3.97913 -5.52164 7
      vertex -5.17913 -6.72164 7
      vertex -4.6289 -7.02413 7
    endloop
  endfacet
  facet normal 0 0 1
    outer loop
      vertex -6.54508 -5.43893 7
      vertex -4.94484 -4.72274 7
      vertex -5.34508 -4.23893 7
    endloop
  endfacet
  facet normal 0 0 1
    outer loop
      vertex -6.88153 -4.90877 7
      vertex -5.34508 -4.23893 7
      vertex -5.68153 -3.70877 7
    endloop
  endfacet
  facet normal 0 0 1
    outer loop
      vertex -4.48712 -5.15257 7
      vertex -5.68712 -6.35257 7
      vertex -5.17913 -6.72164 7
    endloop
  endfacet
  facet normal 0 0 1
    outer loop
      vertex -7.34292 -3.74345 7
      vertex -5.68153 -3.70877 7
      vertex -5.94888 -3.14062 7
    endloop
  endfacet
  facet normal -0 0 1
    outer loop
      vertex -7.46057 -3.12667 7
      vertex -5.94888 -3.14062 7
      vertex -6.14292 -2.54345 7
    endloop
  endfacet
  facet normal 0 0 1
    outer loop
      vertex -4.94484 -4.72274 7
      vertex -6.14484 -5.92274 7
      vertex -5.68712 -6.35257 7
    endloop
  endfacet
  facet normal -0 0 1
    outer loop
      vertex -7.5 -2.5 7
      vertex -6.14292 -2.54345 7
      vertex -6.26057 -1.92667 7
    endloop
  endfacet
  facet normal 0 0 1
    outer loop
      vertex -7.5 -2.5 7
      vertex -6.26057 -1.92667 7
      vertex -6.3 -1.3 7
    endloop
  endfacet
  facet normal 0 0 1
    outer loop
      vertex -6.3 1.3 7
      vertex -7.5 2.5 7
      vertex -6.3 -1.3 7
    endloop
  endfacet
  facet normal 0 0 1
    outer loop
      vertex -7.5 -2.5 7
      vertex -6.3 -1.3 7
      vertex -7.5 2.5 7
    endloop
  endfacet
  facet normal 0 0 1
    outer loop
      vertex -5.94888 3.14062 7
      vertex -7.46057 3.12667 7
      vertex -6.14292 2.54345 7
    endloop
  endfacet
  facet normal 0 0 1
    outer loop
      vertex -6.14292 -2.54345 7
      vertex -7.5 -2.5 7
      vertex -7.46057 -3.12667 7
    endloop
  endfacet
  facet normal 0 0 1
    outer loop
      vertex -7.5 2.5 7
      vertex -6.14292 2.54345 7
      vertex -7.46057 3.12667 7
    endloop
  endfacet
  facet normal 0 0 1
    outer loop
      vertex -4.94484 -4.72274 7
      vertex -6.54508 -5.43893 7
      vertex -6.14484 -5.92274 7
    endloop
  endfacet
  facet normal 0 0 1
    outer loop
      vertex -6.14292 2.54345 7
      vertex -7.5 2.5 7
      vertex -6.26057 1.92667 7
    endloop
  endfacet
  facet normal 0 0 1
    outer loop
      vertex -5.34508 -4.23893 7
      vertex -6.88153 -4.90877 7
      vertex -6.54508 -5.43893 7
    endloop
  endfacet
  facet normal 0 0 1
    outer loop
      vertex -6.26057 1.92667 7
      vertex -7.5 2.5 7
      vertex -6.3 1.3 7
    endloop
  endfacet
  facet normal 0 0 1
    outer loop
      vertex -5.68153 -3.70877 7
      vertex -7.14888 -4.34062 7
      vertex -6.88153 -4.90877 7
    endloop
  endfacet
  facet normal 0 0 1
    outer loop
      vertex -5.68153 -3.70877 7
      vertex -7.34292 -3.74345 7
      vertex -7.14888 -4.34062 7
    endloop
  endfacet
  facet normal 0 0 1
    outer loop
      vertex -5.94888 -3.14062 7
      vertex -7.46057 -3.12667 7
      vertex -7.34292 -3.74345 7
    endloop
  endfacet
  facet normal 0 1 -0
    outer loop
      vertex 2.81395 7.49013 0
      vertex -2.81395 7.49013 7
      vertex 2.81395 7.49013 7
    endloop
  endfacet
  facet normal 0 1 0
    outer loop
      vertex -2.81395 7.49013 7
      vertex 2.81395 7.49013 0
      vertex -2.81395 7.49013 0
    endloop
  endfacet
  facet normal -0.998026 0.0627957 0
    outer loop
      vertex -7.5 2.5 0
      vertex -7.46057 3.12667 7
      vertex -7.46057 3.12667 0
    endloop
  endfacet
  facet normal -0.998026 0.0627957 0
    outer loop
      vertex -7.46057 3.12667 7
      vertex -7.5 2.5 0
      vertex -7.5 2.5 7
    endloop
  endfacet
  facet normal 0.951053 -0.309028 0
    outer loop
      vertex 7.14888 -4.34062 7
      vertex 7.34292 -3.74345 0
      vertex 7.34292 -3.74345 7
    endloop
  endfacet
  facet normal 0.951053 -0.309028 0
    outer loop
      vertex 7.34292 -3.74345 0
      vertex 7.14888 -4.34062 7
      vertex 7.14888 -4.34062 0
    endloop
  endfacet
  facet normal -0.248703 0.96858 0
    outer loop
      vertex -3.43691 7.41144 0
      vertex -4.04508 7.25528 7
      vertex -3.43691 7.41144 7
    endloop
  endfacet
  facet normal -0.248703 0.96858 0
    outer loop
      vertex -4.04508 7.25528 7
      vertex -3.43691 7.41144 0
      vertex -4.04508 7.25528 0
    endloop
  endfacet
  facet normal -0.951053 0.309028 0
    outer loop
      vertex -7.34292 3.74345 0
      vertex -7.14888 4.34062 7
      vertex -7.14888 4.34062 0
    endloop
  endfacet
  facet normal -0.951053 0.309028 0
    outer loop
      vertex -7.14888 4.34062 7
      vertex -7.34292 3.74345 0
      vertex -7.34292 3.74345 7
    endloop
  endfacet
  facet normal 0 0 -1
    outer loop
      vertex 2.81395 -7.49013 0
      vertex 7.5 -2.5 0
      vertex 7.46057 -3.12667 0
    endloop
  endfacet
  facet normal 0 0 -1
    outer loop
      vertex -7.5 -2.5 0
      vertex 7.5 -2.5 0
      vertex 2.81395 -7.49013 0
    endloop
  endfacet
  facet normal 0 0 -1
    outer loop
      vertex 2.81395 -7.49013 0
      vertex 7.46057 -3.12667 0
      vertex 7.34292 -3.74345 0
    endloop
  endfacet
  facet normal 0 0 -1
    outer loop
      vertex 7.5 -2.5 0
      vertex -7.5 -2.5 0
      vertex 7.5 2.5 0
    endloop
  endfacet
  facet normal 0 0 -1
    outer loop
      vertex 2.81395 -7.49013 0
      vertex 7.34292 -3.74345 0
      vertex 7.14888 -4.34062 0
    endloop
  endfacet
  facet normal 0 0 -1
    outer loop
      vertex 7.5 2.5 0
      vertex 2.81395 7.49013 0
      vertex 7.46057 3.12667 0
    endloop
  endfacet
  facet normal 0 0 -1
    outer loop
      vertex 2.81395 -7.49013 0
      vertex 7.14888 -4.34062 0
      vertex 6.88153 -4.90877 0
    endloop
  endfacet
  facet normal 0 0 -1
    outer loop
      vertex 7.46057 3.12667 0
      vertex 2.81395 7.49013 0
      vertex 7.34292 3.74345 0
    endloop
  endfacet
  facet normal 0 0 -1
    outer loop
      vertex 2.81395 -7.49013 0
      vertex 6.88153 -4.90877 0
      vertex 6.54508 -5.43893 0
    endloop
  endfacet
  facet normal 0 0 -1
    outer loop
      vertex 7.34292 3.74345 0
      vertex 2.81395 7.49013 0
      vertex 7.14888 4.34062 0
    endloop
  endfacet
  facet normal 0 0 -1
    outer loop
      vertex 2.81395 -7.49013 0
      vertex 6.54508 -5.43893 0
      vertex 6.14484 -5.92274 0
    endloop
  endfacet
  facet normal 0 0 -1
    outer loop
      vertex 7.14888 4.34062 0
      vertex 2.81395 7.49013 0
      vertex 6.88153 4.90877 0
    endloop
  endfacet
  facet normal 0 0 -1
    outer loop
      vertex 2.81395 -7.49013 0
      vertex 6.14484 -5.92274 0
      vertex 5.68712 -6.35257 0
    endloop
  endfacet
  facet normal 0 0 -1
    outer loop
      vertex 6.88153 4.90877 0
      vertex 2.81395 7.49013 0
      vertex 6.54508 5.43893 0
    endloop
  endfacet
  facet normal 0 0 -1
    outer loop
      vertex 2.81395 -7.49013 0
      vertex 5.68712 -6.35257 0
      vertex 5.17913 -6.72164 0
    endloop
  endfacet
  facet normal 0 0 -1
    outer loop
      vertex 6.54508 5.43893 0
      vertex 2.81395 7.49013 0
      vertex 6.14484 5.92274 0
    endloop
  endfacet
  facet normal 0 0 -1
    outer loop
      vertex 2.81395 -7.49013 0
      vertex 5.17913 -6.72164 0
      vertex 4.6289 -7.02413 0
    endloop
  endfacet
  facet normal 0 0 -1
    outer loop
      vertex 6.14484 5.92274 0
      vertex 2.81395 7.49013 0
      vertex 5.68712 6.35257 0
    endloop
  endfacet
  facet normal 0 0 -1
    outer loop
      vertex 2.81395 -7.49013 0
      vertex 4.6289 -7.02413 0
      vertex 4.04508 -7.25528 0
    endloop
  endfacet
  facet normal 0 0 -1
    outer loop
      vertex 5.68712 6.35257 0
      vertex 2.81395 7.49013 0
      vertex 5.17913 6.72164 0
    endloop
  endfacet
  facet normal 0 0 -1
    outer loop
      vertex 2.81395 -7.49013 0
      vertex 4.04508 -7.25528 0
      vertex 3.43691 -7.41144 0
    endloop
  endfacet
  facet normal 0 0 -1
    outer loop
      vertex 5.17913 6.72164 0
      vertex 2.81395 7.49013 0
      vertex 4.6289 7.02413 0
    endloop
  endfacet
  facet normal 0 0 -1
    outer loop
      vertex 4.6289 7.02413 0
      vertex 2.81395 7.49013 0
      vertex 4.04508 7.25528 0
    endloop
  endfacet
  facet normal 0 0 -1
    outer loop
      vertex 4.04508 7.25528 0
      vertex 2.81395 7.49013 0
      vertex 3.43691 7.41144 0
    endloop
  endfacet
  facet normal 0 0 -1
    outer loop
      vertex -7.5 -2.5 0
      vertex 2.81395 -7.49013 0
      vertex -2.81395 -7.49013 0
    endloop
  endfacet
  facet normal 0 0 -1
    outer loop
      vertex -7.5 2.5 0
      vertex 7.5 2.5 0
      vertex -7.5 -2.5 0
    endloop
  endfacet
  facet normal 0 0 -1
    outer loop
      vertex -7.5 -2.5 0
      vertex -2.81395 -7.49013 0
      vertex -3.43691 -7.41144 0
    endloop
  endfacet
  facet normal 0 0 -1
    outer loop
      vertex 7.5 2.5 0
      vertex -7.5 2.5 0
      vertex 2.81395 7.49013 0
    endloop
  endfacet
  facet normal 0 0 -1
    outer loop
      vertex -7.5 -2.5 0
      vertex -3.43691 -7.41144 0
      vertex -4.04508 -7.25528 0
    endloop
  endfacet
  facet normal -0 0 -1
    outer loop
      vertex 2.81395 7.49013 0
      vertex -7.5 2.5 0
      vertex -2.81395 7.49013 0
    endloop
  endfacet
  facet normal 0 0 -1
    outer loop
      vertex -7.5 -2.5 0
      vertex -4.04508 -7.25528 0
      vertex -4.6289 -7.02413 0
    endloop
  endfacet
  facet normal 0 0 -1
    outer loop
      vertex -2.81395 7.49013 0
      vertex -7.5 2.5 0
      vertex -3.43691 7.41144 0
    endloop
  endfacet
  facet normal 0 0 -1
    outer loop
      vertex -7.5 -2.5 0
      vertex -4.6289 -7.02413 0
      vertex -5.17913 -6.72164 0
    endloop
  endfacet
  facet normal 0 0 -1
    outer loop
      vertex -3.43691 7.41144 0
      vertex -7.5 2.5 0
      vertex -4.04508 7.25528 0
    endloop
  endfacet
  facet normal 0 0 -1
    outer loop
      vertex -7.5 -2.5 0
      vertex -5.17913 -6.72164 0
      vertex -5.68712 -6.35257 0
    endloop
  endfacet
  facet normal 0 0 -1
    outer loop
      vertex -4.04508 7.25528 0
      vertex -7.5 2.5 0
      vertex -4.6289 7.02413 0
    endloop
  endfacet
  facet normal 0 0 -1
    outer loop
      vertex -7.5 -2.5 0
      vertex -5.68712 -6.35257 0
      vertex -6.14484 -5.92274 0
    endloop
  endfacet
  facet normal 0 0 -1
    outer loop
      vertex -4.6289 7.02413 0
      vertex -7.5 2.5 0
      vertex -5.17913 6.72164 0
    endloop
  endfacet
  facet normal 0 0 -1
    outer loop
      vertex -7.5 -2.5 0
      vertex -6.14484 -5.92274 0
      vertex -6.54508 -5.43893 0
    endloop
  endfacet
  facet normal 0 0 -1
    outer loop
      vertex -5.17913 6.72164 0
      vertex -7.5 2.5 0
      vertex -5.68712 6.35257 0
    endloop
  endfacet
  facet normal 0 0 -1
    outer loop
      vertex -7.5 -2.5 0
      vertex -6.54508 -5.43893 0
      vertex -6.88153 -4.90877 0
    endloop
  endfacet
  facet normal 0 0 -1
    outer loop
      vertex -5.68712 6.35257 0
      vertex -7.5 2.5 0
      vertex -6.14484 5.92274 0
    endloop
  endfacet
  facet normal 0 0 -1
    outer loop
      vertex -7.5 -2.5 0
      vertex -6.88153 -4.90877 0
      vertex -7.14888 -4.34062 0
    endloop
  endfacet
  facet normal 0 0 -1
    outer loop
      vertex -6.14484 5.92274 0
      vertex -7.5 2.5 0
      vertex -6.54508 5.43893 0
    endloop
  endfacet
  facet normal 0 0 -1
    outer loop
      vertex -7.5 -2.5 0
      vertex -7.14888 -4.34062 0
      vertex -7.34292 -3.74345 0
    endloop
  endfacet
  facet normal 0 0 -1
    outer loop
      vertex -6.54508 5.43893 0
      vertex -7.5 2.5 0
      vertex -6.88153 4.90877 0
    endloop
  endfacet
  facet normal 0 0 -1
    outer loop
      vertex -7.5 -2.5 0
      vertex -7.34292 -3.74345 0
      vertex -7.46057 -3.12667 0
    endloop
  endfacet
  facet normal 0 0 -1
    outer loop
      vertex -6.88153 4.90877 0
      vertex -7.5 2.5 0
      vertex -7.14888 4.34062 0
    endloop
  endfacet
  facet normal 0 0 -1
    outer loop
      vertex -7.14888 4.34062 0
      vertex -7.5 2.5 0
      vertex -7.34292 3.74345 0
    endloop
  endfacet
  facet normal 0 0 -1
    outer loop
      vertex -7.34292 3.74345 0
      vertex -7.5 2.5 0
      vertex -7.46057 3.12667 0
    endloop
  endfacet
  facet normal -0.770515 -0.637422 0
    outer loop
      vertex -6.14484 -5.92274 0
      vertex -6.54508 -5.43893 7
      vertex -6.54508 -5.43893 0
    endloop
  endfacet
  facet normal -0.770515 -0.637422 0
    outer loop
      vertex -6.54508 -5.43893 7
      vertex -6.14484 -5.92274 0
      vertex -6.14484 -5.92274 7
    endloop
  endfacet
  facet normal 0 -1 0
    outer loop
      vertex -2.81395 -7.49013 0
      vertex 2.81395 -7.49013 7
      vertex -2.81395 -7.49013 7
    endloop
  endfacet
  facet normal 0 -1 -0
    outer loop
      vertex 2.81395 -7.49013 7
      vertex -2.81395 -7.49013 0
      vertex 2.81395 -7.49013 0
    endloop
  endfacet
  facet normal -0.368124 -0.929777 0
    outer loop
      vertex -4.6289 -7.02413 0
      vertex -4.04508 -7.25528 7
      vertex -4.6289 -7.02413 7
    endloop
  endfacet
  facet normal -0.368124 -0.929777 -0
    outer loop
      vertex -4.04508 -7.25528 7
      vertex -4.6289 -7.02413 0
      vertex -4.04508 -7.25528 0
    endloop
  endfacet
  facet normal 0.770515 -0.637422 0
    outer loop
      vertex 6.14484 -5.92274 7
      vertex 6.54508 -5.43893 0
      vertex 6.54508 -5.43893 7
    endloop
  endfacet
  facet normal 0.770515 -0.637422 0
    outer loop
      vertex 6.54508 -5.43893 0
      vertex 6.14484 -5.92274 7
      vertex 6.14484 -5.92274 0
    endloop
  endfacet
  facet normal 0.770515 0.637422 0
    outer loop
      vertex 6.54508 5.43893 7
      vertex 6.14484 5.92274 0
      vertex 6.14484 5.92274 7
    endloop
  endfacet
  facet normal 0.770515 0.637422 0
    outer loop
      vertex 6.14484 5.92274 0
      vertex 6.54508 5.43893 7
      vertex 6.54508 5.43893 0
    endloop
  endfacet
  facet normal 0.12532 0.992116 -0
    outer loop
      vertex 3.43691 7.41144 0
      vertex 2.81395 7.49013 7
      vertex 3.43691 7.41144 7
    endloop
  endfacet
  facet normal 0.12532 0.992116 0
    outer loop
      vertex 2.81395 7.49013 7
      vertex 3.43691 7.41144 0
      vertex 2.81395 7.49013 0
    endloop
  endfacet
  facet normal 0.368124 0.929777 -0
    outer loop
      vertex 4.6289 7.02413 0
      vertex 4.04508 7.25528 7
      vertex 4.6289 7.02413 7
    endloop
  endfacet
  facet normal 0.368124 0.929777 0
    outer loop
      vertex 4.04508 7.25528 7
      vertex 4.6289 7.02413 0
      vertex 4.04508 7.25528 0
    endloop
  endfacet
  facet normal 0.844328 0.535827 0
    outer loop
      vertex 6.88153 4.90877 7
      vertex 6.54508 5.43893 0
      vertex 6.54508 5.43893 7
    endloop
  endfacet
  facet normal 0.844328 0.535827 0
    outer loop
      vertex 6.54508 5.43893 0
      vertex 6.88153 4.90877 7
      vertex 6.88153 4.90877 0
    endloop
  endfacet
  facet normal 1 -0 0
    outer loop
      vertex 7.5 -2.5 7
      vertex 7.5 2.5 0
      vertex 7.5 2.5 7
    endloop
  endfacet
  facet normal 1 0 0
    outer loop
      vertex 7.5 2.5 0
      vertex 7.5 -2.5 7
      vertex 7.5 -2.5 0
    endloop
  endfacet
  facet normal -0.12532 0.992116 0
    outer loop
      vertex -2.81395 7.49013 0
      vertex -3.43691 7.41144 7
      vertex -2.81395 7.49013 7
    endloop
  endfacet
  facet normal -0.12532 0.992116 0
    outer loop
      vertex -3.43691 7.41144 7
      vertex -2.81395 7.49013 0
      vertex -3.43691 7.41144 0
    endloop
  endfacet
  facet normal -0.770515 0.637422 0
    outer loop
      vertex -6.54508 5.43893 0
      vertex -6.14484 5.92274 7
      vertex -6.14484 5.92274 0
    endloop
  endfacet
  facet normal -0.770515 0.637422 0
    outer loop
      vertex -6.14484 5.92274 7
      vertex -6.54508 5.43893 0
      vertex -6.54508 5.43893 7
    endloop
  endfacet
  facet normal -0.481752 0.876308 0
    outer loop
      vertex -4.6289 7.02413 0
      vertex -5.17913 6.72164 7
      vertex -4.6289 7.02413 7
    endloop
  endfacet
  facet normal -0.481752 0.876308 0
    outer loop
      vertex -5.17913 6.72164 7
      vertex -4.6289 7.02413 0
      vertex -5.17913 6.72164 0
    endloop
  endfacet
  facet normal -0.982289 0.18737 0
    outer loop
      vertex -7.46057 3.12667 0
      vertex -7.34292 3.74345 7
      vertex -7.34292 3.74345 0
    endloop
  endfacet
  facet normal -0.982289 0.18737 0
    outer loop
      vertex -7.34292 3.74345 7
      vertex -7.46057 3.12667 0
      vertex -7.46057 3.12667 7
    endloop
  endfacet
  facet normal -0.951053 -0.309028 0
    outer loop
      vertex -7.14888 -4.34062 0
      vertex -7.34292 -3.74345 7
      vertex -7.34292 -3.74345 0
    endloop
  endfacet
  facet normal -0.951053 -0.309028 0
    outer loop
      vertex -7.34292 -3.74345 7
      vertex -7.14888 -4.34062 0
      vertex -7.14888 -4.34062 7
    endloop
  endfacet
  facet normal -0.684549 -0.728967 0
    outer loop
      vertex -6.14484 -5.92274 0
      vertex -5.68712 -6.35257 7
      vertex -6.14484 -5.92274 7
    endloop
  endfacet
  facet normal -0.684549 -0.728967 -0
    outer loop
      vertex -5.68712 -6.35257 7
      vertex -6.14484 -5.92274 0
      vertex -5.68712 -6.35257 0
    endloop
  endfacet
  facet normal -0.587779 -0.809022 0
    outer loop
      vertex -5.68712 -6.35257 0
      vertex -5.17913 -6.72164 7
      vertex -5.68712 -6.35257 7
    endloop
  endfacet
  facet normal -0.587779 -0.809022 -0
    outer loop
      vertex -5.17913 -6.72164 7
      vertex -5.68712 -6.35257 0
      vertex -5.17913 -6.72164 0
    endloop
  endfacet
  facet normal 0.12532 -0.992116 0
    outer loop
      vertex 2.81395 -7.49013 0
      vertex 3.43691 -7.41144 7
      vertex 2.81395 -7.49013 7
    endloop
  endfacet
  facet normal 0.12532 -0.992116 0
    outer loop
      vertex 3.43691 -7.41144 7
      vertex 2.81395 -7.49013 0
      vertex 3.43691 -7.41144 0
    endloop
  endfacet
  facet normal -0.12532 -0.992116 0
    outer loop
      vertex -3.43691 -7.41144 0
      vertex -2.81395 -7.49013 7
      vertex -3.43691 -7.41144 7
    endloop
  endfacet
  facet normal -0.12532 -0.992116 -0
    outer loop
      vertex -2.81395 -7.49013 7
      vertex -3.43691 -7.41144 0
      vertex -2.81395 -7.49013 0
    endloop
  endfacet
  facet normal -0.248703 -0.96858 0
    outer loop
      vertex -4.04508 -7.25528 0
      vertex -3.43691 -7.41144 7
      vertex -4.04508 -7.25528 7
    endloop
  endfacet
  facet normal -0.248703 -0.96858 -0
    outer loop
      vertex -3.43691 -7.41144 7
      vertex -4.04508 -7.25528 0
      vertex -3.43691 -7.41144 0
    endloop
  endfacet
  facet normal 0.904828 -0.425778 0
    outer loop
      vertex 6.88153 -4.90877 7
      vertex 7.14888 -4.34062 0
      vertex 7.14888 -4.34062 7
    endloop
  endfacet
  facet normal 0.904828 -0.425778 0
    outer loop
      vertex 7.14888 -4.34062 0
      vertex 6.88153 -4.90877 7
      vertex 6.88153 -4.90877 0
    endloop
  endfacet
  facet normal 0.844328 -0.535827 0
    outer loop
      vertex 6.54508 -5.43893 7
      vertex 6.88153 -4.90877 0
      vertex 6.88153 -4.90877 7
    endloop
  endfacet
  facet normal 0.844328 -0.535827 0
    outer loop
      vertex 6.88153 -4.90877 0
      vertex 6.54508 -5.43893 7
      vertex 6.54508 -5.43893 0
    endloop
  endfacet
  facet normal 0.587779 -0.809022 0
    outer loop
      vertex 5.17913 -6.72164 0
      vertex 5.68712 -6.35257 7
      vertex 5.17913 -6.72164 7
    endloop
  endfacet
  facet normal 0.587779 -0.809022 0
    outer loop
      vertex 5.68712 -6.35257 7
      vertex 5.17913 -6.72164 0
      vertex 5.68712 -6.35257 0
    endloop
  endfacet
  facet normal 0.368124 -0.929777 0
    outer loop
      vertex 4.04508 -7.25528 0
      vertex 4.6289 -7.02413 7
      vertex 4.04508 -7.25528 7
    endloop
  endfacet
  facet normal 0.368124 -0.929777 0
    outer loop
      vertex 4.6289 -7.02413 7
      vertex 4.04508 -7.25528 0
      vertex 4.6289 -7.02413 0
    endloop
  endfacet
  facet normal 0.481752 0.876308 -0
    outer loop
      vertex 5.17913 6.72164 0
      vertex 4.6289 7.02413 7
      vertex 5.17913 6.72164 7
    endloop
  endfacet
  facet normal 0.481752 0.876308 0
    outer loop
      vertex 4.6289 7.02413 7
      vertex 5.17913 6.72164 0
      vertex 4.6289 7.02413 0
    endloop
  endfacet
  facet normal 0.684549 0.728967 -0
    outer loop
      vertex 6.14484 5.92274 0
      vertex 5.68712 6.35257 7
      vertex 6.14484 5.92274 7
    endloop
  endfacet
  facet normal 0.684549 0.728967 0
    outer loop
      vertex 5.68712 6.35257 7
      vertex 6.14484 5.92274 0
      vertex 5.68712 6.35257 0
    endloop
  endfacet
  facet normal 0.248703 0.96858 -0
    outer loop
      vertex 4.04508 7.25528 0
      vertex 3.43691 7.41144 7
      vertex 4.04508 7.25528 7
    endloop
  endfacet
  facet normal 0.248703 0.96858 0
    outer loop
      vertex 3.43691 7.41144 7
      vertex 4.04508 7.25528 0
      vertex 3.43691 7.41144 0
    endloop
  endfacet
  facet normal 0.982289 0.18737 0
    outer loop
      vertex 7.46057 3.12667 7
      vertex 7.34292 3.74345 0
      vertex 7.34292 3.74345 7
    endloop
  endfacet
  facet normal 0.982289 0.18737 0
    outer loop
      vertex 7.34292 3.74345 0
      vertex 7.46057 3.12667 7
      vertex 7.46057 3.12667 0
    endloop
  endfacet
  facet normal 0.998026 0.0627957 0
    outer loop
      vertex 7.5 2.5 7
      vertex 7.46057 3.12667 0
      vertex 7.46057 3.12667 7
    endloop
  endfacet
  facet normal 0.998026 0.0627957 0
    outer loop
      vertex 7.46057 3.12667 0
      vertex 7.5 2.5 7
      vertex 7.5 2.5 0
    endloop
  endfacet
  facet normal 0.951053 0.309028 0
    outer loop
      vertex 7.34292 3.74345 7
      vertex 7.14888 4.34062 0
      vertex 7.14888 4.34062 7
    endloop
  endfacet
  facet normal 0.951053 0.309028 0
    outer loop
      vertex 7.14888 4.34062 0
      vertex 7.34292 3.74345 7
      vertex 7.34292 3.74345 0
    endloop
  endfacet
  facet normal 0.982289 -0.18737 0
    outer loop
      vertex 7.34292 -3.74345 7
      vertex 7.46057 -3.12667 0
      vertex 7.46057 -3.12667 7
    endloop
  endfacet
  facet normal 0.982289 -0.18737 0
    outer loop
      vertex 7.46057 -3.12667 0
      vertex 7.34292 -3.74345 7
      vertex 7.34292 -3.74345 0
    endloop
  endfacet
  facet normal -0.368124 0.929777 0
    outer loop
      vertex -4.04508 7.25528 0
      vertex -4.6289 7.02413 7
      vertex -4.04508 7.25528 7
    endloop
  endfacet
  facet normal -0.368124 0.929777 0
    outer loop
      vertex -4.6289 7.02413 7
      vertex -4.04508 7.25528 0
      vertex -4.6289 7.02413 0
    endloop
  endfacet
  facet normal -0.587779 0.809022 0
    outer loop
      vertex -5.17913 6.72164 0
      vertex -5.68712 6.35257 7
      vertex -5.17913 6.72164 7
    endloop
  endfacet
  facet normal -0.587779 0.809022 0
    outer loop
      vertex -5.68712 6.35257 7
      vertex -5.17913 6.72164 0
      vertex -5.68712 6.35257 0
    endloop
  endfacet
  facet normal -0.684549 0.728967 0
    outer loop
      vertex -5.68712 6.35257 0
      vertex -6.14484 5.92274 7
      vertex -5.68712 6.35257 7
    endloop
  endfacet
  facet normal -0.684549 0.728967 0
    outer loop
      vertex -6.14484 5.92274 7
      vertex -5.68712 6.35257 0
      vertex -6.14484 5.92274 0
    endloop
  endfacet
  facet normal -0.904828 0.425778 0
    outer loop
      vertex -7.14888 4.34062 0
      vertex -6.88153 4.90877 7
      vertex -6.88153 4.90877 0
    endloop
  endfacet
  facet normal -0.904828 0.425778 0
    outer loop
      vertex -6.88153 4.90877 7
      vertex -7.14888 4.34062 0
      vertex -7.14888 4.34062 7
    endloop
  endfacet
  facet normal -0.844328 0.535827 0
    outer loop
      vertex -6.88153 4.90877 0
      vertex -6.54508 5.43893 7
      vertex -6.54508 5.43893 0
    endloop
  endfacet
  facet normal -0.844328 0.535827 0
    outer loop
      vertex -6.54508 5.43893 7
      vertex -6.88153 4.90877 0
      vertex -6.88153 4.90877 7
    endloop
  endfacet
  facet normal -0.904828 -0.425778 0
    outer loop
      vertex -6.88153 -4.90877 0
      vertex -7.14888 -4.34062 7
      vertex -7.14888 -4.34062 0
    endloop
  endfacet
  facet normal -0.904828 -0.425778 0
    outer loop
      vertex -7.14888 -4.34062 7
      vertex -6.88153 -4.90877 0
      vertex -6.88153 -4.90877 7
    endloop
  endfacet
  facet normal -0.481752 -0.876308 0
    outer loop
      vertex -5.17913 -6.72164 0
      vertex -4.6289 -7.02413 7
      vertex -5.17913 -6.72164 7
    endloop
  endfacet
  facet normal -0.481752 -0.876308 -0
    outer loop
      vertex -4.6289 -7.02413 7
      vertex -5.17913 -6.72164 0
      vertex -4.6289 -7.02413 0
    endloop
  endfacet
  facet normal 0.248703 -0.96858 0
    outer loop
      vertex 3.43691 -7.41144 0
      vertex 4.04508 -7.25528 7
      vertex 3.43691 -7.41144 7
    endloop
  endfacet
  facet normal 0.248703 -0.96858 0
    outer loop
      vertex 4.04508 -7.25528 7
      vertex 3.43691 -7.41144 0
      vertex 4.04508 -7.25528 0
    endloop
  endfacet
  facet normal 0.684549 -0.728967 0
    outer loop
      vertex 5.68712 -6.35257 0
      vertex 6.14484 -5.92274 7
      vertex 5.68712 -6.35257 7
    endloop
  endfacet
  facet normal 0.684549 -0.728967 0
    outer loop
      vertex 6.14484 -5.92274 7
      vertex 5.68712 -6.35257 0
      vertex 6.14484 -5.92274 0
    endloop
  endfacet
  facet normal 0.481752 -0.876308 0
    outer loop
      vertex 4.6289 -7.02413 0
      vertex 5.17913 -6.72164 7
      vertex 4.6289 -7.02413 7
    endloop
  endfacet
  facet normal 0.481752 -0.876308 0
    outer loop
      vertex 5.17913 -6.72164 7
      vertex 4.6289 -7.02413 0
      vertex 5.17913 -6.72164 0
    endloop
  endfacet
  facet normal 0.587779 0.809022 -0
    outer loop
      vertex 5.68712 6.35257 0
      vertex 5.17913 6.72164 7
      vertex 5.68712 6.35257 7
    endloop
  endfacet
  facet normal 0.587779 0.809022 0
    outer loop
      vertex 5.17913 6.72164 7
      vertex 5.68712 6.35257 0
      vertex 5.17913 6.72164 0
    endloop
  endfacet
  facet normal 0.904828 0.425778 0
    outer loop
      vertex 7.14888 4.34062 7
      vertex 6.88153 4.90877 0
      vertex 6.88153 4.90877 7
    endloop
  endfacet
  facet normal 0.904828 0.425778 0
    outer loop
      vertex 6.88153 4.90877 0
      vertex 7.14888 4.34062 7
      vertex 7.14888 4.34062 0
    endloop
  endfacet
  facet normal 0.998026 -0.0627957 0
    outer loop
      vertex 7.46057 -3.12667 7
      vertex 7.5 -2.5 0
      vertex 7.5 -2.5 7
    endloop
  endfacet
  facet normal 0.998026 -0.0627957 0
    outer loop
      vertex 7.5 -2.5 0
      vertex 7.46057 -3.12667 7
      vertex 7.46057 -3.12667 0
    endloop
  endfacet
  facet normal -0.844328 -0.535827 0
    outer loop
      vertex -6.54508 -5.43893 0
      vertex -6.88153 -4.90877 7
      vertex -6.88153 -4.90877 0
    endloop
  endfacet
  facet normal -0.844328 -0.535827 0
    outer loop
      vertex -6.88153 -4.90877 7
      vertex -6.54508 -5.43893 0
      vertex -6.54508 -5.43893 7
    endloop
  endfacet
  facet normal 1 -0 0
    outer loop
      vertex -6.3 -1.3 7
      vertex -6.3 1.3 3
      vertex -6.3 1.3 7
    endloop
  endfacet
  facet normal 1 0 0
    outer loop
      vertex -6.3 1.3 3
      vertex -6.3 -1.3 7
      vertex -6.3 -1.3 3
    endloop
  endfacet
  facet normal -0.248703 0.96858 0
    outer loop
      vertex 2.84508 -6.05528 3
      vertex 2.23691 -6.21144 7
      vertex 2.84508 -6.05528 7
    endloop
  endfacet
  facet normal -0.248703 0.96858 0
    outer loop
      vertex 2.23691 -6.21144 7
      vertex 2.84508 -6.05528 3
      vertex 2.23691 -6.21144 3
    endloop
  endfacet
  facet normal -0.904828 0.425778 0
    outer loop
      vertex 5.68153 -3.70877 3
      vertex 5.94888 -3.14062 7
      vertex 5.94888 -3.14062 3
    endloop
  endfacet
  facet normal -0.904828 0.425778 0
    outer loop
      vertex 5.94888 -3.14062 7
      vertex 5.68153 -3.70877 3
      vertex 5.68153 -3.70877 7
    endloop
  endfacet
  facet normal 0.998026 -0.0627957 0
    outer loop
      vertex -6.3 1.3 7
      vertex -6.26057 1.92667 3
      vertex -6.26057 1.92667 7
    endloop
  endfacet
  facet normal 0.998026 -0.0627957 0
    outer loop
      vertex -6.26057 1.92667 3
      vertex -6.3 1.3 7
      vertex -6.3 1.3 3
    endloop
  endfacet
  facet normal 0.481752 0.876308 -0
    outer loop
      vertex -3.4289 -5.82413 3
      vertex -3.97913 -5.52164 7
      vertex -3.4289 -5.82413 7
    endloop
  endfacet
  facet normal 0.481752 0.876308 0
    outer loop
      vertex -3.97913 -5.52164 7
      vertex -3.4289 -5.82413 3
      vertex -3.97913 -5.52164 3
    endloop
  endfacet
  facet normal -0.12532 0.992116 0
    outer loop
      vertex 2.23691 -6.21144 3
      vertex 1.61395 -6.29013 7
      vertex 2.23691 -6.21144 7
    endloop
  endfacet
  facet normal -0.12532 0.992116 0
    outer loop
      vertex 1.61395 -6.29013 7
      vertex 2.23691 -6.21144 3
      vertex 1.61395 -6.29013 3
    endloop
  endfacet
  facet normal -0.998026 0.0627957 0
    outer loop
      vertex 6.26057 -1.92667 3
      vertex 6.3 -1.3 7
      vertex 6.3 -1.3 3
    endloop
  endfacet
  facet normal -0.998026 0.0627957 0
    outer loop
      vertex 6.3 -1.3 7
      vertex 6.26057 -1.92667 3
      vertex 6.26057 -1.92667 7
    endloop
  endfacet
  facet normal 0.844328 -0.535827 0
    outer loop
      vertex -5.68153 3.70877 7
      vertex -5.34508 4.23893 3
      vertex -5.34508 4.23893 7
    endloop
  endfacet
  facet normal 0.844328 -0.535827 0
    outer loop
      vertex -5.34508 4.23893 3
      vertex -5.68153 3.70877 7
      vertex -5.68153 3.70877 3
    endloop
  endfacet
  facet normal 0 1 -0
    outer loop
      vertex 1.61395 -6.29013 3
      vertex -1.61395 -6.29013 7
      vertex 1.61395 -6.29013 7
    endloop
  endfacet
  facet normal 0 1 0
    outer loop
      vertex -1.61395 -6.29013 7
      vertex 1.61395 -6.29013 3
      vertex -1.61395 -6.29013 3
    endloop
  endfacet
  facet normal 0.684549 0.728967 -0
    outer loop
      vertex -4.48712 -5.15257 3
      vertex -4.94484 -4.72274 7
      vertex -4.48712 -5.15257 7
    endloop
  endfacet
  facet normal 0.684549 0.728967 0
    outer loop
      vertex -4.94484 -4.72274 7
      vertex -4.48712 -5.15257 3
      vertex -4.94484 -4.72274 3
    endloop
  endfacet
  facet normal -0.684549 0.728967 0
    outer loop
      vertex 4.94484 -4.72274 3
      vertex 4.48712 -5.15257 7
      vertex 4.94484 -4.72274 7
    endloop
  endfacet
  facet normal -0.684549 0.728967 0
    outer loop
      vertex 4.48712 -5.15257 7
      vertex 4.94484 -4.72274 3
      vertex 4.48712 -5.15257 3
    endloop
  endfacet
  facet normal -0.770515 0.637422 0
    outer loop
      vertex 4.94484 -4.72274 3
      vertex 5.34508 -4.23893 7
      vertex 5.34508 -4.23893 3
    endloop
  endfacet
  facet normal -0.770515 0.637422 0
    outer loop
      vertex 5.34508 -4.23893 7
      vertex 4.94484 -4.72274 3
      vertex 4.94484 -4.72274 7
    endloop
  endfacet
  facet normal -1 0 0
    outer loop
      vertex 6.3 -1.3 3
      vertex 6.3 1.3 7
      vertex 6.3 1.3 3
    endloop
  endfacet
  facet normal -1 -0 0
    outer loop
      vertex 6.3 1.3 7
      vertex 6.3 -1.3 3
      vertex 6.3 -1.3 7
    endloop
  endfacet
  facet normal 0 -1 0
    outer loop
      vertex -1.61395 6.29013 3
      vertex 1.61395 6.29013 7
      vertex -1.61395 6.29013 7
    endloop
  endfacet
  facet normal 0 -1 -0
    outer loop
      vertex 1.61395 6.29013 7
      vertex -1.61395 6.29013 3
      vertex 1.61395 6.29013 3
    endloop
  endfacet
  facet normal 0.951053 0.309028 0
    outer loop
      vertex -5.94888 -3.14062 7
      vertex -6.14292 -2.54345 3
      vertex -6.14292 -2.54345 7
    endloop
  endfacet
  facet normal 0.951053 0.309028 0
    outer loop
      vertex -6.14292 -2.54345 3
      vertex -5.94888 -3.14062 7
      vertex -5.94888 -3.14062 3
    endloop
  endfacet
  facet normal 0.844328 0.535827 0
    outer loop
      vertex -5.34508 -4.23893 7
      vertex -5.68153 -3.70877 3
      vertex -5.68153 -3.70877 7
    endloop
  endfacet
  facet normal 0.844328 0.535827 0
    outer loop
      vertex -5.68153 -3.70877 3
      vertex -5.34508 -4.23893 7
      vertex -5.34508 -4.23893 3
    endloop
  endfacet
  facet normal 0.770515 0.637422 0
    outer loop
      vertex -4.94484 -4.72274 7
      vertex -5.34508 -4.23893 3
      vertex -5.34508 -4.23893 7
    endloop
  endfacet
  facet normal 0.770515 0.637422 0
    outer loop
      vertex -5.34508 -4.23893 3
      vertex -4.94484 -4.72274 7
      vertex -4.94484 -4.72274 3
    endloop
  endfacet
  facet normal 0 0 1
    outer loop
      vertex 1.61395 6.29013 3
      vertex 6.3 1.3 3
      vertex 6.26057 1.92667 3
    endloop
  endfacet
  facet normal 0 0 1
    outer loop
      vertex -6.3 1.3 3
      vertex 6.3 1.3 3
      vertex 1.61395 6.29013 3
    endloop
  endfacet
  facet normal 0 0 1
    outer loop
      vertex 1.61395 6.29013 3
      vertex 6.26057 1.92667 3
      vertex 6.14292 2.54345 3
    endloop
  endfacet
  facet normal 0 0 1
    outer loop
      vertex 6.3 1.3 3
      vertex -6.3 1.3 3
      vertex 6.3 -1.3 3
    endloop
  endfacet
  facet normal 0 0 1
    outer loop
      vertex 1.61395 6.29013 3
      vertex 6.14292 2.54345 3
      vertex 5.94888 3.14062 3
    endloop
  endfacet
  facet normal 0 0 1
    outer loop
      vertex 6.3 -1.3 3
      vertex 1.61395 -6.29013 3
      vertex 6.26057 -1.92667 3
    endloop
  endfacet
  facet normal 0 0 1
    outer loop
      vertex 1.61395 6.29013 3
      vertex 5.94888 3.14062 3
      vertex 5.68153 3.70877 3
    endloop
  endfacet
  facet normal 0 0 1
    outer loop
      vertex 6.26057 -1.92667 3
      vertex 1.61395 -6.29013 3
      vertex 6.14292 -2.54345 3
    endloop
  endfacet
  facet normal 0 0 1
    outer loop
      vertex 1.61395 6.29013 3
      vertex 5.68153 3.70877 3
      vertex 5.34508 4.23893 3
    endloop
  endfacet
  facet normal 0 0 1
    outer loop
      vertex 6.14292 -2.54345 3
      vertex 1.61395 -6.29013 3
      vertex 5.94888 -3.14062 3
    endloop
  endfacet
  facet normal 0 0 1
    outer loop
      vertex 1.61395 6.29013 3
      vertex 5.34508 4.23893 3
      vertex 4.94484 4.72274 3
    endloop
  endfacet
  facet normal 0 0 1
    outer loop
      vertex 5.94888 -3.14062 3
      vertex 1.61395 -6.29013 3
      vertex 5.68153 -3.70877 3
    endloop
  endfacet
  facet normal 0 0 1
    outer loop
      vertex 1.61395 6.29013 3
      vertex 4.94484 4.72274 3
      vertex 4.48712 5.15257 3
    endloop
  endfacet
  facet normal 0 0 1
    outer loop
      vertex 5.68153 -3.70877 3
      vertex 1.61395 -6.29013 3
      vertex 5.34508 -4.23893 3
    endloop
  endfacet
  facet normal 0 0 1
    outer loop
      vertex 1.61395 6.29013 3
      vertex 4.48712 5.15257 3
      vertex 3.97913 5.52164 3
    endloop
  endfacet
  facet normal 0 0 1
    outer loop
      vertex 5.34508 -4.23893 3
      vertex 1.61395 -6.29013 3
      vertex 4.94484 -4.72274 3
    endloop
  endfacet
  facet normal 0 0 1
    outer loop
      vertex 1.61395 6.29013 3
      vertex 3.97913 5.52164 3
      vertex 3.4289 5.82413 3
    endloop
  endfacet
  facet normal 0 0 1
    outer loop
      vertex 4.94484 -4.72274 3
      vertex 1.61395 -6.29013 3
      vertex 4.48712 -5.15257 3
    endloop
  endfacet
  facet normal 0 0 1
    outer loop
      vertex 1.61395 6.29013 3
      vertex 3.4289 5.82413 3
      vertex 2.84508 6.05528 3
    endloop
  endfacet
  facet normal 0 0 1
    outer loop
      vertex 4.48712 -5.15257 3
      vertex 1.61395 -6.29013 3
      vertex 3.97913 -5.52164 3
    endloop
  endfacet
  facet normal 0 0 1
    outer loop
      vertex 1.61395 6.29013 3
      vertex 2.84508 6.05528 3
      vertex 2.23691 6.21144 3
    endloop
  endfacet
  facet normal 0 0 1
    outer loop
      vertex 3.97913 -5.52164 3
      vertex 1.61395 -6.29013 3
      vertex 3.4289 -5.82413 3
    endloop
  endfacet
  facet normal 0 0 1
    outer loop
      vertex 3.4289 -5.82413 3
      vertex 1.61395 -6.29013 3
      vertex 2.84508 -6.05528 3
    endloop
  endfacet
  facet normal 0 0 1
    outer loop
      vertex 2.84508 -6.05528 3
      vertex 1.61395 -6.29013 3
      vertex 2.23691 -6.21144 3
    endloop
  endfacet
  facet normal 0 0 1
    outer loop
      vertex -6.3 1.3 3
      vertex 1.61395 6.29013 3
      vertex -1.61395 6.29013 3
    endloop
  endfacet
  facet normal 0 0 1
    outer loop
      vertex -6.3 -1.3 3
      vertex 6.3 -1.3 3
      vertex -6.3 1.3 3
    endloop
  endfacet
  facet normal 0 0 1
    outer loop
      vertex -6.3 1.3 3
      vertex -1.61395 6.29013 3
      vertex -2.23691 6.21144 3
    endloop
  endfacet
  facet normal 0 0 1
    outer loop
      vertex 6.3 -1.3 3
      vertex -6.3 -1.3 3
      vertex 1.61395 -6.29013 3
    endloop
  endfacet
  facet normal 0 0 1
    outer loop
      vertex -6.3 1.3 3
      vertex -2.23691 6.21144 3
      vertex -2.84508 6.05528 3
    endloop
  endfacet
  facet normal 0 0 1
    outer loop
      vertex 1.61395 -6.29013 3
      vertex -6.3 -1.3 3
      vertex -1.61395 -6.29013 3
    endloop
  endfacet
  facet normal 0 0 1
    outer loop
      vertex -6.3 1.3 3
      vertex -2.84508 6.05528 3
      vertex -3.4289 5.82413 3
    endloop
  endfacet
  facet normal 0 0 1
    outer loop
      vertex -1.61395 -6.29013 3
      vertex -6.3 -1.3 3
      vertex -2.23691 -6.21144 3
    endloop
  endfacet
  facet normal 0 0 1
    outer loop
      vertex -6.3 1.3 3
      vertex -3.4289 5.82413 3
      vertex -3.97913 5.52164 3
    endloop
  endfacet
  facet normal 0 0 1
    outer loop
      vertex -2.23691 -6.21144 3
      vertex -6.3 -1.3 3
      vertex -2.84508 -6.05528 3
    endloop
  endfacet
  facet normal 0 0 1
    outer loop
      vertex -6.3 1.3 3
      vertex -3.97913 5.52164 3
      vertex -4.48712 5.15257 3
    endloop
  endfacet
  facet normal 0 0 1
    outer loop
      vertex -2.84508 -6.05528 3
      vertex -6.3 -1.3 3
      vertex -3.4289 -5.82413 3
    endloop
  endfacet
  facet normal 0 0 1
    outer loop
      vertex -6.3 1.3 3
      vertex -4.48712 5.15257 3
      vertex -4.94484 4.72274 3
    endloop
  endfacet
  facet normal 0 0 1
    outer loop
      vertex -3.4289 -5.82413 3
      vertex -6.3 -1.3 3
      vertex -3.97913 -5.52164 3
    endloop
  endfacet
  facet normal 0 0 1
    outer loop
      vertex -6.3 1.3 3
      vertex -4.94484 4.72274 3
      vertex -5.34508 4.23893 3
    endloop
  endfacet
  facet normal 0 0 1
    outer loop
      vertex -3.97913 -5.52164 3
      vertex -6.3 -1.3 3
      vertex -4.48712 -5.15257 3
    endloop
  endfacet
  facet normal 0 0 1
    outer loop
      vertex -6.3 1.3 3
      vertex -5.34508 4.23893 3
      vertex -5.68153 3.70877 3
    endloop
  endfacet
  facet normal 0 0 1
    outer loop
      vertex -4.48712 -5.15257 3
      vertex -6.3 -1.3 3
      vertex -4.94484 -4.72274 3
    endloop
  endfacet
  facet normal 0 0 1
    outer loop
      vertex -6.3 1.3 3
      vertex -5.68153 3.70877 3
      vertex -5.94888 3.14062 3
    endloop
  endfacet
  facet normal 0 0 1
    outer loop
      vertex -4.94484 -4.72274 3
      vertex -6.3 -1.3 3
      vertex -5.34508 -4.23893 3
    endloop
  endfacet
  facet normal 0 0 1
    outer loop
      vertex -6.3 1.3 3
      vertex -5.94888 3.14062 3
      vertex -6.14292 2.54345 3
    endloop
  endfacet
  facet normal 0 0 1
    outer loop
      vertex -5.34508 -4.23893 3
      vertex -6.3 -1.3 3
      vertex -5.68153 -3.70877 3
    endloop
  endfacet
  facet normal 0 0 1
    outer loop
      vertex -6.3 1.3 3
      vertex -6.14292 2.54345 3
      vertex -6.26057 1.92667 3
    endloop
  endfacet
  facet normal 0 0 1
    outer loop
      vertex -5.68153 -3.70877 3
      vertex -6.3 -1.3 3
      vertex -5.94888 -3.14062 3
    endloop
  endfacet
  facet normal 0 0 1
    outer loop
      vertex -5.94888 -3.14062 3
      vertex -6.3 -1.3 3
      vertex -6.14292 -2.54345 3
    endloop
  endfacet
  facet normal 0 0 1
    outer loop
      vertex -6.14292 -2.54345 3
      vertex -6.3 -1.3 3
      vertex -6.26057 -1.92667 3
    endloop
  endfacet
  facet normal -0.481752 0.876308 0
    outer loop
      vertex 3.97913 -5.52164 3
      vertex 3.4289 -5.82413 7
      vertex 3.97913 -5.52164 7
    endloop
  endfacet
  facet normal -0.481752 0.876308 0
    outer loop
      vertex 3.4289 -5.82413 7
      vertex 3.97913 -5.52164 3
      vertex 3.4289 -5.82413 3
    endloop
  endfacet
  facet normal -0.982289 0.18737 0
    outer loop
      vertex 6.14292 -2.54345 3
      vertex 6.26057 -1.92667 7
      vertex 6.26057 -1.92667 3
    endloop
  endfacet
  facet normal -0.982289 0.18737 0
    outer loop
      vertex 6.26057 -1.92667 7
      vertex 6.14292 -2.54345 3
      vertex 6.14292 -2.54345 7
    endloop
  endfacet
  facet normal 0.770515 -0.637422 0
    outer loop
      vertex -5.34508 4.23893 7
      vertex -4.94484 4.72274 3
      vertex -4.94484 4.72274 7
    endloop
  endfacet
  facet normal 0.770515 -0.637422 0
    outer loop
      vertex -4.94484 4.72274 3
      vertex -5.34508 4.23893 7
      vertex -5.34508 4.23893 3
    endloop
  endfacet
  facet normal 0.684549 -0.728967 0
    outer loop
      vertex -4.94484 4.72274 3
      vertex -4.48712 5.15257 7
      vertex -4.94484 4.72274 7
    endloop
  endfacet
  facet normal 0.684549 -0.728967 0
    outer loop
      vertex -4.48712 5.15257 7
      vertex -4.94484 4.72274 3
      vertex -4.48712 5.15257 3
    endloop
  endfacet
  facet normal 0.481752 -0.876308 0
    outer loop
      vertex -3.97913 5.52164 3
      vertex -3.4289 5.82413 7
      vertex -3.97913 5.52164 7
    endloop
  endfacet
  facet normal 0.481752 -0.876308 0
    outer loop
      vertex -3.4289 5.82413 7
      vertex -3.97913 5.52164 3
      vertex -3.4289 5.82413 3
    endloop
  endfacet
  facet normal -0.951053 -0.309028 0
    outer loop
      vertex 6.14292 2.54345 3
      vertex 5.94888 3.14062 7
      vertex 5.94888 3.14062 3
    endloop
  endfacet
  facet normal -0.951053 -0.309028 0
    outer loop
      vertex 5.94888 3.14062 7
      vertex 6.14292 2.54345 3
      vertex 6.14292 2.54345 7
    endloop
  endfacet
  facet normal -0.12532 -0.992116 0
    outer loop
      vertex 1.61395 6.29013 3
      vertex 2.23691 6.21144 7
      vertex 1.61395 6.29013 7
    endloop
  endfacet
  facet normal -0.12532 -0.992116 -0
    outer loop
      vertex 2.23691 6.21144 7
      vertex 1.61395 6.29013 3
      vertex 2.23691 6.21144 3
    endloop
  endfacet
  facet normal 0.12532 -0.992116 0
    outer loop
      vertex -2.23691 6.21144 3
      vertex -1.61395 6.29013 7
      vertex -2.23691 6.21144 7
    endloop
  endfacet
  facet normal 0.12532 -0.992116 0
    outer loop
      vertex -1.61395 6.29013 7
      vertex -2.23691 6.21144 3
      vertex -1.61395 6.29013 3
    endloop
  endfacet
  facet normal 0.368124 0.929777 -0
    outer loop
      vertex -2.84508 -6.05528 3
      vertex -3.4289 -5.82413 7
      vertex -2.84508 -6.05528 7
    endloop
  endfacet
  facet normal 0.368124 0.929777 0
    outer loop
      vertex -3.4289 -5.82413 7
      vertex -2.84508 -6.05528 3
      vertex -3.4289 -5.82413 3
    endloop
  endfacet
  facet normal 0.12532 0.992116 -0
    outer loop
      vertex -1.61395 -6.29013 3
      vertex -2.23691 -6.21144 7
      vertex -1.61395 -6.29013 7
    endloop
  endfacet
  facet normal 0.12532 0.992116 0
    outer loop
      vertex -2.23691 -6.21144 7
      vertex -1.61395 -6.29013 3
      vertex -2.23691 -6.21144 3
    endloop
  endfacet
  facet normal 0.248703 0.96858 -0
    outer loop
      vertex -2.23691 -6.21144 3
      vertex -2.84508 -6.05528 7
      vertex -2.23691 -6.21144 7
    endloop
  endfacet
  facet normal 0.248703 0.96858 0
    outer loop
      vertex -2.84508 -6.05528 7
      vertex -2.23691 -6.21144 3
      vertex -2.84508 -6.05528 3
    endloop
  endfacet
  facet normal 0.587779 0.809022 -0
    outer loop
      vertex -3.97913 -5.52164 3
      vertex -4.48712 -5.15257 7
      vertex -3.97913 -5.52164 7
    endloop
  endfacet
  facet normal 0.587779 0.809022 0
    outer loop
      vertex -4.48712 -5.15257 7
      vertex -3.97913 -5.52164 3
      vertex -4.48712 -5.15257 3
    endloop
  endfacet
  facet normal 0.904828 0.425778 0
    outer loop
      vertex -5.68153 -3.70877 7
      vertex -5.94888 -3.14062 3
      vertex -5.94888 -3.14062 7
    endloop
  endfacet
  facet normal 0.904828 0.425778 0
    outer loop
      vertex -5.94888 -3.14062 3
      vertex -5.68153 -3.70877 7
      vertex -5.68153 -3.70877 3
    endloop
  endfacet
  facet normal 0.982289 0.18737 0
    outer loop
      vertex -6.14292 -2.54345 7
      vertex -6.26057 -1.92667 3
      vertex -6.26057 -1.92667 7
    endloop
  endfacet
  facet normal 0.982289 0.18737 0
    outer loop
      vertex -6.26057 -1.92667 3
      vertex -6.14292 -2.54345 7
      vertex -6.14292 -2.54345 3
    endloop
  endfacet
  facet normal 0.998026 0.0627957 0
    outer loop
      vertex -6.26057 -1.92667 7
      vertex -6.3 -1.3 3
      vertex -6.3 -1.3 7
    endloop
  endfacet
  facet normal 0.998026 0.0627957 0
    outer loop
      vertex -6.3 -1.3 3
      vertex -6.26057 -1.92667 7
      vertex -6.26057 -1.92667 3
    endloop
  endfacet
  facet normal -0.844328 0.535827 0
    outer loop
      vertex 5.34508 -4.23893 3
      vertex 5.68153 -3.70877 7
      vertex 5.68153 -3.70877 3
    endloop
  endfacet
  facet normal -0.844328 0.535827 0
    outer loop
      vertex 5.68153 -3.70877 7
      vertex 5.34508 -4.23893 3
      vertex 5.34508 -4.23893 7
    endloop
  endfacet
  facet normal -0.587779 0.809022 0
    outer loop
      vertex 4.48712 -5.15257 3
      vertex 3.97913 -5.52164 7
      vertex 4.48712 -5.15257 7
    endloop
  endfacet
  facet normal -0.587779 0.809022 0
    outer loop
      vertex 3.97913 -5.52164 7
      vertex 4.48712 -5.15257 3
      vertex 3.97913 -5.52164 3
    endloop
  endfacet
  facet normal -0.368124 0.929777 0
    outer loop
      vertex 3.4289 -5.82413 3
      vertex 2.84508 -6.05528 7
      vertex 3.4289 -5.82413 7
    endloop
  endfacet
  facet normal -0.368124 0.929777 0
    outer loop
      vertex 2.84508 -6.05528 7
      vertex 3.4289 -5.82413 3
      vertex 2.84508 -6.05528 3
    endloop
  endfacet
  facet normal -0.951053 0.309028 0
    outer loop
      vertex 5.94888 -3.14062 3
      vertex 6.14292 -2.54345 7
      vertex 6.14292 -2.54345 3
    endloop
  endfacet
  facet normal -0.951053 0.309028 0
    outer loop
      vertex 6.14292 -2.54345 7
      vertex 5.94888 -3.14062 3
      vertex 5.94888 -3.14062 7
    endloop
  endfacet
  facet normal 0.587779 -0.809022 0
    outer loop
      vertex -4.48712 5.15257 3
      vertex -3.97913 5.52164 7
      vertex -4.48712 5.15257 7
    endloop
  endfacet
  facet normal 0.587779 -0.809022 0
    outer loop
      vertex -3.97913 5.52164 7
      vertex -4.48712 5.15257 3
      vertex -3.97913 5.52164 3
    endloop
  endfacet
  facet normal 0.904828 -0.425778 0
    outer loop
      vertex -5.94888 3.14062 7
      vertex -5.68153 3.70877 3
      vertex -5.68153 3.70877 7
    endloop
  endfacet
  facet normal 0.904828 -0.425778 0
    outer loop
      vertex -5.68153 3.70877 3
      vertex -5.94888 3.14062 7
      vertex -5.94888 3.14062 3
    endloop
  endfacet
  facet normal 0.982289 -0.18737 0
    outer loop
      vertex -6.26057 1.92667 7
      vertex -6.14292 2.54345 3
      vertex -6.14292 2.54345 7
    endloop
  endfacet
  facet normal 0.982289 -0.18737 0
    outer loop
      vertex -6.14292 2.54345 3
      vertex -6.26057 1.92667 7
      vertex -6.26057 1.92667 3
    endloop
  endfacet
  facet normal 0.951053 -0.309028 0
    outer loop
      vertex -6.14292 2.54345 7
      vertex -5.94888 3.14062 3
      vertex -5.94888 3.14062 7
    endloop
  endfacet
  facet normal 0.951053 -0.309028 0
    outer loop
      vertex -5.94888 3.14062 3
      vertex -6.14292 2.54345 7
      vertex -6.14292 2.54345 3
    endloop
  endfacet
  facet normal -0.998026 -0.0627957 0
    outer loop
      vertex 6.3 1.3 3
      vertex 6.26057 1.92667 7
      vertex 6.26057 1.92667 3
    endloop
  endfacet
  facet normal -0.998026 -0.0627957 0
    outer loop
      vertex 6.26057 1.92667 7
      vertex 6.3 1.3 3
      vertex 6.3 1.3 7
    endloop
  endfacet
  facet normal -0.904828 -0.425778 0
    outer loop
      vertex 5.94888 3.14062 3
      vertex 5.68153 3.70877 7
      vertex 5.68153 3.70877 3
    endloop
  endfacet
  facet normal -0.904828 -0.425778 0
    outer loop
      vertex 5.68153 3.70877 7
      vertex 5.94888 3.14062 3
      vertex 5.94888 3.14062 7
    endloop
  endfacet
  facet normal -0.844328 -0.535827 0
    outer loop
      vertex 5.68153 3.70877 3
      vertex 5.34508 4.23893 7
      vertex 5.34508 4.23893 3
    endloop
  endfacet
  facet normal -0.844328 -0.535827 0
    outer loop
      vertex 5.34508 4.23893 7
      vertex 5.68153 3.70877 3
      vertex 5.68153 3.70877 7
    endloop
  endfacet
  facet normal -0.248703 -0.96858 0
    outer loop
      vertex 2.23691 6.21144 3
      vertex 2.84508 6.05528 7
      vertex 2.23691 6.21144 7
    endloop
  endfacet
  facet normal -0.248703 -0.96858 -0
    outer loop
      vertex 2.84508 6.05528 7
      vertex 2.23691 6.21144 3
      vertex 2.84508 6.05528 3
    endloop
  endfacet
  facet normal -0.982289 -0.18737 0
    outer loop
      vertex 6.26057 1.92667 3
      vertex 6.14292 2.54345 7
      vertex 6.14292 2.54345 3
    endloop
  endfacet
  facet normal -0.982289 -0.18737 0
    outer loop
      vertex 6.14292 2.54345 7
      vertex 6.26057 1.92667 3
      vertex 6.26057 1.92667 7
    endloop
  endfacet
  facet normal -0.481752 -0.876308 0
    outer loop
      vertex 3.4289 5.82413 3
      vertex 3.97913 5.52164 7
      vertex 3.4289 5.82413 7
    endloop
  endfacet
  facet normal -0.481752 -0.876308 -0
    outer loop
      vertex 3.97913 5.52164 7
      vertex 3.4289 5.82413 3
      vertex 3.97913 5.52164 3
    endloop
  endfacet
  facet normal -0.587779 -0.809022 0
    outer loop
      vertex 3.97913 5.52164 3
      vertex 4.48712 5.15257 7
      vertex 3.97913 5.52164 7
    endloop
  endfacet
  facet normal -0.587779 -0.809022 -0
    outer loop
      vertex 4.48712 5.15257 7
      vertex 3.97913 5.52164 3
      vertex 4.48712 5.15257 3
    endloop
  endfacet
  facet normal -0.684549 -0.728967 0
    outer loop
      vertex 4.48712 5.15257 3
      vertex 4.94484 4.72274 7
      vertex 4.48712 5.15257 7
    endloop
  endfacet
  facet normal -0.684549 -0.728967 -0
    outer loop
      vertex 4.94484 4.72274 7
      vertex 4.48712 5.15257 3
      vertex 4.94484 4.72274 3
    endloop
  endfacet
  facet normal -0.770515 -0.637422 0
    outer loop
      vertex 5.34508 4.23893 3
      vertex 4.94484 4.72274 7
      vertex 4.94484 4.72274 3
    endloop
  endfacet
  facet normal -0.770515 -0.637422 0
    outer loop
      vertex 4.94484 4.72274 7
      vertex 5.34508 4.23893 3
      vertex 5.34508 4.23893 7
    endloop
  endfacet
  facet normal -0.368124 -0.929777 0
    outer loop
      vertex 2.84508 6.05528 3
      vertex 3.4289 5.82413 7
      vertex 2.84508 6.05528 7
    endloop
  endfacet
  facet normal -0.368124 -0.929777 -0
    outer loop
      vertex 3.4289 5.82413 7
      vertex 2.84508 6.05528 3
      vertex 3.4289 5.82413 3
    endloop
  endfacet
  facet normal 0.368124 -0.929777 0
    outer loop
      vertex -3.4289 5.82413 3
      vertex -2.84508 6.05528 7
      vertex -3.4289 5.82413 7
    endloop
  endfacet
  facet normal 0.368124 -0.929777 0
    outer loop
      vertex -2.84508 6.05528 7
      vertex -3.4289 5.82413 3
      vertex -2.84508 6.05528 3
    endloop
  endfacet
  facet normal 0.248703 -0.96858 0
    outer loop
      vertex -2.84508 6.05528 3
      vertex -2.23691 6.21144 7
      vertex -2.84508 6.05528 7
    endloop
  endfacet
  facet normal 0.248703 -0.96858 0
    outer loop
      vertex -2.23691 6.21144 7
      vertex -2.84508 6.05528 3
      vertex -2.23691 6.21144 3
    endloop
  endfacet
endsolid OpenSCAD_Model
