solid OpenSCAD_Model
  facet normal -0.125324 -0.992116 0
    outer loop
      vertex 25.2386 28.7925 1.2
      vertex 25.712 28.7327 18
      vertex 25.2386 28.7925 18
    endloop
  endfacet
  facet normal -0.125324 -0.992116 -0
    outer loop
      vertex 25.712 28.7327 18
      vertex 25.2386 28.7925 1.2
      vertex 25.712 28.7327 1.2
    endloop
  endfacet
  facet normal 0 -1 0
    outer loop
      vertex -25.2386 28.7925 1.2
      vertex 25.2386 28.7925 18
      vertex -25.2386 28.7925 18
    endloop
  endfacet
  facet normal 0 -1 -0
    outer loop
      vertex 25.2386 28.7925 18
      vertex -25.2386 28.7925 1.2
      vertex 25.2386 28.7925 1.2
    endloop
  endfacet
  facet normal 0.125324 -0.992116 0
    outer loop
      vertex -25.712 28.7327 1.2
      vertex -25.2386 28.7925 18
      vertex -25.712 28.7327 18
    endloop
  endfacet
  facet normal 0.125324 -0.992116 0
    outer loop
      vertex -25.2386 28.7925 18
      vertex -25.712 28.7327 1.2
      vertex -25.2386 28.7925 1.2
    endloop
  endfacet
  facet normal 0 1 -0
    outer loop
      vertex 25.2386 -28.7925 1.2
      vertex -25.2386 -28.7925 18
      vertex 25.2386 -28.7925 18
    endloop
  endfacet
  facet normal 0 1 0
    outer loop
      vertex -25.2386 -28.7925 18
      vertex 25.2386 -28.7925 1.2
      vertex -25.2386 -28.7925 1.2
    endloop
  endfacet
  facet normal 1 -0 0
    outer loop
      vertex -28.8 -25 18
      vertex -28.8 25 1.2
      vertex -28.8 25 18
    endloop
  endfacet
  facet normal 1 0 0
    outer loop
      vertex -28.8 25 1.2
      vertex -28.8 -25 18
      vertex -28.8 -25 1.2
    endloop
  endfacet
  facet normal 0.248693 -0.968582 0
    outer loop
      vertex -26.1743 28.614 1.2
      vertex -25.712 28.7327 18
      vertex -26.1743 28.614 18
    endloop
  endfacet
  facet normal 0.248693 -0.968582 0
    outer loop
      vertex -25.712 28.7327 18
      vertex -26.1743 28.614 1.2
      vertex -25.712 28.7327 1.2
    endloop
  endfacet
  facet normal 0.982291 -0.187362 0
    outer loop
      vertex -28.77 25.4763 18
      vertex -28.6806 25.945 1.2
      vertex -28.6806 25.945 18
    endloop
  endfacet
  facet normal 0.982291 -0.187362 0
    outer loop
      vertex -28.6806 25.945 1.2
      vertex -28.77 25.4763 18
      vertex -28.77 25.4763 1.2
    endloop
  endfacet
  facet normal 0.58776 -0.809035 0
    outer loop
      vertex -27.4222 27.9279 1.2
      vertex -27.0361 28.2084 18
      vertex -27.4222 27.9279 18
    endloop
  endfacet
  facet normal 0.58776 -0.809035 0
    outer loop
      vertex -27.0361 28.2084 18
      vertex -27.4222 27.9279 1.2
      vertex -27.0361 28.2084 1.2
    endloop
  endfacet
  facet normal -1 0 0
    outer loop
      vertex 28.8 -25 1.2
      vertex 28.8 25 18
      vertex 28.8 25 1.2
    endloop
  endfacet
  facet normal -1 -0 0
    outer loop
      vertex 28.8 25 18
      vertex 28.8 -25 1.2
      vertex 28.8 -25 18
    endloop
  endfacet
  facet normal 0.998022 0.0628609 0
    outer loop
      vertex -28.77 -25.4763 18
      vertex -28.8 -25 1.2
      vertex -28.8 -25 18
    endloop
  endfacet
  facet normal 0.998022 0.0628609 0
    outer loop
      vertex -28.8 -25 1.2
      vertex -28.77 -25.4763 18
      vertex -28.77 -25.4763 1.2
    endloop
  endfacet
  facet normal 0 0 -1
    outer loop
      vertex 28.8 -25 1.2
      vertex 30 -25 1.2
      vertex 29.9606 -25.6267 1.2
    endloop
  endfacet
  facet normal 0 0 -1
    outer loop
      vertex 30 -25 1.2
      vertex 28.8 -25 1.2
      vertex 30 25 1.2
    endloop
  endfacet
  facet normal 0 0 -1
    outer loop
      vertex 28.77 -25.4763 1.2
      vertex 29.9606 -25.6267 1.2
      vertex 29.8429 -26.2435 1.2
    endloop
  endfacet
  facet normal 0 0 -1
    outer loop
      vertex 28.8 25 1.2
      vertex 30 25 1.2
      vertex 28.8 -25 1.2
    endloop
  endfacet
  facet normal 0 0 -1
    outer loop
      vertex 28.6806 -25.945 1.2
      vertex 29.8429 -26.2435 1.2
      vertex 29.6489 -26.8406 1.2
    endloop
  endfacet
  facet normal 0 0 -1
    outer loop
      vertex 30 25 1.2
      vertex 28.8 25 1.2
      vertex 29.9606 25.6267 1.2
    endloop
  endfacet
  facet normal 0 0 -1
    outer loop
      vertex 28.5331 -26.3989 1.2
      vertex 29.6489 -26.8406 1.2
      vertex 29.3815 -27.4088 1.2
    endloop
  endfacet
  facet normal 0 0 -1
    outer loop
      vertex 28.77 25.4763 1.2
      vertex 29.9606 25.6267 1.2
      vertex 28.8 25 1.2
    endloop
  endfacet
  facet normal 0 0 -1
    outer loop
      vertex 28.33 -26.8307 1.2
      vertex 29.3815 -27.4088 1.2
      vertex 29.0451 -27.9389 1.2
    endloop
  endfacet
  facet normal -0 0 -1
    outer loop
      vertex 29.9606 25.6267 1.2
      vertex 28.77 25.4763 1.2
      vertex 29.8429 26.2435 1.2
    endloop
  endfacet
  facet normal 0 0 -1
    outer loop
      vertex 28.6806 25.945 1.2
      vertex 29.8429 26.2435 1.2
      vertex 28.77 25.4763 1.2
    endloop
  endfacet
  facet normal 0 0 -1
    outer loop
      vertex 29.9606 -25.6267 1.2
      vertex 28.77 -25.4763 1.2
      vertex 28.8 -25 1.2
    endloop
  endfacet
  facet normal 0 0 -1
    outer loop
      vertex 29.8429 -26.2435 1.2
      vertex 28.6806 -25.945 1.2
      vertex 28.77 -25.4763 1.2
    endloop
  endfacet
  facet normal 0 0 -1
    outer loop
      vertex 28.0743 -27.2336 1.2
      vertex 29.0451 -27.9389 1.2
      vertex 28.6448 -28.4227 1.2
    endloop
  endfacet
  facet normal 0 0 -1
    outer loop
      vertex 29.6489 -26.8406 1.2
      vertex 28.5331 -26.3989 1.2
      vertex 28.6806 -25.945 1.2
    endloop
  endfacet
  facet normal 0 0 -1
    outer loop
      vertex 29.3815 -27.4088 1.2
      vertex 28.33 -26.8307 1.2
      vertex 28.5331 -26.3989 1.2
    endloop
  endfacet
  facet normal 0 0 -1
    outer loop
      vertex 27.7701 -27.6013 1.2
      vertex 28.6448 -28.4227 1.2
      vertex 28.1871 -28.8526 1.2
    endloop
  endfacet
  facet normal 0 0 -1
    outer loop
      vertex 29.0451 -27.9389 1.2
      vertex 28.0743 -27.2336 1.2
      vertex 28.33 -26.8307 1.2
    endloop
  endfacet
  facet normal 0 0 -1
    outer loop
      vertex 28.6448 -28.4227 1.2
      vertex 27.7701 -27.6013 1.2
      vertex 28.0743 -27.2336 1.2
    endloop
  endfacet
  facet normal 0 0 -1
    outer loop
      vertex 27.4222 -27.9279 1.2
      vertex 28.1871 -28.8526 1.2
      vertex 27.6791 -29.2216 1.2
    endloop
  endfacet
  facet normal 0 0 -1
    outer loop
      vertex 28.1871 -28.8526 1.2
      vertex 27.4222 -27.9279 1.2
      vertex 27.7701 -27.6013 1.2
    endloop
  endfacet
  facet normal 0 0 -1
    outer loop
      vertex 27.0361 -28.2084 1.2
      vertex 27.6791 -29.2216 1.2
      vertex 27.1289 -29.5241 1.2
    endloop
  endfacet
  facet normal 0 0 -1
    outer loop
      vertex 27.6791 -29.2216 1.2
      vertex 27.0361 -28.2084 1.2
      vertex 27.4222 -27.9279 1.2
    endloop
  endfacet
  facet normal 0 0 -1
    outer loop
      vertex 27.1289 -29.5241 1.2
      vertex 26.618 -28.4383 1.2
      vertex 27.0361 -28.2084 1.2
    endloop
  endfacet
  facet normal 0 0 -1
    outer loop
      vertex 26.5451 -29.7553 1.2
      vertex 26.618 -28.4383 1.2
      vertex 27.1289 -29.5241 1.2
    endloop
  endfacet
  facet normal 0 0 -1
    outer loop
      vertex 26.5451 -29.7553 1.2
      vertex 26.1743 -28.614 1.2
      vertex 26.618 -28.4383 1.2
    endloop
  endfacet
  facet normal 0 0 -1
    outer loop
      vertex 25.9369 -29.9114 1.2
      vertex 26.1743 -28.614 1.2
      vertex 26.5451 -29.7553 1.2
    endloop
  endfacet
  facet normal 0 0 -1
    outer loop
      vertex 25.9369 -29.9114 1.2
      vertex 25.712 -28.7327 1.2
      vertex 26.1743 -28.614 1.2
    endloop
  endfacet
  facet normal 0 0 -1
    outer loop
      vertex 25.314 -29.9901 1.2
      vertex 25.712 -28.7327 1.2
      vertex 25.9369 -29.9114 1.2
    endloop
  endfacet
  facet normal 0 0 -1
    outer loop
      vertex 25.314 -29.9901 1.2
      vertex 25.2386 -28.7925 1.2
      vertex 25.712 -28.7327 1.2
    endloop
  endfacet
  facet normal 0 0 -1
    outer loop
      vertex 25.314 -29.9901 1.2
      vertex -25.2386 -28.7925 1.2
      vertex 25.2386 -28.7925 1.2
    endloop
  endfacet
  facet normal 0 0 -1
    outer loop
      vertex -25.314 -29.9901 1.2
      vertex -25.2386 -28.7925 1.2
      vertex 25.314 -29.9901 1.2
    endloop
  endfacet
  facet normal 0 0 -1
    outer loop
      vertex -25.314 -29.9901 1.2
      vertex -25.712 -28.7327 1.2
      vertex -25.2386 -28.7925 1.2
    endloop
  endfacet
  facet normal 0 0 -1
    outer loop
      vertex -25.9369 -29.9114 1.2
      vertex -25.712 -28.7327 1.2
      vertex -25.314 -29.9901 1.2
    endloop
  endfacet
  facet normal 0 0 -1
    outer loop
      vertex -25.9369 -29.9114 1.2
      vertex -26.1743 -28.614 1.2
      vertex -25.712 -28.7327 1.2
    endloop
  endfacet
  facet normal 0 0 -1
    outer loop
      vertex -26.5451 -29.7553 1.2
      vertex -26.1743 -28.614 1.2
      vertex -25.9369 -29.9114 1.2
    endloop
  endfacet
  facet normal 0 0 -1
    outer loop
      vertex -26.5451 -29.7553 1.2
      vertex -26.618 -28.4383 1.2
      vertex -26.1743 -28.614 1.2
    endloop
  endfacet
  facet normal 0 0 -1
    outer loop
      vertex -27.1289 -29.5241 1.2
      vertex -26.618 -28.4383 1.2
      vertex -26.5451 -29.7553 1.2
    endloop
  endfacet
  facet normal -0 0 -1
    outer loop
      vertex -26.618 -28.4383 1.2
      vertex -27.1289 -29.5241 1.2
      vertex -27.0361 -28.2084 1.2
    endloop
  endfacet
  facet normal 0 0 -1
    outer loop
      vertex -27.6791 -29.2216 1.2
      vertex -27.0361 -28.2084 1.2
      vertex -27.1289 -29.5241 1.2
    endloop
  endfacet
  facet normal -0 0 -1
    outer loop
      vertex -27.0361 -28.2084 1.2
      vertex -27.6791 -29.2216 1.2
      vertex -27.4222 -27.9279 1.2
    endloop
  endfacet
  facet normal 0 0 -1
    outer loop
      vertex -28.1871 -28.8526 1.2
      vertex -27.4222 -27.9279 1.2
      vertex -27.6791 -29.2216 1.2
    endloop
  endfacet
  facet normal -0 0 -1
    outer loop
      vertex -27.4222 -27.9279 1.2
      vertex -28.1871 -28.8526 1.2
      vertex -27.7701 -27.6013 1.2
    endloop
  endfacet
  facet normal 0 0 -1
    outer loop
      vertex -28.6448 -28.4227 1.2
      vertex -27.7701 -27.6013 1.2
      vertex -28.1871 -28.8526 1.2
    endloop
  endfacet
  facet normal -0 0 -1
    outer loop
      vertex -27.7701 -27.6013 1.2
      vertex -28.6448 -28.4227 1.2
      vertex -28.0743 -27.2336 1.2
    endloop
  endfacet
  facet normal 0 0 -1
    outer loop
      vertex -29.0451 -27.9389 1.2
      vertex -28.0743 -27.2336 1.2
      vertex -28.6448 -28.4227 1.2
    endloop
  endfacet
  facet normal -0 0 -1
    outer loop
      vertex -28.0743 -27.2336 1.2
      vertex -29.0451 -27.9389 1.2
      vertex -28.33 -26.8307 1.2
    endloop
  endfacet
  facet normal 0 0 -1
    outer loop
      vertex -29.3815 -27.4088 1.2
      vertex -28.33 -26.8307 1.2
      vertex -29.0451 -27.9389 1.2
    endloop
  endfacet
  facet normal -0 0 -1
    outer loop
      vertex -28.33 -26.8307 1.2
      vertex -29.3815 -27.4088 1.2
      vertex -28.5331 -26.3989 1.2
    endloop
  endfacet
  facet normal 0 0 -1
    outer loop
      vertex -29.6489 -26.8406 1.2
      vertex -28.5331 -26.3989 1.2
      vertex -29.3815 -27.4088 1.2
    endloop
  endfacet
  facet normal 0 0 -1
    outer loop
      vertex -29.8429 -26.2435 1.2
      vertex -28.6806 -25.945 1.2
      vertex -29.6489 -26.8406 1.2
    endloop
  endfacet
  facet normal -0 0 -1
    outer loop
      vertex -28.5331 -26.3989 1.2
      vertex -29.6489 -26.8406 1.2
      vertex -28.6806 -25.945 1.2
    endloop
  endfacet
  facet normal -0 0 -1
    outer loop
      vertex 29.8429 26.2435 1.2
      vertex 28.6806 25.945 1.2
      vertex 29.6489 26.8406 1.2
    endloop
  endfacet
  facet normal 0 0 -1
    outer loop
      vertex 28.5331 26.3989 1.2
      vertex 29.6489 26.8406 1.2
      vertex 28.6806 25.945 1.2
    endloop
  endfacet
  facet normal -0 0 -1
    outer loop
      vertex 29.6489 26.8406 1.2
      vertex 28.5331 26.3989 1.2
      vertex 29.3815 27.4088 1.2
    endloop
  endfacet
  facet normal 0 0 -1
    outer loop
      vertex 28.33 26.8307 1.2
      vertex 29.3815 27.4088 1.2
      vertex 28.5331 26.3989 1.2
    endloop
  endfacet
  facet normal -0 0 -1
    outer loop
      vertex 29.3815 27.4088 1.2
      vertex 28.33 26.8307 1.2
      vertex 29.0451 27.9389 1.2
    endloop
  endfacet
  facet normal 0 0 -1
    outer loop
      vertex 28.0743 27.2336 1.2
      vertex 29.0451 27.9389 1.2
      vertex 28.33 26.8307 1.2
    endloop
  endfacet
  facet normal -0 0 -1
    outer loop
      vertex 29.0451 27.9389 1.2
      vertex 28.0743 27.2336 1.2
      vertex 28.6448 28.4227 1.2
    endloop
  endfacet
  facet normal 0 0 -1
    outer loop
      vertex 27.7701 27.6013 1.2
      vertex 28.6448 28.4227 1.2
      vertex 28.0743 27.2336 1.2
    endloop
  endfacet
  facet normal -0 0 -1
    outer loop
      vertex 28.6448 28.4227 1.2
      vertex 27.7701 27.6013 1.2
      vertex 28.1871 28.8526 1.2
    endloop
  endfacet
  facet normal 0 0 -1
    outer loop
      vertex 27.4222 27.9279 1.2
      vertex 28.1871 28.8526 1.2
      vertex 27.7701 27.6013 1.2
    endloop
  endfacet
  facet normal -0 0 -1
    outer loop
      vertex 28.1871 28.8526 1.2
      vertex 27.4222 27.9279 1.2
      vertex 27.6791 29.2216 1.2
    endloop
  endfacet
  facet normal 0 0 -1
    outer loop
      vertex 27.0361 28.2084 1.2
      vertex 27.6791 29.2216 1.2
      vertex 27.4222 27.9279 1.2
    endloop
  endfacet
  facet normal -0 0 -1
    outer loop
      vertex 27.6791 29.2216 1.2
      vertex 27.0361 28.2084 1.2
      vertex 27.1289 29.5241 1.2
    endloop
  endfacet
  facet normal 0 0 -1
    outer loop
      vertex 26.618 28.4383 1.2
      vertex 27.1289 29.5241 1.2
      vertex 27.0361 28.2084 1.2
    endloop
  endfacet
  facet normal 0 0 -1
    outer loop
      vertex 26.618 28.4383 1.2
      vertex 26.5451 29.7553 1.2
      vertex 27.1289 29.5241 1.2
    endloop
  endfacet
  facet normal 0 0 -1
    outer loop
      vertex 26.1743 28.614 1.2
      vertex 26.5451 29.7553 1.2
      vertex 26.618 28.4383 1.2
    endloop
  endfacet
  facet normal 0 0 -1
    outer loop
      vertex 26.1743 28.614 1.2
      vertex 25.9369 29.9114 1.2
      vertex 26.5451 29.7553 1.2
    endloop
  endfacet
  facet normal 0 0 -1
    outer loop
      vertex 25.712 28.7327 1.2
      vertex 25.9369 29.9114 1.2
      vertex 26.1743 28.614 1.2
    endloop
  endfacet
  facet normal 0 0 -1
    outer loop
      vertex 25.712 28.7327 1.2
      vertex 25.314 29.9901 1.2
      vertex 25.9369 29.9114 1.2
    endloop
  endfacet
  facet normal 0 0 -1
    outer loop
      vertex 25.2386 28.7925 1.2
      vertex 25.314 29.9901 1.2
      vertex 25.712 28.7327 1.2
    endloop
  endfacet
  facet normal 0 0 -1
    outer loop
      vertex -25.2386 28.7925 1.2
      vertex 25.314 29.9901 1.2
      vertex 25.2386 28.7925 1.2
    endloop
  endfacet
  facet normal 0 0 -1
    outer loop
      vertex -25.2386 28.7925 1.2
      vertex -25.314 29.9901 1.2
      vertex 25.314 29.9901 1.2
    endloop
  endfacet
  facet normal 0 0 -1
    outer loop
      vertex -25.712 28.7327 1.2
      vertex -25.314 29.9901 1.2
      vertex -25.2386 28.7925 1.2
    endloop
  endfacet
  facet normal 0 0 -1
    outer loop
      vertex -25.712 28.7327 1.2
      vertex -25.9369 29.9114 1.2
      vertex -25.314 29.9901 1.2
    endloop
  endfacet
  facet normal 0 0 -1
    outer loop
      vertex -26.1743 28.614 1.2
      vertex -25.9369 29.9114 1.2
      vertex -25.712 28.7327 1.2
    endloop
  endfacet
  facet normal 0 0 -1
    outer loop
      vertex -26.1743 28.614 1.2
      vertex -26.5451 29.7553 1.2
      vertex -25.9369 29.9114 1.2
    endloop
  endfacet
  facet normal 0 0 -1
    outer loop
      vertex -26.618 28.4383 1.2
      vertex -26.5451 29.7553 1.2
      vertex -26.1743 28.614 1.2
    endloop
  endfacet
  facet normal 0 0 -1
    outer loop
      vertex -27.1289 29.5241 1.2
      vertex -26.618 28.4383 1.2
      vertex -27.0361 28.2084 1.2
    endloop
  endfacet
  facet normal 0 0 -1
    outer loop
      vertex -26.618 28.4383 1.2
      vertex -27.1289 29.5241 1.2
      vertex -26.5451 29.7553 1.2
    endloop
  endfacet
  facet normal 0 0 -1
    outer loop
      vertex -27.6791 29.2216 1.2
      vertex -27.0361 28.2084 1.2
      vertex -27.4222 27.9279 1.2
    endloop
  endfacet
  facet normal 0 0 -1
    outer loop
      vertex -27.0361 28.2084 1.2
      vertex -27.6791 29.2216 1.2
      vertex -27.1289 29.5241 1.2
    endloop
  endfacet
  facet normal 0 0 -1
    outer loop
      vertex -28.1871 28.8526 1.2
      vertex -27.4222 27.9279 1.2
      vertex -27.7701 27.6013 1.2
    endloop
  endfacet
  facet normal 0 0 -1
    outer loop
      vertex -28.6448 28.4227 1.2
      vertex -27.7701 27.6013 1.2
      vertex -28.0743 27.2336 1.2
    endloop
  endfacet
  facet normal 0 0 -1
    outer loop
      vertex -27.4222 27.9279 1.2
      vertex -28.1871 28.8526 1.2
      vertex -27.6791 29.2216 1.2
    endloop
  endfacet
  facet normal 0 0 -1
    outer loop
      vertex -29.0451 27.9389 1.2
      vertex -28.0743 27.2336 1.2
      vertex -28.33 26.8307 1.2
    endloop
  endfacet
  facet normal 0 0 -1
    outer loop
      vertex -29.3815 27.4088 1.2
      vertex -28.33 26.8307 1.2
      vertex -28.5331 26.3989 1.2
    endloop
  endfacet
  facet normal 0 0 -1
    outer loop
      vertex -27.7701 27.6013 1.2
      vertex -28.6448 28.4227 1.2
      vertex -28.1871 28.8526 1.2
    endloop
  endfacet
  facet normal 0 0 -1
    outer loop
      vertex -29.6489 26.8406 1.2
      vertex -28.5331 26.3989 1.2
      vertex -28.6806 25.945 1.2
    endloop
  endfacet
  facet normal 0 0 -1
    outer loop
      vertex -29.8429 26.2435 1.2
      vertex -28.6806 25.945 1.2
      vertex -28.77 25.4763 1.2
    endloop
  endfacet
  facet normal 0 0 -1
    outer loop
      vertex -29.9606 25.6267 1.2
      vertex -28.77 25.4763 1.2
      vertex -28.8 25 1.2
    endloop
  endfacet
  facet normal 0 0 -1
    outer loop
      vertex -28.0743 27.2336 1.2
      vertex -29.0451 27.9389 1.2
      vertex -28.6448 28.4227 1.2
    endloop
  endfacet
  facet normal 0 0 -1
    outer loop
      vertex -28.8 -25 1.2
      vertex -30 -25 1.2
      vertex -28.8 25 1.2
    endloop
  endfacet
  facet normal -0 0 -1
    outer loop
      vertex -28.6806 -25.945 1.2
      vertex -29.8429 -26.2435 1.2
      vertex -28.77 -25.4763 1.2
    endloop
  endfacet
  facet normal 0 0 -1
    outer loop
      vertex -30 25 1.2
      vertex -28.8 25 1.2
      vertex -30 -25 1.2
    endloop
  endfacet
  facet normal 0 0 -1
    outer loop
      vertex -29.9606 -25.6267 1.2
      vertex -28.77 -25.4763 1.2
      vertex -29.8429 -26.2435 1.2
    endloop
  endfacet
  facet normal 0 -0 -1
    outer loop
      vertex -29.9606 25.6267 1.2
      vertex -28.8 25 1.2
      vertex -30 25 1.2
    endloop
  endfacet
  facet normal -0 0 -1
    outer loop
      vertex -28.77 -25.4763 1.2
      vertex -29.9606 -25.6267 1.2
      vertex -28.8 -25 1.2
    endloop
  endfacet
  facet normal 0 0 -1
    outer loop
      vertex -28.33 26.8307 1.2
      vertex -29.3815 27.4088 1.2
      vertex -29.0451 27.9389 1.2
    endloop
  endfacet
  facet normal -0 0 -1
    outer loop
      vertex -28.8 -25 1.2
      vertex -29.9606 -25.6267 1.2
      vertex -30 -25 1.2
    endloop
  endfacet
  facet normal 0 0 -1
    outer loop
      vertex -28.5331 26.3989 1.2
      vertex -29.6489 26.8406 1.2
      vertex -29.3815 27.4088 1.2
    endloop
  endfacet
  facet normal 0 0 -1
    outer loop
      vertex -28.6806 25.945 1.2
      vertex -29.8429 26.2435 1.2
      vertex -29.6489 26.8406 1.2
    endloop
  endfacet
  facet normal 0 0 -1
    outer loop
      vertex -28.77 25.4763 1.2
      vertex -29.9606 25.6267 1.2
      vertex -29.8429 26.2435 1.2
    endloop
  endfacet
  facet normal 0 0 1
    outer loop
      vertex 28.8 25 18
      vertex 30 25 18
      vertex 29.9606 25.6267 18
    endloop
  endfacet
  facet normal 0 0 1
    outer loop
      vertex 30 25 18
      vertex 28.8 25 18
      vertex 30 -25 18
    endloop
  endfacet
  facet normal 0 0 1
    outer loop
      vertex 28.77 25.4763 18
      vertex 29.9606 25.6267 18
      vertex 29.8429 26.2435 18
    endloop
  endfacet
  facet normal 0 0 1
    outer loop
      vertex 28.8 -25 18
      vertex 30 -25 18
      vertex 28.8 25 18
    endloop
  endfacet
  facet normal 0 0 1
    outer loop
      vertex 28.6806 25.945 18
      vertex 29.8429 26.2435 18
      vertex 29.6489 26.8406 18
    endloop
  endfacet
  facet normal 0 0 1
    outer loop
      vertex 30 -25 18
      vertex 28.8 -25 18
      vertex 29.9606 -25.6267 18
    endloop
  endfacet
  facet normal 0 0 1
    outer loop
      vertex 28.5331 26.3989 18
      vertex 29.6489 26.8406 18
      vertex 29.3815 27.4088 18
    endloop
  endfacet
  facet normal -0 0 1
    outer loop
      vertex 28.77 -25.4763 18
      vertex 29.9606 -25.6267 18
      vertex 28.8 -25 18
    endloop
  endfacet
  facet normal 0 0 1
    outer loop
      vertex 28.33 26.8307 18
      vertex 29.3815 27.4088 18
      vertex 29.0451 27.9389 18
    endloop
  endfacet
  facet normal 0 0 1
    outer loop
      vertex 29.9606 -25.6267 18
      vertex 28.77 -25.4763 18
      vertex 29.8429 -26.2435 18
    endloop
  endfacet
  facet normal -0 0 1
    outer loop
      vertex 28.6806 -25.945 18
      vertex 29.8429 -26.2435 18
      vertex 28.77 -25.4763 18
    endloop
  endfacet
  facet normal 0 0 1
    outer loop
      vertex 29.9606 25.6267 18
      vertex 28.77 25.4763 18
      vertex 28.8 25 18
    endloop
  endfacet
  facet normal 0 0 1
    outer loop
      vertex 29.8429 26.2435 18
      vertex 28.6806 25.945 18
      vertex 28.77 25.4763 18
    endloop
  endfacet
  facet normal 0 0 1
    outer loop
      vertex 28.0743 27.2336 18
      vertex 29.0451 27.9389 18
      vertex 28.6448 28.4227 18
    endloop
  endfacet
  facet normal 0 0 1
    outer loop
      vertex 29.6489 26.8406 18
      vertex 28.5331 26.3989 18
      vertex 28.6806 25.945 18
    endloop
  endfacet
  facet normal 0 0 1
    outer loop
      vertex 29.3815 27.4088 18
      vertex 28.33 26.8307 18
      vertex 28.5331 26.3989 18
    endloop
  endfacet
  facet normal 0 0 1
    outer loop
      vertex 27.7701 27.6013 18
      vertex 28.6448 28.4227 18
      vertex 28.1871 28.8526 18
    endloop
  endfacet
  facet normal 0 0 1
    outer loop
      vertex 29.0451 27.9389 18
      vertex 28.0743 27.2336 18
      vertex 28.33 26.8307 18
    endloop
  endfacet
  facet normal 0 0 1
    outer loop
      vertex 28.6448 28.4227 18
      vertex 27.7701 27.6013 18
      vertex 28.0743 27.2336 18
    endloop
  endfacet
  facet normal 0 0 1
    outer loop
      vertex 27.4222 27.9279 18
      vertex 28.1871 28.8526 18
      vertex 27.6791 29.2216 18
    endloop
  endfacet
  facet normal 0 0 1
    outer loop
      vertex 28.1871 28.8526 18
      vertex 27.4222 27.9279 18
      vertex 27.7701 27.6013 18
    endloop
  endfacet
  facet normal 0 0 1
    outer loop
      vertex 27.0361 28.2084 18
      vertex 27.6791 29.2216 18
      vertex 27.1289 29.5241 18
    endloop
  endfacet
  facet normal 0 0 1
    outer loop
      vertex 27.6791 29.2216 18
      vertex 27.0361 28.2084 18
      vertex 27.4222 27.9279 18
    endloop
  endfacet
  facet normal 0 0 1
    outer loop
      vertex 27.1289 29.5241 18
      vertex 26.618 28.4383 18
      vertex 27.0361 28.2084 18
    endloop
  endfacet
  facet normal 0 0 1
    outer loop
      vertex 26.5451 29.7553 18
      vertex 26.618 28.4383 18
      vertex 27.1289 29.5241 18
    endloop
  endfacet
  facet normal 0 0 1
    outer loop
      vertex 26.5451 29.7553 18
      vertex 26.1743 28.614 18
      vertex 26.618 28.4383 18
    endloop
  endfacet
  facet normal 0 0 1
    outer loop
      vertex 25.9369 29.9114 18
      vertex 26.1743 28.614 18
      vertex 26.5451 29.7553 18
    endloop
  endfacet
  facet normal 0 0 1
    outer loop
      vertex 25.9369 29.9114 18
      vertex 25.712 28.7327 18
      vertex 26.1743 28.614 18
    endloop
  endfacet
  facet normal 0 0 1
    outer loop
      vertex 25.314 29.9901 18
      vertex 25.712 28.7327 18
      vertex 25.9369 29.9114 18
    endloop
  endfacet
  facet normal 0 0 1
    outer loop
      vertex 25.314 29.9901 18
      vertex 25.2386 28.7925 18
      vertex 25.712 28.7327 18
    endloop
  endfacet
  facet normal 0 0 1
    outer loop
      vertex 25.314 29.9901 18
      vertex -25.2386 28.7925 18
      vertex 25.2386 28.7925 18
    endloop
  endfacet
  facet normal -0 0 1
    outer loop
      vertex -25.314 29.9901 18
      vertex -25.2386 28.7925 18
      vertex 25.314 29.9901 18
    endloop
  endfacet
  facet normal 0 0 1
    outer loop
      vertex -25.314 29.9901 18
      vertex -25.712 28.7327 18
      vertex -25.2386 28.7925 18
    endloop
  endfacet
  facet normal -0 0 1
    outer loop
      vertex -25.9369 29.9114 18
      vertex -25.712 28.7327 18
      vertex -25.314 29.9901 18
    endloop
  endfacet
  facet normal 0 0 1
    outer loop
      vertex -25.9369 29.9114 18
      vertex -26.1743 28.614 18
      vertex -25.712 28.7327 18
    endloop
  endfacet
  facet normal -0 0 1
    outer loop
      vertex -26.5451 29.7553 18
      vertex -26.1743 28.614 18
      vertex -25.9369 29.9114 18
    endloop
  endfacet
  facet normal 0 0 1
    outer loop
      vertex -26.5451 29.7553 18
      vertex -26.618 28.4383 18
      vertex -26.1743 28.614 18
    endloop
  endfacet
  facet normal -0 0 1
    outer loop
      vertex -27.1289 29.5241 18
      vertex -26.618 28.4383 18
      vertex -26.5451 29.7553 18
    endloop
  endfacet
  facet normal 0 0 1
    outer loop
      vertex -26.618 28.4383 18
      vertex -27.1289 29.5241 18
      vertex -27.0361 28.2084 18
    endloop
  endfacet
  facet normal -0 0 1
    outer loop
      vertex -27.6791 29.2216 18
      vertex -27.0361 28.2084 18
      vertex -27.1289 29.5241 18
    endloop
  endfacet
  facet normal 0 0 1
    outer loop
      vertex -27.0361 28.2084 18
      vertex -27.6791 29.2216 18
      vertex -27.4222 27.9279 18
    endloop
  endfacet
  facet normal -0 0 1
    outer loop
      vertex -28.1871 28.8526 18
      vertex -27.4222 27.9279 18
      vertex -27.6791 29.2216 18
    endloop
  endfacet
  facet normal 0 0 1
    outer loop
      vertex -27.4222 27.9279 18
      vertex -28.1871 28.8526 18
      vertex -27.7701 27.6013 18
    endloop
  endfacet
  facet normal -0 0 1
    outer loop
      vertex -28.6448 28.4227 18
      vertex -27.7701 27.6013 18
      vertex -28.1871 28.8526 18
    endloop
  endfacet
  facet normal 0 0 1
    outer loop
      vertex -27.7701 27.6013 18
      vertex -28.6448 28.4227 18
      vertex -28.0743 27.2336 18
    endloop
  endfacet
  facet normal -0 0 1
    outer loop
      vertex -29.0451 27.9389 18
      vertex -28.0743 27.2336 18
      vertex -28.6448 28.4227 18
    endloop
  endfacet
  facet normal 0 0 1
    outer loop
      vertex -28.0743 27.2336 18
      vertex -29.0451 27.9389 18
      vertex -28.33 26.8307 18
    endloop
  endfacet
  facet normal -0 0 1
    outer loop
      vertex -29.3815 27.4088 18
      vertex -28.33 26.8307 18
      vertex -29.0451 27.9389 18
    endloop
  endfacet
  facet normal 0 0 1
    outer loop
      vertex -28.33 26.8307 18
      vertex -29.3815 27.4088 18
      vertex -28.5331 26.3989 18
    endloop
  endfacet
  facet normal -0 0 1
    outer loop
      vertex -29.6489 26.8406 18
      vertex -28.5331 26.3989 18
      vertex -29.3815 27.4088 18
    endloop
  endfacet
  facet normal -0 0 1
    outer loop
      vertex -29.8429 26.2435 18
      vertex -28.6806 25.945 18
      vertex -29.6489 26.8406 18
    endloop
  endfacet
  facet normal 0 0 1
    outer loop
      vertex -28.5331 26.3989 18
      vertex -29.6489 26.8406 18
      vertex -28.6806 25.945 18
    endloop
  endfacet
  facet normal 0 0 1
    outer loop
      vertex 29.8429 -26.2435 18
      vertex 28.6806 -25.945 18
      vertex 29.6489 -26.8406 18
    endloop
  endfacet
  facet normal -0 0 1
    outer loop
      vertex 28.5331 -26.3989 18
      vertex 29.6489 -26.8406 18
      vertex 28.6806 -25.945 18
    endloop
  endfacet
  facet normal 0 0 1
    outer loop
      vertex 29.6489 -26.8406 18
      vertex 28.5331 -26.3989 18
      vertex 29.3815 -27.4088 18
    endloop
  endfacet
  facet normal -0 0 1
    outer loop
      vertex 28.33 -26.8307 18
      vertex 29.3815 -27.4088 18
      vertex 28.5331 -26.3989 18
    endloop
  endfacet
  facet normal 0 0 1
    outer loop
      vertex 29.3815 -27.4088 18
      vertex 28.33 -26.8307 18
      vertex 29.0451 -27.9389 18
    endloop
  endfacet
  facet normal -0 0 1
    outer loop
      vertex 28.0743 -27.2336 18
      vertex 29.0451 -27.9389 18
      vertex 28.33 -26.8307 18
    endloop
  endfacet
  facet normal 0 0 1
    outer loop
      vertex 29.0451 -27.9389 18
      vertex 28.0743 -27.2336 18
      vertex 28.6448 -28.4227 18
    endloop
  endfacet
  facet normal -0 0 1
    outer loop
      vertex 27.7701 -27.6013 18
      vertex 28.6448 -28.4227 18
      vertex 28.0743 -27.2336 18
    endloop
  endfacet
  facet normal 0 0 1
    outer loop
      vertex 28.6448 -28.4227 18
      vertex 27.7701 -27.6013 18
      vertex 28.1871 -28.8526 18
    endloop
  endfacet
  facet normal -0 0 1
    outer loop
      vertex 27.4222 -27.9279 18
      vertex 28.1871 -28.8526 18
      vertex 27.7701 -27.6013 18
    endloop
  endfacet
  facet normal 0 0 1
    outer loop
      vertex 28.1871 -28.8526 18
      vertex 27.4222 -27.9279 18
      vertex 27.6791 -29.2216 18
    endloop
  endfacet
  facet normal -0 0 1
    outer loop
      vertex 27.0361 -28.2084 18
      vertex 27.6791 -29.2216 18
      vertex 27.4222 -27.9279 18
    endloop
  endfacet
  facet normal 0 0 1
    outer loop
      vertex 27.6791 -29.2216 18
      vertex 27.0361 -28.2084 18
      vertex 27.1289 -29.5241 18
    endloop
  endfacet
  facet normal -0 0 1
    outer loop
      vertex 26.618 -28.4383 18
      vertex 27.1289 -29.5241 18
      vertex 27.0361 -28.2084 18
    endloop
  endfacet
  facet normal 0 0 1
    outer loop
      vertex 26.618 -28.4383 18
      vertex 26.5451 -29.7553 18
      vertex 27.1289 -29.5241 18
    endloop
  endfacet
  facet normal -0 0 1
    outer loop
      vertex 26.1743 -28.614 18
      vertex 26.5451 -29.7553 18
      vertex 26.618 -28.4383 18
    endloop
  endfacet
  facet normal 0 0 1
    outer loop
      vertex 26.1743 -28.614 18
      vertex 25.9369 -29.9114 18
      vertex 26.5451 -29.7553 18
    endloop
  endfacet
  facet normal -0 0 1
    outer loop
      vertex 25.712 -28.7327 18
      vertex 25.9369 -29.9114 18
      vertex 26.1743 -28.614 18
    endloop
  endfacet
  facet normal 0 0 1
    outer loop
      vertex 25.712 -28.7327 18
      vertex 25.314 -29.9901 18
      vertex 25.9369 -29.9114 18
    endloop
  endfacet
  facet normal -0 0 1
    outer loop
      vertex 25.2386 -28.7925 18
      vertex 25.314 -29.9901 18
      vertex 25.712 -28.7327 18
    endloop
  endfacet
  facet normal -0 0 1
    outer loop
      vertex -25.2386 -28.7925 18
      vertex 25.314 -29.9901 18
      vertex 25.2386 -28.7925 18
    endloop
  endfacet
  facet normal 0 0 1
    outer loop
      vertex -25.2386 -28.7925 18
      vertex -25.314 -29.9901 18
      vertex 25.314 -29.9901 18
    endloop
  endfacet
  facet normal 0 0 1
    outer loop
      vertex -25.712 -28.7327 18
      vertex -25.314 -29.9901 18
      vertex -25.2386 -28.7925 18
    endloop
  endfacet
  facet normal 0 0 1
    outer loop
      vertex -25.712 -28.7327 18
      vertex -25.9369 -29.9114 18
      vertex -25.314 -29.9901 18
    endloop
  endfacet
  facet normal 0 0 1
    outer loop
      vertex -26.1743 -28.614 18
      vertex -25.9369 -29.9114 18
      vertex -25.712 -28.7327 18
    endloop
  endfacet
  facet normal 0 0 1
    outer loop
      vertex -26.1743 -28.614 18
      vertex -26.5451 -29.7553 18
      vertex -25.9369 -29.9114 18
    endloop
  endfacet
  facet normal 0 0 1
    outer loop
      vertex -26.618 -28.4383 18
      vertex -26.5451 -29.7553 18
      vertex -26.1743 -28.614 18
    endloop
  endfacet
  facet normal 0 0 1
    outer loop
      vertex -27.1289 -29.5241 18
      vertex -26.618 -28.4383 18
      vertex -27.0361 -28.2084 18
    endloop
  endfacet
  facet normal 0 0 1
    outer loop
      vertex -26.618 -28.4383 18
      vertex -27.1289 -29.5241 18
      vertex -26.5451 -29.7553 18
    endloop
  endfacet
  facet normal 0 0 1
    outer loop
      vertex -27.6791 -29.2216 18
      vertex -27.0361 -28.2084 18
      vertex -27.4222 -27.9279 18
    endloop
  endfacet
  facet normal 0 0 1
    outer loop
      vertex -27.0361 -28.2084 18
      vertex -27.6791 -29.2216 18
      vertex -27.1289 -29.5241 18
    endloop
  endfacet
  facet normal 0 0 1
    outer loop
      vertex -28.1871 -28.8526 18
      vertex -27.4222 -27.9279 18
      vertex -27.7701 -27.6013 18
    endloop
  endfacet
  facet normal 0 0 1
    outer loop
      vertex -28.6448 -28.4227 18
      vertex -27.7701 -27.6013 18
      vertex -28.0743 -27.2336 18
    endloop
  endfacet
  facet normal 0 0 1
    outer loop
      vertex -27.4222 -27.9279 18
      vertex -28.1871 -28.8526 18
      vertex -27.6791 -29.2216 18
    endloop
  endfacet
  facet normal 0 0 1
    outer loop
      vertex -29.0451 -27.9389 18
      vertex -28.0743 -27.2336 18
      vertex -28.33 -26.8307 18
    endloop
  endfacet
  facet normal 0 0 1
    outer loop
      vertex -29.3815 -27.4088 18
      vertex -28.33 -26.8307 18
      vertex -28.5331 -26.3989 18
    endloop
  endfacet
  facet normal 0 0 1
    outer loop
      vertex -27.7701 -27.6013 18
      vertex -28.6448 -28.4227 18
      vertex -28.1871 -28.8526 18
    endloop
  endfacet
  facet normal 0 0 1
    outer loop
      vertex -29.6489 -26.8406 18
      vertex -28.5331 -26.3989 18
      vertex -28.6806 -25.945 18
    endloop
  endfacet
  facet normal 0 0 1
    outer loop
      vertex -29.8429 -26.2435 18
      vertex -28.6806 -25.945 18
      vertex -28.77 -25.4763 18
    endloop
  endfacet
  facet normal 0 0 1
    outer loop
      vertex -29.9606 -25.6267 18
      vertex -28.77 -25.4763 18
      vertex -28.8 -25 18
    endloop
  endfacet
  facet normal 0 0 1
    outer loop
      vertex -28.0743 -27.2336 18
      vertex -29.0451 -27.9389 18
      vertex -28.6448 -28.4227 18
    endloop
  endfacet
  facet normal 0 0 1
    outer loop
      vertex -28.8 25 18
      vertex -30 25 18
      vertex -28.8 -25 18
    endloop
  endfacet
  facet normal 0 0 1
    outer loop
      vertex -28.6806 25.945 18
      vertex -29.8429 26.2435 18
      vertex -28.77 25.4763 18
    endloop
  endfacet
  facet normal 0 0 1
    outer loop
      vertex -30 -25 18
      vertex -28.8 -25 18
      vertex -30 25 18
    endloop
  endfacet
  facet normal -0 0 1
    outer loop
      vertex -29.9606 25.6267 18
      vertex -28.77 25.4763 18
      vertex -29.8429 26.2435 18
    endloop
  endfacet
  facet normal 0 -0 1
    outer loop
      vertex -29.9606 -25.6267 18
      vertex -28.8 -25 18
      vertex -30 -25 18
    endloop
  endfacet
  facet normal 0 0 1
    outer loop
      vertex -28.77 25.4763 18
      vertex -29.9606 25.6267 18
      vertex -28.8 25 18
    endloop
  endfacet
  facet normal 0 0 1
    outer loop
      vertex -28.33 -26.8307 18
      vertex -29.3815 -27.4088 18
      vertex -29.0451 -27.9389 18
    endloop
  endfacet
  facet normal 0 0 1
    outer loop
      vertex -28.8 25 18
      vertex -29.9606 25.6267 18
      vertex -30 25 18
    endloop
  endfacet
  facet normal 0 0 1
    outer loop
      vertex -28.5331 -26.3989 18
      vertex -29.6489 -26.8406 18
      vertex -29.3815 -27.4088 18
    endloop
  endfacet
  facet normal 0 0 1
    outer loop
      vertex -28.6806 -25.945 18
      vertex -29.8429 -26.2435 18
      vertex -29.6489 -26.8406 18
    endloop
  endfacet
  facet normal 0 0 1
    outer loop
      vertex -28.77 -25.4763 18
      vertex -29.9606 -25.6267 18
      vertex -29.8429 -26.2435 18
    endloop
  endfacet
  facet normal 0.998022 -0.0628609 0
    outer loop
      vertex -28.8 25 18
      vertex -28.77 25.4763 1.2
      vertex -28.77 25.4763 18
    endloop
  endfacet
  facet normal 0.998022 -0.0628609 0
    outer loop
      vertex -28.77 25.4763 1.2
      vertex -28.8 25 18
      vertex -28.8 25 1.2
    endloop
  endfacet
  facet normal 0.904899 -0.425625 0
    outer loop
      vertex -28.5331 26.3989 18
      vertex -28.33 26.8307 1.2
      vertex -28.33 26.8307 18
    endloop
  endfacet
  facet normal 0.904899 -0.425625 0
    outer loop
      vertex -28.33 26.8307 1.2
      vertex -28.5331 26.3989 18
      vertex -28.5331 26.3989 1.2
    endloop
  endfacet
  facet normal -0.684436 -0.729073 0
    outer loop
      vertex 27.4222 27.9279 1.2
      vertex 27.7701 27.6013 18
      vertex 27.4222 27.9279 18
    endloop
  endfacet
  facet normal -0.684436 -0.729073 -0
    outer loop
      vertex 27.7701 27.6013 18
      vertex 27.4222 27.9279 1.2
      vertex 27.7701 27.6013 1.2
    endloop
  endfacet
  facet normal 0.368173 0.929757 -0
    outer loop
      vertex -26.1743 -28.614 1.2
      vertex -26.618 -28.4383 18
      vertex -26.1743 -28.614 18
    endloop
  endfacet
  facet normal 0.368173 0.929757 0
    outer loop
      vertex -26.618 -28.4383 18
      vertex -26.1743 -28.614 1.2
      vertex -26.618 -28.4383 1.2
    endloop
  endfacet
  facet normal 0.684436 0.729073 -0
    outer loop
      vertex -27.4222 -27.9279 1.2
      vertex -27.7701 -27.6013 18
      vertex -27.4222 -27.9279 18
    endloop
  endfacet
  facet normal 0.684436 0.729073 0
    outer loop
      vertex -27.7701 -27.6013 18
      vertex -27.4222 -27.9279 1.2
      vertex -27.7701 -27.6013 1.2
    endloop
  endfacet
  facet normal -0.844317 0.535845 0
    outer loop
      vertex 28.0743 -27.2336 1.2
      vertex 28.33 -26.8307 18
      vertex 28.33 -26.8307 1.2
    endloop
  endfacet
  facet normal -0.844317 0.535845 0
    outer loop
      vertex 28.33 -26.8307 18
      vertex 28.0743 -27.2336 1.2
      vertex 28.0743 -27.2336 18
    endloop
  endfacet
  facet normal -0.982291 0.187362 0
    outer loop
      vertex 28.6806 -25.945 1.2
      vertex 28.77 -25.4763 18
      vertex 28.77 -25.4763 1.2
    endloop
  endfacet
  facet normal -0.982291 0.187362 0
    outer loop
      vertex 28.77 -25.4763 18
      vertex 28.6806 -25.945 1.2
      vertex 28.6806 -25.945 18
    endloop
  endfacet
  facet normal 0.951045 -0.309053 0
    outer loop
      vertex -28.6806 25.945 18
      vertex -28.5331 26.3989 1.2
      vertex -28.5331 26.3989 18
    endloop
  endfacet
  facet normal 0.951045 -0.309053 0
    outer loop
      vertex -28.5331 26.3989 1.2
      vertex -28.6806 25.945 18
      vertex -28.6806 25.945 1.2
    endloop
  endfacet
  facet normal -0.48183 -0.876265 0
    outer loop
      vertex 26.618 28.4383 1.2
      vertex 27.0361 28.2084 18
      vertex 26.618 28.4383 18
    endloop
  endfacet
  facet normal -0.48183 -0.876265 -0
    outer loop
      vertex 27.0361 28.2084 18
      vertex 26.618 28.4383 1.2
      vertex 27.0361 28.2084 1.2
    endloop
  endfacet
  facet normal 0.58776 0.809035 -0
    outer loop
      vertex -27.0361 -28.2084 1.2
      vertex -27.4222 -27.9279 18
      vertex -27.0361 -28.2084 18
    endloop
  endfacet
  facet normal 0.58776 0.809035 0
    outer loop
      vertex -27.4222 -27.9279 18
      vertex -27.0361 -28.2084 1.2
      vertex -27.4222 -27.9279 1.2
    endloop
  endfacet
  facet normal 0.248693 0.968582 -0
    outer loop
      vertex -25.712 -28.7327 1.2
      vertex -26.1743 -28.614 18
      vertex -25.712 -28.7327 18
    endloop
  endfacet
  facet normal 0.248693 0.968582 0
    outer loop
      vertex -26.1743 -28.614 18
      vertex -25.712 -28.7327 1.2
      vertex -26.1743 -28.614 1.2
    endloop
  endfacet
  facet normal 0.125324 0.992116 -0
    outer loop
      vertex -25.2386 -28.7925 1.2
      vertex -25.712 -28.7327 18
      vertex -25.2386 -28.7925 18
    endloop
  endfacet
  facet normal 0.125324 0.992116 0
    outer loop
      vertex -25.712 -28.7327 18
      vertex -25.2386 -28.7925 1.2
      vertex -25.712 -28.7327 1.2
    endloop
  endfacet
  facet normal -0.998022 0.0628609 0
    outer loop
      vertex 28.77 -25.4763 1.2
      vertex 28.8 -25 18
      vertex 28.8 -25 1.2
    endloop
  endfacet
  facet normal -0.998022 0.0628609 0
    outer loop
      vertex 28.8 -25 18
      vertex 28.77 -25.4763 1.2
      vertex 28.77 -25.4763 18
    endloop
  endfacet
  facet normal -0.684436 0.729073 0
    outer loop
      vertex 27.7701 -27.6013 1.2
      vertex 27.4222 -27.9279 18
      vertex 27.7701 -27.6013 18
    endloop
  endfacet
  facet normal -0.684436 0.729073 0
    outer loop
      vertex 27.4222 -27.9279 18
      vertex 27.7701 -27.6013 1.2
      vertex 27.4222 -27.9279 1.2
    endloop
  endfacet
  facet normal -0.904899 -0.425625 0
    outer loop
      vertex 28.5331 26.3989 1.2
      vertex 28.33 26.8307 18
      vertex 28.33 26.8307 1.2
    endloop
  endfacet
  facet normal -0.904899 -0.425625 0
    outer loop
      vertex 28.33 26.8307 18
      vertex 28.5331 26.3989 1.2
      vertex 28.5331 26.3989 18
    endloop
  endfacet
  facet normal -0.951045 -0.309053 0
    outer loop
      vertex 28.6806 25.945 1.2
      vertex 28.5331 26.3989 18
      vertex 28.5331 26.3989 1.2
    endloop
  endfacet
  facet normal -0.951045 -0.309053 0
    outer loop
      vertex 28.5331 26.3989 18
      vertex 28.6806 25.945 1.2
      vertex 28.6806 25.945 18
    endloop
  endfacet
  facet normal -0.998022 -0.0628609 0
    outer loop
      vertex 28.8 25 1.2
      vertex 28.77 25.4763 18
      vertex 28.77 25.4763 1.2
    endloop
  endfacet
  facet normal -0.998022 -0.0628609 0
    outer loop
      vertex 28.77 25.4763 18
      vertex 28.8 25 1.2
      vertex 28.8 25 18
    endloop
  endfacet
  facet normal 0.904899 0.425625 0
    outer loop
      vertex -28.33 -26.8307 18
      vertex -28.5331 -26.3989 1.2
      vertex -28.5331 -26.3989 18
    endloop
  endfacet
  facet normal 0.904899 0.425625 0
    outer loop
      vertex -28.5331 -26.3989 1.2
      vertex -28.33 -26.8307 18
      vertex -28.33 -26.8307 1.2
    endloop
  endfacet
  facet normal 0.770501 0.637439 0
    outer loop
      vertex -27.7701 -27.6013 18
      vertex -28.0743 -27.2336 1.2
      vertex -28.0743 -27.2336 18
    endloop
  endfacet
  facet normal 0.770501 0.637439 0
    outer loop
      vertex -28.0743 -27.2336 1.2
      vertex -27.7701 -27.6013 18
      vertex -27.7701 -27.6013 1.2
    endloop
  endfacet
  facet normal 0.982291 0.187362 0
    outer loop
      vertex -28.6806 -25.945 18
      vertex -28.77 -25.4763 1.2
      vertex -28.77 -25.4763 18
    endloop
  endfacet
  facet normal 0.982291 0.187362 0
    outer loop
      vertex -28.77 -25.4763 1.2
      vertex -28.6806 -25.945 18
      vertex -28.6806 -25.945 1.2
    endloop
  endfacet
  facet normal 0.48183 0.876265 -0
    outer loop
      vertex -26.618 -28.4383 1.2
      vertex -27.0361 -28.2084 18
      vertex -26.618 -28.4383 18
    endloop
  endfacet
  facet normal 0.48183 0.876265 0
    outer loop
      vertex -27.0361 -28.2084 18
      vertex -26.618 -28.4383 1.2
      vertex -27.0361 -28.2084 1.2
    endloop
  endfacet
  facet normal -0.770501 0.637439 0
    outer loop
      vertex 27.7701 -27.6013 1.2
      vertex 28.0743 -27.2336 18
      vertex 28.0743 -27.2336 1.2
    endloop
  endfacet
  facet normal -0.770501 0.637439 0
    outer loop
      vertex 28.0743 -27.2336 18
      vertex 27.7701 -27.6013 1.2
      vertex 27.7701 -27.6013 18
    endloop
  endfacet
  facet normal -0.368173 0.929757 0
    outer loop
      vertex 26.618 -28.4383 1.2
      vertex 26.1743 -28.614 18
      vertex 26.618 -28.4383 18
    endloop
  endfacet
  facet normal -0.368173 0.929757 0
    outer loop
      vertex 26.1743 -28.614 18
      vertex 26.618 -28.4383 1.2
      vertex 26.1743 -28.614 1.2
    endloop
  endfacet
  facet normal -0.125324 0.992116 0
    outer loop
      vertex 25.712 -28.7327 1.2
      vertex 25.2386 -28.7925 18
      vertex 25.712 -28.7327 18
    endloop
  endfacet
  facet normal -0.125324 0.992116 0
    outer loop
      vertex 25.2386 -28.7925 18
      vertex 25.712 -28.7327 1.2
      vertex 25.2386 -28.7925 1.2
    endloop
  endfacet
  facet normal -0.844317 -0.535845 0
    outer loop
      vertex 28.33 26.8307 1.2
      vertex 28.0743 27.2336 18
      vertex 28.0743 27.2336 1.2
    endloop
  endfacet
  facet normal -0.844317 -0.535845 0
    outer loop
      vertex 28.0743 27.2336 18
      vertex 28.33 26.8307 1.2
      vertex 28.33 26.8307 18
    endloop
  endfacet
  facet normal -0.982291 -0.187362 0
    outer loop
      vertex 28.77 25.4763 1.2
      vertex 28.6806 25.945 18
      vertex 28.6806 25.945 1.2
    endloop
  endfacet
  facet normal -0.982291 -0.187362 0
    outer loop
      vertex 28.6806 25.945 18
      vertex 28.77 25.4763 1.2
      vertex 28.77 25.4763 18
    endloop
  endfacet
  facet normal 0.844317 0.535845 0
    outer loop
      vertex -28.0743 -27.2336 18
      vertex -28.33 -26.8307 1.2
      vertex -28.33 -26.8307 18
    endloop
  endfacet
  facet normal 0.844317 0.535845 0
    outer loop
      vertex -28.33 -26.8307 1.2
      vertex -28.0743 -27.2336 18
      vertex -28.0743 -27.2336 1.2
    endloop
  endfacet
  facet normal 0.951045 0.309053 0
    outer loop
      vertex -28.5331 -26.3989 18
      vertex -28.6806 -25.945 1.2
      vertex -28.6806 -25.945 18
    endloop
  endfacet
  facet normal 0.951045 0.309053 0
    outer loop
      vertex -28.6806 -25.945 1.2
      vertex -28.5331 -26.3989 18
      vertex -28.5331 -26.3989 1.2
    endloop
  endfacet
  facet normal 0.368173 -0.929757 0
    outer loop
      vertex -26.618 28.4383 1.2
      vertex -26.1743 28.614 18
      vertex -26.618 28.4383 18
    endloop
  endfacet
  facet normal 0.368173 -0.929757 0
    outer loop
      vertex -26.1743 28.614 18
      vertex -26.618 28.4383 1.2
      vertex -26.1743 28.614 1.2
    endloop
  endfacet
  facet normal 0.48183 -0.876265 0
    outer loop
      vertex -27.0361 28.2084 1.2
      vertex -26.618 28.4383 18
      vertex -27.0361 28.2084 18
    endloop
  endfacet
  facet normal 0.48183 -0.876265 0
    outer loop
      vertex -26.618 28.4383 18
      vertex -27.0361 28.2084 1.2
      vertex -26.618 28.4383 1.2
    endloop
  endfacet
  facet normal 0.770501 -0.637439 0
    outer loop
      vertex -28.0743 27.2336 18
      vertex -27.7701 27.6013 1.2
      vertex -27.7701 27.6013 18
    endloop
  endfacet
  facet normal 0.770501 -0.637439 0
    outer loop
      vertex -27.7701 27.6013 1.2
      vertex -28.0743 27.2336 18
      vertex -28.0743 27.2336 1.2
    endloop
  endfacet
  facet normal 0.684436 -0.729073 0
    outer loop
      vertex -27.7701 27.6013 1.2
      vertex -27.4222 27.9279 18
      vertex -27.7701 27.6013 18
    endloop
  endfacet
  facet normal 0.684436 -0.729073 0
    outer loop
      vertex -27.4222 27.9279 18
      vertex -27.7701 27.6013 1.2
      vertex -27.4222 27.9279 1.2
    endloop
  endfacet
  facet normal 0.844317 -0.535845 0
    outer loop
      vertex -28.33 26.8307 18
      vertex -28.0743 27.2336 1.2
      vertex -28.0743 27.2336 18
    endloop
  endfacet
  facet normal 0.844317 -0.535845 0
    outer loop
      vertex -28.0743 27.2336 1.2
      vertex -28.33 26.8307 18
      vertex -28.33 26.8307 1.2
    endloop
  endfacet
  facet normal -0.58776 -0.809035 0
    outer loop
      vertex 27.0361 28.2084 1.2
      vertex 27.4222 27.9279 18
      vertex 27.0361 28.2084 18
    endloop
  endfacet
  facet normal -0.58776 -0.809035 -0
    outer loop
      vertex 27.4222 27.9279 18
      vertex 27.0361 28.2084 1.2
      vertex 27.4222 27.9279 1.2
    endloop
  endfacet
  facet normal -0.368173 -0.929757 0
    outer loop
      vertex 26.1743 28.614 1.2
      vertex 26.618 28.4383 18
      vertex 26.1743 28.614 18
    endloop
  endfacet
  facet normal -0.368173 -0.929757 -0
    outer loop
      vertex 26.618 28.4383 18
      vertex 26.1743 28.614 1.2
      vertex 26.618 28.4383 1.2
    endloop
  endfacet
  facet normal -0.904899 0.425625 0
    outer loop
      vertex 28.33 -26.8307 1.2
      vertex 28.5331 -26.3989 18
      vertex 28.5331 -26.3989 1.2
    endloop
  endfacet
  facet normal -0.904899 0.425625 0
    outer loop
      vertex 28.5331 -26.3989 18
      vertex 28.33 -26.8307 1.2
      vertex 28.33 -26.8307 18
    endloop
  endfacet
  facet normal -0.58776 0.809035 0
    outer loop
      vertex 27.4222 -27.9279 1.2
      vertex 27.0361 -28.2084 18
      vertex 27.4222 -27.9279 18
    endloop
  endfacet
  facet normal -0.58776 0.809035 0
    outer loop
      vertex 27.0361 -28.2084 18
      vertex 27.4222 -27.9279 1.2
      vertex 27.0361 -28.2084 1.2
    endloop
  endfacet
  facet normal -0.48183 0.876265 0
    outer loop
      vertex 27.0361 -28.2084 1.2
      vertex 26.618 -28.4383 18
      vertex 27.0361 -28.2084 18
    endloop
  endfacet
  facet normal -0.48183 0.876265 0
    outer loop
      vertex 26.618 -28.4383 18
      vertex 27.0361 -28.2084 1.2
      vertex 26.618 -28.4383 1.2
    endloop
  endfacet
  facet normal -0.248693 0.968582 0
    outer loop
      vertex 26.1743 -28.614 1.2
      vertex 25.712 -28.7327 18
      vertex 26.1743 -28.614 18
    endloop
  endfacet
  facet normal -0.248693 0.968582 0
    outer loop
      vertex 25.712 -28.7327 18
      vertex 26.1743 -28.614 1.2
      vertex 25.712 -28.7327 1.2
    endloop
  endfacet
  facet normal -0.770501 -0.637439 0
    outer loop
      vertex 28.0743 27.2336 1.2
      vertex 27.7701 27.6013 18
      vertex 27.7701 27.6013 1.2
    endloop
  endfacet
  facet normal -0.770501 -0.637439 0
    outer loop
      vertex 27.7701 27.6013 18
      vertex 28.0743 27.2336 1.2
      vertex 28.0743 27.2336 18
    endloop
  endfacet
  facet normal -0.248693 -0.968582 0
    outer loop
      vertex 25.712 28.7327 1.2
      vertex 26.1743 28.614 18
      vertex 25.712 28.7327 18
    endloop
  endfacet
  facet normal -0.248693 -0.968582 -0
    outer loop
      vertex 26.1743 28.614 18
      vertex 25.712 28.7327 1.2
      vertex 26.1743 28.614 1.2
    endloop
  endfacet
  facet normal -0.951045 0.309053 0
    outer loop
      vertex 28.5331 -26.3989 1.2
      vertex 28.6806 -25.945 18
      vertex 28.6806 -25.945 1.2
    endloop
  endfacet
  facet normal -0.951045 0.309053 0
    outer loop
      vertex 28.6806 -25.945 18
      vertex 28.5331 -26.3989 1.2
      vertex 28.5331 -26.3989 18
    endloop
  endfacet
  facet normal -1 0 0
    outer loop
      vertex -30 -25 1.2
      vertex -30 25 18
      vertex -30 25 1.2
    endloop
  endfacet
  facet normal -1 -0 0
    outer loop
      vertex -30 25 18
      vertex -30 -25 1.2
      vertex -30 -25 18
    endloop
  endfacet
  facet normal 1 -0 0
    outer loop
      vertex 30 -25 18
      vertex 30 25 1.2
      vertex 30 25 18
    endloop
  endfacet
  facet normal 1 0 0
    outer loop
      vertex 30 25 1.2
      vertex 30 -25 18
      vertex 30 -25 1.2
    endloop
  endfacet
  facet normal 0.99803 0.0627451 0
    outer loop
      vertex 30 25 18
      vertex 29.9606 25.6267 1.2
      vertex 29.9606 25.6267 18
    endloop
  endfacet
  facet normal 0.99803 0.0627451 0
    outer loop
      vertex 29.9606 25.6267 1.2
      vertex 30 25 18
      vertex 30 25 1.2
    endloop
  endfacet
  facet normal 0.368203 0.929745 -0
    outer loop
      vertex 27.1289 29.5241 1.2
      vertex 26.5451 29.7553 18
      vertex 27.1289 29.5241 18
    endloop
  endfacet
  facet normal 0.368203 0.929745 0
    outer loop
      vertex 26.5451 29.7553 18
      vertex 27.1289 29.5241 1.2
      vertex 26.5451 29.7553 1.2
    endloop
  endfacet
  facet normal -0.770462 0.637486 0
    outer loop
      vertex -29.0451 27.9389 1.2
      vertex -28.6448 28.4227 18
      vertex -28.6448 28.4227 1.2
    endloop
  endfacet
  facet normal -0.770462 0.637486 0
    outer loop
      vertex -28.6448 28.4227 18
      vertex -29.0451 27.9389 1.2
      vertex -29.0451 27.9389 18
    endloop
  endfacet
  facet normal 0 -1 0
    outer loop
      vertex -25.314 -29.9901 1.2
      vertex 25.314 -29.9901 18
      vertex -25.314 -29.9901 18
    endloop
  endfacet
  facet normal 0 -1 -0
    outer loop
      vertex 25.314 -29.9901 18
      vertex -25.314 -29.9901 1.2
      vertex 25.314 -29.9901 1.2
    endloop
  endfacet
  facet normal -0.684624 -0.728896 0
    outer loop
      vertex -28.6448 -28.4227 1.2
      vertex -28.1871 -28.8526 18
      vertex -28.6448 -28.4227 18
    endloop
  endfacet
  facet normal -0.684624 -0.728896 -0
    outer loop
      vertex -28.1871 -28.8526 18
      vertex -28.6448 -28.4227 1.2
      vertex -28.1871 -28.8526 1.2
    endloop
  endfacet
  facet normal 0.982276 -0.187441 0
    outer loop
      vertex 29.8429 -26.2435 18
      vertex 29.9606 -25.6267 1.2
      vertex 29.9606 -25.6267 18
    endloop
  endfacet
  facet normal 0.982276 -0.187441 0
    outer loop
      vertex 29.9606 -25.6267 1.2
      vertex 29.8429 -26.2435 18
      vertex 29.8429 -26.2435 1.2
    endloop
  endfacet
  facet normal 0.248601 0.968606 -0
    outer loop
      vertex 26.5451 29.7553 1.2
      vertex 25.9369 29.9114 18
      vertex 26.5451 29.7553 18
    endloop
  endfacet
  facet normal 0.248601 0.968606 0
    outer loop
      vertex 25.9369 29.9114 18
      vertex 26.5451 29.7553 1.2
      vertex 25.9369 29.9114 1.2
    endloop
  endfacet
  facet normal 0 1 -0
    outer loop
      vertex 25.314 29.9901 1.2
      vertex -25.314 29.9901 18
      vertex 25.314 29.9901 18
    endloop
  endfacet
  facet normal 0 1 0
    outer loop
      vertex -25.314 29.9901 18
      vertex 25.314 29.9901 1.2
      vertex -25.314 29.9901 1.2
    endloop
  endfacet
  facet normal -0.951061 -0.309003 0
    outer loop
      vertex -29.6489 -26.8406 1.2
      vertex -29.8429 -26.2435 18
      vertex -29.8429 -26.2435 1.2
    endloop
  endfacet
  facet normal -0.951061 -0.309003 0
    outer loop
      vertex -29.8429 -26.2435 18
      vertex -29.6489 -26.8406 1.2
      vertex -29.6489 -26.8406 18
    endloop
  endfacet
  facet normal -0.368203 -0.929745 0
    outer loop
      vertex -27.1289 -29.5241 1.2
      vertex -26.5451 -29.7553 18
      vertex -27.1289 -29.5241 18
    endloop
  endfacet
  facet normal -0.368203 -0.929745 -0
    outer loop
      vertex -26.5451 -29.7553 18
      vertex -27.1289 -29.5241 1.2
      vertex -26.5451 -29.7553 1.2
    endloop
  endfacet
  facet normal -0.481784 -0.87629 0
    outer loop
      vertex -27.6791 -29.2216 1.2
      vertex -27.1289 -29.5241 18
      vertex -27.6791 -29.2216 18
    endloop
  endfacet
  facet normal -0.481784 -0.87629 -0
    outer loop
      vertex -27.1289 -29.5241 18
      vertex -27.6791 -29.2216 1.2
      vertex -27.1289 -29.5241 1.2
    endloop
  endfacet
  facet normal 0.125348 -0.992113 0
    outer loop
      vertex 25.314 -29.9901 1.2
      vertex 25.9369 -29.9114 18
      vertex 25.314 -29.9901 18
    endloop
  endfacet
  facet normal 0.125348 -0.992113 0
    outer loop
      vertex 25.9369 -29.9114 18
      vertex 25.314 -29.9901 1.2
      vertex 25.9369 -29.9114 1.2
    endloop
  endfacet
  facet normal 0.951061 -0.309003 0
    outer loop
      vertex 29.6489 -26.8406 18
      vertex 29.8429 -26.2435 1.2
      vertex 29.8429 -26.2435 18
    endloop
  endfacet
  facet normal 0.951061 -0.309003 0
    outer loop
      vertex 29.8429 -26.2435 1.2
      vertex 29.6489 -26.8406 18
      vertex 29.6489 -26.8406 1.2
    endloop
  endfacet
  facet normal 0.951061 0.309003 0
    outer loop
      vertex 29.8429 26.2435 18
      vertex 29.6489 26.8406 1.2
      vertex 29.6489 26.8406 18
    endloop
  endfacet
  facet normal 0.951061 0.309003 0
    outer loop
      vertex 29.6489 26.8406 1.2
      vertex 29.8429 26.2435 18
      vertex 29.8429 26.2435 1.2
    endloop
  endfacet
  facet normal 0.770462 0.637486 0
    outer loop
      vertex 29.0451 27.9389 18
      vertex 28.6448 28.4227 1.2
      vertex 28.6448 28.4227 18
    endloop
  endfacet
  facet normal 0.770462 0.637486 0
    outer loop
      vertex 28.6448 28.4227 1.2
      vertex 29.0451 27.9389 18
      vertex 29.0451 27.9389 1.2
    endloop
  endfacet
  facet normal 0.125348 0.992113 -0
    outer loop
      vertex 25.9369 29.9114 1.2
      vertex 25.314 29.9901 18
      vertex 25.9369 29.9114 18
    endloop
  endfacet
  facet normal 0.125348 0.992113 0
    outer loop
      vertex 25.314 29.9901 18
      vertex 25.9369 29.9114 1.2
      vertex 25.314 29.9901 1.2
    endloop
  endfacet
  facet normal -0.587698 0.80908 0
    outer loop
      vertex -27.6791 29.2216 1.2
      vertex -28.1871 28.8526 18
      vertex -27.6791 29.2216 18
    endloop
  endfacet
  facet normal -0.587698 0.80908 0
    outer loop
      vertex -28.1871 28.8526 18
      vertex -27.6791 29.2216 1.2
      vertex -28.1871 28.8526 1.2
    endloop
  endfacet
  facet normal -0.368203 0.929745 0
    outer loop
      vertex -26.5451 29.7553 1.2
      vertex -27.1289 29.5241 18
      vertex -26.5451 29.7553 18
    endloop
  endfacet
  facet normal -0.368203 0.929745 0
    outer loop
      vertex -27.1289 29.5241 18
      vertex -26.5451 29.7553 1.2
      vertex -27.1289 29.5241 1.2
    endloop
  endfacet
  facet normal -0.99803 0.0627451 0
    outer loop
      vertex -30 25 1.2
      vertex -29.9606 25.6267 18
      vertex -29.9606 25.6267 1.2
    endloop
  endfacet
  facet normal -0.99803 0.0627451 0
    outer loop
      vertex -29.9606 25.6267 18
      vertex -30 25 1.2
      vertex -30 25 18
    endloop
  endfacet
  facet normal -0.951061 0.309003 0
    outer loop
      vertex -29.8429 26.2435 1.2
      vertex -29.6489 26.8406 18
      vertex -29.6489 26.8406 1.2
    endloop
  endfacet
  facet normal -0.951061 0.309003 0
    outer loop
      vertex -29.6489 26.8406 18
      vertex -29.8429 26.2435 1.2
      vertex -29.8429 26.2435 18
    endloop
  endfacet
  facet normal -0.99803 -0.0627451 0
    outer loop
      vertex -29.9606 -25.6267 1.2
      vertex -30 -25 18
      vertex -30 -25 1.2
    endloop
  endfacet
  facet normal -0.99803 -0.0627451 0
    outer loop
      vertex -30 -25 18
      vertex -29.9606 -25.6267 1.2
      vertex -29.9606 -25.6267 18
    endloop
  endfacet
  facet normal -0.770462 -0.637486 0
    outer loop
      vertex -28.6448 -28.4227 1.2
      vertex -29.0451 -27.9389 18
      vertex -29.0451 -27.9389 1.2
    endloop
  endfacet
  facet normal -0.770462 -0.637486 0
    outer loop
      vertex -29.0451 -27.9389 18
      vertex -28.6448 -28.4227 1.2
      vertex -28.6448 -28.4227 18
    endloop
  endfacet
  facet normal -0.904811 -0.425812 0
    outer loop
      vertex -29.3815 -27.4088 1.2
      vertex -29.6489 -26.8406 18
      vertex -29.6489 -26.8406 1.2
    endloop
  endfacet
  facet normal -0.904811 -0.425812 0
    outer loop
      vertex -29.6489 -26.8406 18
      vertex -29.3815 -27.4088 1.2
      vertex -29.3815 -27.4088 18
    endloop
  endfacet
  facet normal -0.587698 -0.80908 0
    outer loop
      vertex -28.1871 -28.8526 1.2
      vertex -27.6791 -29.2216 18
      vertex -28.1871 -28.8526 18
    endloop
  endfacet
  facet normal -0.587698 -0.80908 -0
    outer loop
      vertex -27.6791 -29.2216 18
      vertex -28.1871 -28.8526 1.2
      vertex -27.6791 -29.2216 1.2
    endloop
  endfacet
  facet normal -0.248601 -0.968606 0
    outer loop
      vertex -26.5451 -29.7553 1.2
      vertex -25.9369 -29.9114 18
      vertex -26.5451 -29.7553 18
    endloop
  endfacet
  facet normal -0.248601 -0.968606 -0
    outer loop
      vertex -25.9369 -29.9114 18
      vertex -26.5451 -29.7553 1.2
      vertex -25.9369 -29.9114 1.2
    endloop
  endfacet
  facet normal 0.248601 -0.968606 0
    outer loop
      vertex 25.9369 -29.9114 1.2
      vertex 26.5451 -29.7553 18
      vertex 25.9369 -29.9114 18
    endloop
  endfacet
  facet normal 0.248601 -0.968606 0
    outer loop
      vertex 26.5451 -29.7553 18
      vertex 25.9369 -29.9114 1.2
      vertex 26.5451 -29.7553 1.2
    endloop
  endfacet
  facet normal 0.904811 -0.425812 0
    outer loop
      vertex 29.3815 -27.4088 18
      vertex 29.6489 -26.8406 1.2
      vertex 29.6489 -26.8406 18
    endloop
  endfacet
  facet normal 0.904811 -0.425812 0
    outer loop
      vertex 29.6489 -26.8406 1.2
      vertex 29.3815 -27.4088 18
      vertex 29.3815 -27.4088 1.2
    endloop
  endfacet
  facet normal 0.982276 0.187441 0
    outer loop
      vertex 29.9606 25.6267 18
      vertex 29.8429 26.2435 1.2
      vertex 29.8429 26.2435 18
    endloop
  endfacet
  facet normal 0.982276 0.187441 0
    outer loop
      vertex 29.8429 26.2435 1.2
      vertex 29.9606 25.6267 18
      vertex 29.9606 25.6267 1.2
    endloop
  endfacet
  facet normal 0.844336 0.535814 0
    outer loop
      vertex 29.3815 27.4088 18
      vertex 29.0451 27.9389 1.2
      vertex 29.0451 27.9389 18
    endloop
  endfacet
  facet normal 0.844336 0.535814 0
    outer loop
      vertex 29.0451 27.9389 1.2
      vertex 29.3815 27.4088 18
      vertex 29.3815 27.4088 1.2
    endloop
  endfacet
  facet normal 0.904811 0.425812 0
    outer loop
      vertex 29.6489 26.8406 18
      vertex 29.3815 27.4088 1.2
      vertex 29.3815 27.4088 18
    endloop
  endfacet
  facet normal 0.904811 0.425812 0
    outer loop
      vertex 29.3815 27.4088 1.2
      vertex 29.6489 26.8406 18
      vertex 29.6489 26.8406 1.2
    endloop
  endfacet
  facet normal 0.481784 0.87629 -0
    outer loop
      vertex 27.6791 29.2216 1.2
      vertex 27.1289 29.5241 18
      vertex 27.6791 29.2216 18
    endloop
  endfacet
  facet normal 0.481784 0.87629 0
    outer loop
      vertex 27.1289 29.5241 18
      vertex 27.6791 29.2216 1.2
      vertex 27.1289 29.5241 1.2
    endloop
  endfacet
  facet normal 0.684624 0.728896 -0
    outer loop
      vertex 28.6448 28.4227 1.2
      vertex 28.1871 28.8526 18
      vertex 28.6448 28.4227 18
    endloop
  endfacet
  facet normal 0.684624 0.728896 0
    outer loop
      vertex 28.1871 28.8526 18
      vertex 28.6448 28.4227 1.2
      vertex 28.1871 28.8526 1.2
    endloop
  endfacet
  facet normal -0.684624 0.728896 0
    outer loop
      vertex -28.1871 28.8526 1.2
      vertex -28.6448 28.4227 18
      vertex -28.1871 28.8526 18
    endloop
  endfacet
  facet normal -0.684624 0.728896 0
    outer loop
      vertex -28.6448 28.4227 18
      vertex -28.1871 28.8526 1.2
      vertex -28.6448 28.4227 1.2
    endloop
  endfacet
  facet normal -0.481784 0.87629 0
    outer loop
      vertex -27.1289 29.5241 1.2
      vertex -27.6791 29.2216 18
      vertex -27.1289 29.5241 18
    endloop
  endfacet
  facet normal -0.481784 0.87629 0
    outer loop
      vertex -27.6791 29.2216 18
      vertex -27.1289 29.5241 1.2
      vertex -27.6791 29.2216 1.2
    endloop
  endfacet
  facet normal -0.982276 0.187441 0
    outer loop
      vertex -29.9606 25.6267 1.2
      vertex -29.8429 26.2435 18
      vertex -29.8429 26.2435 1.2
    endloop
  endfacet
  facet normal -0.982276 0.187441 0
    outer loop
      vertex -29.8429 26.2435 18
      vertex -29.9606 25.6267 1.2
      vertex -29.9606 25.6267 18
    endloop
  endfacet
  facet normal -0.982276 -0.187441 0
    outer loop
      vertex -29.8429 -26.2435 1.2
      vertex -29.9606 -25.6267 18
      vertex -29.9606 -25.6267 1.2
    endloop
  endfacet
  facet normal -0.982276 -0.187441 0
    outer loop
      vertex -29.9606 -25.6267 18
      vertex -29.8429 -26.2435 1.2
      vertex -29.8429 -26.2435 18
    endloop
  endfacet
  facet normal -0.844336 -0.535814 0
    outer loop
      vertex -29.0451 -27.9389 1.2
      vertex -29.3815 -27.4088 18
      vertex -29.3815 -27.4088 1.2
    endloop
  endfacet
  facet normal -0.844336 -0.535814 0
    outer loop
      vertex -29.3815 -27.4088 18
      vertex -29.0451 -27.9389 1.2
      vertex -29.0451 -27.9389 18
    endloop
  endfacet
  facet normal -0.125348 -0.992113 0
    outer loop
      vertex -25.9369 -29.9114 1.2
      vertex -25.314 -29.9901 18
      vertex -25.9369 -29.9114 18
    endloop
  endfacet
  facet normal -0.125348 -0.992113 -0
    outer loop
      vertex -25.314 -29.9901 18
      vertex -25.9369 -29.9114 1.2
      vertex -25.314 -29.9901 1.2
    endloop
  endfacet
  facet normal 0.770462 -0.637486 0
    outer loop
      vertex 28.6448 -28.4227 18
      vertex 29.0451 -27.9389 1.2
      vertex 29.0451 -27.9389 18
    endloop
  endfacet
  facet normal 0.770462 -0.637486 0
    outer loop
      vertex 29.0451 -27.9389 1.2
      vertex 28.6448 -28.4227 18
      vertex 28.6448 -28.4227 1.2
    endloop
  endfacet
  facet normal 0.844336 -0.535814 0
    outer loop
      vertex 29.0451 -27.9389 18
      vertex 29.3815 -27.4088 1.2
      vertex 29.3815 -27.4088 18
    endloop
  endfacet
  facet normal 0.844336 -0.535814 0
    outer loop
      vertex 29.3815 -27.4088 1.2
      vertex 29.0451 -27.9389 18
      vertex 29.0451 -27.9389 1.2
    endloop
  endfacet
  facet normal 0.587698 0.80908 -0
    outer loop
      vertex 28.1871 28.8526 1.2
      vertex 27.6791 29.2216 18
      vertex 28.1871 28.8526 18
    endloop
  endfacet
  facet normal 0.587698 0.80908 0
    outer loop
      vertex 27.6791 29.2216 18
      vertex 28.1871 28.8526 1.2
      vertex 27.6791 29.2216 1.2
    endloop
  endfacet
  facet normal -0.248601 0.968606 0
    outer loop
      vertex -25.9369 29.9114 1.2
      vertex -26.5451 29.7553 18
      vertex -25.9369 29.9114 18
    endloop
  endfacet
  facet normal -0.248601 0.968606 0
    outer loop
      vertex -26.5451 29.7553 18
      vertex -25.9369 29.9114 1.2
      vertex -26.5451 29.7553 1.2
    endloop
  endfacet
  facet normal -0.125348 0.992113 0
    outer loop
      vertex -25.314 29.9901 1.2
      vertex -25.9369 29.9114 18
      vertex -25.314 29.9901 18
    endloop
  endfacet
  facet normal -0.125348 0.992113 0
    outer loop
      vertex -25.9369 29.9114 18
      vertex -25.314 29.9901 1.2
      vertex -25.9369 29.9114 1.2
    endloop
  endfacet
  facet normal -0.904811 0.425812 0
    outer loop
      vertex -29.6489 26.8406 1.2
      vertex -29.3815 27.4088 18
      vertex -29.3815 27.4088 1.2
    endloop
  endfacet
  facet normal -0.904811 0.425812 0
    outer loop
      vertex -29.3815 27.4088 18
      vertex -29.6489 26.8406 1.2
      vertex -29.6489 26.8406 18
    endloop
  endfacet
  facet normal -0.844336 0.535814 0
    outer loop
      vertex -29.3815 27.4088 1.2
      vertex -29.0451 27.9389 18
      vertex -29.0451 27.9389 1.2
    endloop
  endfacet
  facet normal -0.844336 0.535814 0
    outer loop
      vertex -29.0451 27.9389 18
      vertex -29.3815 27.4088 1.2
      vertex -29.3815 27.4088 18
    endloop
  endfacet
  facet normal 0.684624 -0.728896 0
    outer loop
      vertex 28.1871 -28.8526 1.2
      vertex 28.6448 -28.4227 18
      vertex 28.1871 -28.8526 18
    endloop
  endfacet
  facet normal 0.684624 -0.728896 0
    outer loop
      vertex 28.6448 -28.4227 18
      vertex 28.1871 -28.8526 1.2
      vertex 28.6448 -28.4227 1.2
    endloop
  endfacet
  facet normal 0.99803 -0.0627451 0
    outer loop
      vertex 29.9606 -25.6267 18
      vertex 30 -25 1.2
      vertex 30 -25 18
    endloop
  endfacet
  facet normal 0.99803 -0.0627451 0
    outer loop
      vertex 30 -25 1.2
      vertex 29.9606 -25.6267 18
      vertex 29.9606 -25.6267 1.2
    endloop
  endfacet
  facet normal 0.368203 -0.929745 0
    outer loop
      vertex 26.5451 -29.7553 1.2
      vertex 27.1289 -29.5241 18
      vertex 26.5451 -29.7553 18
    endloop
  endfacet
  facet normal 0.368203 -0.929745 0
    outer loop
      vertex 27.1289 -29.5241 18
      vertex 26.5451 -29.7553 1.2
      vertex 27.1289 -29.5241 1.2
    endloop
  endfacet
  facet normal 0.481784 -0.87629 0
    outer loop
      vertex 27.1289 -29.5241 1.2
      vertex 27.6791 -29.2216 18
      vertex 27.1289 -29.5241 18
    endloop
  endfacet
  facet normal 0.481784 -0.87629 0
    outer loop
      vertex 27.6791 -29.2216 18
      vertex 27.1289 -29.5241 1.2
      vertex 27.6791 -29.2216 1.2
    endloop
  endfacet
  facet normal 0.587698 -0.80908 0
    outer loop
      vertex 27.6791 -29.2216 1.2
      vertex 28.1871 -28.8526 18
      vertex 27.6791 -29.2216 18
    endloop
  endfacet
  facet normal 0.587698 -0.80908 0
    outer loop
      vertex 28.1871 -28.8526 18
      vertex 27.6791 -29.2216 1.2
      vertex 28.1871 -28.8526 1.2
    endloop
  endfacet
endsolid OpenSCAD_Model
